M48
; DRILL file {KiCad 5.1.7-a382d34a8~88~ubuntu20.04.1} date Tue Mar  9 09:01:21 2021
; FORMAT={-:-/ absolute / inch / decimal}
; #@! TF.CreationDate,2021-03-09T09:01:21+01:00
; #@! TF.GenerationSoftware,Kicad,Pcbnew,5.1.7-a382d34a8~88~ubuntu20.04.1
; #@! TF.FileFunction,Plated,1,2,PTH
FMAT,2
INCH
T1C0.0157
T2C0.0197
T3C0.0236
T4C0.0276
T5C0.0300
T6C0.0315
T7C0.0394
T8C0.0400
T9C0.0433
T10C0.0591
T11C0.0984
T12C0.1693
%
G90
G05
T1
X2.695Y-7.6
X2.695Y-8.66
X2.7025Y-6.8075
X2.7025Y-7.8675
X3.845Y-8.725
X3.8525Y-7.9325
X4.26Y-8.73
X4.2675Y-7.9375
X4.5Y-9.77
X4.505Y-9.12
X4.505Y-9.335
X4.505Y-9.555
X4.685Y-8.725
X4.6925Y-7.9325
X5.085Y-8.725
X5.0925Y-7.9325
X5.63Y-8.85
X5.645Y-8.59
T2
X2.9962Y-10.055
X3.0178Y-10.0028
X3.0178Y-10.1072
X3.07Y-9.9812
X3.07Y-10.1288
X3.1222Y-10.0028
X3.1222Y-10.1072
X3.1438Y-10.055
X5.8512Y-10.055
X5.8728Y-10.0028
X5.8728Y-10.1072
X5.925Y-9.9812
X5.925Y-10.1288
X5.9772Y-10.0028
X5.9772Y-10.1072
X5.9988Y-10.055
X3.4062Y-9.04
X3.4278Y-8.9878
X3.4278Y-9.0922
X3.48Y-8.9662
X3.48Y-9.1138
X3.5322Y-8.9878
X3.5322Y-9.0922
X3.5538Y-9.04
X4.7962Y-10.065
X4.8178Y-10.0128
X4.8178Y-10.1172
X4.87Y-9.9912
X4.87Y-10.1388
X4.9222Y-10.0128
X4.9222Y-10.1172
X4.9438Y-10.065
X1.3812Y-9.725
X1.4028Y-9.6728
X1.4028Y-9.7772
X1.455Y-9.6512
X1.455Y-9.7988
X1.5072Y-9.6728
X1.5072Y-9.7772
X1.5288Y-9.725
X5.9312Y-9.145
X5.9528Y-9.0928
X5.9528Y-9.1972
X6.005Y-9.0712
X6.005Y-9.2188
X6.0572Y-9.0928
X6.0572Y-9.1972
X6.0788Y-9.145
X1.9412Y-10.065
X1.9628Y-10.0128
X1.9628Y-10.1172
X2.015Y-9.9912
X2.015Y-10.1388
X2.0672Y-10.0128
X2.0672Y-10.1172
X2.0888Y-10.065
X5.3412Y-9.145
X5.3628Y-9.0928
X5.3628Y-9.1972
X5.415Y-9.0712
X5.415Y-9.2188
X5.4672Y-9.0928
X5.4672Y-9.1972
X5.4888Y-9.145
X2.0962Y-9.04
X2.1178Y-8.9878
X2.1178Y-9.0922
X2.17Y-8.9662
X2.17Y-9.1138
X2.2222Y-8.9878
X2.2222Y-9.0922
X2.2438Y-9.04
X2.8112Y-9.04
X2.8328Y-8.9878
X2.8328Y-9.0922
X2.885Y-8.9662
X2.885Y-9.1138
X2.9372Y-8.9878
X2.9372Y-9.0922
X2.9588Y-9.04
X1.4262Y-8.845
X1.4478Y-8.7928
X1.4478Y-8.8972
X1.5Y-8.7712
X1.5Y-8.9188
X1.5522Y-8.7928
X1.5522Y-8.8972
X1.5738Y-8.845
X3.4062Y-9.755
X3.4278Y-9.7028
X3.4278Y-9.8072
X3.48Y-9.6812
X3.48Y-9.8288
X3.5322Y-9.7028
X3.5322Y-9.8072
X3.5538Y-9.755
X2.0962Y-9.755
X2.1178Y-9.7028
X2.1178Y-9.8072
X2.17Y-9.6812
X2.17Y-9.8288
X2.2222Y-9.7028
X2.2222Y-9.8072
X2.2438Y-9.755
X2.9962Y-10.89
X3.0178Y-10.8378
X3.0178Y-10.9422
X3.07Y-10.8162
X3.07Y-10.9638
X3.1222Y-10.8378
X3.1222Y-10.9422
X3.1438Y-10.89
X3.9412Y-9.755
X3.9628Y-9.7028
X3.9628Y-9.8072
X4.015Y-9.6812
X4.015Y-9.8288
X4.0672Y-9.7028
X4.0672Y-9.8072
X4.0888Y-9.755
X1.9412Y-10.9
X1.9628Y-10.8478
X1.9628Y-10.9522
X2.015Y-10.8262
X2.015Y-10.9738
X2.0672Y-10.8478
X2.0672Y-10.9522
X2.0888Y-10.9
X1.4512Y-10.725
X1.4728Y-10.6728
X1.4728Y-10.7772
X1.525Y-10.6512
X1.525Y-10.7988
X1.5772Y-10.6728
X1.5772Y-10.7772
X1.5988Y-10.725
X3.3662Y-10.065
X3.3878Y-10.0128
X3.3878Y-10.1172
X3.44Y-9.9912
X3.44Y-10.1388
X3.4922Y-10.0128
X3.4922Y-10.1172
X3.5138Y-10.065
X1.3812Y-10.44
X1.4028Y-10.3878
X1.4028Y-10.4922
X1.455Y-10.3662
X1.455Y-10.5138
X1.5072Y-10.3878
X1.5072Y-10.4922
X1.5288Y-10.44
X1.4512Y-11.44
X1.4728Y-11.3878
X1.4728Y-11.4922
X1.525Y-11.3662
X1.525Y-11.5138
X1.5772Y-11.3878
X1.5772Y-11.4922
X1.5988Y-11.44
X4.4212Y-10.885
X4.4428Y-10.8328
X4.4428Y-10.9372
X4.495Y-10.8112
X4.495Y-10.9588
X4.5472Y-10.8328
X4.5472Y-10.9372
X4.5688Y-10.885
X4.4212Y-10.055
X4.4428Y-10.0028
X4.4428Y-10.1072
X4.495Y-9.9812
X4.495Y-10.1288
X4.5472Y-10.0028
X4.5472Y-10.1072
X4.5688Y-10.055
X5.3412Y-9.73
X5.3628Y-9.6778
X5.3628Y-9.7822
X5.415Y-9.6562
X5.415Y-9.8038
X5.4672Y-9.6778
X5.4672Y-9.7822
X5.4888Y-9.73
X1.4262Y-9.43
X1.4478Y-9.3778
X1.4478Y-9.4822
X1.5Y-9.3562
X1.5Y-9.5038
X1.5522Y-9.3778
X1.5522Y-9.4822
X1.5738Y-9.43
X5.9312Y-9.73
X5.9528Y-9.6778
X5.9528Y-9.7822
X6.005Y-9.6562
X6.005Y-9.8038
X6.0572Y-9.6778
X6.0572Y-9.7822
X6.0788Y-9.73
X3.3662Y-10.895
X3.3878Y-10.8428
X3.3878Y-10.9472
X3.44Y-10.8212
X3.44Y-10.9688
X3.4922Y-10.8428
X3.4922Y-10.9472
X3.5138Y-10.895
X5.8462Y-10.89
X5.8678Y-10.8378
X5.8678Y-10.9422
X5.92Y-10.8162
X5.92Y-10.9638
X5.9722Y-10.8378
X5.9722Y-10.9422
X5.9938Y-10.89
X4.7912Y-10.9
X4.8128Y-10.8478
X4.8128Y-10.9522
X4.865Y-10.8262
X4.865Y-10.9738
X4.9172Y-10.8478
X4.9172Y-10.9522
X4.9388Y-10.9
X3.9412Y-9.04
X3.9628Y-8.9878
X3.9628Y-9.0922
X4.015Y-8.9662
X4.015Y-9.1138
X4.0672Y-8.9878
X4.0672Y-9.0922
X4.0888Y-9.04
X2.8112Y-9.755
X2.8328Y-9.7028
X2.8328Y-9.8072
X2.885Y-9.6812
X2.885Y-9.8288
X2.9372Y-9.7028
X2.9372Y-9.8072
X2.9588Y-9.755
T3
X5.028Y-15.01
X5.0652Y-14.9202
X5.0652Y-15.0998
X5.155Y-14.883
X5.155Y-15.137
X5.2448Y-14.9202
X5.2448Y-15.0998
X5.282Y-15.01
X1.438Y-15.015
X1.4752Y-14.9252
X1.4752Y-15.1048
X1.565Y-14.888
X1.565Y-15.142
X1.6548Y-14.9252
X1.6548Y-15.1048
X1.692Y-15.015
X1.433Y-11.89
X1.4702Y-11.8002
X1.4702Y-11.9798
X1.56Y-11.763
X1.56Y-12.017
X1.6498Y-11.8002
X1.6498Y-11.9798
X1.687Y-11.89
X5.033Y-11.89
X5.0702Y-11.8002
X5.0702Y-11.9798
X5.16Y-11.763
X5.16Y-12.017
X5.2498Y-11.8002
X5.2498Y-11.9798
X5.287Y-11.89
T4
X3.83Y-14.63
X3.83Y-14.93
X4.33Y-14.63
X4.33Y-14.93
X1.74Y-14.495
X1.74Y-14.795
X3.93Y-14.63
X3.93Y-14.93
X3.73Y-14.23
X3.73Y-14.53
X4.13Y-14.63
X4.13Y-14.93
X3.83Y-14.23
X3.83Y-14.53
X4.23Y-14.63
X4.23Y-14.93
X3.53Y-14.23
X3.53Y-14.53
X3.63Y-14.23
X3.63Y-14.53
X4.03Y-14.63
X4.03Y-14.93
T5
X3.13Y-14.1
X3.13Y-15.08
X3.23Y-14.1
X3.23Y-15.08
X3.33Y-14.1
X3.33Y-15.08
X3.43Y-14.1
X3.43Y-15.08
X3.53Y-14.1
X3.53Y-15.08
X3.63Y-14.1
X3.63Y-15.08
X3.73Y-14.1
X3.73Y-15.08
X3.83Y-14.1
X3.83Y-15.08
X3.93Y-14.1
X3.93Y-15.08
X4.03Y-14.1
X4.03Y-15.08
X4.13Y-14.1
X4.13Y-15.08
X4.23Y-14.1
X4.23Y-15.08
X4.33Y-14.1
X4.33Y-15.08
X4.43Y-14.1
X4.43Y-15.08
X4.43Y-15.08
X4.53Y-14.1
X4.53Y-15.08
T6
X2.41Y-14.41
X2.41Y-14.5084
X2.65Y-14.4116
X2.65Y-14.51
T7
X2.42Y-14.14
X2.52Y-14.14
X2.62Y-14.14
T8
X3.51Y-10.335
X3.51Y-10.526
X3.61Y-10.335
X3.61Y-10.526
X3.71Y-10.335
X3.71Y-10.526
X3.81Y-10.335
X3.81Y-10.526
X3.91Y-10.335
X3.91Y-10.526
X4.01Y-10.335
X4.01Y-10.526
X4.11Y-10.335
X4.11Y-10.526
X4.21Y-10.335
X4.21Y-10.526
X4.31Y-10.335
X4.31Y-10.526
X4.41Y-10.335
X4.41Y-10.526
X2.095Y-11.184
X2.095Y-11.375
X2.195Y-11.184
X2.195Y-11.375
X2.295Y-11.184
X2.295Y-11.375
X2.395Y-11.184
X2.395Y-11.375
X2.495Y-11.184
X2.495Y-11.375
X2.595Y-11.184
X2.595Y-11.375
X2.695Y-11.184
X2.695Y-11.375
X2.795Y-11.184
X2.795Y-11.375
X2.895Y-11.184
X2.895Y-11.375
X2.995Y-11.184
X2.995Y-11.375
X4.94Y-10.335
X4.94Y-10.526
X5.04Y-10.335
X5.04Y-10.526
X5.14Y-10.335
X5.14Y-10.526
X5.24Y-10.335
X5.24Y-10.526
X5.34Y-10.335
X5.34Y-10.526
X5.44Y-10.335
X5.44Y-10.526
X5.54Y-10.335
X5.54Y-10.526
X5.64Y-10.335
X5.64Y-10.526
X5.74Y-10.335
X5.74Y-10.526
X5.84Y-10.335
X5.84Y-10.526
X4.935Y-11.17
X4.935Y-11.361
X5.035Y-11.17
X5.035Y-11.361
X5.135Y-11.17
X5.135Y-11.361
X5.235Y-11.17
X5.235Y-11.361
X5.335Y-11.17
X5.335Y-11.361
X5.435Y-11.17
X5.435Y-11.361
X5.535Y-11.17
X5.535Y-11.361
X5.635Y-11.17
X5.635Y-11.361
X5.735Y-11.17
X5.735Y-11.361
X5.835Y-11.17
X5.835Y-11.361
X3.51Y-11.165
X3.51Y-11.356
X3.61Y-11.165
X3.61Y-11.356
X3.71Y-11.165
X3.71Y-11.356
X3.81Y-11.165
X3.81Y-11.356
X3.91Y-11.165
X3.91Y-11.356
X4.01Y-11.165
X4.01Y-11.356
X4.11Y-11.165
X4.11Y-11.356
X4.21Y-11.165
X4.21Y-11.356
X4.31Y-11.165
X4.31Y-11.356
X4.41Y-11.165
X4.41Y-11.356
X2.1Y-10.325
X2.1Y-10.516
X2.2Y-10.325
X2.2Y-10.516
X2.3Y-10.325
X2.3Y-10.516
X2.4Y-10.325
X2.4Y-10.516
X2.5Y-10.325
X2.5Y-10.516
X2.6Y-10.325
X2.6Y-10.516
X2.7Y-10.325
X2.7Y-10.516
X2.8Y-10.325
X2.8Y-10.516
X2.9Y-10.325
X2.9Y-10.516
X3.0Y-10.325
X3.0Y-10.516
T9
X2.3671Y-12.2023
X2.4671Y-12.2023
X2.5671Y-12.2023
X2.54Y-13.09
X2.64Y-13.09
X2.74Y-13.09
X2.1Y-13.09
X2.2Y-13.09
X2.3Y-13.09
X3.4Y-13.09
X3.5Y-13.09
X3.6Y-13.09
X1.9244Y-12.1982
X2.0244Y-12.1982
X2.1244Y-12.1982
X2.97Y-13.09
X3.07Y-13.09
X3.17Y-13.09
X1.8813Y-15.02
X2.1813Y-15.02
X3.84Y-13.09
X3.94Y-13.09
X4.04Y-13.09
X3.71Y-12.2
X3.81Y-12.2
X3.91Y-12.2
X3.26Y-12.2
X3.36Y-12.2
X3.46Y-12.2
X1.945Y-14.774
X2.045Y-14.774
X2.145Y-14.774
X2.8056Y-12.2
X2.9056Y-12.2
X3.0056Y-12.2
T10
X2.52Y-14.6938
X2.52Y-15.058
T11
X4.495Y-10.885
X4.495Y-10.055
X5.415Y-9.73
X1.5Y-9.43
X6.005Y-9.73
X3.44Y-10.895
X5.92Y-10.89
X4.865Y-10.9
X4.015Y-9.04
X2.885Y-9.755
X3.07Y-10.055
X5.925Y-10.055
X3.48Y-9.04
X4.87Y-10.065
X1.455Y-9.725
X6.005Y-9.145
X2.015Y-10.065
X5.415Y-9.145
X2.17Y-9.04
X2.885Y-9.04
X1.5Y-8.845
X3.48Y-9.755
X2.17Y-9.755
X3.07Y-10.89
X4.015Y-9.755
X2.015Y-10.9
X1.525Y-10.725
X3.44Y-10.065
X1.455Y-10.44
X1.525Y-11.44
T12
X5.155Y-15.01
X1.565Y-15.015
X1.56Y-11.89
X5.16Y-11.89
T6
G00X2.331Y-14.9261
M15
G01X2.331Y-14.9733
M16
G05
G00X2.5633Y-14.93
M15
G01X2.4767Y-14.93
M16
G05
G00X2.709Y-14.9261
M15
G01X2.709Y-14.9733
M16
G05
T0
M30
