%TF.GenerationSoftware,KiCad,Pcbnew,5.1.7-a382d34a8~88~ubuntu20.04.1*%
%TF.CreationDate,2021-03-09T09:01:26+01:00*%
%TF.ProjectId,narcise,6e617263-6973-4652-9e6b-696361645f70,rev?*%
%TF.SameCoordinates,Original*%
%TF.FileFunction,Profile,NP*%
%FSLAX46Y46*%
G04 Gerber Fmt 4.6, Leading zero omitted, Abs format (unit mm)*
G04 Created by KiCad (PCBNEW 5.1.7-a382d34a8~88~ubuntu20.04.1) date 2021-03-09 09:01:26*
%MOMM*%
%LPD*%
G01*
G04 APERTURE LIST*
%TA.AperFunction,Profile*%
%ADD10C,0.050000*%
%TD*%
%TA.AperFunction,Profile*%
%ADD11C,0.150000*%
%TD*%
G04 APERTURE END LIST*
D10*
X149733000Y-384556000D02*
X139319000Y-384556000D01*
X149733000Y-297942000D02*
X149733000Y-384556000D01*
X139319000Y-297942000D02*
X149733000Y-297942000D01*
X139319000Y-384556000D02*
X139319000Y-297942000D01*
X125730000Y-198120000D02*
X135255000Y-198120000D01*
X125730000Y-224790000D02*
X125730000Y-198120000D01*
X135255000Y-224790000D02*
X125730000Y-224790000D01*
X135255000Y-198120000D02*
X135255000Y-224790000D01*
X115570000Y-198120000D02*
X125095000Y-198120000D01*
X115570000Y-224790000D02*
X115570000Y-198120000D01*
X125095000Y-224790000D02*
X115570000Y-224790000D01*
X125095000Y-198120000D02*
X125095000Y-224790000D01*
X104775000Y-198247000D02*
X114300000Y-198247000D01*
X104775000Y-224917000D02*
X104775000Y-198247000D01*
X114300000Y-224917000D02*
X104775000Y-224917000D01*
X114300000Y-198247000D02*
X114300000Y-224917000D01*
X94234000Y-198120000D02*
X103759000Y-198120000D01*
X94234000Y-224790000D02*
X94234000Y-198120000D01*
X103759000Y-224790000D02*
X94234000Y-224790000D01*
X103759000Y-198120000D02*
X103759000Y-224790000D01*
X65024000Y-196469000D02*
X74549000Y-196469000D01*
X65024000Y-223139000D02*
X65024000Y-196469000D01*
X74549000Y-223139000D02*
X65024000Y-223139000D01*
X74549000Y-196469000D02*
X74549000Y-223139000D01*
X158623000Y-215773000D02*
X158623000Y-220726000D01*
X158623000Y-220726000D02*
X138557000Y-220726000D01*
X138176000Y-227330000D02*
X138176000Y-222377000D01*
X158242000Y-222377000D02*
X158242000Y-227330000D01*
X138176000Y-222377000D02*
X158242000Y-222377000D01*
X158242000Y-227330000D02*
X138176000Y-227330000D01*
X138557000Y-215773000D02*
X158623000Y-215773000D01*
X138557000Y-220726000D02*
X138557000Y-215773000D01*
X129667000Y-240284000D02*
X129667000Y-245237000D01*
X129667000Y-245237000D02*
X109601000Y-245237000D01*
X109474000Y-250698000D02*
X109474000Y-245745000D01*
X129540000Y-245745000D02*
X129540000Y-250698000D01*
X109474000Y-245745000D02*
X129540000Y-245745000D01*
X129540000Y-250698000D02*
X109474000Y-250698000D01*
X109601000Y-240284000D02*
X129667000Y-240284000D01*
X109601000Y-245237000D02*
X109601000Y-240284000D01*
X109601000Y-234188000D02*
X109601000Y-229235000D01*
X129667000Y-229235000D02*
X129667000Y-234188000D01*
X109601000Y-229235000D02*
X129667000Y-229235000D01*
X129667000Y-234188000D02*
X109601000Y-234188000D01*
X109601000Y-239649000D02*
X109601000Y-234696000D01*
X129667000Y-239649000D02*
X109601000Y-239649000D01*
X129667000Y-234696000D02*
X129667000Y-239649000D01*
X109601000Y-234696000D02*
X129667000Y-234696000D01*
D11*
X52578000Y-196850000D02*
X59563000Y-196850000D01*
X52578000Y-169672000D02*
X64643000Y-169672000D01*
X59563000Y-196850000D02*
X59563000Y-206883000D01*
X52578000Y-169672000D02*
X52578000Y-196850000D01*
X59563000Y-206883000D02*
X64643000Y-206883000D01*
X64643000Y-206883000D02*
X64643000Y-169672000D01*
X81153000Y-197231000D02*
X88138000Y-197231000D01*
X81153000Y-170053000D02*
X93218000Y-170053000D01*
X88138000Y-197231000D02*
X88138000Y-207264000D01*
X81153000Y-170053000D02*
X81153000Y-197231000D01*
X88138000Y-207264000D02*
X93218000Y-207264000D01*
X93218000Y-207264000D02*
X93218000Y-170053000D01*
X87249000Y-197866000D02*
X80264000Y-197866000D01*
X87249000Y-225044000D02*
X75184000Y-225044000D01*
X80264000Y-197866000D02*
X80264000Y-187833000D01*
X87249000Y-225044000D02*
X87249000Y-197866000D01*
X80264000Y-187833000D02*
X75184000Y-187833000D01*
X75184000Y-187833000D02*
X75184000Y-225044000D01*
X51816000Y-197612000D02*
X51816000Y-187579000D01*
X58801000Y-224790000D02*
X46736000Y-224790000D01*
X58801000Y-197612000D02*
X51816000Y-197612000D01*
X46736000Y-187579000D02*
X46736000Y-224790000D01*
X51816000Y-187579000D02*
X46736000Y-187579000D01*
X58801000Y-224790000D02*
X58801000Y-197612000D01*
D10*
X74549000Y-196215000D02*
X65024000Y-196215000D01*
X65024000Y-196215000D02*
X65024000Y-169545000D01*
X74549000Y-169545000D02*
X74549000Y-196215000D01*
X65024000Y-169545000D02*
X74549000Y-169545000D01*
X145415000Y-229235000D02*
X145415000Y-250317000D01*
X159893000Y-250317000D02*
X159893000Y-229235000D01*
X159893000Y-229235000D02*
X145415000Y-229235000D01*
X145415000Y-250317000D02*
X159893000Y-250317000D01*
X30988000Y-242697000D02*
X45466000Y-242697000D01*
X45466000Y-242697000D02*
X45466000Y-221615000D01*
X45466000Y-221615000D02*
X30988000Y-221615000D01*
X30988000Y-221615000D02*
X30988000Y-242697000D01*
X130429000Y-229235000D02*
X130429000Y-250317000D01*
X144907000Y-229235000D02*
X130429000Y-229235000D01*
X144907000Y-250317000D02*
X144907000Y-229235000D01*
X130429000Y-250317000D02*
X144907000Y-250317000D01*
X81915000Y-226187000D02*
X81915000Y-251206000D01*
X64643000Y-250825000D02*
X64643000Y-226187000D01*
X81915000Y-251206000D02*
X64643000Y-251206000D01*
X64643000Y-226187000D02*
X81915000Y-226187000D01*
X64643000Y-251206000D02*
X64643000Y-250825000D01*
X46482000Y-226187000D02*
X63754000Y-226187000D01*
X63754000Y-226187000D02*
X63754000Y-251206000D01*
X46482000Y-250825000D02*
X46482000Y-226187000D01*
X63754000Y-251206000D02*
X46482000Y-251206000D01*
X46482000Y-251206000D02*
X46482000Y-250825000D01*
X28321000Y-268605000D02*
X28321000Y-268224000D01*
X45593000Y-268605000D02*
X28321000Y-268605000D01*
X45593000Y-243586000D02*
X45593000Y-268605000D01*
X28321000Y-243586000D02*
X45593000Y-243586000D01*
X28321000Y-268224000D02*
X28321000Y-243586000D01*
X108839000Y-250825000D02*
X108839000Y-226187000D01*
X96139000Y-250825000D02*
X96139000Y-226187000D01*
X96139000Y-226187000D02*
X108839000Y-226187000D01*
X96139000Y-250825000D02*
X108839000Y-250825000D01*
X95250000Y-250825000D02*
X95250000Y-226187000D01*
X82550000Y-250825000D02*
X82550000Y-226187000D01*
X82550000Y-250825000D02*
X95250000Y-250825000D01*
X82550000Y-226187000D02*
X95250000Y-226187000D01*
X32893000Y-293624000D02*
X32893000Y-268986000D01*
X45593000Y-293624000D02*
X45593000Y-268986000D01*
X32893000Y-293624000D02*
X45593000Y-293624000D01*
X32893000Y-268986000D02*
X45593000Y-268986000D01*
X118872000Y-293624000D02*
X118872000Y-273177000D01*
X118872000Y-273177000D02*
X154305000Y-273177000D01*
X154305000Y-293624000D02*
X118872000Y-293624000D01*
X154305000Y-273177000D02*
X154305000Y-293624000D01*
X118999000Y-251968000D02*
X154432000Y-251968000D01*
X154432000Y-251968000D02*
X154432000Y-272415000D01*
X154432000Y-272415000D02*
X118999000Y-272415000D01*
X118999000Y-272415000D02*
X118999000Y-251968000D01*
X118110000Y-273050000D02*
X118110000Y-293497000D01*
X82677000Y-273050000D02*
X118110000Y-273050000D01*
X118110000Y-293497000D02*
X82677000Y-293497000D01*
X82677000Y-293497000D02*
X82677000Y-273050000D01*
X82677000Y-272415000D02*
X82677000Y-251968000D01*
X118110000Y-272415000D02*
X82677000Y-272415000D01*
X118110000Y-251968000D02*
X118110000Y-272415000D01*
X82677000Y-251968000D02*
X118110000Y-251968000D01*
X46482000Y-251968000D02*
X81915000Y-251968000D01*
X81915000Y-272415000D02*
X46482000Y-272415000D01*
X46482000Y-272415000D02*
X46482000Y-251968000D01*
X81915000Y-251968000D02*
X81915000Y-272415000D01*
X46482000Y-273177000D02*
X81915000Y-273177000D01*
X46482000Y-293624000D02*
X46482000Y-273177000D01*
X81915000Y-293624000D02*
X46482000Y-293624000D01*
X81915000Y-273177000D02*
X81915000Y-293624000D01*
X31750000Y-294513000D02*
X138430000Y-294513000D01*
X31750000Y-388366000D02*
X31750000Y-294513000D01*
X138430000Y-388366000D02*
X31750000Y-388366000D01*
X138430000Y-294513000D02*
X138430000Y-388366000D01*
M02*
