%TF.GenerationSoftware,KiCad,Pcbnew,5.1.7-a382d34a8~88~ubuntu20.04.1*%
%TF.CreationDate,2021-03-09T09:01:26+01:00*%
%TF.ProjectId,narcise,6e617263-6973-4652-9e6b-696361645f70,rev?*%
%TF.SameCoordinates,Original*%
%TF.FileFunction,Copper,L1,Top*%
%TF.FilePolarity,Positive*%
%FSLAX46Y46*%
G04 Gerber Fmt 4.6, Leading zero omitted, Abs format (unit mm)*
G04 Created by KiCad (PCBNEW 5.1.7-a382d34a8~88~ubuntu20.04.1) date 2021-03-09 09:01:26*
%MOMM*%
%LPD*%
G01*
G04 APERTURE LIST*
%TA.AperFunction,ComponentPad*%
%ADD10C,0.800000*%
%TD*%
%TA.AperFunction,ComponentPad*%
%ADD11C,5.000000*%
%TD*%
%TA.AperFunction,ComponentPad*%
%ADD12C,8.600000*%
%TD*%
%TA.AperFunction,ComponentPad*%
%ADD13C,0.900000*%
%TD*%
%TA.AperFunction,SMDPad,CuDef*%
%ADD14R,2.500000X1.400000*%
%TD*%
%TA.AperFunction,SMDPad,CuDef*%
%ADD15R,1.400000X2.500000*%
%TD*%
%TA.AperFunction,SMDPad,CuDef*%
%ADD16R,1.000000X0.400000*%
%TD*%
%TA.AperFunction,SMDPad,CuDef*%
%ADD17R,1.300000X2.000000*%
%TD*%
%TA.AperFunction,ComponentPad*%
%ADD18O,1.400000X1.400000*%
%TD*%
%TA.AperFunction,ComponentPad*%
%ADD19C,1.400000*%
%TD*%
%TA.AperFunction,ComponentPad*%
%ADD20O,1.905000X2.000000*%
%TD*%
%TA.AperFunction,ComponentPad*%
%ADD21R,1.905000X2.000000*%
%TD*%
%TA.AperFunction,SMDPad,CuDef*%
%ADD22R,0.400000X1.000000*%
%TD*%
%TA.AperFunction,SMDPad,CuDef*%
%ADD23R,2.000000X1.300000*%
%TD*%
%TA.AperFunction,ComponentPad*%
%ADD24O,3.500000X2.500000*%
%TD*%
%TA.AperFunction,ComponentPad*%
%ADD25O,2.500000X3.500000*%
%TD*%
%TA.AperFunction,ComponentPad*%
%ADD26C,2.500000*%
%TD*%
%TA.AperFunction,ComponentPad*%
%ADD27C,1.524000*%
%TD*%
%TA.AperFunction,ComponentPad*%
%ADD28R,1.800000X1.800000*%
%TD*%
%TA.AperFunction,ComponentPad*%
%ADD29C,1.800000*%
%TD*%
%TA.AperFunction,ComponentPad*%
%ADD30C,1.600000*%
%TD*%
%TA.AperFunction,ComponentPad*%
%ADD31R,1.524000X1.524000*%
%TD*%
%TA.AperFunction,ComponentPad*%
%ADD32O,2.200000X2.200000*%
%TD*%
%TA.AperFunction,ComponentPad*%
%ADD33R,2.200000X2.200000*%
%TD*%
%TA.AperFunction,ViaPad*%
%ADD34C,0.800000*%
%TD*%
%TA.AperFunction,Conductor*%
%ADD35C,0.750000*%
%TD*%
%TA.AperFunction,Conductor*%
%ADD36C,0.250000*%
%TD*%
%TA.AperFunction,Conductor*%
%ADD37C,0.500000*%
%TD*%
%TA.AperFunction,NonConductor*%
%ADD38C,0.254000*%
%TD*%
%TA.AperFunction,NonConductor*%
%ADD39C,0.100000*%
%TD*%
G04 APERTURE END LIST*
D10*
%TO.P,REF\u002A\u002A,1*%
%TO.N,N/C*%
X153852825Y-245816175D03*
X152527000Y-245267000D03*
X151201175Y-245816175D03*
X150652000Y-247142000D03*
X151201175Y-248467825D03*
X152527000Y-249017000D03*
X153852825Y-248467825D03*
X154402000Y-247142000D03*
D11*
X152527000Y-247142000D03*
%TD*%
%TO.P,REF\u002A\u002A,1*%
%TO.N,N/C*%
X152527000Y-232283000D03*
D10*
X154402000Y-232283000D03*
X153852825Y-233608825D03*
X152527000Y-234158000D03*
X151201175Y-233608825D03*
X150652000Y-232283000D03*
X151201175Y-230957175D03*
X152527000Y-230408000D03*
X153852825Y-230957175D03*
%TD*%
D11*
%TO.P,REF\u002A\u002A,1*%
%TO.N,N/C*%
X38100000Y-239522000D03*
D10*
X39975000Y-239522000D03*
X39425825Y-240847825D03*
X38100000Y-241397000D03*
X36774175Y-240847825D03*
X36225000Y-239522000D03*
X36774175Y-238196175D03*
X38100000Y-237647000D03*
X39425825Y-238196175D03*
%TD*%
%TO.P,REF\u002A\u002A,1*%
%TO.N,N/C*%
X39425825Y-223337175D03*
X38100000Y-222788000D03*
X36774175Y-223337175D03*
X36225000Y-224663000D03*
X36774175Y-225988825D03*
X38100000Y-226538000D03*
X39425825Y-225988825D03*
X39975000Y-224663000D03*
D11*
X38100000Y-224663000D03*
%TD*%
D10*
%TO.P,REF\u002A\u002A,1*%
%TO.N,N/C*%
X138866825Y-245816175D03*
X137541000Y-245267000D03*
X136215175Y-245816175D03*
X135666000Y-247142000D03*
X136215175Y-248467825D03*
X137541000Y-249017000D03*
X138866825Y-248467825D03*
X139416000Y-247142000D03*
D11*
X137541000Y-247142000D03*
%TD*%
%TO.P,REF\u002A\u002A,1*%
%TO.N,N/C*%
X137541000Y-232283000D03*
D10*
X139416000Y-232283000D03*
X138866825Y-233608825D03*
X137541000Y-234158000D03*
X136215175Y-233608825D03*
X135666000Y-232283000D03*
X136215175Y-230957175D03*
X137541000Y-230408000D03*
X138866825Y-230957175D03*
%TD*%
%TO.P,REF\u002A\u002A,1*%
%TO.N,N/C*%
X74604825Y-246451175D03*
X73279000Y-245902000D03*
X71953175Y-246451175D03*
X71404000Y-247777000D03*
X71953175Y-249102825D03*
X73279000Y-249652000D03*
X74604825Y-249102825D03*
X75154000Y-247777000D03*
D11*
X73279000Y-247777000D03*
%TD*%
%TO.P,REF\u002A\u002A,1*%
%TO.N,N/C*%
X73279000Y-229616000D03*
D10*
X75154000Y-229616000D03*
X74604825Y-230941825D03*
X73279000Y-231491000D03*
X71953175Y-230941825D03*
X71404000Y-229616000D03*
X71953175Y-228290175D03*
X73279000Y-227741000D03*
X74604825Y-228290175D03*
%TD*%
D11*
%TO.P,REF\u002A\u002A,1*%
%TO.N,N/C*%
X55118000Y-247777000D03*
D10*
X56993000Y-247777000D03*
X56443825Y-249102825D03*
X55118000Y-249652000D03*
X53792175Y-249102825D03*
X53243000Y-247777000D03*
X53792175Y-246451175D03*
X55118000Y-245902000D03*
X56443825Y-246451175D03*
%TD*%
%TO.P,REF\u002A\u002A,1*%
%TO.N,N/C*%
X56443825Y-228290175D03*
X55118000Y-227741000D03*
X53792175Y-228290175D03*
X53243000Y-229616000D03*
X53792175Y-230941825D03*
X55118000Y-231491000D03*
X56443825Y-230941825D03*
X56993000Y-229616000D03*
D11*
X55118000Y-229616000D03*
%TD*%
%TO.P,REF\u002A\u002A,1*%
%TO.N,N/C*%
X36957000Y-247015000D03*
D10*
X38832000Y-247015000D03*
X38282825Y-248340825D03*
X36957000Y-248890000D03*
X35631175Y-248340825D03*
X35082000Y-247015000D03*
X35631175Y-245689175D03*
X36957000Y-245140000D03*
X38282825Y-245689175D03*
%TD*%
%TO.P,REF\u002A\u002A,1*%
%TO.N,N/C*%
X38282825Y-263850175D03*
X36957000Y-263301000D03*
X35631175Y-263850175D03*
X35082000Y-265176000D03*
X35631175Y-266501825D03*
X36957000Y-267051000D03*
X38282825Y-266501825D03*
X38832000Y-265176000D03*
D11*
X36957000Y-265176000D03*
%TD*%
D10*
%TO.P,REF\u002A\u002A,1*%
%TO.N,N/C*%
X103306825Y-228290175D03*
X101981000Y-227741000D03*
X100655175Y-228290175D03*
X100106000Y-229616000D03*
X100655175Y-230941825D03*
X101981000Y-231491000D03*
X103306825Y-230941825D03*
X103856000Y-229616000D03*
D11*
X101981000Y-229616000D03*
%TD*%
%TO.P,REF\u002A\u002A,1*%
%TO.N,N/C*%
X101981000Y-247777000D03*
D10*
X103856000Y-247777000D03*
X103306825Y-249102825D03*
X101981000Y-249652000D03*
X100655175Y-249102825D03*
X100106000Y-247777000D03*
X100655175Y-246451175D03*
X101981000Y-245902000D03*
X103306825Y-246451175D03*
%TD*%
D11*
%TO.P,REF\u002A\u002A,1*%
%TO.N,N/C*%
X88392000Y-229616000D03*
D10*
X90267000Y-229616000D03*
X89717825Y-230941825D03*
X88392000Y-231491000D03*
X87066175Y-230941825D03*
X86517000Y-229616000D03*
X87066175Y-228290175D03*
X88392000Y-227741000D03*
X89717825Y-228290175D03*
%TD*%
%TO.P,REF\u002A\u002A,1*%
%TO.N,N/C*%
X89717825Y-246451175D03*
X88392000Y-245902000D03*
X87066175Y-246451175D03*
X86517000Y-247777000D03*
X87066175Y-249102825D03*
X88392000Y-249652000D03*
X89717825Y-249102825D03*
X90267000Y-247777000D03*
D11*
X88392000Y-247777000D03*
%TD*%
%TO.P,REF\u002A\u002A,1*%
%TO.N,N/C*%
X38735000Y-290576000D03*
D10*
X40610000Y-290576000D03*
X40060825Y-291901825D03*
X38735000Y-292451000D03*
X37409175Y-291901825D03*
X36860000Y-290576000D03*
X37409175Y-289250175D03*
X38735000Y-288701000D03*
X40060825Y-289250175D03*
%TD*%
%TO.P,REF\u002A\u002A,1*%
%TO.N,N/C*%
X40060825Y-271089175D03*
X38735000Y-270540000D03*
X37409175Y-271089175D03*
X36860000Y-272415000D03*
X37409175Y-273740825D03*
X38735000Y-274290000D03*
X40060825Y-273740825D03*
X40610000Y-272415000D03*
D11*
X38735000Y-272415000D03*
%TD*%
%TO.P,REF\u002A\u002A,1*%
%TO.N,N/C*%
X150368000Y-276606000D03*
D10*
X152243000Y-276606000D03*
X151693825Y-277931825D03*
X150368000Y-278481000D03*
X149042175Y-277931825D03*
X148493000Y-276606000D03*
X149042175Y-275280175D03*
X150368000Y-274731000D03*
X151693825Y-275280175D03*
%TD*%
%TO.P,REF\u002A\u002A,1*%
%TO.N,N/C*%
X124896825Y-275534175D03*
X123571000Y-274985000D03*
X122245175Y-275534175D03*
X121696000Y-276860000D03*
X122245175Y-278185825D03*
X123571000Y-278735000D03*
X124896825Y-278185825D03*
X125446000Y-276860000D03*
D11*
X123571000Y-276860000D03*
%TD*%
%TO.P,REF\u002A\u002A,1*%
%TO.N,N/C*%
X123698000Y-255651000D03*
D10*
X125573000Y-255651000D03*
X125023825Y-256976825D03*
X123698000Y-257526000D03*
X122372175Y-256976825D03*
X121823000Y-255651000D03*
X122372175Y-254325175D03*
X123698000Y-253776000D03*
X125023825Y-254325175D03*
%TD*%
%TO.P,REF\u002A\u002A,1*%
%TO.N,N/C*%
X151820825Y-254071175D03*
X150495000Y-253522000D03*
X149169175Y-254071175D03*
X148620000Y-255397000D03*
X149169175Y-256722825D03*
X150495000Y-257272000D03*
X151820825Y-256722825D03*
X152370000Y-255397000D03*
D11*
X150495000Y-255397000D03*
%TD*%
D10*
%TO.P,REF\u002A\u002A,1*%
%TO.N,N/C*%
X88701825Y-275407175D03*
X87376000Y-274858000D03*
X86050175Y-275407175D03*
X85501000Y-276733000D03*
X86050175Y-278058825D03*
X87376000Y-278608000D03*
X88701825Y-278058825D03*
X89251000Y-276733000D03*
D11*
X87376000Y-276733000D03*
%TD*%
%TO.P,REF\u002A\u002A,1*%
%TO.N,N/C*%
X114173000Y-276479000D03*
D10*
X116048000Y-276479000D03*
X115498825Y-277804825D03*
X114173000Y-278354000D03*
X112847175Y-277804825D03*
X112298000Y-276479000D03*
X112847175Y-275153175D03*
X114173000Y-274604000D03*
X115498825Y-275153175D03*
%TD*%
%TO.P,REF\u002A\u002A,1*%
%TO.N,N/C*%
X115498825Y-254071175D03*
X114173000Y-253522000D03*
X112847175Y-254071175D03*
X112298000Y-255397000D03*
X112847175Y-256722825D03*
X114173000Y-257272000D03*
X115498825Y-256722825D03*
X116048000Y-255397000D03*
D11*
X114173000Y-255397000D03*
%TD*%
%TO.P,REF\u002A\u002A,1*%
%TO.N,N/C*%
X87376000Y-255651000D03*
D10*
X89251000Y-255651000D03*
X88701825Y-256976825D03*
X87376000Y-257526000D03*
X86050175Y-256976825D03*
X85501000Y-255651000D03*
X86050175Y-254325175D03*
X87376000Y-253776000D03*
X88701825Y-254325175D03*
%TD*%
D11*
%TO.P,REF\u002A\u002A,1*%
%TO.N,N/C*%
X77978000Y-255397000D03*
D10*
X79853000Y-255397000D03*
X79303825Y-256722825D03*
X77978000Y-257272000D03*
X76652175Y-256722825D03*
X76103000Y-255397000D03*
X76652175Y-254071175D03*
X77978000Y-253522000D03*
X79303825Y-254071175D03*
%TD*%
%TO.P,REF\u002A\u002A,1*%
%TO.N,N/C*%
X52506825Y-254325175D03*
X51181000Y-253776000D03*
X49855175Y-254325175D03*
X49306000Y-255651000D03*
X49855175Y-256976825D03*
X51181000Y-257526000D03*
X52506825Y-256976825D03*
X53056000Y-255651000D03*
D11*
X51181000Y-255651000D03*
%TD*%
%TO.P,REF\u002A\u002A,1*%
%TO.N,N/C*%
X51181000Y-276860000D03*
D10*
X53056000Y-276860000D03*
X52506825Y-278185825D03*
X51181000Y-278735000D03*
X49855175Y-278185825D03*
X49306000Y-276860000D03*
X49855175Y-275534175D03*
X51181000Y-274985000D03*
X52506825Y-275534175D03*
%TD*%
%TO.P,REF\u002A\u002A,1*%
%TO.N,N/C*%
X79303825Y-275280175D03*
X77978000Y-274731000D03*
X76652175Y-275280175D03*
X76103000Y-276606000D03*
X76652175Y-277931825D03*
X77978000Y-278481000D03*
X79303825Y-277931825D03*
X79853000Y-276606000D03*
D11*
X77978000Y-276606000D03*
%TD*%
D12*
%TO.P,REF\u002A\u002A,1*%
%TO.N,N/C*%
X39624000Y-302006000D03*
D13*
X42849000Y-302006000D03*
X41904419Y-304286419D03*
X39624000Y-305231000D03*
X37343581Y-304286419D03*
X36399000Y-302006000D03*
X37343581Y-299725581D03*
X39624000Y-298781000D03*
X41904419Y-299725581D03*
%TD*%
D12*
%TO.P,REF\u002A\u002A,1*%
%TO.N,N/C*%
X131064000Y-302006000D03*
D13*
X134289000Y-302006000D03*
X133344419Y-304286419D03*
X131064000Y-305231000D03*
X128783581Y-304286419D03*
X127839000Y-302006000D03*
X128783581Y-299725581D03*
X131064000Y-298781000D03*
X133344419Y-299725581D03*
%TD*%
D12*
%TO.P,REF\u002A\u002A,1*%
%TO.N,N/C*%
X130937000Y-381254000D03*
D13*
X134162000Y-381254000D03*
X133217419Y-383534419D03*
X130937000Y-384479000D03*
X128656581Y-383534419D03*
X127712000Y-381254000D03*
X128656581Y-378973581D03*
X130937000Y-378029000D03*
X133217419Y-378973581D03*
%TD*%
%TO.P,REF\u002A\u002A,1*%
%TO.N,N/C*%
X42031419Y-379100581D03*
X39751000Y-378156000D03*
X37470581Y-379100581D03*
X36526000Y-381381000D03*
X37470581Y-383661419D03*
X39751000Y-384606000D03*
X42031419Y-383661419D03*
X42976000Y-381381000D03*
D12*
X39751000Y-381381000D03*
%TD*%
D14*
%TO.P,X19,L1.2*%
%TO.N,+24V*%
X126788000Y-314071000D03*
%TO.P,X19,L1.1*%
X132188000Y-314071000D03*
%TD*%
%TO.P,X38,L1.2*%
%TO.N,Net-(U14-Pad1)*%
X53425000Y-238506000D03*
%TO.P,X38,L1.1*%
X48025000Y-238506000D03*
%TD*%
%TO.P,X37,L1.2*%
%TO.N,Net-(U13-Pad1)*%
X35518000Y-255905000D03*
%TO.P,X37,L1.1*%
X30118000Y-255905000D03*
%TD*%
D15*
%TO.P,X36,L1.2*%
%TO.N,Net-(U12-Pad1)*%
X98425000Y-235754000D03*
%TO.P,X36,L1.1*%
X98425000Y-241154000D03*
%TD*%
D14*
%TO.P,X35,L1.2*%
%TO.N,Net-(X35-PadL1.1)*%
X125434000Y-242697000D03*
%TO.P,X35,L1.1*%
X120034000Y-242697000D03*
%TD*%
%TO.P,X34,L1.2*%
%TO.N,Net-(X34-PadL1.1)*%
X155025000Y-218186000D03*
%TO.P,X34,L1.1*%
X149625000Y-218186000D03*
%TD*%
%TO.P,X33,L1.2*%
%TO.N,Net-(X33-PadL1.1)*%
X125815000Y-248158000D03*
%TO.P,X33,L1.1*%
X120415000Y-248158000D03*
%TD*%
%TO.P,X32,L1.2*%
%TO.N,Net-(U9-Pad1)*%
X71967000Y-238506000D03*
%TO.P,X32,L1.1*%
X66567000Y-238506000D03*
%TD*%
D15*
%TO.P,X31,L1.2*%
%TO.N,Net-(U8-Pad1)*%
X84709000Y-235500000D03*
%TO.P,X31,L1.1*%
X84709000Y-240900000D03*
%TD*%
%TO.P,X30,L1.2*%
%TO.N,Net-(U6-Pad1)*%
X35179000Y-278553000D03*
%TO.P,X30,L1.1*%
X35179000Y-283953000D03*
%TD*%
D14*
%TO.P,X29,L1.2*%
%TO.N,Net-(X29-PadL1.1)*%
X126323000Y-231648000D03*
%TO.P,X29,L1.1*%
X120923000Y-231648000D03*
%TD*%
%TO.P,X28,L1.2*%
%TO.N,Net-(X28-PadL1.1)*%
X155279000Y-224790000D03*
%TO.P,X28,L1.1*%
X149879000Y-224790000D03*
%TD*%
%TO.P,X27,L1.2*%
%TO.N,Net-(X27-PadL1.1)*%
X126577000Y-237109000D03*
%TO.P,X27,L1.1*%
X121177000Y-237109000D03*
%TD*%
D15*
%TO.P,X26,L1.2*%
%TO.N,Net-(X25-PadL1.2)*%
X33401000Y-229785000D03*
%TO.P,X26,L1.1*%
%TO.N,Net-(X25-PadL1.1)*%
X33401000Y-235185000D03*
%TD*%
D14*
%TO.P,X25,L1.2*%
%TO.N,Net-(X25-PadL1.2)*%
X37507000Y-231521000D03*
%TO.P,X25,L1.1*%
%TO.N,Net-(X25-PadL1.1)*%
X42907000Y-231521000D03*
%TD*%
%TO.P,X24,L1.2*%
%TO.N,Net-(X23-PadL1.2)*%
X151426000Y-239141000D03*
%TO.P,X24,L1.1*%
%TO.N,Net-(X23-PadL1.1)*%
X156826000Y-239141000D03*
%TD*%
D15*
%TO.P,X23,L1.2*%
%TO.N,Net-(X23-PadL1.2)*%
X147701000Y-237532000D03*
%TO.P,X23,L1.1*%
%TO.N,Net-(X23-PadL1.1)*%
X147701000Y-242932000D03*
%TD*%
%TO.P,X22,L1.2*%
%TO.N,Net-(X21-PadL1.2)*%
X132969000Y-237278000D03*
%TO.P,X22,L1.1*%
%TO.N,Net-(X21-PadL1.1)*%
X132969000Y-242678000D03*
%TD*%
D14*
%TO.P,X21,L1.2*%
%TO.N,Net-(X21-PadL1.2)*%
X136948000Y-239141000D03*
%TO.P,X21,L1.1*%
%TO.N,Net-(X21-PadL1.1)*%
X142348000Y-239141000D03*
%TD*%
D15*
%TO.P,X20,L1.2*%
%TO.N,Net-(Q11-Pad2)*%
X100584000Y-303869000D03*
%TO.P,X20,L1.1*%
X100584000Y-298469000D03*
%TD*%
%TO.P,X18,L1.2*%
%TO.N,Net-(Q10-Pad2)*%
X89408000Y-303869000D03*
%TO.P,X18,L1.1*%
X89408000Y-298469000D03*
%TD*%
%TO.P,X17,L1.2*%
%TO.N,Net-(Q9-Pad2)*%
X77978000Y-303869000D03*
%TO.P,X17,L1.1*%
X77978000Y-298469000D03*
%TD*%
%TO.P,X16,L1.2*%
%TO.N,Net-(Q8-Pad2)*%
X67056000Y-303869000D03*
%TO.P,X16,L1.1*%
X67056000Y-298469000D03*
%TD*%
D14*
%TO.P,X15,L1.2*%
%TO.N,+24V*%
X126788000Y-318770000D03*
%TO.P,X15,L1.1*%
X132188000Y-318770000D03*
%TD*%
%TO.P,X14,L1.2*%
%TO.N,+24V*%
X126788000Y-323596000D03*
%TO.P,X14,L1.1*%
X132188000Y-323596000D03*
%TD*%
%TO.P,X13,L1.2*%
%TO.N,+24V*%
X126788000Y-328422000D03*
%TO.P,X13,L1.1*%
X132188000Y-328422000D03*
%TD*%
D15*
%TO.P,X12,L1.2*%
%TO.N,Net-(Q7-Pad2)*%
X55880000Y-303869000D03*
%TO.P,X12,L1.1*%
X55880000Y-298469000D03*
%TD*%
%TO.P,X11,L1.2*%
%TO.N,Net-(Q5-Pad2)*%
X96520000Y-303869000D03*
%TO.P,X11,L1.1*%
X96520000Y-298469000D03*
%TD*%
%TO.P,X10,L1.2*%
%TO.N,Net-(Q4-Pad2)*%
X85344000Y-303869000D03*
%TO.P,X10,L1.1*%
X85344000Y-298469000D03*
%TD*%
D14*
%TO.P,X9,L1.2*%
%TO.N,+24V*%
X126788000Y-359156000D03*
%TO.P,X9,L1.1*%
X132188000Y-359156000D03*
%TD*%
%TO.P,X8,L1.2*%
%TO.N,+24V*%
X126788000Y-333502000D03*
%TO.P,X8,L1.1*%
X132188000Y-333502000D03*
%TD*%
%TO.P,X7,L1.2*%
%TO.N,+24V*%
X126788000Y-338582000D03*
%TO.P,X7,L1.1*%
X132188000Y-338582000D03*
%TD*%
D15*
%TO.P,X6,L1.2*%
%TO.N,Net-(Q1-Pad2)*%
X51562000Y-303869000D03*
%TO.P,X6,L1.1*%
X51562000Y-298469000D03*
%TD*%
%TO.P,X5,L1.2*%
%TO.N,Net-(Q3-Pad2)*%
X73914000Y-303869000D03*
%TO.P,X5,L1.1*%
X73914000Y-298469000D03*
%TD*%
%TO.P,X4,L1.2*%
%TO.N,Net-(Q2-Pad2)*%
X62738000Y-303869000D03*
%TO.P,X4,L1.1*%
X62738000Y-298469000D03*
%TD*%
D14*
%TO.P,X3,L1.2*%
%TO.N,+24V*%
X126788000Y-354203000D03*
%TO.P,X3,L1.1*%
X132188000Y-354203000D03*
%TD*%
%TO.P,X2,L1.2*%
%TO.N,+24V*%
X126788000Y-343916000D03*
%TO.P,X2,L1.1*%
X132188000Y-343916000D03*
%TD*%
%TO.P,X1,L1.2*%
%TO.N,+24V*%
X126788000Y-348996000D03*
%TO.P,X1,L1.1*%
X132188000Y-348996000D03*
%TD*%
D16*
%TO.P,U14,4*%
%TO.N,Net-(U14-Pad1)*%
X57510000Y-236879000D03*
%TO.P,U14,3*%
X57510000Y-237879000D03*
%TO.P,U14,2*%
X57510000Y-238879000D03*
%TO.P,U14,1*%
X57510000Y-239879000D03*
D17*
%TO.P,U14,MP*%
%TO.N,N/C*%
X60210000Y-234079000D03*
X60210000Y-242679000D03*
%TD*%
D16*
%TO.P,U13,4*%
%TO.N,Net-(U13-Pad1)*%
X39349000Y-254278000D03*
%TO.P,U13,3*%
X39349000Y-255278000D03*
%TO.P,U13,2*%
X39349000Y-256278000D03*
%TO.P,U13,1*%
X39349000Y-257278000D03*
D17*
%TO.P,U13,MP*%
%TO.N,N/C*%
X42049000Y-251478000D03*
X42049000Y-260078000D03*
%TD*%
D16*
%TO.P,U12,4*%
%TO.N,Net-(U12-Pad1)*%
X102595000Y-237133000D03*
%TO.P,U12,3*%
X102595000Y-238133000D03*
%TO.P,U12,2*%
X102595000Y-239133000D03*
%TO.P,U12,1*%
X102595000Y-240133000D03*
D17*
%TO.P,U12,MP*%
%TO.N,N/C*%
X105295000Y-234333000D03*
X105295000Y-242933000D03*
%TD*%
D16*
%TO.P,U9,4*%
%TO.N,Net-(U9-Pad1)*%
X75671000Y-236879000D03*
%TO.P,U9,3*%
X75671000Y-237879000D03*
%TO.P,U9,2*%
X75671000Y-238879000D03*
%TO.P,U9,1*%
X75671000Y-239879000D03*
D17*
%TO.P,U9,MP*%
%TO.N,N/C*%
X78371000Y-234079000D03*
X78371000Y-242679000D03*
%TD*%
D16*
%TO.P,U8,4*%
%TO.N,Net-(U8-Pad1)*%
X88879000Y-237006000D03*
%TO.P,U8,3*%
X88879000Y-238006000D03*
%TO.P,U8,2*%
X88879000Y-239006000D03*
%TO.P,U8,1*%
X88879000Y-240006000D03*
D17*
%TO.P,U8,MP*%
%TO.N,N/C*%
X91579000Y-234206000D03*
X91579000Y-242806000D03*
%TD*%
D16*
%TO.P,U6,4*%
%TO.N,Net-(U6-Pad1)*%
X39349000Y-279932000D03*
%TO.P,U6,3*%
X39349000Y-280932000D03*
%TO.P,U6,2*%
X39349000Y-281932000D03*
%TO.P,U6,1*%
X39349000Y-282932000D03*
D17*
%TO.P,U6,MP*%
%TO.N,N/C*%
X42049000Y-277132000D03*
X42049000Y-285732000D03*
%TD*%
D16*
%TO.P,U5,4*%
%TO.N,Net-(U5-Pad1)*%
X96372000Y-210717000D03*
%TO.P,U5,3*%
X96372000Y-211717000D03*
%TO.P,U5,2*%
X96372000Y-212717000D03*
%TO.P,U5,1*%
X96372000Y-213717000D03*
D17*
%TO.P,U5,MP*%
%TO.N,N/C*%
X99072000Y-207917000D03*
X99072000Y-216517000D03*
%TD*%
D16*
%TO.P,U4,4*%
%TO.N,Net-(U4-Pad1)*%
X106913000Y-209320000D03*
%TO.P,U4,3*%
X106913000Y-210320000D03*
%TO.P,U4,2*%
X106913000Y-211320000D03*
%TO.P,U4,1*%
X106913000Y-212320000D03*
D17*
%TO.P,U4,MP*%
%TO.N,N/C*%
X109613000Y-206520000D03*
X109613000Y-215120000D03*
%TD*%
D16*
%TO.P,U3,4*%
%TO.N,Net-(U3-Pad1)*%
X127868000Y-209574000D03*
%TO.P,U3,3*%
X127868000Y-210574000D03*
%TO.P,U3,2*%
X127868000Y-211574000D03*
%TO.P,U3,1*%
X127868000Y-212574000D03*
D17*
%TO.P,U3,MP*%
%TO.N,N/C*%
X130568000Y-206774000D03*
X130568000Y-215374000D03*
%TD*%
D16*
%TO.P,U2,4*%
%TO.N,Net-(U2-Pad1)*%
X67162000Y-208050000D03*
%TO.P,U2,3*%
X67162000Y-209050000D03*
%TO.P,U2,2*%
X67162000Y-210050000D03*
%TO.P,U2,1*%
X67162000Y-211050000D03*
D17*
%TO.P,U2,MP*%
%TO.N,N/C*%
X69862000Y-205250000D03*
X69862000Y-213850000D03*
%TD*%
D18*
%TO.P,R11,2*%
%TO.N,POWER-IN-*%
X97282000Y-369062000D03*
D19*
%TO.P,R11,1*%
%TO.N,sheet10*%
X97282000Y-361442000D03*
%TD*%
D18*
%TO.P,R10,2*%
%TO.N,POWER-IN-*%
X94742000Y-369062000D03*
D19*
%TO.P,R10,1*%
%TO.N,sheet9*%
X94742000Y-361442000D03*
%TD*%
D18*
%TO.P,R9,2*%
%TO.N,POWER-IN-*%
X92202000Y-369062000D03*
D19*
%TO.P,R9,1*%
%TO.N,sheet8*%
X92202000Y-361442000D03*
%TD*%
D18*
%TO.P,R8,2*%
%TO.N,POWER-IN-*%
X89662000Y-369062000D03*
D19*
%TO.P,R8,1*%
%TO.N,sheet7*%
X89662000Y-361442000D03*
%TD*%
D18*
%TO.P,R7,2*%
%TO.N,POWER-IN-*%
X109982000Y-371602000D03*
D19*
%TO.P,R7,1*%
%TO.N,sheet6*%
X109982000Y-379222000D03*
%TD*%
D18*
%TO.P,R5,2*%
%TO.N,POWER-IN-*%
X107442000Y-371602000D03*
D19*
%TO.P,R5,1*%
%TO.N,sheet5*%
X107442000Y-379222000D03*
%TD*%
D18*
%TO.P,R4,2*%
%TO.N,POWER-IN-*%
X104902000Y-371602000D03*
D19*
%TO.P,R4,1*%
%TO.N,sheet4*%
X104902000Y-379222000D03*
%TD*%
D18*
%TO.P,R3,2*%
%TO.N,POWER-IN-*%
X102362000Y-371602000D03*
D19*
%TO.P,R3,1*%
%TO.N,sheet3*%
X102362000Y-379222000D03*
%TD*%
D18*
%TO.P,R2,2*%
%TO.N,POWER-IN-*%
X99822000Y-371602000D03*
D19*
%TO.P,R2,1*%
%TO.N,sheet2*%
X99822000Y-379222000D03*
%TD*%
D20*
%TO.P,Q11,3*%
%TO.N,POWER-IN-*%
X97536000Y-332486000D03*
%TO.P,Q11,2*%
%TO.N,Net-(Q11-Pad2)*%
X100076000Y-332486000D03*
D21*
%TO.P,Q11,1*%
%TO.N,sheet10*%
X102616000Y-332486000D03*
%TD*%
D20*
%TO.P,Q10,3*%
%TO.N,POWER-IN-*%
X86360000Y-332486000D03*
%TO.P,Q10,2*%
%TO.N,Net-(Q10-Pad2)*%
X88900000Y-332486000D03*
D21*
%TO.P,Q10,1*%
%TO.N,sheet9*%
X91440000Y-332486000D03*
%TD*%
D20*
%TO.P,Q9,3*%
%TO.N,POWER-IN-*%
X75438000Y-332486000D03*
%TO.P,Q9,2*%
%TO.N,Net-(Q9-Pad2)*%
X77978000Y-332486000D03*
D21*
%TO.P,Q9,1*%
%TO.N,sheet8*%
X80518000Y-332486000D03*
%TD*%
D20*
%TO.P,Q8,3*%
%TO.N,POWER-IN-*%
X64516000Y-332486000D03*
%TO.P,Q8,2*%
%TO.N,Net-(Q8-Pad2)*%
X67056000Y-332486000D03*
D21*
%TO.P,Q8,1*%
%TO.N,sheet7*%
X69596000Y-332486000D03*
%TD*%
D20*
%TO.P,Q7,3*%
%TO.N,POWER-IN-*%
X53340000Y-332486000D03*
%TO.P,Q7,2*%
%TO.N,Net-(Q7-Pad2)*%
X55880000Y-332486000D03*
D21*
%TO.P,Q7,1*%
%TO.N,sheet6*%
X58420000Y-332486000D03*
%TD*%
D20*
%TO.P,Q5,3*%
%TO.N,POWER-IN-*%
X94234000Y-309880000D03*
%TO.P,Q5,2*%
%TO.N,Net-(Q5-Pad2)*%
X96774000Y-309880000D03*
D21*
%TO.P,Q5,1*%
%TO.N,sheet5*%
X99314000Y-309880000D03*
%TD*%
D20*
%TO.P,Q4,3*%
%TO.N,POWER-IN-*%
X82804000Y-309880000D03*
%TO.P,Q4,2*%
%TO.N,Net-(Q4-Pad2)*%
X85344000Y-309880000D03*
D21*
%TO.P,Q4,1*%
%TO.N,sheet4*%
X87884000Y-309880000D03*
%TD*%
D20*
%TO.P,Q3,3*%
%TO.N,POWER-IN-*%
X71263000Y-309881000D03*
%TO.P,Q3,2*%
%TO.N,Net-(Q3-Pad2)*%
X73803000Y-309881000D03*
D21*
%TO.P,Q3,1*%
%TO.N,sheet3*%
X76343000Y-309881000D03*
%TD*%
D20*
%TO.P,Q2,3*%
%TO.N,POWER-IN-*%
X60124000Y-309939000D03*
%TO.P,Q2,2*%
%TO.N,Net-(Q2-Pad2)*%
X62664000Y-309939000D03*
D21*
%TO.P,Q2,1*%
%TO.N,sheet2*%
X65204000Y-309939000D03*
%TD*%
D22*
%TO.P,U35,4*%
%TO.N,Net-(J6-Pad1)*%
X98703000Y-279040000D03*
%TO.P,U35,3*%
X99703000Y-279040000D03*
%TO.P,U35,2*%
X100703000Y-279040000D03*
%TO.P,U35,1*%
X101703000Y-279040000D03*
D23*
%TO.P,U35,MP*%
%TO.N,N/C*%
X95903000Y-276340000D03*
X104503000Y-276340000D03*
%TD*%
D22*
%TO.P,U30,4*%
%TO.N,Net-(J8-Pad1)*%
X63016000Y-258085000D03*
%TO.P,U30,3*%
X64016000Y-258085000D03*
%TO.P,U30,2*%
X65016000Y-258085000D03*
%TO.P,U30,1*%
X66016000Y-258085000D03*
D23*
%TO.P,U30,MP*%
%TO.N,N/C*%
X60216000Y-255385000D03*
X68816000Y-255385000D03*
%TD*%
D22*
%TO.P,U29,4*%
%TO.N,Net-(J7-Pad1)*%
X98703000Y-257958000D03*
%TO.P,U29,3*%
X99703000Y-257958000D03*
%TO.P,U29,2*%
X100703000Y-257958000D03*
%TO.P,U29,1*%
X101703000Y-257958000D03*
D23*
%TO.P,U29,MP*%
%TO.N,N/C*%
X95903000Y-255258000D03*
X104503000Y-255258000D03*
%TD*%
D22*
%TO.P,U26,4*%
%TO.N,Net-(J3-Pad1)*%
X135025000Y-257958000D03*
%TO.P,U26,3*%
X136025000Y-257958000D03*
%TO.P,U26,2*%
X137025000Y-257958000D03*
%TO.P,U26,1*%
X138025000Y-257958000D03*
D23*
%TO.P,U26,MP*%
%TO.N,N/C*%
X132225000Y-255258000D03*
X140825000Y-255258000D03*
%TD*%
D22*
%TO.P,U25,4*%
%TO.N,Net-(J1-Pad1)*%
X62889000Y-279675000D03*
%TO.P,U25,3*%
X63889000Y-279675000D03*
%TO.P,U25,2*%
X64889000Y-279675000D03*
%TO.P,U25,1*%
X65889000Y-279675000D03*
D23*
%TO.P,U25,MP*%
%TO.N,N/C*%
X60089000Y-276975000D03*
X68689000Y-276975000D03*
%TD*%
D22*
%TO.P,U24,4*%
%TO.N,Net-(J2-Pad1)*%
X134898000Y-279167000D03*
%TO.P,U24,3*%
X135898000Y-279167000D03*
%TO.P,U24,2*%
X136898000Y-279167000D03*
%TO.P,U24,1*%
X137898000Y-279167000D03*
D23*
%TO.P,U24,MP*%
%TO.N,N/C*%
X132098000Y-276467000D03*
X140698000Y-276467000D03*
%TD*%
D24*
%TO.P,U21,1*%
%TO.N,POWER-IN+*%
X64008000Y-379222000D03*
D25*
%TO.P,U21,0*%
%TO.N,Net-(U21-Pad0)*%
X59208000Y-379722000D03*
X68808000Y-379722000D03*
D26*
%TO.P,U21,2*%
%TO.N,POWER-IN-*%
X64008000Y-373222000D03*
%TO.P,U21,0*%
%TO.N,Net-(U21-Pad0)*%
X64008000Y-382472000D03*
%TD*%
D27*
%TO.P,U11,30*%
%TO.N,Net-(U11-Pad30)*%
X79502000Y-358140000D03*
%TO.P,U11,29*%
%TO.N,Net-(U11-Pad29)*%
X82042000Y-358140000D03*
%TO.P,U11,28*%
%TO.N,Net-(U11-Pad28)*%
X84582000Y-358140000D03*
%TO.P,U11,27*%
%TO.N,Net-(U11-Pad27)*%
X87122000Y-358140000D03*
%TO.P,U11,26*%
%TO.N,sheet7*%
X89662000Y-358140000D03*
%TO.P,U11,25*%
%TO.N,sheet8*%
X92202000Y-358140000D03*
%TO.P,U11,24*%
%TO.N,sheet9*%
X94742000Y-358140000D03*
%TO.P,U11,23*%
%TO.N,sheet10*%
X97282000Y-358140000D03*
%TO.P,U11,22*%
%TO.N,Net-(U11-Pad22)*%
X99822000Y-358140000D03*
%TO.P,U11,21*%
%TO.N,Net-(U11-Pad21)*%
X102362000Y-358140000D03*
%TO.P,U11,20*%
%TO.N,Net-(U11-Pad20)*%
X104902000Y-358140000D03*
%TO.P,U11,19*%
%TO.N,Net-(U11-Pad19)*%
X107442000Y-358140000D03*
%TO.P,U11,18*%
%TO.N,Net-(U11-Pad18)*%
X109982000Y-358140000D03*
%TO.P,U11,17*%
%TO.N,POWER-IN-*%
X112522000Y-358140000D03*
%TO.P,U11,16*%
%TO.N,Net-(U11-Pad16)*%
X115062000Y-358140000D03*
%TO.P,U11,15*%
%TO.N,+5V*%
X115062000Y-383032000D03*
%TO.P,U11,14*%
%TO.N,POWER-IN-*%
X112522000Y-383032000D03*
X112522000Y-383032000D03*
%TO.P,U11,13*%
%TO.N,sheet6*%
X109982000Y-383032000D03*
%TO.P,U11,12*%
%TO.N,sheet5*%
X107442000Y-383032000D03*
%TO.P,U11,11*%
%TO.N,sheet4*%
X104902000Y-383032000D03*
%TO.P,U11,10*%
%TO.N,sheet3*%
X102362000Y-383032000D03*
%TO.P,U11,9*%
%TO.N,sheet2*%
X99822000Y-383032000D03*
%TO.P,U11,8*%
%TO.N,sheet1*%
X97282000Y-383032000D03*
%TO.P,U11,7*%
%TO.N,Net-(U11-Pad7)*%
X94742000Y-383032000D03*
%TO.P,U11,6*%
%TO.N,Net-(U11-Pad6)*%
X92202000Y-383032000D03*
%TO.P,U11,5*%
%TO.N,Net-(U11-Pad5)*%
X89662000Y-383032000D03*
%TO.P,U11,4*%
%TO.N,Net-(U11-Pad4)*%
X87122000Y-383032000D03*
%TO.P,U11,3*%
%TO.N,Net-(U11-Pad3)*%
X84582000Y-383032000D03*
%TO.P,U11,2*%
%TO.N,Net-(U11-Pad2)*%
X82042000Y-383032000D03*
%TO.P,U11,1*%
%TO.N,Net-(U11-Pad1)*%
X79502000Y-383032000D03*
%TD*%
D28*
%TO.P,U10,1*%
%TO.N,+24V*%
X66548000Y-359156000D03*
D29*
%TO.P,U10,2*%
%TO.N,POWER-IN-*%
X64008000Y-359156000D03*
%TO.P,U10,3*%
%TO.N,+5V*%
X61468000Y-359156000D03*
%TD*%
D16*
%TO.P,U7,4*%
%TO.N,Net-(U7-Pad1)*%
X67162000Y-181761000D03*
%TO.P,U7,3*%
X67162000Y-182761000D03*
%TO.P,U7,2*%
X67162000Y-183761000D03*
%TO.P,U7,1*%
X67162000Y-184761000D03*
D17*
%TO.P,U7,MP*%
%TO.N,N/C*%
X69862000Y-178961000D03*
X69862000Y-187561000D03*
%TD*%
D16*
%TO.P,U1,4*%
%TO.N,Net-(U1-Pad1)*%
X117708000Y-209320000D03*
%TO.P,U1,3*%
X117708000Y-210320000D03*
%TO.P,U1,2*%
X117708000Y-211320000D03*
%TO.P,U1,1*%
X117708000Y-212320000D03*
D17*
%TO.P,U1,MP*%
%TO.N,N/C*%
X120408000Y-206520000D03*
X120408000Y-215120000D03*
%TD*%
D18*
%TO.P,R6,2*%
%TO.N,POWER-IN-*%
X44196000Y-368173000D03*
D19*
%TO.P,R6,1*%
%TO.N,Net-(D1-Pad2)*%
X44196000Y-375793000D03*
%TD*%
D18*
%TO.P,R1,2*%
%TO.N,POWER-IN-*%
X97282000Y-371602000D03*
D19*
%TO.P,R1,1*%
%TO.N,sheet1*%
X97282000Y-379222000D03*
%TD*%
D20*
%TO.P,Q6,3*%
%TO.N,+24V*%
X54484000Y-375259000D03*
%TO.P,Q6,2*%
%TO.N,POWER-IN+*%
X51944000Y-375259000D03*
D21*
%TO.P,Q6,1*%
%TO.N,Net-(D1-Pad2)*%
X49404000Y-375259000D03*
%TD*%
D20*
%TO.P,Q1,3*%
%TO.N,POWER-IN-*%
X48881000Y-309835000D03*
%TO.P,Q1,2*%
%TO.N,Net-(Q1-Pad2)*%
X51421000Y-309835000D03*
D21*
%TO.P,Q1,1*%
%TO.N,sheet1*%
X53961000Y-309835000D03*
%TD*%
D30*
%TO.P,Murata-Ceramic-Capacitor-50v1-22uF2,2*%
%TO.N,POWER-IN-*%
X61214000Y-368514000D03*
%TO.P,Murata-Ceramic-Capacitor-50v1-22uF2,1*%
%TO.N,+5V*%
X61214000Y-366014000D03*
%TD*%
%TO.P,Murata-Ceramic-Capacitor-50v1-22uF1,2*%
%TO.N,POWER-IN-*%
X67310000Y-366054000D03*
%TO.P,Murata-Ceramic-Capacitor-50v1-22uF1,1*%
%TO.N,+24V*%
X67310000Y-368554000D03*
%TD*%
D27*
%TO.P,J8,20*%
%TO.N,Net-(J8-Pad1)*%
X76200000Y-267106400D03*
%TO.P,J8,19*%
X76200000Y-262255000D03*
%TO.P,J8,18*%
X73660000Y-267106400D03*
%TO.P,J8,17*%
X73660000Y-262255000D03*
%TO.P,J8,16*%
X71120000Y-267106400D03*
%TO.P,J8,15*%
X71120000Y-262255000D03*
%TO.P,J8,14*%
X68580000Y-267106400D03*
%TO.P,J8,13*%
X68580000Y-262255000D03*
%TO.P,J8,12*%
X66040000Y-267106400D03*
%TO.P,J8,11*%
X66040000Y-262255000D03*
%TO.P,J8,10*%
X63500000Y-267106400D03*
%TO.P,J8,9*%
X63500000Y-262255000D03*
%TO.P,J8,8*%
X60960000Y-267106400D03*
%TO.P,J8,7*%
X60960000Y-262255000D03*
%TO.P,J8,6*%
X58420000Y-267106400D03*
%TO.P,J8,5*%
X58420000Y-262255000D03*
%TO.P,J8,4*%
X55880000Y-267106400D03*
%TO.P,J8,3*%
X55880000Y-262255000D03*
%TO.P,J8,2*%
X53340000Y-267106400D03*
D31*
%TO.P,J8,1*%
X53340000Y-262255000D03*
%TD*%
D27*
%TO.P,J7,20*%
%TO.N,Net-(J7-Pad1)*%
X112014000Y-267360400D03*
%TO.P,J7,19*%
X112014000Y-262509000D03*
%TO.P,J7,18*%
X109474000Y-267360400D03*
%TO.P,J7,17*%
X109474000Y-262509000D03*
%TO.P,J7,16*%
X106934000Y-267360400D03*
%TO.P,J7,15*%
X106934000Y-262509000D03*
%TO.P,J7,14*%
X104394000Y-267360400D03*
%TO.P,J7,13*%
X104394000Y-262509000D03*
%TO.P,J7,12*%
X101854000Y-267360400D03*
%TO.P,J7,11*%
X101854000Y-262509000D03*
%TO.P,J7,10*%
X99314000Y-267360400D03*
%TO.P,J7,9*%
X99314000Y-262509000D03*
%TO.P,J7,8*%
X96774000Y-267360400D03*
%TO.P,J7,7*%
X96774000Y-262509000D03*
%TO.P,J7,6*%
X94234000Y-267360400D03*
%TO.P,J7,5*%
X94234000Y-262509000D03*
%TO.P,J7,4*%
X91694000Y-267360400D03*
%TO.P,J7,3*%
X91694000Y-262509000D03*
%TO.P,J7,2*%
X89154000Y-267360400D03*
D31*
%TO.P,J7,1*%
X89154000Y-262509000D03*
%TD*%
D27*
%TO.P,J6,20*%
%TO.N,Net-(J6-Pad1)*%
X112014000Y-288442400D03*
%TO.P,J6,19*%
X112014000Y-283591000D03*
%TO.P,J6,18*%
X109474000Y-288442400D03*
%TO.P,J6,17*%
X109474000Y-283591000D03*
%TO.P,J6,16*%
X106934000Y-288442400D03*
%TO.P,J6,15*%
X106934000Y-283591000D03*
%TO.P,J6,14*%
X104394000Y-288442400D03*
%TO.P,J6,13*%
X104394000Y-283591000D03*
%TO.P,J6,12*%
X101854000Y-288442400D03*
%TO.P,J6,11*%
X101854000Y-283591000D03*
%TO.P,J6,10*%
X99314000Y-288442400D03*
%TO.P,J6,9*%
X99314000Y-283591000D03*
%TO.P,J6,8*%
X96774000Y-288442400D03*
%TO.P,J6,7*%
X96774000Y-283591000D03*
%TO.P,J6,6*%
X94234000Y-288442400D03*
%TO.P,J6,5*%
X94234000Y-283591000D03*
%TO.P,J6,4*%
X91694000Y-288442400D03*
%TO.P,J6,3*%
X91694000Y-283591000D03*
%TO.P,J6,2*%
X89154000Y-288442400D03*
D31*
%TO.P,J6,1*%
X89154000Y-283591000D03*
%TD*%
D27*
%TO.P,J3,20*%
%TO.N,Net-(J3-Pad1)*%
X148336000Y-267360400D03*
%TO.P,J3,19*%
X148336000Y-262509000D03*
%TO.P,J3,18*%
X145796000Y-267360400D03*
%TO.P,J3,17*%
X145796000Y-262509000D03*
%TO.P,J3,16*%
X143256000Y-267360400D03*
%TO.P,J3,15*%
X143256000Y-262509000D03*
%TO.P,J3,14*%
X140716000Y-267360400D03*
%TO.P,J3,13*%
X140716000Y-262509000D03*
%TO.P,J3,12*%
X138176000Y-267360400D03*
%TO.P,J3,11*%
X138176000Y-262509000D03*
%TO.P,J3,10*%
X135636000Y-267360400D03*
%TO.P,J3,9*%
X135636000Y-262509000D03*
%TO.P,J3,8*%
X133096000Y-267360400D03*
%TO.P,J3,7*%
X133096000Y-262509000D03*
%TO.P,J3,6*%
X130556000Y-267360400D03*
%TO.P,J3,5*%
X130556000Y-262509000D03*
%TO.P,J3,4*%
X128016000Y-267360400D03*
%TO.P,J3,3*%
X128016000Y-262509000D03*
%TO.P,J3,2*%
X125476000Y-267360400D03*
D31*
%TO.P,J3,1*%
X125476000Y-262509000D03*
%TD*%
D27*
%TO.P,J2,20*%
%TO.N,Net-(J2-Pad1)*%
X148209000Y-288569400D03*
%TO.P,J2,19*%
X148209000Y-283718000D03*
%TO.P,J2,18*%
X145669000Y-288569400D03*
%TO.P,J2,17*%
X145669000Y-283718000D03*
%TO.P,J2,16*%
X143129000Y-288569400D03*
%TO.P,J2,15*%
X143129000Y-283718000D03*
%TO.P,J2,14*%
X140589000Y-288569400D03*
%TO.P,J2,13*%
X140589000Y-283718000D03*
%TO.P,J2,12*%
X138049000Y-288569400D03*
%TO.P,J2,11*%
X138049000Y-283718000D03*
%TO.P,J2,10*%
X135509000Y-288569400D03*
%TO.P,J2,9*%
X135509000Y-283718000D03*
%TO.P,J2,8*%
X132969000Y-288569400D03*
%TO.P,J2,7*%
X132969000Y-283718000D03*
%TO.P,J2,6*%
X130429000Y-288569400D03*
%TO.P,J2,5*%
X130429000Y-283718000D03*
%TO.P,J2,4*%
X127889000Y-288569400D03*
%TO.P,J2,3*%
X127889000Y-283718000D03*
%TO.P,J2,2*%
X125349000Y-288569400D03*
D31*
%TO.P,J2,1*%
X125349000Y-283718000D03*
%TD*%
D27*
%TO.P,J1,20*%
%TO.N,Net-(J1-Pad1)*%
X76073000Y-288925000D03*
%TO.P,J1,19*%
X76073000Y-284073600D03*
%TO.P,J1,18*%
X73533000Y-288925000D03*
%TO.P,J1,17*%
X73533000Y-284073600D03*
%TO.P,J1,16*%
X70993000Y-288925000D03*
%TO.P,J1,15*%
X70993000Y-284073600D03*
%TO.P,J1,14*%
X68453000Y-288925000D03*
%TO.P,J1,13*%
X68453000Y-284073600D03*
%TO.P,J1,12*%
X65913000Y-288925000D03*
%TO.P,J1,11*%
X65913000Y-284073600D03*
%TO.P,J1,10*%
X63373000Y-288925000D03*
%TO.P,J1,9*%
X63373000Y-284073600D03*
%TO.P,J1,8*%
X60833000Y-288925000D03*
%TO.P,J1,7*%
X60833000Y-284073600D03*
%TO.P,J1,6*%
X58293000Y-288925000D03*
%TO.P,J1,5*%
X58293000Y-284073600D03*
%TO.P,J1,4*%
X55753000Y-288925000D03*
%TO.P,J1,3*%
X55753000Y-284073600D03*
%TO.P,J1,2*%
X53213000Y-288925000D03*
D31*
%TO.P,J1,1*%
X53213000Y-284073600D03*
%TD*%
D32*
%TO.P,D1,2*%
%TO.N,Net-(D1-Pad2)*%
X47784000Y-381508000D03*
D33*
%TO.P,D1,1*%
%TO.N,+24V*%
X55404000Y-381508000D03*
%TD*%
D34*
%TO.N,Net-(U1-Pad1)*%
X118999000Y-221615000D03*
X119189500Y-201485500D03*
%TO.N,Net-(U2-Pad1)*%
X68453000Y-219964000D03*
X68643500Y-199834500D03*
%TO.N,Net-(U3-Pad1)*%
X129159000Y-221615000D03*
X129349500Y-201485500D03*
%TO.N,Net-(U7-Pad1)*%
X68453000Y-193040000D03*
X68643500Y-172910500D03*
%TO.N,Net-(U4-Pad1)*%
X108204000Y-221742000D03*
X108394500Y-201612500D03*
%TO.N,Net-(U5-Pad1)*%
X97663000Y-221615000D03*
X97853500Y-201485500D03*
%TO.N,Net-(X27-PadL1.1)*%
X114427000Y-237109000D03*
%TO.N,Net-(X28-PadL1.1)*%
X143002000Y-224790000D03*
%TO.N,Net-(X29-PadL1.1)*%
X114427000Y-231648000D03*
%TO.N,Net-(X33-PadL1.1)*%
X114300000Y-248158000D03*
%TO.N,Net-(X34-PadL1.1)*%
X143383000Y-218186000D03*
%TO.N,Net-(X35-PadL1.1)*%
X114427000Y-242697000D03*
%TD*%
D35*
%TO.N,Net-(D1-Pad2)*%
X48870000Y-375793000D02*
X49404000Y-375259000D01*
X44196000Y-375793000D02*
X48870000Y-375793000D01*
X49404000Y-379888000D02*
X47784000Y-381508000D01*
X49404000Y-375259000D02*
X49404000Y-379888000D01*
%TO.N,+24V*%
X55404000Y-376179000D02*
X54484000Y-375259000D01*
X55404000Y-381508000D02*
X55404000Y-376179000D01*
X64667001Y-371196999D02*
X67310000Y-368554000D01*
X58546001Y-371196999D02*
X64667001Y-371196999D01*
X54484000Y-375259000D02*
X58546001Y-371196999D01*
X65734999Y-366978999D02*
X67310000Y-368554000D01*
X65734999Y-359969001D02*
X65734999Y-366978999D01*
X66548000Y-359156000D02*
X65734999Y-359969001D01*
X126788000Y-373580762D02*
X126788000Y-359156000D01*
X115799761Y-384569001D02*
X126788000Y-373580762D01*
X78764239Y-384569001D02*
X115799761Y-384569001D01*
X67310000Y-373114762D02*
X78764239Y-384569001D01*
X67310000Y-368554000D02*
X67310000Y-373114762D01*
X126788000Y-359156000D02*
X132188000Y-359156000D01*
X132188000Y-359156000D02*
X132188000Y-314071000D01*
X126788000Y-314071000D02*
X126788000Y-359156000D01*
D36*
%TO.N,Net-(J1-Pad1)*%
X65913000Y-279699000D02*
X65889000Y-279675000D01*
D37*
X62889000Y-279675000D02*
X65889000Y-279675000D01*
X65889000Y-284049600D02*
X65913000Y-284073600D01*
X65889000Y-279675000D02*
X65889000Y-284049600D01*
X76073000Y-284073600D02*
X53213000Y-284073600D01*
X53213000Y-284073600D02*
X53213000Y-288925000D01*
X53213000Y-288925000D02*
X76073000Y-288925000D01*
%TO.N,Net-(J2-Pad1)*%
X125349000Y-288569400D02*
X148209000Y-288569400D01*
X137898000Y-279167000D02*
X137898000Y-283567000D01*
X148209000Y-283718000D02*
X125349000Y-283718000D01*
D36*
X138406000Y-283440000D02*
X138430000Y-283464000D01*
D37*
X134898000Y-279167000D02*
X137898000Y-279167000D01*
X125349000Y-283718000D02*
X125349000Y-288569400D01*
X137898000Y-283567000D02*
X138049000Y-283718000D01*
D36*
%TO.N,Net-(J3-Pad1)*%
X138533000Y-262231000D02*
X138557000Y-262255000D01*
D37*
X148336000Y-262509000D02*
X125476000Y-262509000D01*
X138025000Y-262358000D02*
X138176000Y-262509000D01*
X135025000Y-257958000D02*
X138025000Y-257958000D01*
X125476000Y-262509000D02*
X125476000Y-267360400D01*
X125476000Y-267360400D02*
X148336000Y-267360400D01*
X138025000Y-257958000D02*
X138025000Y-262358000D01*
%TO.N,Net-(J6-Pad1)*%
X89154000Y-283591000D02*
X89154000Y-288442400D01*
D36*
X102211000Y-283313000D02*
X102235000Y-283337000D01*
D37*
X112014000Y-283591000D02*
X89154000Y-283591000D01*
X101703000Y-283440000D02*
X101854000Y-283591000D01*
X98703000Y-279040000D02*
X101703000Y-279040000D01*
X89154000Y-288442400D02*
X112014000Y-288442400D01*
X101703000Y-279040000D02*
X101703000Y-283440000D01*
D36*
%TO.N,Net-(J7-Pad1)*%
X102211000Y-262231000D02*
X102235000Y-262255000D01*
D37*
X98703000Y-257958000D02*
X101703000Y-257958000D01*
X101703000Y-262358000D02*
X101854000Y-262509000D01*
X101703000Y-257958000D02*
X101703000Y-262358000D01*
X112014000Y-262509000D02*
X89154000Y-262509000D01*
X89154000Y-262509000D02*
X89154000Y-267360400D01*
X89154000Y-267360400D02*
X112014000Y-267360400D01*
%TO.N,Net-(J8-Pad1)*%
X63016000Y-258085000D02*
X66016000Y-258085000D01*
X66016000Y-262231000D02*
X66040000Y-262255000D01*
X66016000Y-258085000D02*
X66016000Y-262231000D01*
X76200000Y-262255000D02*
X53340000Y-262255000D01*
X53340000Y-262255000D02*
X53340000Y-267106400D01*
X53340000Y-267106400D02*
X76200000Y-267106400D01*
D35*
%TO.N,+5V*%
X61214000Y-359410000D02*
X61468000Y-359156000D01*
X61214000Y-366014000D02*
X61214000Y-359410000D01*
D37*
%TO.N,Net-(Q1-Pad2)*%
X51562000Y-298469000D02*
X51562000Y-303869000D01*
X51562000Y-309694000D02*
X51421000Y-309835000D01*
X51562000Y-303869000D02*
X51562000Y-309694000D01*
D36*
%TO.N,sheet1*%
X97282000Y-383032000D02*
X97282000Y-379222000D01*
X53961000Y-327026002D02*
X53961000Y-309835000D01*
X52062490Y-328924512D02*
X53961000Y-327026002D01*
X52810839Y-333811010D02*
X52062490Y-333062661D01*
X55067997Y-333811010D02*
X52810839Y-333811010D01*
X75452989Y-354196002D02*
X55067997Y-333811010D01*
X52062490Y-333062661D02*
X52062490Y-328924512D01*
X75452989Y-357392989D02*
X75452989Y-354196002D01*
X97282000Y-379222000D02*
X75452989Y-357392989D01*
D37*
%TO.N,Net-(Q2-Pad2)*%
X62738000Y-298469000D02*
X62738000Y-303869000D01*
X62738000Y-309865000D02*
X62664000Y-309939000D01*
X62738000Y-303869000D02*
X62738000Y-309865000D01*
D36*
%TO.N,sheet2*%
X99822000Y-383032000D02*
X99822000Y-379222000D01*
D37*
%TO.N,Net-(Q3-Pad2)*%
X73914000Y-298469000D02*
X73914000Y-303869000D01*
X73914000Y-309770000D02*
X73803000Y-309881000D01*
X73914000Y-303869000D02*
X73914000Y-309770000D01*
D36*
%TO.N,sheet3*%
X102362000Y-383032000D02*
X102362000Y-379222000D01*
D37*
%TO.N,Net-(Q4-Pad2)*%
X85344000Y-298469000D02*
X85344000Y-303869000D01*
X85344000Y-303869000D02*
X85344000Y-309880000D01*
D36*
%TO.N,sheet4*%
X104902000Y-383032000D02*
X104902000Y-379222000D01*
D37*
%TO.N,Net-(Q5-Pad2)*%
X96520000Y-298469000D02*
X96520000Y-303869000D01*
X96520000Y-309626000D02*
X96774000Y-309880000D01*
X96520000Y-303869000D02*
X96520000Y-309626000D01*
D36*
%TO.N,sheet5*%
X107442000Y-383032000D02*
X107442000Y-379222000D01*
D35*
%TO.N,POWER-IN+*%
X51944000Y-381643002D02*
X51944000Y-375259000D01*
X59846999Y-383383001D02*
X53683999Y-383383001D01*
X53683999Y-383383001D02*
X51944000Y-381643002D01*
X64008000Y-379222000D02*
X59846999Y-383383001D01*
D36*
%TO.N,Net-(U1-Pad1)*%
X117708000Y-209955000D02*
X117708000Y-202967000D01*
X119189500Y-201485500D02*
X119253000Y-201422000D01*
X117708000Y-202967000D02*
X119189500Y-201485500D01*
X117708000Y-212955000D02*
X117708000Y-209955000D01*
X117708000Y-212955000D02*
X117708000Y-220324000D01*
X118999000Y-221615000D02*
X118999000Y-221615000D01*
X117708000Y-220324000D02*
X118999000Y-221615000D01*
%TO.N,Net-(U2-Pad1)*%
X67162000Y-208304000D02*
X67162000Y-201316000D01*
X68643500Y-199834500D02*
X68707000Y-199771000D01*
X67162000Y-201316000D02*
X68643500Y-199834500D01*
X67162000Y-211304000D02*
X67162000Y-208304000D01*
X67162000Y-211304000D02*
X67162000Y-218673000D01*
X68453000Y-219964000D02*
X68453000Y-219964000D01*
X67162000Y-218673000D02*
X68453000Y-219964000D01*
%TO.N,Net-(U3-Pad1)*%
X127868000Y-209955000D02*
X127868000Y-202967000D01*
X129349500Y-201485500D02*
X129413000Y-201422000D01*
X127868000Y-202967000D02*
X129349500Y-201485500D01*
X127868000Y-212955000D02*
X127868000Y-209955000D01*
X127868000Y-212955000D02*
X127868000Y-220324000D01*
X129159000Y-221615000D02*
X129159000Y-221615000D01*
X127868000Y-220324000D02*
X129159000Y-221615000D01*
%TO.N,Net-(U7-Pad1)*%
X68643500Y-172910500D02*
X68707000Y-172847000D01*
X67162000Y-174392000D02*
X68643500Y-172910500D01*
X67162000Y-184380000D02*
X67162000Y-181380000D01*
X67162000Y-184380000D02*
X67162000Y-191749000D01*
X68453000Y-193040000D02*
X68453000Y-193040000D01*
X67162000Y-181380000D02*
X67162000Y-174392000D01*
X67162000Y-191749000D02*
X68453000Y-193040000D01*
D37*
%TO.N,Net-(U8-Pad1)*%
X84836000Y-235754000D02*
X87627000Y-235754000D01*
X87627000Y-235754000D02*
X89006000Y-237133000D01*
X89006000Y-237133000D02*
X89006000Y-240133000D01*
X87985000Y-241154000D02*
X89006000Y-240133000D01*
X84836000Y-241154000D02*
X84836000Y-235754000D01*
X84836000Y-241154000D02*
X87985000Y-241154000D01*
%TO.N,Net-(U9-Pad1)*%
X75671000Y-239879000D02*
X75671000Y-238485000D01*
X66440000Y-238506000D02*
X71840000Y-238506000D01*
X75671000Y-237215000D02*
X75671000Y-236879000D01*
X74380000Y-238506000D02*
X75671000Y-237215000D01*
X75650000Y-238506000D02*
X75671000Y-238485000D01*
X74298000Y-238506000D02*
X75650000Y-238506000D01*
X74298000Y-238506000D02*
X74380000Y-238506000D01*
X74298000Y-238506000D02*
X75671000Y-239879000D01*
X75671000Y-238485000D02*
X75671000Y-237215000D01*
X71840000Y-238506000D02*
X74298000Y-238506000D01*
D36*
%TO.N,sheet6*%
X75902999Y-356820001D02*
X92335998Y-373253000D01*
X75902999Y-349968999D02*
X75902999Y-356820001D01*
X58420000Y-332486000D02*
X75902999Y-349968999D01*
X104013000Y-373253000D02*
X109982000Y-379222000D01*
X92335998Y-373253000D02*
X104013000Y-373253000D01*
X109982000Y-383032000D02*
X109982000Y-379222000D01*
%TO.N,Net-(U21-Pad0)*%
X66283010Y-380196990D02*
X64008000Y-382472000D01*
X66283010Y-378486767D02*
X66283010Y-380196990D01*
X65243233Y-377446990D02*
X66283010Y-378486767D01*
X61483010Y-377446990D02*
X65243233Y-377446990D01*
X59208000Y-379722000D02*
X61483010Y-377446990D01*
X66058000Y-382472000D02*
X68808000Y-379722000D01*
X64008000Y-382472000D02*
X66058000Y-382472000D01*
D37*
%TO.N,Net-(Q7-Pad2)*%
X55880000Y-298469000D02*
X55880000Y-303869000D01*
X55880000Y-333068502D02*
X55880000Y-332486000D01*
X55880000Y-303869000D02*
X55880000Y-333068502D01*
%TO.N,Net-(Q8-Pad2)*%
X67056000Y-298469000D02*
X67056000Y-303869000D01*
X67056000Y-303869000D02*
X67056000Y-332486000D01*
D36*
%TO.N,sheet7*%
X89662000Y-361442000D02*
X89662000Y-358140000D01*
X89662000Y-353802000D02*
X89662000Y-358140000D01*
X69596000Y-333736000D02*
X89662000Y-353802000D01*
X69596000Y-332486000D02*
X69596000Y-333736000D01*
D37*
%TO.N,Net-(Q9-Pad2)*%
X77978000Y-298469000D02*
X77978000Y-303869000D01*
X77978000Y-303869000D02*
X77978000Y-332486000D01*
D36*
%TO.N,sheet8*%
X92202000Y-361442000D02*
X92202000Y-358140000D01*
X92202000Y-355519002D02*
X92202000Y-358140000D01*
X80518000Y-343835002D02*
X92202000Y-355519002D01*
X80518000Y-332486000D02*
X80518000Y-343835002D01*
D37*
%TO.N,Net-(Q10-Pad2)*%
X89408000Y-298469000D02*
X89408000Y-303869000D01*
X89486501Y-308359999D02*
X89486501Y-331899499D01*
X89408000Y-308281498D02*
X89486501Y-308359999D01*
X89486501Y-331899499D02*
X88900000Y-332486000D01*
X89408000Y-303869000D02*
X89408000Y-308281498D01*
D36*
%TO.N,sheet9*%
X94742000Y-361442000D02*
X94742000Y-358140000D01*
X93289001Y-356687001D02*
X94742000Y-358140000D01*
X93289001Y-334335001D02*
X93289001Y-356687001D01*
X91440000Y-332486000D02*
X93289001Y-334335001D01*
D37*
%TO.N,Net-(Q11-Pad2)*%
X100584000Y-298469000D02*
X100584000Y-303869000D01*
X100916501Y-331645499D02*
X100076000Y-332486000D01*
X100916501Y-304201501D02*
X100916501Y-331645499D01*
X100584000Y-303869000D02*
X100916501Y-304201501D01*
D36*
%TO.N,sheet10*%
X97282000Y-361442000D02*
X97282000Y-358140000D01*
X97282000Y-337820000D02*
X102616000Y-332486000D01*
X97282000Y-358140000D02*
X97282000Y-337820000D01*
%TO.N,Net-(U4-Pad1)*%
X106913000Y-210082000D02*
X106913000Y-203094000D01*
X108394500Y-201612500D02*
X108458000Y-201549000D01*
X106913000Y-203094000D02*
X108394500Y-201612500D01*
X106913000Y-213082000D02*
X106913000Y-210082000D01*
X106913000Y-213082000D02*
X106913000Y-220451000D01*
X108204000Y-221742000D02*
X108204000Y-221742000D01*
X106913000Y-220451000D02*
X108204000Y-221742000D01*
%TO.N,Net-(U5-Pad1)*%
X96372000Y-209955000D02*
X96372000Y-202967000D01*
X97853500Y-201485500D02*
X97917000Y-201422000D01*
X96372000Y-202967000D02*
X97853500Y-201485500D01*
X96372000Y-212955000D02*
X96372000Y-209955000D01*
X96372000Y-212955000D02*
X96372000Y-220324000D01*
X97663000Y-221615000D02*
X97663000Y-221615000D01*
X96372000Y-220324000D02*
X97663000Y-221615000D01*
D37*
%TO.N,Net-(U6-Pad1)*%
X35179000Y-283953000D02*
X35179000Y-278553000D01*
X37970000Y-278553000D02*
X39349000Y-279932000D01*
X35179000Y-278553000D02*
X37970000Y-278553000D01*
X39349000Y-279932000D02*
X39349000Y-282932000D01*
X38328000Y-283953000D02*
X39349000Y-282932000D01*
X35179000Y-283953000D02*
X38328000Y-283953000D01*
%TO.N,Net-(U12-Pad1)*%
X98425000Y-241154000D02*
X98425000Y-235754000D01*
X101574000Y-241154000D02*
X102595000Y-240133000D01*
X102595000Y-237133000D02*
X102595000Y-240133000D01*
X101216000Y-235754000D02*
X102595000Y-237133000D01*
X98425000Y-235754000D02*
X101216000Y-235754000D01*
X98425000Y-241154000D02*
X101574000Y-241154000D01*
%TO.N,Net-(U13-Pad1)*%
X30118000Y-255905000D02*
X35518000Y-255905000D01*
X37976000Y-255905000D02*
X39349000Y-257278000D01*
X35518000Y-255905000D02*
X37976000Y-255905000D01*
X39328000Y-255905000D02*
X39349000Y-255884000D01*
X37976000Y-255905000D02*
X39328000Y-255905000D01*
X39349000Y-257278000D02*
X39349000Y-255884000D01*
X38058000Y-255905000D02*
X39349000Y-254614000D01*
X37976000Y-255905000D02*
X38058000Y-255905000D01*
X39349000Y-254614000D02*
X39349000Y-254278000D01*
X39349000Y-255884000D02*
X39349000Y-254614000D01*
%TO.N,Net-(U14-Pad1)*%
X56219000Y-238506000D02*
X57510000Y-237215000D01*
X57510000Y-239879000D02*
X57510000Y-238485000D01*
X56137000Y-238506000D02*
X56219000Y-238506000D01*
X48279000Y-238506000D02*
X53679000Y-238506000D01*
X57510000Y-238485000D02*
X57510000Y-237215000D01*
X56137000Y-238506000D02*
X57489000Y-238506000D01*
X56137000Y-238506000D02*
X57510000Y-239879000D01*
X53679000Y-238506000D02*
X56137000Y-238506000D01*
X57510000Y-237215000D02*
X57510000Y-236879000D01*
X57489000Y-238506000D02*
X57510000Y-238485000D01*
%TO.N,Net-(X21-PadL1.2)*%
X134832000Y-239141000D02*
X132969000Y-237278000D01*
X136948000Y-239141000D02*
X134832000Y-239141000D01*
%TO.N,Net-(X21-PadL1.1)*%
X140068002Y-239141000D02*
X142348000Y-239141000D01*
X136531002Y-242678000D02*
X140068002Y-239141000D01*
X132969000Y-242678000D02*
X136531002Y-242678000D01*
%TO.N,Net-(X23-PadL1.2)*%
X149818000Y-239141000D02*
X147955000Y-237278000D01*
X151934000Y-239141000D02*
X149818000Y-239141000D01*
%TO.N,Net-(X23-PadL1.1)*%
X155054002Y-239141000D02*
X157334000Y-239141000D01*
X147955000Y-242678000D02*
X151517002Y-242678000D01*
X151517002Y-242678000D02*
X155054002Y-239141000D01*
%TO.N,Net-(X25-PadL1.2)*%
X35391000Y-231521000D02*
X33528000Y-229658000D01*
X37507000Y-231521000D02*
X35391000Y-231521000D01*
%TO.N,Net-(X25-PadL1.1)*%
X33528000Y-235058000D02*
X37090002Y-235058000D01*
X37090002Y-235058000D02*
X40627002Y-231521000D01*
X40627002Y-231521000D02*
X42907000Y-231521000D01*
%TO.N,Net-(X27-PadL1.1)*%
X121177000Y-237109000D02*
X126577000Y-237109000D01*
X121177000Y-237109000D02*
X114427000Y-237109000D01*
X114427000Y-237109000D02*
X114427000Y-237109000D01*
%TO.N,Net-(X28-PadL1.1)*%
X149752000Y-224790000D02*
X155152000Y-224790000D01*
X143002000Y-224790000D02*
X143002000Y-224790000D01*
X149752000Y-224790000D02*
X143002000Y-224790000D01*
%TO.N,Net-(X29-PadL1.1)*%
X121177000Y-231648000D02*
X126577000Y-231648000D01*
X114427000Y-231648000D02*
X114427000Y-231648000D01*
X121177000Y-231648000D02*
X114427000Y-231648000D01*
%TO.N,Net-(X33-PadL1.1)*%
X121050000Y-248158000D02*
X126450000Y-248158000D01*
X114300000Y-248158000D02*
X114300000Y-248158000D01*
X121050000Y-248158000D02*
X114300000Y-248158000D01*
%TO.N,Net-(X34-PadL1.1)*%
X150133000Y-218186000D02*
X143383000Y-218186000D01*
X143383000Y-218186000D02*
X143383000Y-218186000D01*
X150133000Y-218186000D02*
X155533000Y-218186000D01*
%TO.N,Net-(X35-PadL1.1)*%
X121177000Y-242697000D02*
X114427000Y-242697000D01*
X114427000Y-242697000D02*
X114427000Y-242697000D01*
X121177000Y-242697000D02*
X126577000Y-242697000D01*
%TD*%
D38*
X51106000Y-197577123D02*
X51102565Y-197612000D01*
X51116273Y-197751184D01*
X51156872Y-197885020D01*
X51181000Y-197930160D01*
X51181000Y-198120000D01*
X51183440Y-198144776D01*
X51190667Y-198168601D01*
X51202403Y-198190557D01*
X51218197Y-198209803D01*
X51237443Y-198225597D01*
X51259399Y-198237333D01*
X51283224Y-198244560D01*
X51308000Y-198247000D01*
X51497840Y-198247000D01*
X51542980Y-198271128D01*
X51676816Y-198311727D01*
X51816000Y-198325435D01*
X51850877Y-198322000D01*
X58091001Y-198322000D01*
X58091000Y-224080000D01*
X47446000Y-224080000D01*
X47446000Y-188289000D01*
X51106001Y-188289000D01*
X51106000Y-197577123D01*
%TA.AperFunction,NonConductor*%
D39*
G36*
X51106000Y-197577123D02*
G01*
X51102565Y-197612000D01*
X51116273Y-197751184D01*
X51156872Y-197885020D01*
X51181000Y-197930160D01*
X51181000Y-198120000D01*
X51183440Y-198144776D01*
X51190667Y-198168601D01*
X51202403Y-198190557D01*
X51218197Y-198209803D01*
X51237443Y-198225597D01*
X51259399Y-198237333D01*
X51283224Y-198244560D01*
X51308000Y-198247000D01*
X51497840Y-198247000D01*
X51542980Y-198271128D01*
X51676816Y-198311727D01*
X51816000Y-198325435D01*
X51850877Y-198322000D01*
X58091001Y-198322000D01*
X58091000Y-224080000D01*
X47446000Y-224080000D01*
X47446000Y-188289000D01*
X51106001Y-188289000D01*
X51106000Y-197577123D01*
G37*
%TD.AperFunction*%
D38*
X79554000Y-197831123D02*
X79550565Y-197866000D01*
X79564273Y-198005184D01*
X79604872Y-198139020D01*
X79629000Y-198184160D01*
X79629000Y-198374000D01*
X79631440Y-198398776D01*
X79638667Y-198422601D01*
X79650403Y-198444557D01*
X79666197Y-198463803D01*
X79685443Y-198479597D01*
X79707399Y-198491333D01*
X79731224Y-198498560D01*
X79756000Y-198501000D01*
X79945840Y-198501000D01*
X79990980Y-198525128D01*
X80124816Y-198565727D01*
X80264000Y-198579435D01*
X80298877Y-198576000D01*
X86539001Y-198576000D01*
X86539000Y-224334000D01*
X75894000Y-224334000D01*
X75894000Y-188543000D01*
X79554001Y-188543000D01*
X79554000Y-197831123D01*
%TA.AperFunction,NonConductor*%
D39*
G36*
X79554000Y-197831123D02*
G01*
X79550565Y-197866000D01*
X79564273Y-198005184D01*
X79604872Y-198139020D01*
X79629000Y-198184160D01*
X79629000Y-198374000D01*
X79631440Y-198398776D01*
X79638667Y-198422601D01*
X79650403Y-198444557D01*
X79666197Y-198463803D01*
X79685443Y-198479597D01*
X79707399Y-198491333D01*
X79731224Y-198498560D01*
X79756000Y-198501000D01*
X79945840Y-198501000D01*
X79990980Y-198525128D01*
X80124816Y-198565727D01*
X80264000Y-198579435D01*
X80298877Y-198576000D01*
X86539001Y-198576000D01*
X86539000Y-224334000D01*
X75894000Y-224334000D01*
X75894000Y-188543000D01*
X79554001Y-188543000D01*
X79554000Y-197831123D01*
G37*
%TD.AperFunction*%
D38*
X92508000Y-206554000D02*
X88848000Y-206554000D01*
X88848000Y-197265877D01*
X88851435Y-197231000D01*
X88837727Y-197091816D01*
X88797128Y-196957980D01*
X88773000Y-196912840D01*
X88773000Y-196723000D01*
X88770560Y-196698224D01*
X88763333Y-196674399D01*
X88751597Y-196652443D01*
X88735803Y-196633197D01*
X88716557Y-196617403D01*
X88694601Y-196605667D01*
X88670776Y-196598440D01*
X88646000Y-196596000D01*
X88456160Y-196596000D01*
X88411020Y-196571872D01*
X88277184Y-196531273D01*
X88172877Y-196521000D01*
X88138000Y-196517565D01*
X88103123Y-196521000D01*
X81863000Y-196521000D01*
X81863000Y-170763000D01*
X92508001Y-170763000D01*
X92508000Y-206554000D01*
%TA.AperFunction,NonConductor*%
D39*
G36*
X92508000Y-206554000D02*
G01*
X88848000Y-206554000D01*
X88848000Y-197265877D01*
X88851435Y-197231000D01*
X88837727Y-197091816D01*
X88797128Y-196957980D01*
X88773000Y-196912840D01*
X88773000Y-196723000D01*
X88770560Y-196698224D01*
X88763333Y-196674399D01*
X88751597Y-196652443D01*
X88735803Y-196633197D01*
X88716557Y-196617403D01*
X88694601Y-196605667D01*
X88670776Y-196598440D01*
X88646000Y-196596000D01*
X88456160Y-196596000D01*
X88411020Y-196571872D01*
X88277184Y-196531273D01*
X88172877Y-196521000D01*
X88138000Y-196517565D01*
X88103123Y-196521000D01*
X81863000Y-196521000D01*
X81863000Y-170763000D01*
X92508001Y-170763000D01*
X92508000Y-206554000D01*
G37*
%TD.AperFunction*%
D38*
X63933000Y-206173000D02*
X60273000Y-206173000D01*
X60273000Y-196884877D01*
X60276435Y-196850000D01*
X60262727Y-196710816D01*
X60222128Y-196576980D01*
X60198000Y-196531840D01*
X60198000Y-196342000D01*
X60195560Y-196317224D01*
X60188333Y-196293399D01*
X60176597Y-196271443D01*
X60160803Y-196252197D01*
X60141557Y-196236403D01*
X60119601Y-196224667D01*
X60095776Y-196217440D01*
X60071000Y-196215000D01*
X59881160Y-196215000D01*
X59836020Y-196190872D01*
X59702184Y-196150273D01*
X59597877Y-196140000D01*
X59563000Y-196136565D01*
X59528123Y-196140000D01*
X53288000Y-196140000D01*
X53288000Y-170382000D01*
X63933001Y-170382000D01*
X63933000Y-206173000D01*
%TA.AperFunction,NonConductor*%
D39*
G36*
X63933000Y-206173000D02*
G01*
X60273000Y-206173000D01*
X60273000Y-196884877D01*
X60276435Y-196850000D01*
X60262727Y-196710816D01*
X60222128Y-196576980D01*
X60198000Y-196531840D01*
X60198000Y-196342000D01*
X60195560Y-196317224D01*
X60188333Y-196293399D01*
X60176597Y-196271443D01*
X60160803Y-196252197D01*
X60141557Y-196236403D01*
X60119601Y-196224667D01*
X60095776Y-196217440D01*
X60071000Y-196215000D01*
X59881160Y-196215000D01*
X59836020Y-196190872D01*
X59702184Y-196150273D01*
X59597877Y-196140000D01*
X59563000Y-196136565D01*
X59528123Y-196140000D01*
X53288000Y-196140000D01*
X53288000Y-170382000D01*
X63933001Y-170382000D01*
X63933000Y-206173000D01*
G37*
%TD.AperFunction*%
M02*
