%TF.GenerationSoftware,KiCad,Pcbnew,5.1.7-a382d34a8~88~ubuntu20.04.1*%
%TF.CreationDate,2021-03-09T09:01:26+01:00*%
%TF.ProjectId,narcise,6e617263-6973-4652-9e6b-696361645f70,rev?*%
%TF.SameCoordinates,Original*%
%TF.FileFunction,Soldermask,Top*%
%TF.FilePolarity,Negative*%
%FSLAX46Y46*%
G04 Gerber Fmt 4.6, Leading zero omitted, Abs format (unit mm)*
G04 Created by KiCad (PCBNEW 5.1.7-a382d34a8~88~ubuntu20.04.1) date 2021-03-09 09:01:26*
%MOMM*%
%LPD*%
G01*
G04 APERTURE LIST*
%ADD10C,0.100000*%
%ADD11C,0.800000*%
%ADD12C,5.000000*%
%ADD13C,8.600000*%
%ADD14C,0.900000*%
%ADD15R,2.500000X1.400000*%
%ADD16R,1.400000X2.500000*%
%ADD17R,1.000000X0.400000*%
%ADD18R,1.300000X2.000000*%
%ADD19O,1.400000X1.400000*%
%ADD20C,1.400000*%
%ADD21O,1.905000X2.000000*%
%ADD22R,1.905000X2.000000*%
%ADD23O,3.500000X3.500000*%
%ADD24R,0.400000X1.000000*%
%ADD25R,2.000000X1.300000*%
%ADD26O,3.500000X2.500000*%
%ADD27O,2.500000X3.500000*%
%ADD28C,2.500000*%
%ADD29C,1.524000*%
%ADD30R,1.800000X1.800000*%
%ADD31C,1.800000*%
%ADD32C,1.600000*%
%ADD33R,1.524000X1.524000*%
%ADD34O,2.200000X2.200000*%
%ADD35R,2.200000X2.200000*%
G04 APERTURE END LIST*
D10*
G36*
X64135000Y-206502000D02*
G01*
X60071000Y-206502000D01*
X60071000Y-196342000D01*
X52959000Y-196342000D01*
X52959000Y-170053000D01*
X64135000Y-170053000D01*
X64135000Y-206502000D01*
G37*
X64135000Y-206502000D02*
X60071000Y-206502000D01*
X60071000Y-196342000D01*
X52959000Y-196342000D01*
X52959000Y-170053000D01*
X64135000Y-170053000D01*
X64135000Y-206502000D01*
G36*
X92710000Y-206883000D02*
G01*
X88646000Y-206883000D01*
X88646000Y-196723000D01*
X81534000Y-196723000D01*
X81534000Y-170434000D01*
X92710000Y-170434000D01*
X92710000Y-206883000D01*
G37*
X92710000Y-206883000D02*
X88646000Y-206883000D01*
X88646000Y-196723000D01*
X81534000Y-196723000D01*
X81534000Y-170434000D01*
X92710000Y-170434000D01*
X92710000Y-206883000D01*
G36*
X79756000Y-198374000D02*
G01*
X86868000Y-198374000D01*
X86868000Y-224663000D01*
X75692000Y-224663000D01*
X75692000Y-188214000D01*
X79756000Y-188214000D01*
X79756000Y-198374000D01*
G37*
X79756000Y-198374000D02*
X86868000Y-198374000D01*
X86868000Y-224663000D01*
X75692000Y-224663000D01*
X75692000Y-188214000D01*
X79756000Y-188214000D01*
X79756000Y-198374000D01*
G36*
X51308000Y-198120000D02*
G01*
X58420000Y-198120000D01*
X58420000Y-224409000D01*
X47244000Y-224409000D01*
X47244000Y-187960000D01*
X51308000Y-187960000D01*
X51308000Y-198120000D01*
G37*
X51308000Y-198120000D02*
X58420000Y-198120000D01*
X58420000Y-224409000D01*
X47244000Y-224409000D01*
X47244000Y-187960000D01*
X51308000Y-187960000D01*
X51308000Y-198120000D01*
D11*
%TO.C,REF\u002A\u002A*%
X153852825Y-245816175D03*
X152527000Y-245267000D03*
X151201175Y-245816175D03*
X150652000Y-247142000D03*
X151201175Y-248467825D03*
X152527000Y-249017000D03*
X153852825Y-248467825D03*
X154402000Y-247142000D03*
D12*
X152527000Y-247142000D03*
%TD*%
%TO.C,REF\u002A\u002A*%
X152527000Y-232283000D03*
D11*
X154402000Y-232283000D03*
X153852825Y-233608825D03*
X152527000Y-234158000D03*
X151201175Y-233608825D03*
X150652000Y-232283000D03*
X151201175Y-230957175D03*
X152527000Y-230408000D03*
X153852825Y-230957175D03*
%TD*%
D12*
%TO.C,REF\u002A\u002A*%
X38100000Y-239522000D03*
D11*
X39975000Y-239522000D03*
X39425825Y-240847825D03*
X38100000Y-241397000D03*
X36774175Y-240847825D03*
X36225000Y-239522000D03*
X36774175Y-238196175D03*
X38100000Y-237647000D03*
X39425825Y-238196175D03*
%TD*%
%TO.C,REF\u002A\u002A*%
X39425825Y-223337175D03*
X38100000Y-222788000D03*
X36774175Y-223337175D03*
X36225000Y-224663000D03*
X36774175Y-225988825D03*
X38100000Y-226538000D03*
X39425825Y-225988825D03*
X39975000Y-224663000D03*
D12*
X38100000Y-224663000D03*
%TD*%
D11*
%TO.C,REF\u002A\u002A*%
X138866825Y-245816175D03*
X137541000Y-245267000D03*
X136215175Y-245816175D03*
X135666000Y-247142000D03*
X136215175Y-248467825D03*
X137541000Y-249017000D03*
X138866825Y-248467825D03*
X139416000Y-247142000D03*
D12*
X137541000Y-247142000D03*
%TD*%
%TO.C,REF\u002A\u002A*%
X137541000Y-232283000D03*
D11*
X139416000Y-232283000D03*
X138866825Y-233608825D03*
X137541000Y-234158000D03*
X136215175Y-233608825D03*
X135666000Y-232283000D03*
X136215175Y-230957175D03*
X137541000Y-230408000D03*
X138866825Y-230957175D03*
%TD*%
%TO.C,REF\u002A\u002A*%
X74604825Y-246451175D03*
X73279000Y-245902000D03*
X71953175Y-246451175D03*
X71404000Y-247777000D03*
X71953175Y-249102825D03*
X73279000Y-249652000D03*
X74604825Y-249102825D03*
X75154000Y-247777000D03*
D12*
X73279000Y-247777000D03*
%TD*%
%TO.C,REF\u002A\u002A*%
X73279000Y-229616000D03*
D11*
X75154000Y-229616000D03*
X74604825Y-230941825D03*
X73279000Y-231491000D03*
X71953175Y-230941825D03*
X71404000Y-229616000D03*
X71953175Y-228290175D03*
X73279000Y-227741000D03*
X74604825Y-228290175D03*
%TD*%
D12*
%TO.C,REF\u002A\u002A*%
X55118000Y-247777000D03*
D11*
X56993000Y-247777000D03*
X56443825Y-249102825D03*
X55118000Y-249652000D03*
X53792175Y-249102825D03*
X53243000Y-247777000D03*
X53792175Y-246451175D03*
X55118000Y-245902000D03*
X56443825Y-246451175D03*
%TD*%
%TO.C,REF\u002A\u002A*%
X56443825Y-228290175D03*
X55118000Y-227741000D03*
X53792175Y-228290175D03*
X53243000Y-229616000D03*
X53792175Y-230941825D03*
X55118000Y-231491000D03*
X56443825Y-230941825D03*
X56993000Y-229616000D03*
D12*
X55118000Y-229616000D03*
%TD*%
%TO.C,REF\u002A\u002A*%
X36957000Y-247015000D03*
D11*
X38832000Y-247015000D03*
X38282825Y-248340825D03*
X36957000Y-248890000D03*
X35631175Y-248340825D03*
X35082000Y-247015000D03*
X35631175Y-245689175D03*
X36957000Y-245140000D03*
X38282825Y-245689175D03*
%TD*%
%TO.C,REF\u002A\u002A*%
X38282825Y-263850175D03*
X36957000Y-263301000D03*
X35631175Y-263850175D03*
X35082000Y-265176000D03*
X35631175Y-266501825D03*
X36957000Y-267051000D03*
X38282825Y-266501825D03*
X38832000Y-265176000D03*
D12*
X36957000Y-265176000D03*
%TD*%
D11*
%TO.C,REF\u002A\u002A*%
X103306825Y-228290175D03*
X101981000Y-227741000D03*
X100655175Y-228290175D03*
X100106000Y-229616000D03*
X100655175Y-230941825D03*
X101981000Y-231491000D03*
X103306825Y-230941825D03*
X103856000Y-229616000D03*
D12*
X101981000Y-229616000D03*
%TD*%
%TO.C,REF\u002A\u002A*%
X101981000Y-247777000D03*
D11*
X103856000Y-247777000D03*
X103306825Y-249102825D03*
X101981000Y-249652000D03*
X100655175Y-249102825D03*
X100106000Y-247777000D03*
X100655175Y-246451175D03*
X101981000Y-245902000D03*
X103306825Y-246451175D03*
%TD*%
D12*
%TO.C,REF\u002A\u002A*%
X88392000Y-229616000D03*
D11*
X90267000Y-229616000D03*
X89717825Y-230941825D03*
X88392000Y-231491000D03*
X87066175Y-230941825D03*
X86517000Y-229616000D03*
X87066175Y-228290175D03*
X88392000Y-227741000D03*
X89717825Y-228290175D03*
%TD*%
%TO.C,REF\u002A\u002A*%
X89717825Y-246451175D03*
X88392000Y-245902000D03*
X87066175Y-246451175D03*
X86517000Y-247777000D03*
X87066175Y-249102825D03*
X88392000Y-249652000D03*
X89717825Y-249102825D03*
X90267000Y-247777000D03*
D12*
X88392000Y-247777000D03*
%TD*%
%TO.C,REF\u002A\u002A*%
X38735000Y-290576000D03*
D11*
X40610000Y-290576000D03*
X40060825Y-291901825D03*
X38735000Y-292451000D03*
X37409175Y-291901825D03*
X36860000Y-290576000D03*
X37409175Y-289250175D03*
X38735000Y-288701000D03*
X40060825Y-289250175D03*
%TD*%
%TO.C,REF\u002A\u002A*%
X40060825Y-271089175D03*
X38735000Y-270540000D03*
X37409175Y-271089175D03*
X36860000Y-272415000D03*
X37409175Y-273740825D03*
X38735000Y-274290000D03*
X40060825Y-273740825D03*
X40610000Y-272415000D03*
D12*
X38735000Y-272415000D03*
%TD*%
%TO.C,REF\u002A\u002A*%
X150368000Y-276606000D03*
D11*
X152243000Y-276606000D03*
X151693825Y-277931825D03*
X150368000Y-278481000D03*
X149042175Y-277931825D03*
X148493000Y-276606000D03*
X149042175Y-275280175D03*
X150368000Y-274731000D03*
X151693825Y-275280175D03*
%TD*%
%TO.C,REF\u002A\u002A*%
X124896825Y-275534175D03*
X123571000Y-274985000D03*
X122245175Y-275534175D03*
X121696000Y-276860000D03*
X122245175Y-278185825D03*
X123571000Y-278735000D03*
X124896825Y-278185825D03*
X125446000Y-276860000D03*
D12*
X123571000Y-276860000D03*
%TD*%
%TO.C,REF\u002A\u002A*%
X123698000Y-255651000D03*
D11*
X125573000Y-255651000D03*
X125023825Y-256976825D03*
X123698000Y-257526000D03*
X122372175Y-256976825D03*
X121823000Y-255651000D03*
X122372175Y-254325175D03*
X123698000Y-253776000D03*
X125023825Y-254325175D03*
%TD*%
%TO.C,REF\u002A\u002A*%
X151820825Y-254071175D03*
X150495000Y-253522000D03*
X149169175Y-254071175D03*
X148620000Y-255397000D03*
X149169175Y-256722825D03*
X150495000Y-257272000D03*
X151820825Y-256722825D03*
X152370000Y-255397000D03*
D12*
X150495000Y-255397000D03*
%TD*%
D11*
%TO.C,REF\u002A\u002A*%
X88701825Y-275407175D03*
X87376000Y-274858000D03*
X86050175Y-275407175D03*
X85501000Y-276733000D03*
X86050175Y-278058825D03*
X87376000Y-278608000D03*
X88701825Y-278058825D03*
X89251000Y-276733000D03*
D12*
X87376000Y-276733000D03*
%TD*%
%TO.C,REF\u002A\u002A*%
X114173000Y-276479000D03*
D11*
X116048000Y-276479000D03*
X115498825Y-277804825D03*
X114173000Y-278354000D03*
X112847175Y-277804825D03*
X112298000Y-276479000D03*
X112847175Y-275153175D03*
X114173000Y-274604000D03*
X115498825Y-275153175D03*
%TD*%
%TO.C,REF\u002A\u002A*%
X115498825Y-254071175D03*
X114173000Y-253522000D03*
X112847175Y-254071175D03*
X112298000Y-255397000D03*
X112847175Y-256722825D03*
X114173000Y-257272000D03*
X115498825Y-256722825D03*
X116048000Y-255397000D03*
D12*
X114173000Y-255397000D03*
%TD*%
%TO.C,REF\u002A\u002A*%
X87376000Y-255651000D03*
D11*
X89251000Y-255651000D03*
X88701825Y-256976825D03*
X87376000Y-257526000D03*
X86050175Y-256976825D03*
X85501000Y-255651000D03*
X86050175Y-254325175D03*
X87376000Y-253776000D03*
X88701825Y-254325175D03*
%TD*%
D12*
%TO.C,REF\u002A\u002A*%
X77978000Y-255397000D03*
D11*
X79853000Y-255397000D03*
X79303825Y-256722825D03*
X77978000Y-257272000D03*
X76652175Y-256722825D03*
X76103000Y-255397000D03*
X76652175Y-254071175D03*
X77978000Y-253522000D03*
X79303825Y-254071175D03*
%TD*%
%TO.C,REF\u002A\u002A*%
X52506825Y-254325175D03*
X51181000Y-253776000D03*
X49855175Y-254325175D03*
X49306000Y-255651000D03*
X49855175Y-256976825D03*
X51181000Y-257526000D03*
X52506825Y-256976825D03*
X53056000Y-255651000D03*
D12*
X51181000Y-255651000D03*
%TD*%
%TO.C,REF\u002A\u002A*%
X51181000Y-276860000D03*
D11*
X53056000Y-276860000D03*
X52506825Y-278185825D03*
X51181000Y-278735000D03*
X49855175Y-278185825D03*
X49306000Y-276860000D03*
X49855175Y-275534175D03*
X51181000Y-274985000D03*
X52506825Y-275534175D03*
%TD*%
%TO.C,REF\u002A\u002A*%
X79303825Y-275280175D03*
X77978000Y-274731000D03*
X76652175Y-275280175D03*
X76103000Y-276606000D03*
X76652175Y-277931825D03*
X77978000Y-278481000D03*
X79303825Y-277931825D03*
X79853000Y-276606000D03*
D12*
X77978000Y-276606000D03*
%TD*%
D13*
%TO.C,REF\u002A\u002A*%
X39624000Y-302006000D03*
D14*
X42849000Y-302006000D03*
X41904419Y-304286419D03*
X39624000Y-305231000D03*
X37343581Y-304286419D03*
X36399000Y-302006000D03*
X37343581Y-299725581D03*
X39624000Y-298781000D03*
X41904419Y-299725581D03*
%TD*%
D13*
%TO.C,REF\u002A\u002A*%
X131064000Y-302006000D03*
D14*
X134289000Y-302006000D03*
X133344419Y-304286419D03*
X131064000Y-305231000D03*
X128783581Y-304286419D03*
X127839000Y-302006000D03*
X128783581Y-299725581D03*
X131064000Y-298781000D03*
X133344419Y-299725581D03*
%TD*%
D13*
%TO.C,REF\u002A\u002A*%
X130937000Y-381254000D03*
D14*
X134162000Y-381254000D03*
X133217419Y-383534419D03*
X130937000Y-384479000D03*
X128656581Y-383534419D03*
X127712000Y-381254000D03*
X128656581Y-378973581D03*
X130937000Y-378029000D03*
X133217419Y-378973581D03*
%TD*%
%TO.C,REF\u002A\u002A*%
X42031419Y-379100581D03*
X39751000Y-378156000D03*
X37470581Y-379100581D03*
X36526000Y-381381000D03*
X37470581Y-383661419D03*
X39751000Y-384606000D03*
X42031419Y-383661419D03*
X42976000Y-381381000D03*
D13*
X39751000Y-381381000D03*
%TD*%
D15*
%TO.C,X19*%
X126788000Y-314071000D03*
X132188000Y-314071000D03*
%TD*%
%TO.C,X38*%
X53425000Y-238506000D03*
X48025000Y-238506000D03*
%TD*%
%TO.C,X37*%
X35518000Y-255905000D03*
X30118000Y-255905000D03*
%TD*%
D16*
%TO.C,X36*%
X98425000Y-235754000D03*
X98425000Y-241154000D03*
%TD*%
D15*
%TO.C,X35*%
X125434000Y-242697000D03*
X120034000Y-242697000D03*
%TD*%
%TO.C,X34*%
X155025000Y-218186000D03*
X149625000Y-218186000D03*
%TD*%
%TO.C,X33*%
X125815000Y-248158000D03*
X120415000Y-248158000D03*
%TD*%
%TO.C,X32*%
X71967000Y-238506000D03*
X66567000Y-238506000D03*
%TD*%
D16*
%TO.C,X31*%
X84709000Y-235500000D03*
X84709000Y-240900000D03*
%TD*%
%TO.C,X30*%
X35179000Y-278553000D03*
X35179000Y-283953000D03*
%TD*%
D15*
%TO.C,X29*%
X126323000Y-231648000D03*
X120923000Y-231648000D03*
%TD*%
%TO.C,X28*%
X155279000Y-224790000D03*
X149879000Y-224790000D03*
%TD*%
%TO.C,X27*%
X126577000Y-237109000D03*
X121177000Y-237109000D03*
%TD*%
D16*
%TO.C,X26*%
X33401000Y-229785000D03*
X33401000Y-235185000D03*
%TD*%
D15*
%TO.C,X25*%
X37507000Y-231521000D03*
X42907000Y-231521000D03*
%TD*%
%TO.C,X24*%
X151426000Y-239141000D03*
X156826000Y-239141000D03*
%TD*%
D16*
%TO.C,X23*%
X147701000Y-237532000D03*
X147701000Y-242932000D03*
%TD*%
%TO.C,X22*%
X132969000Y-237278000D03*
X132969000Y-242678000D03*
%TD*%
D15*
%TO.C,X21*%
X136948000Y-239141000D03*
X142348000Y-239141000D03*
%TD*%
D16*
%TO.C,X20*%
X100584000Y-303869000D03*
X100584000Y-298469000D03*
%TD*%
%TO.C,X18*%
X89408000Y-303869000D03*
X89408000Y-298469000D03*
%TD*%
%TO.C,X17*%
X77978000Y-303869000D03*
X77978000Y-298469000D03*
%TD*%
%TO.C,X16*%
X67056000Y-303869000D03*
X67056000Y-298469000D03*
%TD*%
D15*
%TO.C,X15*%
X126788000Y-318770000D03*
X132188000Y-318770000D03*
%TD*%
%TO.C,X14*%
X126788000Y-323596000D03*
X132188000Y-323596000D03*
%TD*%
%TO.C,X13*%
X126788000Y-328422000D03*
X132188000Y-328422000D03*
%TD*%
D16*
%TO.C,X12*%
X55880000Y-303869000D03*
X55880000Y-298469000D03*
%TD*%
%TO.C,X11*%
X96520000Y-303869000D03*
X96520000Y-298469000D03*
%TD*%
%TO.C,X10*%
X85344000Y-303869000D03*
X85344000Y-298469000D03*
%TD*%
D15*
%TO.C,X9*%
X126788000Y-359156000D03*
X132188000Y-359156000D03*
%TD*%
%TO.C,X8*%
X126788000Y-333502000D03*
X132188000Y-333502000D03*
%TD*%
%TO.C,X7*%
X126788000Y-338582000D03*
X132188000Y-338582000D03*
%TD*%
D16*
%TO.C,X6*%
X51562000Y-303869000D03*
X51562000Y-298469000D03*
%TD*%
%TO.C,X5*%
X73914000Y-303869000D03*
X73914000Y-298469000D03*
%TD*%
%TO.C,X4*%
X62738000Y-303869000D03*
X62738000Y-298469000D03*
%TD*%
D15*
%TO.C,X3*%
X126788000Y-354203000D03*
X132188000Y-354203000D03*
%TD*%
%TO.C,X2*%
X126788000Y-343916000D03*
X132188000Y-343916000D03*
%TD*%
%TO.C,X1*%
X126788000Y-348996000D03*
X132188000Y-348996000D03*
%TD*%
D17*
%TO.C,U14*%
X57510000Y-236879000D03*
X57510000Y-237879000D03*
X57510000Y-238879000D03*
X57510000Y-239879000D03*
D18*
X60210000Y-234079000D03*
X60210000Y-242679000D03*
%TD*%
D17*
%TO.C,U13*%
X39349000Y-254278000D03*
X39349000Y-255278000D03*
X39349000Y-256278000D03*
X39349000Y-257278000D03*
D18*
X42049000Y-251478000D03*
X42049000Y-260078000D03*
%TD*%
D17*
%TO.C,U12*%
X102595000Y-237133000D03*
X102595000Y-238133000D03*
X102595000Y-239133000D03*
X102595000Y-240133000D03*
D18*
X105295000Y-234333000D03*
X105295000Y-242933000D03*
%TD*%
D17*
%TO.C,U9*%
X75671000Y-236879000D03*
X75671000Y-237879000D03*
X75671000Y-238879000D03*
X75671000Y-239879000D03*
D18*
X78371000Y-234079000D03*
X78371000Y-242679000D03*
%TD*%
D17*
%TO.C,U8*%
X88879000Y-237006000D03*
X88879000Y-238006000D03*
X88879000Y-239006000D03*
X88879000Y-240006000D03*
D18*
X91579000Y-234206000D03*
X91579000Y-242806000D03*
%TD*%
D17*
%TO.C,U6*%
X39349000Y-279932000D03*
X39349000Y-280932000D03*
X39349000Y-281932000D03*
X39349000Y-282932000D03*
D18*
X42049000Y-277132000D03*
X42049000Y-285732000D03*
%TD*%
D17*
%TO.C,U5*%
X96372000Y-210717000D03*
X96372000Y-211717000D03*
X96372000Y-212717000D03*
X96372000Y-213717000D03*
D18*
X99072000Y-207917000D03*
X99072000Y-216517000D03*
%TD*%
D17*
%TO.C,U4*%
X106913000Y-209320000D03*
X106913000Y-210320000D03*
X106913000Y-211320000D03*
X106913000Y-212320000D03*
D18*
X109613000Y-206520000D03*
X109613000Y-215120000D03*
%TD*%
D17*
%TO.C,U3*%
X127868000Y-209574000D03*
X127868000Y-210574000D03*
X127868000Y-211574000D03*
X127868000Y-212574000D03*
D18*
X130568000Y-206774000D03*
X130568000Y-215374000D03*
%TD*%
D17*
%TO.C,U2*%
X67162000Y-208050000D03*
X67162000Y-209050000D03*
X67162000Y-210050000D03*
X67162000Y-211050000D03*
D18*
X69862000Y-205250000D03*
X69862000Y-213850000D03*
%TD*%
D19*
%TO.C,R11*%
X97282000Y-369062000D03*
D20*
X97282000Y-361442000D03*
%TD*%
D19*
%TO.C,R10*%
X94742000Y-369062000D03*
D20*
X94742000Y-361442000D03*
%TD*%
D19*
%TO.C,R9*%
X92202000Y-369062000D03*
D20*
X92202000Y-361442000D03*
%TD*%
D19*
%TO.C,R8*%
X89662000Y-369062000D03*
D20*
X89662000Y-361442000D03*
%TD*%
D19*
%TO.C,R7*%
X109982000Y-371602000D03*
D20*
X109982000Y-379222000D03*
%TD*%
D19*
%TO.C,R5*%
X107442000Y-371602000D03*
D20*
X107442000Y-379222000D03*
%TD*%
D19*
%TO.C,R4*%
X104902000Y-371602000D03*
D20*
X104902000Y-379222000D03*
%TD*%
D19*
%TO.C,R3*%
X102362000Y-371602000D03*
D20*
X102362000Y-379222000D03*
%TD*%
D19*
%TO.C,R2*%
X99822000Y-371602000D03*
D20*
X99822000Y-379222000D03*
%TD*%
D21*
%TO.C,Q11*%
X97536000Y-332486000D03*
X100076000Y-332486000D03*
D22*
X102616000Y-332486000D03*
D23*
X100076000Y-349146000D03*
%TD*%
D21*
%TO.C,Q10*%
X86360000Y-332486000D03*
X88900000Y-332486000D03*
D22*
X91440000Y-332486000D03*
D23*
X88900000Y-349146000D03*
%TD*%
D21*
%TO.C,Q9*%
X75438000Y-332486000D03*
X77978000Y-332486000D03*
D22*
X80518000Y-332486000D03*
D23*
X77978000Y-349146000D03*
%TD*%
D21*
%TO.C,Q8*%
X64516000Y-332486000D03*
X67056000Y-332486000D03*
D22*
X69596000Y-332486000D03*
D23*
X67056000Y-349146000D03*
%TD*%
D21*
%TO.C,Q7*%
X53340000Y-332486000D03*
X55880000Y-332486000D03*
D22*
X58420000Y-332486000D03*
D23*
X55880000Y-349146000D03*
%TD*%
D21*
%TO.C,Q5*%
X94234000Y-309880000D03*
X96774000Y-309880000D03*
D22*
X99314000Y-309880000D03*
D23*
X96774000Y-326540000D03*
%TD*%
D21*
%TO.C,Q4*%
X82804000Y-309880000D03*
X85344000Y-309880000D03*
D22*
X87884000Y-309880000D03*
D23*
X85344000Y-326540000D03*
%TD*%
D21*
%TO.C,Q3*%
X71263000Y-309881000D03*
X73803000Y-309881000D03*
D22*
X76343000Y-309881000D03*
D23*
X73803000Y-326541000D03*
%TD*%
D21*
%TO.C,Q2*%
X60124000Y-309939000D03*
X62664000Y-309939000D03*
D22*
X65204000Y-309939000D03*
D23*
X62664000Y-326599000D03*
%TD*%
D24*
%TO.C,U35*%
X98703000Y-279040000D03*
X99703000Y-279040000D03*
X100703000Y-279040000D03*
X101703000Y-279040000D03*
D25*
X95903000Y-276340000D03*
X104503000Y-276340000D03*
%TD*%
D24*
%TO.C,U30*%
X63016000Y-258085000D03*
X64016000Y-258085000D03*
X65016000Y-258085000D03*
X66016000Y-258085000D03*
D25*
X60216000Y-255385000D03*
X68816000Y-255385000D03*
%TD*%
D24*
%TO.C,U29*%
X98703000Y-257958000D03*
X99703000Y-257958000D03*
X100703000Y-257958000D03*
X101703000Y-257958000D03*
D25*
X95903000Y-255258000D03*
X104503000Y-255258000D03*
%TD*%
D24*
%TO.C,U26*%
X135025000Y-257958000D03*
X136025000Y-257958000D03*
X137025000Y-257958000D03*
X138025000Y-257958000D03*
D25*
X132225000Y-255258000D03*
X140825000Y-255258000D03*
%TD*%
D24*
%TO.C,U25*%
X62889000Y-279675000D03*
X63889000Y-279675000D03*
X64889000Y-279675000D03*
X65889000Y-279675000D03*
D25*
X60089000Y-276975000D03*
X68689000Y-276975000D03*
%TD*%
D24*
%TO.C,U24*%
X134898000Y-279167000D03*
X135898000Y-279167000D03*
X136898000Y-279167000D03*
X137898000Y-279167000D03*
D25*
X132098000Y-276467000D03*
X140698000Y-276467000D03*
%TD*%
D26*
%TO.C,U21*%
X64008000Y-379222000D03*
D27*
X59208000Y-379722000D03*
X68808000Y-379722000D03*
D28*
X64008000Y-373222000D03*
X64008000Y-382472000D03*
%TD*%
D29*
%TO.C,U11*%
X79502000Y-358140000D03*
X82042000Y-358140000D03*
X84582000Y-358140000D03*
X87122000Y-358140000D03*
X89662000Y-358140000D03*
X92202000Y-358140000D03*
X94742000Y-358140000D03*
X97282000Y-358140000D03*
X99822000Y-358140000D03*
X102362000Y-358140000D03*
X104902000Y-358140000D03*
X107442000Y-358140000D03*
X109982000Y-358140000D03*
X112522000Y-358140000D03*
X115062000Y-358140000D03*
X115062000Y-383032000D03*
X112522000Y-383032000D03*
X112522000Y-383032000D03*
X109982000Y-383032000D03*
X107442000Y-383032000D03*
X104902000Y-383032000D03*
X102362000Y-383032000D03*
X99822000Y-383032000D03*
X97282000Y-383032000D03*
X94742000Y-383032000D03*
X92202000Y-383032000D03*
X89662000Y-383032000D03*
X87122000Y-383032000D03*
X84582000Y-383032000D03*
X82042000Y-383032000D03*
X79502000Y-383032000D03*
%TD*%
D30*
%TO.C,U10*%
X66548000Y-359156000D03*
D31*
X64008000Y-359156000D03*
X61468000Y-359156000D03*
%TD*%
D17*
%TO.C,U7*%
X67162000Y-181761000D03*
X67162000Y-182761000D03*
X67162000Y-183761000D03*
X67162000Y-184761000D03*
D18*
X69862000Y-178961000D03*
X69862000Y-187561000D03*
%TD*%
D17*
%TO.C,U1*%
X117708000Y-209320000D03*
X117708000Y-210320000D03*
X117708000Y-211320000D03*
X117708000Y-212320000D03*
D18*
X120408000Y-206520000D03*
X120408000Y-215120000D03*
%TD*%
D19*
%TO.C,R6*%
X44196000Y-368173000D03*
D20*
X44196000Y-375793000D03*
%TD*%
D19*
%TO.C,R1*%
X97282000Y-371602000D03*
D20*
X97282000Y-379222000D03*
%TD*%
D21*
%TO.C,Q6*%
X54484000Y-375259000D03*
X51944000Y-375259000D03*
D22*
X49404000Y-375259000D03*
D23*
X51944000Y-358599000D03*
%TD*%
D21*
%TO.C,Q1*%
X48881000Y-309835000D03*
X51421000Y-309835000D03*
D22*
X53961000Y-309835000D03*
D23*
X51421000Y-326495000D03*
%TD*%
D32*
%TO.C,Murata-Ceramic-Capacitor-50v1-22uF2*%
X61214000Y-368514000D03*
X61214000Y-366014000D03*
%TD*%
%TO.C,Murata-Ceramic-Capacitor-50v1-22uF1*%
X67310000Y-366054000D03*
X67310000Y-368554000D03*
%TD*%
D29*
%TO.C,J8*%
X76200000Y-267106400D03*
X76200000Y-262255000D03*
X73660000Y-267106400D03*
X73660000Y-262255000D03*
X71120000Y-267106400D03*
X71120000Y-262255000D03*
X68580000Y-267106400D03*
X68580000Y-262255000D03*
X66040000Y-267106400D03*
X66040000Y-262255000D03*
X63500000Y-267106400D03*
X63500000Y-262255000D03*
X60960000Y-267106400D03*
X60960000Y-262255000D03*
X58420000Y-267106400D03*
X58420000Y-262255000D03*
X55880000Y-267106400D03*
X55880000Y-262255000D03*
X53340000Y-267106400D03*
D33*
X53340000Y-262255000D03*
%TD*%
D29*
%TO.C,J7*%
X112014000Y-267360400D03*
X112014000Y-262509000D03*
X109474000Y-267360400D03*
X109474000Y-262509000D03*
X106934000Y-267360400D03*
X106934000Y-262509000D03*
X104394000Y-267360400D03*
X104394000Y-262509000D03*
X101854000Y-267360400D03*
X101854000Y-262509000D03*
X99314000Y-267360400D03*
X99314000Y-262509000D03*
X96774000Y-267360400D03*
X96774000Y-262509000D03*
X94234000Y-267360400D03*
X94234000Y-262509000D03*
X91694000Y-267360400D03*
X91694000Y-262509000D03*
X89154000Y-267360400D03*
D33*
X89154000Y-262509000D03*
%TD*%
D29*
%TO.C,J6*%
X112014000Y-288442400D03*
X112014000Y-283591000D03*
X109474000Y-288442400D03*
X109474000Y-283591000D03*
X106934000Y-288442400D03*
X106934000Y-283591000D03*
X104394000Y-288442400D03*
X104394000Y-283591000D03*
X101854000Y-288442400D03*
X101854000Y-283591000D03*
X99314000Y-288442400D03*
X99314000Y-283591000D03*
X96774000Y-288442400D03*
X96774000Y-283591000D03*
X94234000Y-288442400D03*
X94234000Y-283591000D03*
X91694000Y-288442400D03*
X91694000Y-283591000D03*
X89154000Y-288442400D03*
D33*
X89154000Y-283591000D03*
%TD*%
D29*
%TO.C,J3*%
X148336000Y-267360400D03*
X148336000Y-262509000D03*
X145796000Y-267360400D03*
X145796000Y-262509000D03*
X143256000Y-267360400D03*
X143256000Y-262509000D03*
X140716000Y-267360400D03*
X140716000Y-262509000D03*
X138176000Y-267360400D03*
X138176000Y-262509000D03*
X135636000Y-267360400D03*
X135636000Y-262509000D03*
X133096000Y-267360400D03*
X133096000Y-262509000D03*
X130556000Y-267360400D03*
X130556000Y-262509000D03*
X128016000Y-267360400D03*
X128016000Y-262509000D03*
X125476000Y-267360400D03*
D33*
X125476000Y-262509000D03*
%TD*%
D29*
%TO.C,J2*%
X148209000Y-288569400D03*
X148209000Y-283718000D03*
X145669000Y-288569400D03*
X145669000Y-283718000D03*
X143129000Y-288569400D03*
X143129000Y-283718000D03*
X140589000Y-288569400D03*
X140589000Y-283718000D03*
X138049000Y-288569400D03*
X138049000Y-283718000D03*
X135509000Y-288569400D03*
X135509000Y-283718000D03*
X132969000Y-288569400D03*
X132969000Y-283718000D03*
X130429000Y-288569400D03*
X130429000Y-283718000D03*
X127889000Y-288569400D03*
X127889000Y-283718000D03*
X125349000Y-288569400D03*
D33*
X125349000Y-283718000D03*
%TD*%
D29*
%TO.C,J1*%
X76073000Y-288925000D03*
X76073000Y-284073600D03*
X73533000Y-288925000D03*
X73533000Y-284073600D03*
X70993000Y-288925000D03*
X70993000Y-284073600D03*
X68453000Y-288925000D03*
X68453000Y-284073600D03*
X65913000Y-288925000D03*
X65913000Y-284073600D03*
X63373000Y-288925000D03*
X63373000Y-284073600D03*
X60833000Y-288925000D03*
X60833000Y-284073600D03*
X58293000Y-288925000D03*
X58293000Y-284073600D03*
X55753000Y-288925000D03*
X55753000Y-284073600D03*
X53213000Y-288925000D03*
D33*
X53213000Y-284073600D03*
%TD*%
D34*
%TO.C,D1*%
X47784000Y-381508000D03*
D35*
X55404000Y-381508000D03*
%TD*%
M02*
