%TF.GenerationSoftware,KiCad,Pcbnew,5.1.7-a382d34a8~88~ubuntu20.04.1*%
%TF.CreationDate,2021-03-09T09:32:07+01:00*%
%TF.ProjectId,narcise-redux,6e617263-6973-4652-9d72-656475782e6b,rev?*%
%TF.SameCoordinates,Original*%
%TF.FileFunction,Legend,Bot*%
%TF.FilePolarity,Positive*%
%FSLAX46Y46*%
G04 Gerber Fmt 4.6, Leading zero omitted, Abs format (unit mm)*
G04 Created by KiCad (PCBNEW 5.1.7-a382d34a8~88~ubuntu20.04.1) date 2021-03-09 09:32:07*
%MOMM*%
%LPD*%
G01*
G04 APERTURE LIST*
%ADD10C,0.150000*%
G04 APERTURE END LIST*
D10*
X141233571Y-303332428D02*
X141233571Y-302618142D01*
X139733571Y-302618142D01*
X141233571Y-304046714D02*
X141162142Y-303903857D01*
X141090714Y-303832428D01*
X140947857Y-303761000D01*
X140519285Y-303761000D01*
X140376428Y-303832428D01*
X140305000Y-303903857D01*
X140233571Y-304046714D01*
X140233571Y-304261000D01*
X140305000Y-304403857D01*
X140376428Y-304475285D01*
X140519285Y-304546714D01*
X140947857Y-304546714D01*
X141090714Y-304475285D01*
X141162142Y-304403857D01*
X141233571Y-304261000D01*
X141233571Y-304046714D01*
X141233571Y-305403857D02*
X141162142Y-305261000D01*
X141090714Y-305189571D01*
X140947857Y-305118142D01*
X140519285Y-305118142D01*
X140376428Y-305189571D01*
X140305000Y-305261000D01*
X140233571Y-305403857D01*
X140233571Y-305618142D01*
X140305000Y-305761000D01*
X140376428Y-305832428D01*
X140519285Y-305903857D01*
X140947857Y-305903857D01*
X141090714Y-305832428D01*
X141162142Y-305761000D01*
X141233571Y-305618142D01*
X141233571Y-305403857D01*
X141233571Y-306546714D02*
X139733571Y-306546714D01*
X140662142Y-306689571D02*
X141233571Y-307118142D01*
X140233571Y-307118142D02*
X140805000Y-306546714D01*
X140233571Y-308761000D02*
X141233571Y-309046714D01*
X140519285Y-309332428D01*
X141233571Y-309618142D01*
X140233571Y-309903857D01*
X141233571Y-310475285D02*
X140233571Y-310475285D01*
X139733571Y-310475285D02*
X139805000Y-310403857D01*
X139876428Y-310475285D01*
X139805000Y-310546714D01*
X139733571Y-310475285D01*
X139876428Y-310475285D01*
X140233571Y-310975285D02*
X140233571Y-311546714D01*
X139733571Y-311189571D02*
X141019285Y-311189571D01*
X141162142Y-311261000D01*
X141233571Y-311403857D01*
X141233571Y-311546714D01*
X141233571Y-312046714D02*
X139733571Y-312046714D01*
X141233571Y-312689571D02*
X140447857Y-312689571D01*
X140305000Y-312618142D01*
X140233571Y-312475285D01*
X140233571Y-312261000D01*
X140305000Y-312118142D01*
X140376428Y-312046714D01*
X141233571Y-313403857D02*
X140233571Y-313403857D01*
X139733571Y-313403857D02*
X139805000Y-313332428D01*
X139876428Y-313403857D01*
X139805000Y-313475285D01*
X139733571Y-313403857D01*
X139876428Y-313403857D01*
X140233571Y-314118142D02*
X141233571Y-314118142D01*
X140376428Y-314118142D02*
X140305000Y-314189571D01*
X140233571Y-314332428D01*
X140233571Y-314546714D01*
X140305000Y-314689571D01*
X140447857Y-314761000D01*
X141233571Y-314761000D01*
X141090714Y-315475285D02*
X141162142Y-315546714D01*
X141233571Y-315475285D01*
X141162142Y-315403857D01*
X141090714Y-315475285D01*
X141233571Y-315475285D01*
X139733571Y-317189571D02*
X141233571Y-317546714D01*
X140162142Y-317832428D01*
X141233571Y-318118142D01*
X139733571Y-318475285D01*
X141233571Y-319046714D02*
X140233571Y-319046714D01*
X139733571Y-319046714D02*
X139805000Y-318975285D01*
X139876428Y-319046714D01*
X139805000Y-319118142D01*
X139733571Y-319046714D01*
X139876428Y-319046714D01*
X140233571Y-319546714D02*
X140233571Y-320118142D01*
X139733571Y-319761000D02*
X141019285Y-319761000D01*
X141162142Y-319832428D01*
X141233571Y-319975285D01*
X141233571Y-320118142D01*
X141233571Y-320618142D02*
X139733571Y-320618142D01*
X141233571Y-321261000D02*
X140447857Y-321261000D01*
X140305000Y-321189571D01*
X140233571Y-321046714D01*
X140233571Y-320832428D01*
X140305000Y-320689571D01*
X140376428Y-320618142D01*
X141233571Y-321975285D02*
X140233571Y-321975285D01*
X139733571Y-321975285D02*
X139805000Y-321903857D01*
X139876428Y-321975285D01*
X139805000Y-322046714D01*
X139733571Y-321975285D01*
X139876428Y-321975285D01*
X140233571Y-322689571D02*
X141233571Y-322689571D01*
X140376428Y-322689571D02*
X140305000Y-322761000D01*
X140233571Y-322903857D01*
X140233571Y-323118142D01*
X140305000Y-323261000D01*
X140447857Y-323332428D01*
X141233571Y-323332428D01*
X141233571Y-325189571D02*
X140233571Y-325189571D01*
X139733571Y-325189571D02*
X139805000Y-325118142D01*
X139876428Y-325189571D01*
X139805000Y-325261000D01*
X139733571Y-325189571D01*
X139876428Y-325189571D01*
X141162142Y-325832428D02*
X141233571Y-325975285D01*
X141233571Y-326261000D01*
X141162142Y-326403857D01*
X141019285Y-326475285D01*
X140947857Y-326475285D01*
X140805000Y-326403857D01*
X140733571Y-326261000D01*
X140733571Y-326046714D01*
X140662142Y-325903857D01*
X140519285Y-325832428D01*
X140447857Y-325832428D01*
X140305000Y-325903857D01*
X140233571Y-326046714D01*
X140233571Y-326261000D01*
X140305000Y-326403857D01*
X140233571Y-328046714D02*
X140233571Y-328618142D01*
X139733571Y-328261000D02*
X141019285Y-328261000D01*
X141162142Y-328332428D01*
X141233571Y-328475285D01*
X141233571Y-328618142D01*
X141233571Y-329118142D02*
X139733571Y-329118142D01*
X141233571Y-329761000D02*
X140447857Y-329761000D01*
X140305000Y-329689571D01*
X140233571Y-329546714D01*
X140233571Y-329332428D01*
X140305000Y-329189571D01*
X140376428Y-329118142D01*
X141162142Y-331046714D02*
X141233571Y-330903857D01*
X141233571Y-330618142D01*
X141162142Y-330475285D01*
X141019285Y-330403857D01*
X140447857Y-330403857D01*
X140305000Y-330475285D01*
X140233571Y-330618142D01*
X140233571Y-330903857D01*
X140305000Y-331046714D01*
X140447857Y-331118142D01*
X140590714Y-331118142D01*
X140733571Y-330403857D01*
X140233571Y-332689571D02*
X140233571Y-333261000D01*
X141233571Y-332903857D02*
X139947857Y-332903857D01*
X139805000Y-332975285D01*
X139733571Y-333118142D01*
X139733571Y-333261000D01*
X141233571Y-333975285D02*
X141162142Y-333832428D01*
X141090714Y-333761000D01*
X140947857Y-333689571D01*
X140519285Y-333689571D01*
X140376428Y-333761000D01*
X140305000Y-333832428D01*
X140233571Y-333975285D01*
X140233571Y-334189571D01*
X140305000Y-334332428D01*
X140376428Y-334403857D01*
X140519285Y-334475285D01*
X140947857Y-334475285D01*
X141090714Y-334403857D01*
X141162142Y-334332428D01*
X141233571Y-334189571D01*
X141233571Y-333975285D01*
X140233571Y-335761000D02*
X141233571Y-335761000D01*
X140233571Y-335118142D02*
X141019285Y-335118142D01*
X141162142Y-335189571D01*
X141233571Y-335332428D01*
X141233571Y-335546714D01*
X141162142Y-335689571D01*
X141090714Y-335761000D01*
X140233571Y-336475285D02*
X141233571Y-336475285D01*
X140376428Y-336475285D02*
X140305000Y-336546714D01*
X140233571Y-336689571D01*
X140233571Y-336903857D01*
X140305000Y-337046714D01*
X140447857Y-337118142D01*
X141233571Y-337118142D01*
X140233571Y-337618142D02*
X140233571Y-338189571D01*
X139733571Y-337832428D02*
X141019285Y-337832428D01*
X141162142Y-337903857D01*
X141233571Y-338046714D01*
X141233571Y-338189571D01*
X141233571Y-339332428D02*
X140447857Y-339332428D01*
X140305000Y-339261000D01*
X140233571Y-339118142D01*
X140233571Y-338832428D01*
X140305000Y-338689571D01*
X141162142Y-339332428D02*
X141233571Y-339189571D01*
X141233571Y-338832428D01*
X141162142Y-338689571D01*
X141019285Y-338618142D01*
X140876428Y-338618142D01*
X140733571Y-338689571D01*
X140662142Y-338832428D01*
X140662142Y-339189571D01*
X140590714Y-339332428D01*
X141233571Y-340046714D02*
X140233571Y-340046714D01*
X139733571Y-340046714D02*
X139805000Y-339975285D01*
X139876428Y-340046714D01*
X139805000Y-340118142D01*
X139733571Y-340046714D01*
X139876428Y-340046714D01*
X140233571Y-340761000D02*
X141233571Y-340761000D01*
X140376428Y-340761000D02*
X140305000Y-340832428D01*
X140233571Y-340975285D01*
X140233571Y-341189571D01*
X140305000Y-341332428D01*
X140447857Y-341403857D01*
X141233571Y-341403857D01*
X141233571Y-343475285D02*
X141162142Y-343332428D01*
X141090714Y-343261000D01*
X140947857Y-343189571D01*
X140519285Y-343189571D01*
X140376428Y-343261000D01*
X140305000Y-343332428D01*
X140233571Y-343475285D01*
X140233571Y-343689571D01*
X140305000Y-343832428D01*
X140376428Y-343903857D01*
X140519285Y-343975285D01*
X140947857Y-343975285D01*
X141090714Y-343903857D01*
X141162142Y-343832428D01*
X141233571Y-343689571D01*
X141233571Y-343475285D01*
X140233571Y-344403857D02*
X140233571Y-344975285D01*
X141233571Y-344618142D02*
X139947857Y-344618142D01*
X139805000Y-344689571D01*
X139733571Y-344832428D01*
X139733571Y-344975285D01*
X140233571Y-347261000D02*
X141447857Y-347261000D01*
X141590714Y-347189571D01*
X141662142Y-347118142D01*
X141733571Y-346975285D01*
X141733571Y-346761000D01*
X141662142Y-346618142D01*
X141162142Y-347261000D02*
X141233571Y-347118142D01*
X141233571Y-346832428D01*
X141162142Y-346689571D01*
X141090714Y-346618142D01*
X140947857Y-346546714D01*
X140519285Y-346546714D01*
X140376428Y-346618142D01*
X140305000Y-346689571D01*
X140233571Y-346832428D01*
X140233571Y-347118142D01*
X140305000Y-347261000D01*
X141233571Y-348189571D02*
X141162142Y-348046714D01*
X141090714Y-347975285D01*
X140947857Y-347903857D01*
X140519285Y-347903857D01*
X140376428Y-347975285D01*
X140305000Y-348046714D01*
X140233571Y-348189571D01*
X140233571Y-348403857D01*
X140305000Y-348546714D01*
X140376428Y-348618142D01*
X140519285Y-348689571D01*
X140947857Y-348689571D01*
X141090714Y-348618142D01*
X141162142Y-348546714D01*
X141233571Y-348403857D01*
X141233571Y-348189571D01*
X141233571Y-349546714D02*
X141162142Y-349403857D01*
X141090714Y-349332428D01*
X140947857Y-349261000D01*
X140519285Y-349261000D01*
X140376428Y-349332428D01*
X140305000Y-349403857D01*
X140233571Y-349546714D01*
X140233571Y-349761000D01*
X140305000Y-349903857D01*
X140376428Y-349975285D01*
X140519285Y-350046714D01*
X140947857Y-350046714D01*
X141090714Y-349975285D01*
X141162142Y-349903857D01*
X141233571Y-349761000D01*
X141233571Y-349546714D01*
X141233571Y-351332428D02*
X139733571Y-351332428D01*
X141162142Y-351332428D02*
X141233571Y-351189571D01*
X141233571Y-350903857D01*
X141162142Y-350761000D01*
X141090714Y-350689571D01*
X140947857Y-350618142D01*
X140519285Y-350618142D01*
X140376428Y-350689571D01*
X140305000Y-350761000D01*
X140233571Y-350903857D01*
X140233571Y-351189571D01*
X140305000Y-351332428D01*
X141162142Y-352118142D02*
X141233571Y-352118142D01*
X141376428Y-352046714D01*
X141447857Y-351975285D01*
X141233571Y-354546714D02*
X140447857Y-354546714D01*
X140305000Y-354475285D01*
X140233571Y-354332428D01*
X140233571Y-354046714D01*
X140305000Y-353903857D01*
X141162142Y-354546714D02*
X141233571Y-354403857D01*
X141233571Y-354046714D01*
X141162142Y-353903857D01*
X141019285Y-353832428D01*
X140876428Y-353832428D01*
X140733571Y-353903857D01*
X140662142Y-354046714D01*
X140662142Y-354403857D01*
X140590714Y-354546714D01*
X140233571Y-355261000D02*
X141233571Y-355261000D01*
X140376428Y-355261000D02*
X140305000Y-355332428D01*
X140233571Y-355475285D01*
X140233571Y-355689571D01*
X140305000Y-355832428D01*
X140447857Y-355903857D01*
X141233571Y-355903857D01*
X141233571Y-357261000D02*
X139733571Y-357261000D01*
X141162142Y-357261000D02*
X141233571Y-357118142D01*
X141233571Y-356832428D01*
X141162142Y-356689571D01*
X141090714Y-356618142D01*
X140947857Y-356546714D01*
X140519285Y-356546714D01*
X140376428Y-356618142D01*
X140305000Y-356689571D01*
X140233571Y-356832428D01*
X140233571Y-357118142D01*
X140305000Y-357261000D01*
X141233571Y-359118142D02*
X140233571Y-359118142D01*
X139733571Y-359118142D02*
X139805000Y-359046714D01*
X139876428Y-359118142D01*
X139805000Y-359189571D01*
X139733571Y-359118142D01*
X139876428Y-359118142D01*
X140233571Y-359618142D02*
X140233571Y-360189571D01*
X139733571Y-359832428D02*
X141019285Y-359832428D01*
X141162142Y-359903857D01*
X141233571Y-360046714D01*
X141233571Y-360189571D01*
X140233571Y-361689571D02*
X141233571Y-361975285D01*
X140519285Y-362261000D01*
X141233571Y-362546714D01*
X140233571Y-362832428D01*
X141233571Y-363403857D02*
X140233571Y-363403857D01*
X139733571Y-363403857D02*
X139805000Y-363332428D01*
X139876428Y-363403857D01*
X139805000Y-363475285D01*
X139733571Y-363403857D01*
X139876428Y-363403857D01*
X141233571Y-364332428D02*
X141162142Y-364189571D01*
X141019285Y-364118142D01*
X139733571Y-364118142D01*
X141233571Y-365118142D02*
X141162142Y-364975285D01*
X141019285Y-364903857D01*
X139733571Y-364903857D01*
X141162142Y-367403857D02*
X141233571Y-367261000D01*
X141233571Y-366975285D01*
X141162142Y-366832428D01*
X141019285Y-366761000D01*
X140447857Y-366761000D01*
X140305000Y-366832428D01*
X140233571Y-366975285D01*
X140233571Y-367261000D01*
X140305000Y-367403857D01*
X140447857Y-367475285D01*
X140590714Y-367475285D01*
X140733571Y-366761000D01*
X140233571Y-367975285D02*
X141233571Y-368332428D01*
X140233571Y-368689571D01*
X141162142Y-369832428D02*
X141233571Y-369689571D01*
X141233571Y-369403857D01*
X141162142Y-369261000D01*
X141019285Y-369189571D01*
X140447857Y-369189571D01*
X140305000Y-369261000D01*
X140233571Y-369403857D01*
X140233571Y-369689571D01*
X140305000Y-369832428D01*
X140447857Y-369903857D01*
X140590714Y-369903857D01*
X140733571Y-369189571D01*
X141233571Y-370546714D02*
X140233571Y-370546714D01*
X140519285Y-370546714D02*
X140376428Y-370618142D01*
X140305000Y-370689571D01*
X140233571Y-370832428D01*
X140233571Y-370975285D01*
X141233571Y-372618142D02*
X139733571Y-372618142D01*
X140305000Y-372618142D02*
X140233571Y-372761000D01*
X140233571Y-373046714D01*
X140305000Y-373189571D01*
X140376428Y-373261000D01*
X140519285Y-373332428D01*
X140947857Y-373332428D01*
X141090714Y-373261000D01*
X141162142Y-373189571D01*
X141233571Y-373046714D01*
X141233571Y-372761000D01*
X141162142Y-372618142D01*
X140233571Y-374618142D02*
X141233571Y-374618142D01*
X140233571Y-373975285D02*
X141019285Y-373975285D01*
X141162142Y-374046714D01*
X141233571Y-374189571D01*
X141233571Y-374403857D01*
X141162142Y-374546714D01*
X141090714Y-374618142D01*
X141233571Y-375332428D02*
X139733571Y-375332428D01*
X140305000Y-375332428D02*
X140233571Y-375475285D01*
X140233571Y-375761000D01*
X140305000Y-375903857D01*
X140376428Y-375975285D01*
X140519285Y-376046714D01*
X140947857Y-376046714D01*
X141090714Y-375975285D01*
X141162142Y-375903857D01*
X141233571Y-375761000D01*
X141233571Y-375475285D01*
X141162142Y-375332428D01*
X141233571Y-376689571D02*
X139733571Y-376689571D01*
X140305000Y-376689571D02*
X140233571Y-376832428D01*
X140233571Y-377118142D01*
X140305000Y-377261000D01*
X140376428Y-377332428D01*
X140519285Y-377403857D01*
X140947857Y-377403857D01*
X141090714Y-377332428D01*
X141162142Y-377261000D01*
X141233571Y-377118142D01*
X141233571Y-376832428D01*
X141162142Y-376689571D01*
X141233571Y-378261000D02*
X141162142Y-378118142D01*
X141019285Y-378046714D01*
X139733571Y-378046714D01*
X141162142Y-379403857D02*
X141233571Y-379261000D01*
X141233571Y-378975285D01*
X141162142Y-378832428D01*
X141019285Y-378761000D01*
X140447857Y-378761000D01*
X140305000Y-378832428D01*
X140233571Y-378975285D01*
X140233571Y-379261000D01*
X140305000Y-379403857D01*
X140447857Y-379475285D01*
X140590714Y-379475285D01*
X140733571Y-378761000D01*
X142633571Y-327832428D02*
X143633571Y-327832428D01*
X142633571Y-327189571D02*
X143419285Y-327189571D01*
X143562142Y-327261000D01*
X143633571Y-327403857D01*
X143633571Y-327618142D01*
X143562142Y-327761000D01*
X143490714Y-327832428D01*
X142633571Y-328546714D02*
X144133571Y-328546714D01*
X142705000Y-328546714D02*
X142633571Y-328689571D01*
X142633571Y-328975285D01*
X142705000Y-329118142D01*
X142776428Y-329189571D01*
X142919285Y-329261000D01*
X143347857Y-329261000D01*
X143490714Y-329189571D01*
X143562142Y-329118142D01*
X143633571Y-328975285D01*
X143633571Y-328689571D01*
X143562142Y-328546714D01*
X143562142Y-329975285D02*
X143633571Y-329975285D01*
X143776428Y-329903857D01*
X143847857Y-329832428D01*
X143633571Y-331761000D02*
X142633571Y-331761000D01*
X142133571Y-331761000D02*
X142205000Y-331689571D01*
X142276428Y-331761000D01*
X142205000Y-331832428D01*
X142133571Y-331761000D01*
X142276428Y-331761000D01*
X142633571Y-332261000D02*
X142633571Y-332832428D01*
X143633571Y-332475285D02*
X142347857Y-332475285D01*
X142205000Y-332546714D01*
X142133571Y-332689571D01*
X142133571Y-332832428D01*
X142633571Y-334261000D02*
X142633571Y-334832428D01*
X142133571Y-334475285D02*
X143419285Y-334475285D01*
X143562142Y-334546714D01*
X143633571Y-334689571D01*
X143633571Y-334832428D01*
X143633571Y-335332428D02*
X142133571Y-335332428D01*
X143633571Y-335975285D02*
X142847857Y-335975285D01*
X142705000Y-335903857D01*
X142633571Y-335761000D01*
X142633571Y-335546714D01*
X142705000Y-335403857D01*
X142776428Y-335332428D01*
X143633571Y-336903857D02*
X143562142Y-336761000D01*
X143490714Y-336689571D01*
X143347857Y-336618142D01*
X142919285Y-336618142D01*
X142776428Y-336689571D01*
X142705000Y-336761000D01*
X142633571Y-336903857D01*
X142633571Y-337118142D01*
X142705000Y-337261000D01*
X142776428Y-337332428D01*
X142919285Y-337403857D01*
X143347857Y-337403857D01*
X143490714Y-337332428D01*
X143562142Y-337261000D01*
X143633571Y-337118142D01*
X143633571Y-336903857D01*
X142633571Y-338689571D02*
X143633571Y-338689571D01*
X142633571Y-338046714D02*
X143419285Y-338046714D01*
X143562142Y-338118142D01*
X143633571Y-338261000D01*
X143633571Y-338475285D01*
X143562142Y-338618142D01*
X143490714Y-338689571D01*
X142633571Y-340403857D02*
X143633571Y-340689571D01*
X142919285Y-340975285D01*
X143633571Y-341261000D01*
X142633571Y-341546714D01*
X143633571Y-342118142D02*
X142633571Y-342118142D01*
X142133571Y-342118142D02*
X142205000Y-342046714D01*
X142276428Y-342118142D01*
X142205000Y-342189571D01*
X142133571Y-342118142D01*
X142276428Y-342118142D01*
X143633571Y-343046714D02*
X143562142Y-342903857D01*
X143419285Y-342832428D01*
X142133571Y-342832428D01*
X142633571Y-343403857D02*
X142633571Y-343975285D01*
X142133571Y-343618142D02*
X143419285Y-343618142D01*
X143562142Y-343689571D01*
X143633571Y-343832428D01*
X143633571Y-343975285D01*
X143562142Y-346189571D02*
X143633571Y-346046714D01*
X143633571Y-345761000D01*
X143562142Y-345618142D01*
X143419285Y-345546714D01*
X142847857Y-345546714D01*
X142705000Y-345618142D01*
X142633571Y-345761000D01*
X142633571Y-346046714D01*
X142705000Y-346189571D01*
X142847857Y-346261000D01*
X142990714Y-346261000D01*
X143133571Y-345546714D01*
X142633571Y-346761000D02*
X143633571Y-347118142D01*
X142633571Y-347475285D01*
X143562142Y-348618142D02*
X143633571Y-348475285D01*
X143633571Y-348189571D01*
X143562142Y-348046714D01*
X143419285Y-347975285D01*
X142847857Y-347975285D01*
X142705000Y-348046714D01*
X142633571Y-348189571D01*
X142633571Y-348475285D01*
X142705000Y-348618142D01*
X142847857Y-348689571D01*
X142990714Y-348689571D01*
X143133571Y-347975285D01*
X143633571Y-349332428D02*
X142633571Y-349332428D01*
X142919285Y-349332428D02*
X142776428Y-349403857D01*
X142705000Y-349475285D01*
X142633571Y-349618142D01*
X142633571Y-349761000D01*
X143633571Y-352046714D02*
X142133571Y-352046714D01*
X143562142Y-352046714D02*
X143633571Y-351903857D01*
X143633571Y-351618142D01*
X143562142Y-351475285D01*
X143490714Y-351403857D01*
X143347857Y-351332428D01*
X142919285Y-351332428D01*
X142776428Y-351403857D01*
X142705000Y-351475285D01*
X142633571Y-351618142D01*
X142633571Y-351903857D01*
X142705000Y-352046714D01*
X143633571Y-352761000D02*
X142633571Y-352761000D01*
X142133571Y-352761000D02*
X142205000Y-352689571D01*
X142276428Y-352761000D01*
X142205000Y-352832428D01*
X142133571Y-352761000D01*
X142276428Y-352761000D01*
X142633571Y-354118142D02*
X143847857Y-354118142D01*
X143990714Y-354046714D01*
X144062142Y-353975285D01*
X144133571Y-353832428D01*
X144133571Y-353618142D01*
X144062142Y-353475285D01*
X143562142Y-354118142D02*
X143633571Y-353975285D01*
X143633571Y-353689571D01*
X143562142Y-353546714D01*
X143490714Y-353475285D01*
X143347857Y-353403857D01*
X142919285Y-353403857D01*
X142776428Y-353475285D01*
X142705000Y-353546714D01*
X142633571Y-353689571D01*
X142633571Y-353975285D01*
X142705000Y-354118142D01*
X143490714Y-354832428D02*
X143562142Y-354903857D01*
X143633571Y-354832428D01*
X143562142Y-354761000D01*
X143490714Y-354832428D01*
X143633571Y-354832428D01*
M02*
