%TF.GenerationSoftware,KiCad,Pcbnew,5.1.7-a382d34a8~88~ubuntu20.04.1*%
%TF.CreationDate,2021-03-09T09:32:07+01:00*%
%TF.ProjectId,narcise-redux,6e617263-6973-4652-9d72-656475782e6b,rev?*%
%TF.SameCoordinates,Original*%
%TF.FileFunction,Copper,L2,Bot*%
%TF.FilePolarity,Positive*%
%FSLAX46Y46*%
G04 Gerber Fmt 4.6, Leading zero omitted, Abs format (unit mm)*
G04 Created by KiCad (PCBNEW 5.1.7-a382d34a8~88~ubuntu20.04.1) date 2021-03-09 09:32:07*
%MOMM*%
%LPD*%
G01*
G04 APERTURE LIST*
%TA.AperFunction,ComponentPad*%
%ADD10C,5.000000*%
%TD*%
%TA.AperFunction,ComponentPad*%
%ADD11C,0.800000*%
%TD*%
%TA.AperFunction,ComponentPad*%
%ADD12C,8.600000*%
%TD*%
%TA.AperFunction,ComponentPad*%
%ADD13C,0.900000*%
%TD*%
%TA.AperFunction,ComponentPad*%
%ADD14O,1.400000X1.400000*%
%TD*%
%TA.AperFunction,ComponentPad*%
%ADD15C,1.400000*%
%TD*%
%TA.AperFunction,ComponentPad*%
%ADD16O,1.905000X2.000000*%
%TD*%
%TA.AperFunction,ComponentPad*%
%ADD17R,1.905000X2.000000*%
%TD*%
%TA.AperFunction,ComponentPad*%
%ADD18O,3.500000X2.500000*%
%TD*%
%TA.AperFunction,ComponentPad*%
%ADD19O,2.500000X3.500000*%
%TD*%
%TA.AperFunction,ComponentPad*%
%ADD20C,2.500000*%
%TD*%
%TA.AperFunction,ComponentPad*%
%ADD21C,1.524000*%
%TD*%
%TA.AperFunction,ComponentPad*%
%ADD22R,1.800000X1.800000*%
%TD*%
%TA.AperFunction,ComponentPad*%
%ADD23C,1.800000*%
%TD*%
%TA.AperFunction,ComponentPad*%
%ADD24C,1.600000*%
%TD*%
%TA.AperFunction,ComponentPad*%
%ADD25R,1.524000X1.524000*%
%TD*%
%TA.AperFunction,ComponentPad*%
%ADD26O,2.200000X2.200000*%
%TD*%
%TA.AperFunction,ComponentPad*%
%ADD27R,2.200000X2.200000*%
%TD*%
%TA.AperFunction,ViaPad*%
%ADD28C,0.800000*%
%TD*%
%TA.AperFunction,Conductor*%
%ADD29C,0.750000*%
%TD*%
%TA.AperFunction,Conductor*%
%ADD30C,0.250000*%
%TD*%
%TA.AperFunction,Conductor*%
%ADD31C,0.254000*%
%TD*%
%TA.AperFunction,Conductor*%
%ADD32C,0.100000*%
%TD*%
%TA.AperFunction,NonConductor*%
%ADD33C,0.254000*%
%TD*%
%TA.AperFunction,NonConductor*%
%ADD34C,0.100000*%
%TD*%
G04 APERTURE END LIST*
D10*
%TO.P,REF\u002A\u002A,1*%
%TO.N,N/C*%
X95122000Y-284725000D03*
D11*
X95122000Y-282850000D03*
X96447825Y-283399175D03*
X96997000Y-284725000D03*
X96447825Y-286050825D03*
X95122000Y-286600000D03*
X93796175Y-286050825D03*
X93247000Y-284725000D03*
X93796175Y-283399175D03*
%TD*%
%TO.P,REF\u002A\u002A,1*%
%TO.N,N/C*%
X78937175Y-283399175D03*
X78388000Y-284725000D03*
X78937175Y-286050825D03*
X80263000Y-286600000D03*
X81588825Y-286050825D03*
X82138000Y-284725000D03*
X81588825Y-283399175D03*
X80263000Y-282850000D03*
D10*
X80263000Y-284725000D03*
%TD*%
%TO.P,REF\u002A\u002A,1*%
%TO.N,N/C*%
X144793000Y-292577000D03*
D11*
X146668000Y-292577000D03*
X146118825Y-293902825D03*
X144793000Y-294452000D03*
X143467175Y-293902825D03*
X142918000Y-292577000D03*
X143467175Y-291251175D03*
X144793000Y-290702000D03*
X146118825Y-291251175D03*
%TD*%
%TO.P,REF\u002A\u002A,1*%
%TO.N,N/C*%
X146118825Y-273090175D03*
X144793000Y-272541000D03*
X143467175Y-273090175D03*
X142918000Y-274416000D03*
X143467175Y-275741825D03*
X144793000Y-276291000D03*
X146118825Y-275741825D03*
X146668000Y-274416000D03*
D10*
X144793000Y-274416000D03*
%TD*%
%TO.P,REF\u002A\u002A,1*%
%TO.N,N/C*%
X131378000Y-275447000D03*
D11*
X133253000Y-275447000D03*
X132703825Y-276772825D03*
X131378000Y-277322000D03*
X130052175Y-276772825D03*
X129503000Y-275447000D03*
X130052175Y-274121175D03*
X131378000Y-273572000D03*
X132703825Y-274121175D03*
%TD*%
%TO.P,REF\u002A\u002A,1*%
%TO.N,N/C*%
X105906825Y-274375175D03*
X104581000Y-273826000D03*
X103255175Y-274375175D03*
X102706000Y-275701000D03*
X103255175Y-277026825D03*
X104581000Y-277576000D03*
X105906825Y-277026825D03*
X106456000Y-275701000D03*
D10*
X104581000Y-275701000D03*
%TD*%
D12*
%TO.P,REF\u002A\u002A,1*%
%TO.N,N/C*%
X36599000Y-301006000D03*
D13*
X39824000Y-301006000D03*
X38879419Y-303286419D03*
X36599000Y-304231000D03*
X34318581Y-303286419D03*
X33374000Y-301006000D03*
X34318581Y-298725581D03*
X36599000Y-297781000D03*
X38879419Y-298725581D03*
%TD*%
D12*
%TO.P,REF\u002A\u002A,1*%
%TO.N,N/C*%
X128039000Y-301006000D03*
D13*
X131264000Y-301006000D03*
X130319419Y-303286419D03*
X128039000Y-304231000D03*
X125758581Y-303286419D03*
X124814000Y-301006000D03*
X125758581Y-298725581D03*
X128039000Y-297781000D03*
X130319419Y-298725581D03*
%TD*%
D12*
%TO.P,REF\u002A\u002A,1*%
%TO.N,N/C*%
X127912000Y-380254000D03*
D13*
X131137000Y-380254000D03*
X130192419Y-382534419D03*
X127912000Y-383479000D03*
X125631581Y-382534419D03*
X124687000Y-380254000D03*
X125631581Y-377973581D03*
X127912000Y-377029000D03*
X130192419Y-377973581D03*
%TD*%
%TO.P,REF\u002A\u002A,1*%
%TO.N,N/C*%
X39006419Y-378100581D03*
X36726000Y-377156000D03*
X34445581Y-378100581D03*
X33501000Y-380381000D03*
X34445581Y-382661419D03*
X36726000Y-383606000D03*
X39006419Y-382661419D03*
X39951000Y-380381000D03*
D12*
X36726000Y-380381000D03*
%TD*%
D14*
%TO.P,R11,2*%
%TO.N,POWER-IN-*%
X94257000Y-368062000D03*
D15*
%TO.P,R11,1*%
%TO.N,sheet10*%
X94257000Y-360442000D03*
%TD*%
D14*
%TO.P,R10,2*%
%TO.N,POWER-IN-*%
X91717000Y-368062000D03*
D15*
%TO.P,R10,1*%
%TO.N,sheet9*%
X91717000Y-360442000D03*
%TD*%
D14*
%TO.P,R9,2*%
%TO.N,POWER-IN-*%
X89177000Y-368062000D03*
D15*
%TO.P,R9,1*%
%TO.N,sheet8*%
X89177000Y-360442000D03*
%TD*%
D14*
%TO.P,R8,2*%
%TO.N,POWER-IN-*%
X86637000Y-368062000D03*
D15*
%TO.P,R8,1*%
%TO.N,sheet7*%
X86637000Y-360442000D03*
%TD*%
D14*
%TO.P,R7,2*%
%TO.N,POWER-IN-*%
X106957000Y-370602000D03*
D15*
%TO.P,R7,1*%
%TO.N,sheet6*%
X106957000Y-378222000D03*
%TD*%
D14*
%TO.P,R5,2*%
%TO.N,POWER-IN-*%
X104417000Y-370602000D03*
D15*
%TO.P,R5,1*%
%TO.N,sheet5*%
X104417000Y-378222000D03*
%TD*%
D14*
%TO.P,R4,2*%
%TO.N,POWER-IN-*%
X101877000Y-370602000D03*
D15*
%TO.P,R4,1*%
%TO.N,sheet4*%
X101877000Y-378222000D03*
%TD*%
D14*
%TO.P,R3,2*%
%TO.N,POWER-IN-*%
X99337000Y-370602000D03*
D15*
%TO.P,R3,1*%
%TO.N,sheet3*%
X99337000Y-378222000D03*
%TD*%
D14*
%TO.P,R2,2*%
%TO.N,POWER-IN-*%
X96797000Y-370602000D03*
D15*
%TO.P,R2,1*%
%TO.N,sheet2*%
X96797000Y-378222000D03*
%TD*%
D16*
%TO.P,Q11,3*%
%TO.N,POWER-IN-*%
X94511000Y-331486000D03*
%TO.P,Q11,2*%
%TO.N,Net-(Q11-Pad2)*%
X97051000Y-331486000D03*
D17*
%TO.P,Q11,1*%
%TO.N,sheet10*%
X99591000Y-331486000D03*
%TD*%
D16*
%TO.P,Q10,3*%
%TO.N,POWER-IN-*%
X83335000Y-331486000D03*
%TO.P,Q10,2*%
%TO.N,Net-(Q10-Pad2)*%
X85875000Y-331486000D03*
D17*
%TO.P,Q10,1*%
%TO.N,sheet9*%
X88415000Y-331486000D03*
%TD*%
D16*
%TO.P,Q9,3*%
%TO.N,POWER-IN-*%
X72413000Y-331486000D03*
%TO.P,Q9,2*%
%TO.N,Net-(Q9-Pad2)*%
X74953000Y-331486000D03*
D17*
%TO.P,Q9,1*%
%TO.N,sheet8*%
X77493000Y-331486000D03*
%TD*%
D16*
%TO.P,Q8,3*%
%TO.N,POWER-IN-*%
X61491000Y-331486000D03*
%TO.P,Q8,2*%
%TO.N,Net-(Q8-Pad2)*%
X64031000Y-331486000D03*
D17*
%TO.P,Q8,1*%
%TO.N,sheet7*%
X66571000Y-331486000D03*
%TD*%
D16*
%TO.P,Q7,3*%
%TO.N,POWER-IN-*%
X50315000Y-331486000D03*
%TO.P,Q7,2*%
%TO.N,Net-(Q7-Pad2)*%
X52855000Y-331486000D03*
D17*
%TO.P,Q7,1*%
%TO.N,sheet6*%
X55395000Y-331486000D03*
%TD*%
D16*
%TO.P,Q5,3*%
%TO.N,POWER-IN-*%
X91209000Y-308880000D03*
%TO.P,Q5,2*%
%TO.N,Net-(Q5-Pad2)*%
X93749000Y-308880000D03*
D17*
%TO.P,Q5,1*%
%TO.N,sheet5*%
X96289000Y-308880000D03*
%TD*%
D16*
%TO.P,Q4,3*%
%TO.N,POWER-IN-*%
X79779000Y-308880000D03*
%TO.P,Q4,2*%
%TO.N,Net-(Q4-Pad2)*%
X82319000Y-308880000D03*
D17*
%TO.P,Q4,1*%
%TO.N,sheet4*%
X84859000Y-308880000D03*
%TD*%
D16*
%TO.P,Q3,3*%
%TO.N,POWER-IN-*%
X68238000Y-308881000D03*
%TO.P,Q3,2*%
%TO.N,Net-(Q3-Pad2)*%
X70778000Y-308881000D03*
D17*
%TO.P,Q3,1*%
%TO.N,sheet3*%
X73318000Y-308881000D03*
%TD*%
D16*
%TO.P,Q2,3*%
%TO.N,POWER-IN-*%
X57099000Y-308939000D03*
%TO.P,Q2,2*%
%TO.N,Net-(Q2-Pad2)*%
X59639000Y-308939000D03*
D17*
%TO.P,Q2,1*%
%TO.N,sheet2*%
X62179000Y-308939000D03*
%TD*%
D18*
%TO.P,U21,1*%
%TO.N,POWER-IN+*%
X60983000Y-378222000D03*
D19*
%TO.P,U21,0*%
%TO.N,Net-(U21-Pad0)*%
X56183000Y-378722000D03*
X65783000Y-378722000D03*
D20*
%TO.P,U21,2*%
%TO.N,POWER-IN-*%
X60983000Y-372222000D03*
%TO.P,U21,0*%
%TO.N,Net-(U21-Pad0)*%
X60983000Y-381472000D03*
%TD*%
D21*
%TO.P,U11,30*%
%TO.N,Net-(U11-Pad30)*%
X76477000Y-357140000D03*
%TO.P,U11,29*%
%TO.N,Net-(U11-Pad29)*%
X79017000Y-357140000D03*
%TO.P,U11,28*%
%TO.N,Net-(U11-Pad28)*%
X81557000Y-357140000D03*
%TO.P,U11,27*%
%TO.N,Net-(U11-Pad27)*%
X84097000Y-357140000D03*
%TO.P,U11,26*%
%TO.N,sheet7*%
X86637000Y-357140000D03*
%TO.P,U11,25*%
%TO.N,sheet8*%
X89177000Y-357140000D03*
%TO.P,U11,24*%
%TO.N,sheet9*%
X91717000Y-357140000D03*
%TO.P,U11,23*%
%TO.N,sheet10*%
X94257000Y-357140000D03*
%TO.P,U11,22*%
%TO.N,Net-(U11-Pad22)*%
X96797000Y-357140000D03*
%TO.P,U11,21*%
%TO.N,Net-(U11-Pad21)*%
X99337000Y-357140000D03*
%TO.P,U11,20*%
%TO.N,Net-(U11-Pad20)*%
X101877000Y-357140000D03*
%TO.P,U11,19*%
%TO.N,Net-(U11-Pad19)*%
X104417000Y-357140000D03*
%TO.P,U11,18*%
%TO.N,Net-(U11-Pad18)*%
X106957000Y-357140000D03*
%TO.P,U11,17*%
%TO.N,POWER-IN-*%
X109497000Y-357140000D03*
%TO.P,U11,16*%
%TO.N,Net-(U11-Pad16)*%
X112037000Y-357140000D03*
%TO.P,U11,15*%
%TO.N,+5V*%
X112037000Y-382032000D03*
%TO.P,U11,14*%
%TO.N,POWER-IN-*%
X109497000Y-382032000D03*
X109497000Y-382032000D03*
%TO.P,U11,13*%
%TO.N,sheet6*%
X106957000Y-382032000D03*
%TO.P,U11,12*%
%TO.N,sheet5*%
X104417000Y-382032000D03*
%TO.P,U11,11*%
%TO.N,sheet4*%
X101877000Y-382032000D03*
%TO.P,U11,10*%
%TO.N,sheet3*%
X99337000Y-382032000D03*
%TO.P,U11,9*%
%TO.N,sheet2*%
X96797000Y-382032000D03*
%TO.P,U11,8*%
%TO.N,sheet1*%
X94257000Y-382032000D03*
%TO.P,U11,7*%
%TO.N,Net-(U11-Pad7)*%
X91717000Y-382032000D03*
%TO.P,U11,6*%
%TO.N,Net-(U11-Pad6)*%
X89177000Y-382032000D03*
%TO.P,U11,5*%
%TO.N,Net-(U11-Pad5)*%
X86637000Y-382032000D03*
%TO.P,U11,4*%
%TO.N,Net-(U11-Pad4)*%
X84097000Y-382032000D03*
%TO.P,U11,3*%
%TO.N,Net-(U11-Pad3)*%
X81557000Y-382032000D03*
%TO.P,U11,2*%
%TO.N,Net-(U11-Pad2)*%
X79017000Y-382032000D03*
%TO.P,U11,1*%
%TO.N,Net-(U11-Pad1)*%
X76477000Y-382032000D03*
%TD*%
D22*
%TO.P,U10,1*%
%TO.N,+24V*%
X63523000Y-358156000D03*
D23*
%TO.P,U10,2*%
%TO.N,POWER-IN-*%
X60983000Y-358156000D03*
%TO.P,U10,3*%
%TO.N,+5V*%
X58443000Y-358156000D03*
%TD*%
D14*
%TO.P,R6,2*%
%TO.N,POWER-IN-*%
X41171000Y-367173000D03*
D15*
%TO.P,R6,1*%
%TO.N,Net-(D1-Pad2)*%
X41171000Y-374793000D03*
%TD*%
D14*
%TO.P,R1,2*%
%TO.N,POWER-IN-*%
X94257000Y-370602000D03*
D15*
%TO.P,R1,1*%
%TO.N,sheet1*%
X94257000Y-378222000D03*
%TD*%
D16*
%TO.P,Q6,3*%
%TO.N,+24V*%
X51459000Y-374259000D03*
%TO.P,Q6,2*%
%TO.N,POWER-IN+*%
X48919000Y-374259000D03*
D17*
%TO.P,Q6,1*%
%TO.N,Net-(D1-Pad2)*%
X46379000Y-374259000D03*
%TD*%
D16*
%TO.P,Q1,3*%
%TO.N,POWER-IN-*%
X45856000Y-308835000D03*
%TO.P,Q1,2*%
%TO.N,Net-(Q1-Pad2)*%
X48396000Y-308835000D03*
D17*
%TO.P,Q1,1*%
%TO.N,sheet1*%
X50936000Y-308835000D03*
%TD*%
D24*
%TO.P,Murata-Ceramic-Capacitor-50v1-22uF2,2*%
%TO.N,POWER-IN-*%
X58189000Y-367514000D03*
%TO.P,Murata-Ceramic-Capacitor-50v1-22uF2,1*%
%TO.N,+5V*%
X58189000Y-365014000D03*
%TD*%
%TO.P,Murata-Ceramic-Capacitor-50v1-22uF1,2*%
%TO.N,POWER-IN-*%
X64285000Y-365054000D03*
%TO.P,Murata-Ceramic-Capacitor-50v1-22uF1,1*%
%TO.N,+24V*%
X64285000Y-367554000D03*
%TD*%
D21*
%TO.P,J8,20*%
%TO.N,Net-(J8-Pad1)*%
X129600000Y-287156400D03*
%TO.P,J8,19*%
X129600000Y-282305000D03*
%TO.P,J8,18*%
X127060000Y-287156400D03*
%TO.P,J8,17*%
X127060000Y-282305000D03*
%TO.P,J8,16*%
X124520000Y-287156400D03*
%TO.P,J8,15*%
X124520000Y-282305000D03*
%TO.P,J8,14*%
X121980000Y-287156400D03*
%TO.P,J8,13*%
X121980000Y-282305000D03*
%TO.P,J8,12*%
X119440000Y-287156400D03*
%TO.P,J8,11*%
X119440000Y-282305000D03*
%TO.P,J8,10*%
X116900000Y-287156400D03*
%TO.P,J8,9*%
X116900000Y-282305000D03*
%TO.P,J8,8*%
X114360000Y-287156400D03*
%TO.P,J8,7*%
X114360000Y-282305000D03*
%TO.P,J8,6*%
X111820000Y-287156400D03*
%TO.P,J8,5*%
X111820000Y-282305000D03*
%TO.P,J8,4*%
X109280000Y-287156400D03*
%TO.P,J8,3*%
X109280000Y-282305000D03*
%TO.P,J8,2*%
X106740000Y-287156400D03*
D25*
%TO.P,J8,1*%
X106740000Y-282305000D03*
%TD*%
D26*
%TO.P,D1,2*%
%TO.N,Net-(D1-Pad2)*%
X44759000Y-380508000D03*
D27*
%TO.P,D1,1*%
%TO.N,+24V*%
X52379000Y-380508000D03*
%TD*%
D28*
%TO.N,Net-(U3-Pad1)*%
X151434000Y-380540000D03*
X151624500Y-360410500D03*
%TO.N,Net-(X28-PadL1.1)*%
X150390000Y-351023000D03*
%TD*%
D29*
%TO.N,+5V*%
X74939999Y-382769761D02*
X76361238Y-384191000D01*
X74939999Y-373377997D02*
X74939999Y-382769761D01*
X65041001Y-363478999D02*
X74939999Y-373377997D01*
X59724001Y-363478999D02*
X65041001Y-363478999D01*
X58189000Y-365014000D02*
X59724001Y-363478999D01*
X109878000Y-384191000D02*
X112037000Y-382032000D01*
X76361238Y-384191000D02*
X109878000Y-384191000D01*
D30*
%TO.N,sheet2*%
X72853001Y-326537001D02*
X72853001Y-319613001D01*
X71135490Y-328254512D02*
X72853001Y-326537001D01*
X71135490Y-332062661D02*
X71135490Y-328254512D01*
X80104001Y-341031172D02*
X71135490Y-332062661D01*
X80104001Y-357661761D02*
X80104001Y-341031172D01*
X87662001Y-365219761D02*
X80104001Y-357661761D01*
X72853001Y-319613001D02*
X62179000Y-308939000D01*
X87662001Y-369087001D02*
X87662001Y-365219761D01*
X96797000Y-378222000D02*
X87662001Y-369087001D01*
%TO.N,sheet3*%
X74206000Y-309769000D02*
X73318000Y-308881000D01*
X75207000Y-312690000D02*
X75207000Y-310023000D01*
X78636000Y-316119000D02*
X75207000Y-312690000D01*
X79906000Y-323104000D02*
X78636000Y-321834000D01*
X79906000Y-328311000D02*
X79906000Y-323104000D01*
X81684000Y-330089000D02*
X79906000Y-328311000D01*
X81684000Y-338217000D02*
X81684000Y-330089000D01*
X78636000Y-321834000D02*
X78636000Y-316119000D01*
X99337000Y-378222000D02*
X95282001Y-374167001D01*
X74953000Y-309769000D02*
X74206000Y-309769000D01*
X95282001Y-374167001D02*
X95282001Y-370109999D01*
X95282001Y-370109999D02*
X94259003Y-369087001D01*
X75207000Y-310023000D02*
X74953000Y-309769000D01*
X94259003Y-369087001D02*
X93764999Y-369087001D01*
X93764999Y-369087001D02*
X93231999Y-368554001D01*
X93231999Y-368554001D02*
X93231999Y-366014001D01*
X88089999Y-360872001D02*
X88089999Y-355798999D01*
X85748000Y-353457000D02*
X85748000Y-351552000D01*
X85748000Y-351552000D02*
X82827000Y-348631000D01*
X82827000Y-348631000D02*
X82827000Y-339360000D01*
X93231999Y-366014001D02*
X88089999Y-360872001D01*
X88089999Y-355798999D02*
X85748000Y-353457000D01*
X82827000Y-339360000D02*
X81684000Y-338217000D01*
%TO.N,sheet4*%
X90264001Y-361529001D02*
X90264001Y-314285001D01*
X97822001Y-369087001D02*
X90264001Y-361529001D01*
X90264001Y-314285001D02*
X84859000Y-308880000D01*
X97822001Y-374167001D02*
X97822001Y-369087001D01*
X101877000Y-378222000D02*
X97822001Y-374167001D01*
%TO.N,sheet5*%
X93233490Y-332062661D02*
X93233490Y-329126512D01*
X100789999Y-339619170D02*
X93233490Y-332062661D01*
X96289000Y-326071002D02*
X96289000Y-308880000D01*
X93233490Y-329126512D02*
X96289000Y-326071002D01*
X100789999Y-374594999D02*
X100789999Y-339619170D01*
X104417000Y-378222000D02*
X100789999Y-374594999D01*
%TD*%
D31*
%TO.N,POWER-IN-*%
X134008000Y-385969000D02*
X30122000Y-385969000D01*
X30122000Y-379894945D01*
X31791000Y-379894945D01*
X31791000Y-380867055D01*
X31980650Y-381820486D01*
X32352660Y-382718599D01*
X32892735Y-383526879D01*
X33580121Y-384214265D01*
X34388401Y-384754340D01*
X35286514Y-385126350D01*
X36239945Y-385316000D01*
X37212055Y-385316000D01*
X38165486Y-385126350D01*
X39063599Y-384754340D01*
X39871879Y-384214265D01*
X40559265Y-383526879D01*
X41099340Y-382718599D01*
X41471350Y-381820486D01*
X41661000Y-380867055D01*
X41661000Y-380337117D01*
X43024000Y-380337117D01*
X43024000Y-380678883D01*
X43090675Y-381014081D01*
X43221463Y-381329831D01*
X43411337Y-381613998D01*
X43653002Y-381855663D01*
X43937169Y-382045537D01*
X44252919Y-382176325D01*
X44588117Y-382243000D01*
X44929883Y-382243000D01*
X45265081Y-382176325D01*
X45580831Y-382045537D01*
X45864998Y-381855663D01*
X46106663Y-381613998D01*
X46296537Y-381329831D01*
X46427325Y-381014081D01*
X46494000Y-380678883D01*
X46494000Y-380337117D01*
X46427325Y-380001919D01*
X46296537Y-379686169D01*
X46110671Y-379408000D01*
X50640928Y-379408000D01*
X50640928Y-381608000D01*
X50653188Y-381732482D01*
X50689498Y-381852180D01*
X50748463Y-381962494D01*
X50827815Y-382059185D01*
X50924506Y-382138537D01*
X51034820Y-382197502D01*
X51154518Y-382233812D01*
X51279000Y-382246072D01*
X53479000Y-382246072D01*
X53603482Y-382233812D01*
X53723180Y-382197502D01*
X53833494Y-382138537D01*
X53930185Y-382059185D01*
X54009537Y-381962494D01*
X54068502Y-381852180D01*
X54104812Y-381732482D01*
X54117072Y-381608000D01*
X54117072Y-379408000D01*
X54104812Y-379283518D01*
X54068502Y-379163820D01*
X54009537Y-379053506D01*
X53930185Y-378956815D01*
X53833494Y-378877463D01*
X53723180Y-378818498D01*
X53603482Y-378782188D01*
X53479000Y-378769928D01*
X51279000Y-378769928D01*
X51154518Y-378782188D01*
X51034820Y-378818498D01*
X50924506Y-378877463D01*
X50827815Y-378956815D01*
X50748463Y-379053506D01*
X50689498Y-379163820D01*
X50653188Y-379283518D01*
X50640928Y-379408000D01*
X46110671Y-379408000D01*
X46106663Y-379402002D01*
X45864998Y-379160337D01*
X45580831Y-378970463D01*
X45265081Y-378839675D01*
X44929883Y-378773000D01*
X44588117Y-378773000D01*
X44252919Y-378839675D01*
X43937169Y-378970463D01*
X43653002Y-379160337D01*
X43411337Y-379402002D01*
X43221463Y-379686169D01*
X43090675Y-380001919D01*
X43024000Y-380337117D01*
X41661000Y-380337117D01*
X41661000Y-379894945D01*
X41471350Y-378941514D01*
X41134964Y-378129403D01*
X54298000Y-378129403D01*
X54298000Y-379314596D01*
X54325275Y-379591523D01*
X54433061Y-379946847D01*
X54608097Y-380274317D01*
X54843655Y-380561345D01*
X55130683Y-380796903D01*
X55458152Y-380971939D01*
X55813476Y-381079725D01*
X56183000Y-381116120D01*
X56552523Y-381079725D01*
X56907847Y-380971939D01*
X57235317Y-380796903D01*
X57522345Y-380561345D01*
X57757903Y-380274317D01*
X57932939Y-379946848D01*
X58040725Y-379591524D01*
X58068000Y-379314597D01*
X58068000Y-378222000D01*
X58588880Y-378222000D01*
X58625275Y-378591524D01*
X58733061Y-378946848D01*
X58908097Y-379274317D01*
X59143655Y-379561345D01*
X59430683Y-379796903D01*
X59758152Y-379971939D01*
X59811067Y-379987990D01*
X59781382Y-380007825D01*
X59518825Y-380270382D01*
X59312534Y-380579118D01*
X59170439Y-380922166D01*
X59098000Y-381286344D01*
X59098000Y-381657656D01*
X59170439Y-382021834D01*
X59312534Y-382364882D01*
X59518825Y-382673618D01*
X59781382Y-382936175D01*
X60090118Y-383142466D01*
X60433166Y-383284561D01*
X60797344Y-383357000D01*
X61168656Y-383357000D01*
X61532834Y-383284561D01*
X61875882Y-383142466D01*
X62184618Y-382936175D01*
X62447175Y-382673618D01*
X62653466Y-382364882D01*
X62795561Y-382021834D01*
X62868000Y-381657656D01*
X62868000Y-381286344D01*
X62795561Y-380922166D01*
X62653466Y-380579118D01*
X62447175Y-380270382D01*
X62184618Y-380007825D01*
X62154933Y-379987990D01*
X62207848Y-379971939D01*
X62535317Y-379796903D01*
X62822345Y-379561345D01*
X63057903Y-379274317D01*
X63232939Y-378946848D01*
X63340725Y-378591524D01*
X63377120Y-378222000D01*
X63368000Y-378129403D01*
X63898000Y-378129403D01*
X63898000Y-379314596D01*
X63925275Y-379591523D01*
X64033061Y-379946847D01*
X64208097Y-380274317D01*
X64443655Y-380561345D01*
X64730683Y-380796903D01*
X65058152Y-380971939D01*
X65413476Y-381079725D01*
X65783000Y-381116120D01*
X66152523Y-381079725D01*
X66507847Y-380971939D01*
X66835317Y-380796903D01*
X67122345Y-380561345D01*
X67357903Y-380274317D01*
X67532939Y-379946848D01*
X67640725Y-379591524D01*
X67668000Y-379314597D01*
X67668000Y-378129403D01*
X67640725Y-377852476D01*
X67532939Y-377497152D01*
X67357903Y-377169683D01*
X67122345Y-376882655D01*
X66835317Y-376647097D01*
X66507848Y-376472061D01*
X66152524Y-376364275D01*
X65783000Y-376327880D01*
X65413477Y-376364275D01*
X65058153Y-376472061D01*
X64730684Y-376647097D01*
X64443656Y-376882655D01*
X64208098Y-377169683D01*
X64033061Y-377497152D01*
X63925275Y-377852476D01*
X63898000Y-378129403D01*
X63368000Y-378129403D01*
X63340725Y-377852476D01*
X63232939Y-377497152D01*
X63057903Y-377169683D01*
X62822345Y-376882655D01*
X62535317Y-376647097D01*
X62207848Y-376472061D01*
X61852524Y-376364275D01*
X61575597Y-376337000D01*
X60390403Y-376337000D01*
X60113476Y-376364275D01*
X59758152Y-376472061D01*
X59430683Y-376647097D01*
X59143655Y-376882655D01*
X58908097Y-377169683D01*
X58733061Y-377497152D01*
X58625275Y-377852476D01*
X58588880Y-378222000D01*
X58068000Y-378222000D01*
X58068000Y-378129403D01*
X58040725Y-377852476D01*
X57932939Y-377497152D01*
X57757903Y-377169683D01*
X57522345Y-376882655D01*
X57235317Y-376647097D01*
X56907848Y-376472061D01*
X56552524Y-376364275D01*
X56183000Y-376327880D01*
X55813477Y-376364275D01*
X55458153Y-376472061D01*
X55130684Y-376647097D01*
X54843656Y-376882655D01*
X54608098Y-377169683D01*
X54433061Y-377497152D01*
X54325275Y-377852476D01*
X54298000Y-378129403D01*
X41134964Y-378129403D01*
X41099340Y-378043401D01*
X40559265Y-377235121D01*
X39871879Y-376547735D01*
X39063599Y-376007660D01*
X38165486Y-375635650D01*
X37212055Y-375446000D01*
X36239945Y-375446000D01*
X35286514Y-375635650D01*
X34388401Y-376007660D01*
X33580121Y-376547735D01*
X32892735Y-377235121D01*
X32352660Y-378043401D01*
X31980650Y-378941514D01*
X31791000Y-379894945D01*
X30122000Y-379894945D01*
X30122000Y-374661514D01*
X39836000Y-374661514D01*
X39836000Y-374924486D01*
X39887304Y-375182405D01*
X39987939Y-375425359D01*
X40134038Y-375644013D01*
X40319987Y-375829962D01*
X40538641Y-375976061D01*
X40781595Y-376076696D01*
X41039514Y-376128000D01*
X41302486Y-376128000D01*
X41560405Y-376076696D01*
X41803359Y-375976061D01*
X42022013Y-375829962D01*
X42207962Y-375644013D01*
X42354061Y-375425359D01*
X42454696Y-375182405D01*
X42506000Y-374924486D01*
X42506000Y-374661514D01*
X42454696Y-374403595D01*
X42354061Y-374160641D01*
X42207962Y-373941987D01*
X42022013Y-373756038D01*
X41803359Y-373609939D01*
X41560405Y-373509304D01*
X41302486Y-373458000D01*
X41039514Y-373458000D01*
X40781595Y-373509304D01*
X40538641Y-373609939D01*
X40319987Y-373756038D01*
X40134038Y-373941987D01*
X39987939Y-374160641D01*
X39887304Y-374403595D01*
X39836000Y-374661514D01*
X30122000Y-374661514D01*
X30122000Y-373259000D01*
X44788428Y-373259000D01*
X44788428Y-375259000D01*
X44800688Y-375383482D01*
X44836998Y-375503180D01*
X44895963Y-375613494D01*
X44975315Y-375710185D01*
X45072006Y-375789537D01*
X45182320Y-375848502D01*
X45302018Y-375884812D01*
X45426500Y-375897072D01*
X47331500Y-375897072D01*
X47455982Y-375884812D01*
X47575680Y-375848502D01*
X47685994Y-375789537D01*
X47782685Y-375710185D01*
X47862037Y-375613494D01*
X47906905Y-375529553D01*
X48032766Y-375632845D01*
X48308552Y-375780255D01*
X48607797Y-375871030D01*
X48919000Y-375901681D01*
X49230204Y-375871030D01*
X49529449Y-375780255D01*
X49805235Y-375632845D01*
X50046963Y-375434463D01*
X50189000Y-375261391D01*
X50331037Y-375434463D01*
X50572766Y-375632845D01*
X50848552Y-375780255D01*
X51147797Y-375871030D01*
X51459000Y-375901681D01*
X51770204Y-375871030D01*
X52069449Y-375780255D01*
X52345235Y-375632845D01*
X52586963Y-375434463D01*
X52785345Y-375192734D01*
X52932755Y-374916948D01*
X53023530Y-374617703D01*
X53046500Y-374384485D01*
X53046500Y-374133514D01*
X53023530Y-373900296D01*
X52932755Y-373601051D01*
X52897774Y-373535605D01*
X59849000Y-373535605D01*
X59974914Y-373825577D01*
X60307126Y-373991433D01*
X60665312Y-374089290D01*
X61035706Y-374115389D01*
X61404075Y-374068725D01*
X61756262Y-373951094D01*
X61991086Y-373825577D01*
X62117000Y-373535605D01*
X60983000Y-372401605D01*
X59849000Y-373535605D01*
X52897774Y-373535605D01*
X52785345Y-373325265D01*
X52586963Y-373083537D01*
X52345234Y-372885155D01*
X52069448Y-372737745D01*
X51770203Y-372646970D01*
X51459000Y-372616319D01*
X51147796Y-372646970D01*
X50848551Y-372737745D01*
X50572765Y-372885155D01*
X50331037Y-373083537D01*
X50189000Y-373256609D01*
X50046963Y-373083537D01*
X49805234Y-372885155D01*
X49529448Y-372737745D01*
X49230203Y-372646970D01*
X48919000Y-372616319D01*
X48607796Y-372646970D01*
X48308551Y-372737745D01*
X48032765Y-372885155D01*
X47906905Y-372988446D01*
X47862037Y-372904506D01*
X47782685Y-372807815D01*
X47685994Y-372728463D01*
X47575680Y-372669498D01*
X47455982Y-372633188D01*
X47331500Y-372620928D01*
X45426500Y-372620928D01*
X45302018Y-372633188D01*
X45182320Y-372669498D01*
X45072006Y-372728463D01*
X44975315Y-372807815D01*
X44895963Y-372904506D01*
X44836998Y-373014820D01*
X44800688Y-373134518D01*
X44788428Y-373259000D01*
X30122000Y-373259000D01*
X30122000Y-372274706D01*
X59089611Y-372274706D01*
X59136275Y-372643075D01*
X59253906Y-372995262D01*
X59379423Y-373230086D01*
X59669395Y-373356000D01*
X60803395Y-372222000D01*
X61162605Y-372222000D01*
X62296605Y-373356000D01*
X62586577Y-373230086D01*
X62752433Y-372897874D01*
X62850290Y-372539688D01*
X62876389Y-372169294D01*
X62829725Y-371800925D01*
X62712094Y-371448738D01*
X62586577Y-371213914D01*
X62296605Y-371088000D01*
X61162605Y-372222000D01*
X60803395Y-372222000D01*
X59669395Y-371088000D01*
X59379423Y-371213914D01*
X59213567Y-371546126D01*
X59115710Y-371904312D01*
X59089611Y-372274706D01*
X30122000Y-372274706D01*
X30122000Y-370908395D01*
X59849000Y-370908395D01*
X60983000Y-372042395D01*
X62117000Y-370908395D01*
X61991086Y-370618423D01*
X61658874Y-370452567D01*
X61300688Y-370354710D01*
X60930294Y-370328611D01*
X60561925Y-370375275D01*
X60209738Y-370492906D01*
X59974914Y-370618423D01*
X59849000Y-370908395D01*
X30122000Y-370908395D01*
X30122000Y-368506702D01*
X57375903Y-368506702D01*
X57447486Y-368750671D01*
X57702996Y-368871571D01*
X57977184Y-368940300D01*
X58259512Y-368954217D01*
X58539130Y-368912787D01*
X58805292Y-368817603D01*
X58930514Y-368750671D01*
X59002097Y-368506702D01*
X58189000Y-367693605D01*
X57375903Y-368506702D01*
X30122000Y-368506702D01*
X30122000Y-367506330D01*
X39878278Y-367506330D01*
X39968147Y-367752123D01*
X40104241Y-367975660D01*
X40281330Y-368168351D01*
X40492608Y-368322792D01*
X40729956Y-368433047D01*
X40837671Y-368465716D01*
X41044000Y-368342374D01*
X41044000Y-367300000D01*
X41298000Y-367300000D01*
X41298000Y-368342374D01*
X41504329Y-368465716D01*
X41612044Y-368433047D01*
X41849392Y-368322792D01*
X42060670Y-368168351D01*
X42237759Y-367975660D01*
X42373853Y-367752123D01*
X42435136Y-367584512D01*
X56748783Y-367584512D01*
X56790213Y-367864130D01*
X56885397Y-368130292D01*
X56952329Y-368255514D01*
X57196298Y-368327097D01*
X58009395Y-367514000D01*
X58368605Y-367514000D01*
X59181702Y-368327097D01*
X59425671Y-368255514D01*
X59546571Y-368000004D01*
X59615300Y-367725816D01*
X59629217Y-367443488D01*
X59624651Y-367412665D01*
X62850000Y-367412665D01*
X62850000Y-367695335D01*
X62905147Y-367972574D01*
X63013320Y-368233727D01*
X63170363Y-368468759D01*
X63370241Y-368668637D01*
X63605273Y-368825680D01*
X63866426Y-368933853D01*
X64143665Y-368989000D01*
X64426335Y-368989000D01*
X64703574Y-368933853D01*
X64964727Y-368825680D01*
X65199759Y-368668637D01*
X65399637Y-368468759D01*
X65556680Y-368233727D01*
X65664853Y-367972574D01*
X65720000Y-367695335D01*
X65720000Y-367412665D01*
X65664853Y-367135426D01*
X65556680Y-366874273D01*
X65399637Y-366639241D01*
X65199759Y-366439363D01*
X64999131Y-366305308D01*
X65026514Y-366290671D01*
X65098097Y-366046702D01*
X64285000Y-365233605D01*
X63471903Y-366046702D01*
X63543486Y-366290671D01*
X63572341Y-366304324D01*
X63370241Y-366439363D01*
X63170363Y-366639241D01*
X63013320Y-366874273D01*
X62905147Y-367135426D01*
X62850000Y-367412665D01*
X59624651Y-367412665D01*
X59587787Y-367163870D01*
X59492603Y-366897708D01*
X59425671Y-366772486D01*
X59181702Y-366700903D01*
X58368605Y-367514000D01*
X58009395Y-367514000D01*
X57196298Y-366700903D01*
X56952329Y-366772486D01*
X56831429Y-367027996D01*
X56762700Y-367302184D01*
X56748783Y-367584512D01*
X42435136Y-367584512D01*
X42463722Y-367506330D01*
X42341201Y-367300000D01*
X41298000Y-367300000D01*
X41044000Y-367300000D01*
X40000799Y-367300000D01*
X39878278Y-367506330D01*
X30122000Y-367506330D01*
X30122000Y-366839670D01*
X39878278Y-366839670D01*
X40000799Y-367046000D01*
X41044000Y-367046000D01*
X41044000Y-366003626D01*
X41298000Y-366003626D01*
X41298000Y-367046000D01*
X42341201Y-367046000D01*
X42463722Y-366839670D01*
X42373853Y-366593877D01*
X42237759Y-366370340D01*
X42060670Y-366177649D01*
X41849392Y-366023208D01*
X41612044Y-365912953D01*
X41504329Y-365880284D01*
X41298000Y-366003626D01*
X41044000Y-366003626D01*
X40837671Y-365880284D01*
X40729956Y-365912953D01*
X40492608Y-366023208D01*
X40281330Y-366177649D01*
X40104241Y-366370340D01*
X39968147Y-366593877D01*
X39878278Y-366839670D01*
X30122000Y-366839670D01*
X30122000Y-364872665D01*
X56754000Y-364872665D01*
X56754000Y-365155335D01*
X56809147Y-365432574D01*
X56917320Y-365693727D01*
X57074363Y-365928759D01*
X57274241Y-366128637D01*
X57474869Y-366262692D01*
X57447486Y-366277329D01*
X57375903Y-366521298D01*
X58189000Y-367334395D01*
X59002097Y-366521298D01*
X58930514Y-366277329D01*
X58901659Y-366263676D01*
X59103759Y-366128637D01*
X59303637Y-365928759D01*
X59460680Y-365693727D01*
X59568853Y-365432574D01*
X59624000Y-365155335D01*
X59624000Y-365007355D01*
X60142356Y-364488999D01*
X62964808Y-364488999D01*
X62927429Y-364567996D01*
X62858700Y-364842184D01*
X62844783Y-365124512D01*
X62886213Y-365404130D01*
X62981397Y-365670292D01*
X63048329Y-365795514D01*
X63292298Y-365867097D01*
X64105395Y-365054000D01*
X64091253Y-365039858D01*
X64270858Y-364860253D01*
X64285000Y-364874395D01*
X64299143Y-364860253D01*
X64478748Y-365039858D01*
X64464605Y-365054000D01*
X65277702Y-365867097D01*
X65521671Y-365795514D01*
X65642571Y-365540004D01*
X65648800Y-365515153D01*
X73929999Y-373796352D01*
X73930000Y-382720143D01*
X73925113Y-382769761D01*
X73944614Y-382967755D01*
X74002367Y-383158140D01*
X74096153Y-383333601D01*
X74174445Y-383429000D01*
X74222367Y-383487394D01*
X74260900Y-383519017D01*
X75611981Y-384870099D01*
X75643605Y-384908633D01*
X75797398Y-385034847D01*
X75972858Y-385128632D01*
X76163244Y-385186385D01*
X76311630Y-385201000D01*
X76311639Y-385201000D01*
X76361237Y-385205885D01*
X76410835Y-385201000D01*
X109828392Y-385201000D01*
X109878000Y-385205886D01*
X110075994Y-385186385D01*
X110075997Y-385186384D01*
X110266380Y-385128632D01*
X110441840Y-385034847D01*
X110595633Y-384908633D01*
X110627261Y-384870094D01*
X112068355Y-383429000D01*
X112174592Y-383429000D01*
X112444490Y-383375314D01*
X112698727Y-383270005D01*
X112927535Y-383117120D01*
X113122120Y-382922535D01*
X113275005Y-382693727D01*
X113380314Y-382439490D01*
X113434000Y-382169592D01*
X113434000Y-381894408D01*
X113380314Y-381624510D01*
X113275005Y-381370273D01*
X113122120Y-381141465D01*
X112927535Y-380946880D01*
X112698727Y-380793995D01*
X112444490Y-380688686D01*
X112174592Y-380635000D01*
X111899408Y-380635000D01*
X111629510Y-380688686D01*
X111375273Y-380793995D01*
X111146465Y-380946880D01*
X110951880Y-381141465D01*
X110798995Y-381370273D01*
X110769308Y-381441943D01*
X110764636Y-381428977D01*
X110702656Y-381313020D01*
X110462565Y-381246040D01*
X109676605Y-382032000D01*
X109690748Y-382046143D01*
X109511143Y-382225748D01*
X109497000Y-382211605D01*
X108711040Y-382997565D01*
X108762214Y-383181000D01*
X107751932Y-383181000D01*
X107847535Y-383117120D01*
X108042120Y-382922535D01*
X108195005Y-382693727D01*
X108224692Y-382622057D01*
X108229364Y-382635023D01*
X108291344Y-382750980D01*
X108531435Y-382817960D01*
X109317395Y-382032000D01*
X108531435Y-381246040D01*
X108291344Y-381313020D01*
X108227515Y-381448760D01*
X108195005Y-381370273D01*
X108042120Y-381141465D01*
X107967090Y-381066435D01*
X108711040Y-381066435D01*
X109497000Y-381852395D01*
X110282960Y-381066435D01*
X110215980Y-380826344D01*
X109966952Y-380709244D01*
X109699865Y-380642977D01*
X109424983Y-380630090D01*
X109152867Y-380671078D01*
X108893977Y-380764364D01*
X108778020Y-380826344D01*
X108711040Y-381066435D01*
X107967090Y-381066435D01*
X107847535Y-380946880D01*
X107618727Y-380793995D01*
X107364490Y-380688686D01*
X107094592Y-380635000D01*
X106819408Y-380635000D01*
X106549510Y-380688686D01*
X106295273Y-380793995D01*
X106066465Y-380946880D01*
X105871880Y-381141465D01*
X105718995Y-381370273D01*
X105687000Y-381447515D01*
X105655005Y-381370273D01*
X105502120Y-381141465D01*
X105307535Y-380946880D01*
X105078727Y-380793995D01*
X104824490Y-380688686D01*
X104554592Y-380635000D01*
X104279408Y-380635000D01*
X104009510Y-380688686D01*
X103755273Y-380793995D01*
X103526465Y-380946880D01*
X103331880Y-381141465D01*
X103178995Y-381370273D01*
X103147000Y-381447515D01*
X103115005Y-381370273D01*
X102962120Y-381141465D01*
X102767535Y-380946880D01*
X102538727Y-380793995D01*
X102284490Y-380688686D01*
X102014592Y-380635000D01*
X101739408Y-380635000D01*
X101469510Y-380688686D01*
X101215273Y-380793995D01*
X100986465Y-380946880D01*
X100791880Y-381141465D01*
X100638995Y-381370273D01*
X100607000Y-381447515D01*
X100575005Y-381370273D01*
X100422120Y-381141465D01*
X100227535Y-380946880D01*
X99998727Y-380793995D01*
X99744490Y-380688686D01*
X99474592Y-380635000D01*
X99199408Y-380635000D01*
X98929510Y-380688686D01*
X98675273Y-380793995D01*
X98446465Y-380946880D01*
X98251880Y-381141465D01*
X98098995Y-381370273D01*
X98067000Y-381447515D01*
X98035005Y-381370273D01*
X97882120Y-381141465D01*
X97687535Y-380946880D01*
X97458727Y-380793995D01*
X97204490Y-380688686D01*
X96934592Y-380635000D01*
X96659408Y-380635000D01*
X96389510Y-380688686D01*
X96135273Y-380793995D01*
X95906465Y-380946880D01*
X95711880Y-381141465D01*
X95558995Y-381370273D01*
X95527000Y-381447515D01*
X95495005Y-381370273D01*
X95342120Y-381141465D01*
X95147535Y-380946880D01*
X94918727Y-380793995D01*
X94664490Y-380688686D01*
X94394592Y-380635000D01*
X94119408Y-380635000D01*
X93849510Y-380688686D01*
X93595273Y-380793995D01*
X93366465Y-380946880D01*
X93171880Y-381141465D01*
X93018995Y-381370273D01*
X92987000Y-381447515D01*
X92955005Y-381370273D01*
X92802120Y-381141465D01*
X92607535Y-380946880D01*
X92378727Y-380793995D01*
X92124490Y-380688686D01*
X91854592Y-380635000D01*
X91579408Y-380635000D01*
X91309510Y-380688686D01*
X91055273Y-380793995D01*
X90826465Y-380946880D01*
X90631880Y-381141465D01*
X90478995Y-381370273D01*
X90447000Y-381447515D01*
X90415005Y-381370273D01*
X90262120Y-381141465D01*
X90067535Y-380946880D01*
X89838727Y-380793995D01*
X89584490Y-380688686D01*
X89314592Y-380635000D01*
X89039408Y-380635000D01*
X88769510Y-380688686D01*
X88515273Y-380793995D01*
X88286465Y-380946880D01*
X88091880Y-381141465D01*
X87938995Y-381370273D01*
X87907000Y-381447515D01*
X87875005Y-381370273D01*
X87722120Y-381141465D01*
X87527535Y-380946880D01*
X87298727Y-380793995D01*
X87044490Y-380688686D01*
X86774592Y-380635000D01*
X86499408Y-380635000D01*
X86229510Y-380688686D01*
X85975273Y-380793995D01*
X85746465Y-380946880D01*
X85551880Y-381141465D01*
X85398995Y-381370273D01*
X85367000Y-381447515D01*
X85335005Y-381370273D01*
X85182120Y-381141465D01*
X84987535Y-380946880D01*
X84758727Y-380793995D01*
X84504490Y-380688686D01*
X84234592Y-380635000D01*
X83959408Y-380635000D01*
X83689510Y-380688686D01*
X83435273Y-380793995D01*
X83206465Y-380946880D01*
X83011880Y-381141465D01*
X82858995Y-381370273D01*
X82827000Y-381447515D01*
X82795005Y-381370273D01*
X82642120Y-381141465D01*
X82447535Y-380946880D01*
X82218727Y-380793995D01*
X81964490Y-380688686D01*
X81694592Y-380635000D01*
X81419408Y-380635000D01*
X81149510Y-380688686D01*
X80895273Y-380793995D01*
X80666465Y-380946880D01*
X80471880Y-381141465D01*
X80318995Y-381370273D01*
X80287000Y-381447515D01*
X80255005Y-381370273D01*
X80102120Y-381141465D01*
X79907535Y-380946880D01*
X79678727Y-380793995D01*
X79424490Y-380688686D01*
X79154592Y-380635000D01*
X78879408Y-380635000D01*
X78609510Y-380688686D01*
X78355273Y-380793995D01*
X78126465Y-380946880D01*
X77931880Y-381141465D01*
X77778995Y-381370273D01*
X77747000Y-381447515D01*
X77715005Y-381370273D01*
X77562120Y-381141465D01*
X77367535Y-380946880D01*
X77138727Y-380793995D01*
X76884490Y-380688686D01*
X76614592Y-380635000D01*
X76339408Y-380635000D01*
X76069510Y-380688686D01*
X75949999Y-380738189D01*
X75949999Y-379767945D01*
X122977000Y-379767945D01*
X122977000Y-380740055D01*
X123166650Y-381693486D01*
X123538660Y-382591599D01*
X124078735Y-383399879D01*
X124766121Y-384087265D01*
X125574401Y-384627340D01*
X126472514Y-384999350D01*
X127425945Y-385189000D01*
X128398055Y-385189000D01*
X129351486Y-384999350D01*
X130249599Y-384627340D01*
X131057879Y-384087265D01*
X131745265Y-383399879D01*
X132285340Y-382591599D01*
X132657350Y-381693486D01*
X132847000Y-380740055D01*
X132847000Y-379767945D01*
X132657350Y-378814514D01*
X132285340Y-377916401D01*
X131745265Y-377108121D01*
X131057879Y-376420735D01*
X130249599Y-375880660D01*
X129351486Y-375508650D01*
X128398055Y-375319000D01*
X127425945Y-375319000D01*
X126472514Y-375508650D01*
X125574401Y-375880660D01*
X124766121Y-376420735D01*
X124078735Y-377108121D01*
X123538660Y-377916401D01*
X123166650Y-378814514D01*
X122977000Y-379767945D01*
X75949999Y-379767945D01*
X75949999Y-373427601D01*
X75954885Y-373377996D01*
X75949691Y-373325265D01*
X75935384Y-373180003D01*
X75877631Y-372989617D01*
X75783846Y-372814157D01*
X75657632Y-372660364D01*
X75619093Y-372628736D01*
X71385687Y-368395330D01*
X85344278Y-368395330D01*
X85434147Y-368641123D01*
X85570241Y-368864660D01*
X85747330Y-369057351D01*
X85958608Y-369211792D01*
X86195956Y-369322047D01*
X86303671Y-369354716D01*
X86510000Y-369231374D01*
X86510000Y-368189000D01*
X85466799Y-368189000D01*
X85344278Y-368395330D01*
X71385687Y-368395330D01*
X70719027Y-367728670D01*
X85344278Y-367728670D01*
X85466799Y-367935000D01*
X86510000Y-367935000D01*
X86510000Y-366892626D01*
X86303671Y-366769284D01*
X86195956Y-366801953D01*
X85958608Y-366912208D01*
X85747330Y-367066649D01*
X85570241Y-367259340D01*
X85434147Y-367482877D01*
X85344278Y-367728670D01*
X70719027Y-367728670D01*
X65790262Y-362799905D01*
X65758634Y-362761366D01*
X65604841Y-362635152D01*
X65429381Y-362541367D01*
X65238995Y-362483614D01*
X65090609Y-362468999D01*
X65041001Y-362464113D01*
X64991393Y-362468999D01*
X59773605Y-362468999D01*
X59724000Y-362464113D01*
X59674395Y-362468999D01*
X59674393Y-362468999D01*
X59526007Y-362483614D01*
X59335621Y-362541367D01*
X59160161Y-362635152D01*
X59006368Y-362761366D01*
X58974740Y-362799905D01*
X58195645Y-363579000D01*
X58047665Y-363579000D01*
X57770426Y-363634147D01*
X57509273Y-363742320D01*
X57274241Y-363899363D01*
X57074363Y-364099241D01*
X56917320Y-364334273D01*
X56809147Y-364595426D01*
X56754000Y-364872665D01*
X30122000Y-364872665D01*
X30122000Y-357364098D01*
X46534000Y-357364098D01*
X46534000Y-357833902D01*
X46625654Y-358294679D01*
X46805440Y-358728721D01*
X47066450Y-359119349D01*
X47398651Y-359451550D01*
X47789279Y-359712560D01*
X48223321Y-359892346D01*
X48684098Y-359984000D01*
X49153902Y-359984000D01*
X49614679Y-359892346D01*
X50048721Y-359712560D01*
X50439349Y-359451550D01*
X50771550Y-359119349D01*
X51032560Y-358728721D01*
X51212346Y-358294679D01*
X51270003Y-358004816D01*
X56908000Y-358004816D01*
X56908000Y-358307184D01*
X56966989Y-358603743D01*
X57082701Y-358883095D01*
X57250688Y-359134505D01*
X57464495Y-359348312D01*
X57715905Y-359516299D01*
X57995257Y-359632011D01*
X58291816Y-359691000D01*
X58594184Y-359691000D01*
X58890743Y-359632011D01*
X59170095Y-359516299D01*
X59421505Y-359348312D01*
X59635312Y-359134505D01*
X59737951Y-358980895D01*
X59918920Y-359040475D01*
X60803395Y-358156000D01*
X59918920Y-357271525D01*
X59737951Y-357331105D01*
X59635312Y-357177495D01*
X59549737Y-357091920D01*
X60098525Y-357091920D01*
X60983000Y-357976395D01*
X60997143Y-357962253D01*
X61176748Y-358141858D01*
X61162605Y-358156000D01*
X61176748Y-358170143D01*
X60997143Y-358349748D01*
X60983000Y-358335605D01*
X60098525Y-359220080D01*
X60182208Y-359474261D01*
X60454775Y-359605158D01*
X60747642Y-359680365D01*
X61049553Y-359696991D01*
X61348907Y-359654397D01*
X61634199Y-359554222D01*
X61783792Y-359474261D01*
X61867474Y-359220082D01*
X61983422Y-359336030D01*
X62030187Y-359289265D01*
X62033498Y-359300180D01*
X62092463Y-359410494D01*
X62171815Y-359507185D01*
X62268506Y-359586537D01*
X62378820Y-359645502D01*
X62498518Y-359681812D01*
X62623000Y-359694072D01*
X64423000Y-359694072D01*
X64547482Y-359681812D01*
X64667180Y-359645502D01*
X64777494Y-359586537D01*
X64874185Y-359507185D01*
X64953537Y-359410494D01*
X65012502Y-359300180D01*
X65048812Y-359180482D01*
X65061072Y-359056000D01*
X65061072Y-357256000D01*
X65048812Y-357131518D01*
X65012502Y-357011820D01*
X64953537Y-356901506D01*
X64874185Y-356804815D01*
X64777494Y-356725463D01*
X64667180Y-356666498D01*
X64547482Y-356630188D01*
X64423000Y-356617928D01*
X62623000Y-356617928D01*
X62498518Y-356630188D01*
X62378820Y-356666498D01*
X62268506Y-356725463D01*
X62171815Y-356804815D01*
X62092463Y-356901506D01*
X62033498Y-357011820D01*
X62030187Y-357022735D01*
X61983422Y-356975970D01*
X61867474Y-357091918D01*
X61783792Y-356837739D01*
X61511225Y-356706842D01*
X61218358Y-356631635D01*
X60916447Y-356615009D01*
X60617093Y-356657603D01*
X60331801Y-356757778D01*
X60182208Y-356837739D01*
X60098525Y-357091920D01*
X59549737Y-357091920D01*
X59421505Y-356963688D01*
X59170095Y-356795701D01*
X58890743Y-356679989D01*
X58594184Y-356621000D01*
X58291816Y-356621000D01*
X57995257Y-356679989D01*
X57715905Y-356795701D01*
X57464495Y-356963688D01*
X57250688Y-357177495D01*
X57082701Y-357428905D01*
X56966989Y-357708257D01*
X56908000Y-358004816D01*
X51270003Y-358004816D01*
X51304000Y-357833902D01*
X51304000Y-357364098D01*
X51212346Y-356903321D01*
X51032560Y-356469279D01*
X50771550Y-356078651D01*
X50439349Y-355746450D01*
X50048721Y-355485440D01*
X49614679Y-355305654D01*
X49153902Y-355214000D01*
X48684098Y-355214000D01*
X48223321Y-355305654D01*
X47789279Y-355485440D01*
X47398651Y-355746450D01*
X47066450Y-356078651D01*
X46805440Y-356469279D01*
X46625654Y-356903321D01*
X46534000Y-357364098D01*
X30122000Y-357364098D01*
X30122000Y-347911098D01*
X50470000Y-347911098D01*
X50470000Y-348380902D01*
X50561654Y-348841679D01*
X50741440Y-349275721D01*
X51002450Y-349666349D01*
X51334651Y-349998550D01*
X51725279Y-350259560D01*
X52159321Y-350439346D01*
X52620098Y-350531000D01*
X53089902Y-350531000D01*
X53550679Y-350439346D01*
X53984721Y-350259560D01*
X54375349Y-349998550D01*
X54707550Y-349666349D01*
X54968560Y-349275721D01*
X55148346Y-348841679D01*
X55240000Y-348380902D01*
X55240000Y-347911098D01*
X61646000Y-347911098D01*
X61646000Y-348380902D01*
X61737654Y-348841679D01*
X61917440Y-349275721D01*
X62178450Y-349666349D01*
X62510651Y-349998550D01*
X62901279Y-350259560D01*
X63335321Y-350439346D01*
X63796098Y-350531000D01*
X64265902Y-350531000D01*
X64726679Y-350439346D01*
X65160721Y-350259560D01*
X65551349Y-349998550D01*
X65883550Y-349666349D01*
X66144560Y-349275721D01*
X66324346Y-348841679D01*
X66416000Y-348380902D01*
X66416000Y-347911098D01*
X72568000Y-347911098D01*
X72568000Y-348380902D01*
X72659654Y-348841679D01*
X72839440Y-349275721D01*
X73100450Y-349666349D01*
X73432651Y-349998550D01*
X73823279Y-350259560D01*
X74257321Y-350439346D01*
X74718098Y-350531000D01*
X75187902Y-350531000D01*
X75648679Y-350439346D01*
X76082721Y-350259560D01*
X76473349Y-349998550D01*
X76805550Y-349666349D01*
X77066560Y-349275721D01*
X77246346Y-348841679D01*
X77338000Y-348380902D01*
X77338000Y-347911098D01*
X77246346Y-347450321D01*
X77066560Y-347016279D01*
X76805550Y-346625651D01*
X76473349Y-346293450D01*
X76082721Y-346032440D01*
X75648679Y-345852654D01*
X75187902Y-345761000D01*
X74718098Y-345761000D01*
X74257321Y-345852654D01*
X73823279Y-346032440D01*
X73432651Y-346293450D01*
X73100450Y-346625651D01*
X72839440Y-347016279D01*
X72659654Y-347450321D01*
X72568000Y-347911098D01*
X66416000Y-347911098D01*
X66324346Y-347450321D01*
X66144560Y-347016279D01*
X65883550Y-346625651D01*
X65551349Y-346293450D01*
X65160721Y-346032440D01*
X64726679Y-345852654D01*
X64265902Y-345761000D01*
X63796098Y-345761000D01*
X63335321Y-345852654D01*
X62901279Y-346032440D01*
X62510651Y-346293450D01*
X62178450Y-346625651D01*
X61917440Y-347016279D01*
X61737654Y-347450321D01*
X61646000Y-347911098D01*
X55240000Y-347911098D01*
X55148346Y-347450321D01*
X54968560Y-347016279D01*
X54707550Y-346625651D01*
X54375349Y-346293450D01*
X53984721Y-346032440D01*
X53550679Y-345852654D01*
X53089902Y-345761000D01*
X52620098Y-345761000D01*
X52159321Y-345852654D01*
X51725279Y-346032440D01*
X51334651Y-346293450D01*
X51002450Y-346625651D01*
X50741440Y-347016279D01*
X50561654Y-347450321D01*
X50470000Y-347911098D01*
X30122000Y-347911098D01*
X30122000Y-331859863D01*
X48762622Y-331859863D01*
X48856121Y-332156446D01*
X49005684Y-332429089D01*
X49205563Y-332667315D01*
X49448077Y-332861969D01*
X49723906Y-333005571D01*
X49942020Y-333076563D01*
X50188000Y-332956594D01*
X50188000Y-331613000D01*
X48889430Y-331613000D01*
X48762622Y-331859863D01*
X30122000Y-331859863D01*
X30122000Y-331112137D01*
X48762622Y-331112137D01*
X48889430Y-331359000D01*
X50188000Y-331359000D01*
X50188000Y-330015406D01*
X50442000Y-330015406D01*
X50442000Y-331359000D01*
X50462000Y-331359000D01*
X50462000Y-331613000D01*
X50442000Y-331613000D01*
X50442000Y-332956594D01*
X50687980Y-333076563D01*
X50906094Y-333005571D01*
X51181923Y-332861969D01*
X51424437Y-332667315D01*
X51579838Y-332482100D01*
X51727037Y-332661463D01*
X51968765Y-332859845D01*
X52244551Y-333007255D01*
X52543796Y-333098030D01*
X52855000Y-333128681D01*
X53166203Y-333098030D01*
X53465448Y-333007255D01*
X53741234Y-332859845D01*
X53867095Y-332756553D01*
X53911963Y-332840494D01*
X53991315Y-332937185D01*
X54088006Y-333016537D01*
X54198320Y-333075502D01*
X54318018Y-333111812D01*
X54442500Y-333124072D01*
X56347500Y-333124072D01*
X56471982Y-333111812D01*
X56591680Y-333075502D01*
X56701994Y-333016537D01*
X56798685Y-332937185D01*
X56878037Y-332840494D01*
X56937002Y-332730180D01*
X56973312Y-332610482D01*
X56985572Y-332486000D01*
X56985572Y-331859863D01*
X59938622Y-331859863D01*
X60032121Y-332156446D01*
X60181684Y-332429089D01*
X60381563Y-332667315D01*
X60624077Y-332861969D01*
X60899906Y-333005571D01*
X61118020Y-333076563D01*
X61364000Y-332956594D01*
X61364000Y-331613000D01*
X60065430Y-331613000D01*
X59938622Y-331859863D01*
X56985572Y-331859863D01*
X56985572Y-331112137D01*
X59938622Y-331112137D01*
X60065430Y-331359000D01*
X61364000Y-331359000D01*
X61364000Y-330015406D01*
X61618000Y-330015406D01*
X61618000Y-331359000D01*
X61638000Y-331359000D01*
X61638000Y-331613000D01*
X61618000Y-331613000D01*
X61618000Y-332956594D01*
X61863980Y-333076563D01*
X62082094Y-333005571D01*
X62357923Y-332861969D01*
X62600437Y-332667315D01*
X62755838Y-332482100D01*
X62903037Y-332661463D01*
X63144765Y-332859845D01*
X63420551Y-333007255D01*
X63719796Y-333098030D01*
X64031000Y-333128681D01*
X64342203Y-333098030D01*
X64641448Y-333007255D01*
X64917234Y-332859845D01*
X65043095Y-332756553D01*
X65087963Y-332840494D01*
X65167315Y-332937185D01*
X65264006Y-333016537D01*
X65374320Y-333075502D01*
X65494018Y-333111812D01*
X65618500Y-333124072D01*
X67523500Y-333124072D01*
X67647982Y-333111812D01*
X67767680Y-333075502D01*
X67877994Y-333016537D01*
X67974685Y-332937185D01*
X68054037Y-332840494D01*
X68113002Y-332730180D01*
X68149312Y-332610482D01*
X68161572Y-332486000D01*
X68161572Y-330486000D01*
X68149312Y-330361518D01*
X68113002Y-330241820D01*
X68054037Y-330131506D01*
X67974685Y-330034815D01*
X67877994Y-329955463D01*
X67767680Y-329896498D01*
X67647982Y-329860188D01*
X67523500Y-329847928D01*
X65618500Y-329847928D01*
X65494018Y-329860188D01*
X65374320Y-329896498D01*
X65264006Y-329955463D01*
X65167315Y-330034815D01*
X65087963Y-330131506D01*
X65043095Y-330215446D01*
X64917235Y-330112155D01*
X64641449Y-329964745D01*
X64342204Y-329873970D01*
X64031000Y-329843319D01*
X63719797Y-329873970D01*
X63420552Y-329964745D01*
X63144766Y-330112155D01*
X62903037Y-330310537D01*
X62755837Y-330489899D01*
X62600437Y-330304685D01*
X62357923Y-330110031D01*
X62082094Y-329966429D01*
X61863980Y-329895437D01*
X61618000Y-330015406D01*
X61364000Y-330015406D01*
X61118020Y-329895437D01*
X60899906Y-329966429D01*
X60624077Y-330110031D01*
X60381563Y-330304685D01*
X60181684Y-330542911D01*
X60032121Y-330815554D01*
X59938622Y-331112137D01*
X56985572Y-331112137D01*
X56985572Y-330486000D01*
X56973312Y-330361518D01*
X56937002Y-330241820D01*
X56878037Y-330131506D01*
X56798685Y-330034815D01*
X56701994Y-329955463D01*
X56591680Y-329896498D01*
X56471982Y-329860188D01*
X56347500Y-329847928D01*
X54442500Y-329847928D01*
X54318018Y-329860188D01*
X54198320Y-329896498D01*
X54088006Y-329955463D01*
X53991315Y-330034815D01*
X53911963Y-330131506D01*
X53867095Y-330215446D01*
X53741235Y-330112155D01*
X53465449Y-329964745D01*
X53166204Y-329873970D01*
X52855000Y-329843319D01*
X52543797Y-329873970D01*
X52244552Y-329964745D01*
X51968766Y-330112155D01*
X51727037Y-330310537D01*
X51579837Y-330489899D01*
X51424437Y-330304685D01*
X51181923Y-330110031D01*
X50906094Y-329966429D01*
X50687980Y-329895437D01*
X50442000Y-330015406D01*
X50188000Y-330015406D01*
X49942020Y-329895437D01*
X49723906Y-329966429D01*
X49448077Y-330110031D01*
X49205563Y-330304685D01*
X49005684Y-330542911D01*
X48856121Y-330815554D01*
X48762622Y-331112137D01*
X30122000Y-331112137D01*
X30122000Y-325260098D01*
X46011000Y-325260098D01*
X46011000Y-325729902D01*
X46102654Y-326190679D01*
X46282440Y-326624721D01*
X46543450Y-327015349D01*
X46875651Y-327347550D01*
X47266279Y-327608560D01*
X47700321Y-327788346D01*
X48161098Y-327880000D01*
X48630902Y-327880000D01*
X49091679Y-327788346D01*
X49525721Y-327608560D01*
X49916349Y-327347550D01*
X50248550Y-327015349D01*
X50509560Y-326624721D01*
X50689346Y-326190679D01*
X50781000Y-325729902D01*
X50781000Y-325364098D01*
X57254000Y-325364098D01*
X57254000Y-325833902D01*
X57345654Y-326294679D01*
X57525440Y-326728721D01*
X57786450Y-327119349D01*
X58118651Y-327451550D01*
X58509279Y-327712560D01*
X58943321Y-327892346D01*
X59404098Y-327984000D01*
X59873902Y-327984000D01*
X60334679Y-327892346D01*
X60768721Y-327712560D01*
X61159349Y-327451550D01*
X61491550Y-327119349D01*
X61752560Y-326728721D01*
X61932346Y-326294679D01*
X62024000Y-325833902D01*
X62024000Y-325364098D01*
X61932346Y-324903321D01*
X61752560Y-324469279D01*
X61491550Y-324078651D01*
X61159349Y-323746450D01*
X60768721Y-323485440D01*
X60334679Y-323305654D01*
X59873902Y-323214000D01*
X59404098Y-323214000D01*
X58943321Y-323305654D01*
X58509279Y-323485440D01*
X58118651Y-323746450D01*
X57786450Y-324078651D01*
X57525440Y-324469279D01*
X57345654Y-324903321D01*
X57254000Y-325364098D01*
X50781000Y-325364098D01*
X50781000Y-325260098D01*
X50689346Y-324799321D01*
X50509560Y-324365279D01*
X50248550Y-323974651D01*
X49916349Y-323642450D01*
X49525721Y-323381440D01*
X49091679Y-323201654D01*
X48630902Y-323110000D01*
X48161098Y-323110000D01*
X47700321Y-323201654D01*
X47266279Y-323381440D01*
X46875651Y-323642450D01*
X46543450Y-323974651D01*
X46282440Y-324365279D01*
X46102654Y-324799321D01*
X46011000Y-325260098D01*
X30122000Y-325260098D01*
X30122000Y-309208863D01*
X44303622Y-309208863D01*
X44397121Y-309505446D01*
X44546684Y-309778089D01*
X44746563Y-310016315D01*
X44989077Y-310210969D01*
X45264906Y-310354571D01*
X45483020Y-310425563D01*
X45729000Y-310305594D01*
X45729000Y-308962000D01*
X44430430Y-308962000D01*
X44303622Y-309208863D01*
X30122000Y-309208863D01*
X30122000Y-308461137D01*
X44303622Y-308461137D01*
X44430430Y-308708000D01*
X45729000Y-308708000D01*
X45729000Y-307364406D01*
X45983000Y-307364406D01*
X45983000Y-308708000D01*
X46003000Y-308708000D01*
X46003000Y-308962000D01*
X45983000Y-308962000D01*
X45983000Y-310305594D01*
X46228980Y-310425563D01*
X46447094Y-310354571D01*
X46722923Y-310210969D01*
X46965437Y-310016315D01*
X47120838Y-309831100D01*
X47268037Y-310010463D01*
X47509765Y-310208845D01*
X47785551Y-310356255D01*
X48084796Y-310447030D01*
X48396000Y-310477681D01*
X48707203Y-310447030D01*
X49006448Y-310356255D01*
X49282234Y-310208845D01*
X49408095Y-310105553D01*
X49452963Y-310189494D01*
X49532315Y-310286185D01*
X49629006Y-310365537D01*
X49739320Y-310424502D01*
X49859018Y-310460812D01*
X49983500Y-310473072D01*
X51888500Y-310473072D01*
X52012982Y-310460812D01*
X52132680Y-310424502D01*
X52242994Y-310365537D01*
X52339685Y-310286185D01*
X52419037Y-310189494D01*
X52478002Y-310079180D01*
X52514312Y-309959482D01*
X52526572Y-309835000D01*
X52526572Y-309312863D01*
X55546622Y-309312863D01*
X55640121Y-309609446D01*
X55789684Y-309882089D01*
X55989563Y-310120315D01*
X56232077Y-310314969D01*
X56507906Y-310458571D01*
X56726020Y-310529563D01*
X56972000Y-310409594D01*
X56972000Y-309066000D01*
X55673430Y-309066000D01*
X55546622Y-309312863D01*
X52526572Y-309312863D01*
X52526572Y-308565137D01*
X55546622Y-308565137D01*
X55673430Y-308812000D01*
X56972000Y-308812000D01*
X56972000Y-307468406D01*
X57226000Y-307468406D01*
X57226000Y-308812000D01*
X57246000Y-308812000D01*
X57246000Y-309066000D01*
X57226000Y-309066000D01*
X57226000Y-310409594D01*
X57471980Y-310529563D01*
X57690094Y-310458571D01*
X57965923Y-310314969D01*
X58208437Y-310120315D01*
X58363838Y-309935100D01*
X58511037Y-310114463D01*
X58752765Y-310312845D01*
X59028551Y-310460255D01*
X59327796Y-310551030D01*
X59639000Y-310581681D01*
X59950203Y-310551030D01*
X60249448Y-310460255D01*
X60525234Y-310312845D01*
X60651095Y-310209553D01*
X60695963Y-310293494D01*
X60775315Y-310390185D01*
X60872006Y-310469537D01*
X60982320Y-310528502D01*
X61102018Y-310564812D01*
X61226500Y-310577072D01*
X62742271Y-310577072D01*
X72093002Y-319927804D01*
X72093001Y-323551241D01*
X71907721Y-323427440D01*
X71473679Y-323247654D01*
X71012902Y-323156000D01*
X70543098Y-323156000D01*
X70082321Y-323247654D01*
X69648279Y-323427440D01*
X69257651Y-323688450D01*
X68925450Y-324020651D01*
X68664440Y-324411279D01*
X68484654Y-324845321D01*
X68393000Y-325306098D01*
X68393000Y-325775902D01*
X68484654Y-326236679D01*
X68664440Y-326670721D01*
X68925450Y-327061349D01*
X69257651Y-327393550D01*
X69648279Y-327654560D01*
X70082321Y-327834346D01*
X70458340Y-327909141D01*
X70429944Y-327962266D01*
X70386488Y-328105527D01*
X70371814Y-328254512D01*
X70375491Y-328291844D01*
X70375490Y-332025338D01*
X70371814Y-332062661D01*
X70375490Y-332099983D01*
X70375490Y-332099993D01*
X70386487Y-332211646D01*
X70429944Y-332354907D01*
X70500516Y-332486937D01*
X70540361Y-332535487D01*
X70595489Y-332602662D01*
X70624493Y-332626465D01*
X79344002Y-341345975D01*
X79344001Y-355780676D01*
X79154592Y-355743000D01*
X78879408Y-355743000D01*
X78609510Y-355796686D01*
X78355273Y-355901995D01*
X78126465Y-356054880D01*
X77931880Y-356249465D01*
X77778995Y-356478273D01*
X77747000Y-356555515D01*
X77715005Y-356478273D01*
X77562120Y-356249465D01*
X77367535Y-356054880D01*
X77138727Y-355901995D01*
X76884490Y-355796686D01*
X76614592Y-355743000D01*
X76339408Y-355743000D01*
X76069510Y-355796686D01*
X75815273Y-355901995D01*
X75586465Y-356054880D01*
X75391880Y-356249465D01*
X75238995Y-356478273D01*
X75133686Y-356732510D01*
X75080000Y-357002408D01*
X75080000Y-357277592D01*
X75133686Y-357547490D01*
X75238995Y-357801727D01*
X75391880Y-358030535D01*
X75586465Y-358225120D01*
X75815273Y-358378005D01*
X76069510Y-358483314D01*
X76339408Y-358537000D01*
X76614592Y-358537000D01*
X76884490Y-358483314D01*
X77138727Y-358378005D01*
X77367535Y-358225120D01*
X77562120Y-358030535D01*
X77715005Y-357801727D01*
X77747000Y-357724485D01*
X77778995Y-357801727D01*
X77931880Y-358030535D01*
X78126465Y-358225120D01*
X78355273Y-358378005D01*
X78609510Y-358483314D01*
X78879408Y-358537000D01*
X79154592Y-358537000D01*
X79424490Y-358483314D01*
X79678727Y-358378005D01*
X79718721Y-358351282D01*
X86902002Y-365534564D01*
X86902002Y-366810130D01*
X86764000Y-366892626D01*
X86764000Y-367935000D01*
X86784000Y-367935000D01*
X86784000Y-368189000D01*
X86764000Y-368189000D01*
X86764000Y-369231374D01*
X86944292Y-369339151D01*
X86949014Y-369354716D01*
X86956455Y-369379247D01*
X87027027Y-369511277D01*
X87066872Y-369559827D01*
X87122000Y-369627002D01*
X87151004Y-369650805D01*
X94387197Y-376887000D01*
X94125514Y-376887000D01*
X93867595Y-376938304D01*
X93624641Y-377038939D01*
X93405987Y-377185038D01*
X93220038Y-377370987D01*
X93073939Y-377589641D01*
X92973304Y-377832595D01*
X92922000Y-378090514D01*
X92922000Y-378353486D01*
X92973304Y-378611405D01*
X93073939Y-378854359D01*
X93220038Y-379073013D01*
X93405987Y-379258962D01*
X93624641Y-379405061D01*
X93867595Y-379505696D01*
X94125514Y-379557000D01*
X94388486Y-379557000D01*
X94646405Y-379505696D01*
X94889359Y-379405061D01*
X95108013Y-379258962D01*
X95293962Y-379073013D01*
X95440061Y-378854359D01*
X95527000Y-378644470D01*
X95613939Y-378854359D01*
X95760038Y-379073013D01*
X95945987Y-379258962D01*
X96164641Y-379405061D01*
X96407595Y-379505696D01*
X96665514Y-379557000D01*
X96928486Y-379557000D01*
X97186405Y-379505696D01*
X97429359Y-379405061D01*
X97648013Y-379258962D01*
X97833962Y-379073013D01*
X97980061Y-378854359D01*
X98067000Y-378644470D01*
X98153939Y-378854359D01*
X98300038Y-379073013D01*
X98485987Y-379258962D01*
X98704641Y-379405061D01*
X98947595Y-379505696D01*
X99205514Y-379557000D01*
X99468486Y-379557000D01*
X99726405Y-379505696D01*
X99969359Y-379405061D01*
X100188013Y-379258962D01*
X100373962Y-379073013D01*
X100520061Y-378854359D01*
X100607000Y-378644470D01*
X100693939Y-378854359D01*
X100840038Y-379073013D01*
X101025987Y-379258962D01*
X101244641Y-379405061D01*
X101487595Y-379505696D01*
X101745514Y-379557000D01*
X102008486Y-379557000D01*
X102266405Y-379505696D01*
X102509359Y-379405061D01*
X102728013Y-379258962D01*
X102913962Y-379073013D01*
X103060061Y-378854359D01*
X103147000Y-378644470D01*
X103233939Y-378854359D01*
X103380038Y-379073013D01*
X103565987Y-379258962D01*
X103784641Y-379405061D01*
X104027595Y-379505696D01*
X104285514Y-379557000D01*
X104548486Y-379557000D01*
X104806405Y-379505696D01*
X105049359Y-379405061D01*
X105268013Y-379258962D01*
X105453962Y-379073013D01*
X105600061Y-378854359D01*
X105687000Y-378644470D01*
X105773939Y-378854359D01*
X105920038Y-379073013D01*
X106105987Y-379258962D01*
X106324641Y-379405061D01*
X106567595Y-379505696D01*
X106825514Y-379557000D01*
X107088486Y-379557000D01*
X107346405Y-379505696D01*
X107589359Y-379405061D01*
X107808013Y-379258962D01*
X107993962Y-379073013D01*
X108140061Y-378854359D01*
X108240696Y-378611405D01*
X108292000Y-378353486D01*
X108292000Y-378090514D01*
X108240696Y-377832595D01*
X108140061Y-377589641D01*
X107993962Y-377370987D01*
X107808013Y-377185038D01*
X107589359Y-377038939D01*
X107346405Y-376938304D01*
X107088486Y-376887000D01*
X106825514Y-376887000D01*
X106567595Y-376938304D01*
X106324641Y-377038939D01*
X106105987Y-377185038D01*
X105920038Y-377370987D01*
X105773939Y-377589641D01*
X105687000Y-377799530D01*
X105600061Y-377589641D01*
X105453962Y-377370987D01*
X105268013Y-377185038D01*
X105049359Y-377038939D01*
X104806405Y-376938304D01*
X104548486Y-376887000D01*
X104285514Y-376887000D01*
X104178157Y-376908355D01*
X101549999Y-374280198D01*
X101549999Y-371890933D01*
X101750000Y-371771374D01*
X101750000Y-370729000D01*
X102004000Y-370729000D01*
X102004000Y-371771374D01*
X102210329Y-371894716D01*
X102318044Y-371862047D01*
X102555392Y-371751792D01*
X102766670Y-371597351D01*
X102943759Y-371404660D01*
X103079853Y-371181123D01*
X103147000Y-370997475D01*
X103214147Y-371181123D01*
X103350241Y-371404660D01*
X103527330Y-371597351D01*
X103738608Y-371751792D01*
X103975956Y-371862047D01*
X104083671Y-371894716D01*
X104290000Y-371771374D01*
X104290000Y-370729000D01*
X104544000Y-370729000D01*
X104544000Y-371771374D01*
X104750329Y-371894716D01*
X104858044Y-371862047D01*
X105095392Y-371751792D01*
X105306670Y-371597351D01*
X105483759Y-371404660D01*
X105619853Y-371181123D01*
X105687000Y-370997475D01*
X105754147Y-371181123D01*
X105890241Y-371404660D01*
X106067330Y-371597351D01*
X106278608Y-371751792D01*
X106515956Y-371862047D01*
X106623671Y-371894716D01*
X106830000Y-371771374D01*
X106830000Y-370729000D01*
X107084000Y-370729000D01*
X107084000Y-371771374D01*
X107290329Y-371894716D01*
X107398044Y-371862047D01*
X107635392Y-371751792D01*
X107846670Y-371597351D01*
X108023759Y-371404660D01*
X108159853Y-371181123D01*
X108249722Y-370935330D01*
X108127201Y-370729000D01*
X107084000Y-370729000D01*
X106830000Y-370729000D01*
X105786799Y-370729000D01*
X105687000Y-370897065D01*
X105587201Y-370729000D01*
X104544000Y-370729000D01*
X104290000Y-370729000D01*
X103246799Y-370729000D01*
X103147000Y-370897065D01*
X103047201Y-370729000D01*
X102004000Y-370729000D01*
X101750000Y-370729000D01*
X101730000Y-370729000D01*
X101730000Y-370475000D01*
X101750000Y-370475000D01*
X101750000Y-369432626D01*
X102004000Y-369432626D01*
X102004000Y-370475000D01*
X103047201Y-370475000D01*
X103147000Y-370306935D01*
X103246799Y-370475000D01*
X104290000Y-370475000D01*
X104290000Y-369432626D01*
X104544000Y-369432626D01*
X104544000Y-370475000D01*
X105587201Y-370475000D01*
X105687000Y-370306935D01*
X105786799Y-370475000D01*
X106830000Y-370475000D01*
X106830000Y-369432626D01*
X107084000Y-369432626D01*
X107084000Y-370475000D01*
X108127201Y-370475000D01*
X108249722Y-370268670D01*
X108159853Y-370022877D01*
X108023759Y-369799340D01*
X107846670Y-369606649D01*
X107635392Y-369452208D01*
X107398044Y-369341953D01*
X107290329Y-369309284D01*
X107084000Y-369432626D01*
X106830000Y-369432626D01*
X106623671Y-369309284D01*
X106515956Y-369341953D01*
X106278608Y-369452208D01*
X106067330Y-369606649D01*
X105890241Y-369799340D01*
X105754147Y-370022877D01*
X105687000Y-370206525D01*
X105619853Y-370022877D01*
X105483759Y-369799340D01*
X105306670Y-369606649D01*
X105095392Y-369452208D01*
X104858044Y-369341953D01*
X104750329Y-369309284D01*
X104544000Y-369432626D01*
X104290000Y-369432626D01*
X104083671Y-369309284D01*
X103975956Y-369341953D01*
X103738608Y-369452208D01*
X103527330Y-369606649D01*
X103350241Y-369799340D01*
X103214147Y-370022877D01*
X103147000Y-370206525D01*
X103079853Y-370022877D01*
X102943759Y-369799340D01*
X102766670Y-369606649D01*
X102555392Y-369452208D01*
X102318044Y-369341953D01*
X102210329Y-369309284D01*
X102004000Y-369432626D01*
X101750000Y-369432626D01*
X101549999Y-369313067D01*
X101549999Y-358499324D01*
X101739408Y-358537000D01*
X102014592Y-358537000D01*
X102284490Y-358483314D01*
X102538727Y-358378005D01*
X102767535Y-358225120D01*
X102962120Y-358030535D01*
X103115005Y-357801727D01*
X103147000Y-357724485D01*
X103178995Y-357801727D01*
X103331880Y-358030535D01*
X103526465Y-358225120D01*
X103755273Y-358378005D01*
X104009510Y-358483314D01*
X104279408Y-358537000D01*
X104554592Y-358537000D01*
X104824490Y-358483314D01*
X105078727Y-358378005D01*
X105307535Y-358225120D01*
X105502120Y-358030535D01*
X105655005Y-357801727D01*
X105687000Y-357724485D01*
X105718995Y-357801727D01*
X105871880Y-358030535D01*
X106066465Y-358225120D01*
X106295273Y-358378005D01*
X106549510Y-358483314D01*
X106819408Y-358537000D01*
X107094592Y-358537000D01*
X107364490Y-358483314D01*
X107618727Y-358378005D01*
X107847535Y-358225120D01*
X107967090Y-358105565D01*
X108711040Y-358105565D01*
X108778020Y-358345656D01*
X109027048Y-358462756D01*
X109294135Y-358529023D01*
X109569017Y-358541910D01*
X109841133Y-358500922D01*
X110100023Y-358407636D01*
X110215980Y-358345656D01*
X110282960Y-358105565D01*
X109497000Y-357319605D01*
X108711040Y-358105565D01*
X107967090Y-358105565D01*
X108042120Y-358030535D01*
X108195005Y-357801727D01*
X108224692Y-357730057D01*
X108229364Y-357743023D01*
X108291344Y-357858980D01*
X108531435Y-357925960D01*
X109317395Y-357140000D01*
X109676605Y-357140000D01*
X110462565Y-357925960D01*
X110702656Y-357858980D01*
X110766485Y-357723240D01*
X110798995Y-357801727D01*
X110951880Y-358030535D01*
X111146465Y-358225120D01*
X111375273Y-358378005D01*
X111629510Y-358483314D01*
X111899408Y-358537000D01*
X112174592Y-358537000D01*
X112444490Y-358483314D01*
X112698727Y-358378005D01*
X112927535Y-358225120D01*
X113122120Y-358030535D01*
X113275005Y-357801727D01*
X113380314Y-357547490D01*
X113434000Y-357277592D01*
X113434000Y-357002408D01*
X113380314Y-356732510D01*
X113275005Y-356478273D01*
X113122120Y-356249465D01*
X112927535Y-356054880D01*
X112698727Y-355901995D01*
X112444490Y-355796686D01*
X112174592Y-355743000D01*
X111899408Y-355743000D01*
X111629510Y-355796686D01*
X111375273Y-355901995D01*
X111146465Y-356054880D01*
X110951880Y-356249465D01*
X110798995Y-356478273D01*
X110769308Y-356549943D01*
X110764636Y-356536977D01*
X110702656Y-356421020D01*
X110462565Y-356354040D01*
X109676605Y-357140000D01*
X109317395Y-357140000D01*
X108531435Y-356354040D01*
X108291344Y-356421020D01*
X108227515Y-356556760D01*
X108195005Y-356478273D01*
X108042120Y-356249465D01*
X107967090Y-356174435D01*
X108711040Y-356174435D01*
X109497000Y-356960395D01*
X110282960Y-356174435D01*
X110215980Y-355934344D01*
X109966952Y-355817244D01*
X109699865Y-355750977D01*
X109424983Y-355738090D01*
X109152867Y-355779078D01*
X108893977Y-355872364D01*
X108778020Y-355934344D01*
X108711040Y-356174435D01*
X107967090Y-356174435D01*
X107847535Y-356054880D01*
X107618727Y-355901995D01*
X107364490Y-355796686D01*
X107094592Y-355743000D01*
X106819408Y-355743000D01*
X106549510Y-355796686D01*
X106295273Y-355901995D01*
X106066465Y-356054880D01*
X105871880Y-356249465D01*
X105718995Y-356478273D01*
X105687000Y-356555515D01*
X105655005Y-356478273D01*
X105502120Y-356249465D01*
X105307535Y-356054880D01*
X105078727Y-355901995D01*
X104824490Y-355796686D01*
X104554592Y-355743000D01*
X104279408Y-355743000D01*
X104009510Y-355796686D01*
X103755273Y-355901995D01*
X103526465Y-356054880D01*
X103331880Y-356249465D01*
X103178995Y-356478273D01*
X103147000Y-356555515D01*
X103115005Y-356478273D01*
X102962120Y-356249465D01*
X102767535Y-356054880D01*
X102538727Y-355901995D01*
X102284490Y-355796686D01*
X102014592Y-355743000D01*
X101739408Y-355743000D01*
X101549999Y-355780676D01*
X101549999Y-339656503D01*
X101553676Y-339619170D01*
X101539002Y-339470184D01*
X101495545Y-339326923D01*
X101424973Y-339194894D01*
X101353798Y-339108167D01*
X101330000Y-339079169D01*
X101301002Y-339055371D01*
X95200151Y-332954521D01*
X95377923Y-332861969D01*
X95620437Y-332667315D01*
X95775838Y-332482100D01*
X95923037Y-332661463D01*
X96164765Y-332859845D01*
X96440551Y-333007255D01*
X96739796Y-333098030D01*
X97051000Y-333128681D01*
X97362203Y-333098030D01*
X97661448Y-333007255D01*
X97937234Y-332859845D01*
X98063095Y-332756553D01*
X98107963Y-332840494D01*
X98187315Y-332937185D01*
X98284006Y-333016537D01*
X98394320Y-333075502D01*
X98514018Y-333111812D01*
X98638500Y-333124072D01*
X100543500Y-333124072D01*
X100667982Y-333111812D01*
X100787680Y-333075502D01*
X100897994Y-333016537D01*
X100994685Y-332937185D01*
X101074037Y-332840494D01*
X101133002Y-332730180D01*
X101169312Y-332610482D01*
X101181572Y-332486000D01*
X101181572Y-330486000D01*
X101169312Y-330361518D01*
X101133002Y-330241820D01*
X101074037Y-330131506D01*
X100994685Y-330034815D01*
X100897994Y-329955463D01*
X100787680Y-329896498D01*
X100667982Y-329860188D01*
X100543500Y-329847928D01*
X98638500Y-329847928D01*
X98514018Y-329860188D01*
X98394320Y-329896498D01*
X98284006Y-329955463D01*
X98187315Y-330034815D01*
X98107963Y-330131506D01*
X98063095Y-330215446D01*
X97937235Y-330112155D01*
X97661449Y-329964745D01*
X97362204Y-329873970D01*
X97051000Y-329843319D01*
X96739797Y-329873970D01*
X96440552Y-329964745D01*
X96164766Y-330112155D01*
X95923037Y-330310537D01*
X95775837Y-330489899D01*
X95620437Y-330304685D01*
X95377923Y-330110031D01*
X95102094Y-329966429D01*
X94883980Y-329895437D01*
X94638000Y-330015406D01*
X94638000Y-331359000D01*
X94658000Y-331359000D01*
X94658000Y-331613000D01*
X94638000Y-331613000D01*
X94638000Y-331633000D01*
X94384000Y-331633000D01*
X94384000Y-331613000D01*
X94364000Y-331613000D01*
X94364000Y-331359000D01*
X94384000Y-331359000D01*
X94384000Y-330015406D01*
X94138020Y-329895437D01*
X93993490Y-329942479D01*
X93993490Y-329441313D01*
X96800004Y-326634800D01*
X96829001Y-326611003D01*
X96923974Y-326495278D01*
X96994546Y-326363249D01*
X97038003Y-326219988D01*
X97049000Y-326108335D01*
X97049000Y-326108327D01*
X97052676Y-326071002D01*
X97049000Y-326033677D01*
X97049000Y-310518072D01*
X97241500Y-310518072D01*
X97365982Y-310505812D01*
X97485680Y-310469502D01*
X97595994Y-310410537D01*
X97692685Y-310331185D01*
X97772037Y-310234494D01*
X97831002Y-310124180D01*
X97867312Y-310004482D01*
X97879572Y-309880000D01*
X97879572Y-307880000D01*
X97867312Y-307755518D01*
X97831002Y-307635820D01*
X97772037Y-307525506D01*
X97692685Y-307428815D01*
X97595994Y-307349463D01*
X97485680Y-307290498D01*
X97365982Y-307254188D01*
X97241500Y-307241928D01*
X95336500Y-307241928D01*
X95212018Y-307254188D01*
X95092320Y-307290498D01*
X94982006Y-307349463D01*
X94885315Y-307428815D01*
X94805963Y-307525506D01*
X94761095Y-307609446D01*
X94635235Y-307506155D01*
X94359449Y-307358745D01*
X94060204Y-307267970D01*
X93749000Y-307237319D01*
X93437797Y-307267970D01*
X93138552Y-307358745D01*
X92862766Y-307506155D01*
X92621037Y-307704537D01*
X92473837Y-307883899D01*
X92318437Y-307698685D01*
X92075923Y-307504031D01*
X91800094Y-307360429D01*
X91581980Y-307289437D01*
X91336000Y-307409406D01*
X91336000Y-308753000D01*
X91356000Y-308753000D01*
X91356000Y-309007000D01*
X91336000Y-309007000D01*
X91336000Y-310350594D01*
X91581980Y-310470563D01*
X91800094Y-310399571D01*
X92075923Y-310255969D01*
X92318437Y-310061315D01*
X92473838Y-309876100D01*
X92621037Y-310055463D01*
X92862765Y-310253845D01*
X93138551Y-310401255D01*
X93437796Y-310492030D01*
X93749000Y-310522681D01*
X94060203Y-310492030D01*
X94359448Y-310401255D01*
X94635234Y-310253845D01*
X94761095Y-310150553D01*
X94805963Y-310234494D01*
X94885315Y-310331185D01*
X94982006Y-310410537D01*
X95092320Y-310469502D01*
X95212018Y-310505812D01*
X95336500Y-310518072D01*
X95529001Y-310518072D01*
X95529000Y-323947101D01*
X95269349Y-323687450D01*
X94878721Y-323426440D01*
X94444679Y-323246654D01*
X93983902Y-323155000D01*
X93514098Y-323155000D01*
X93053321Y-323246654D01*
X92619279Y-323426440D01*
X92228651Y-323687450D01*
X91896450Y-324019651D01*
X91635440Y-324410279D01*
X91455654Y-324844321D01*
X91364000Y-325305098D01*
X91364000Y-325774902D01*
X91455654Y-326235679D01*
X91635440Y-326669721D01*
X91896450Y-327060349D01*
X92228651Y-327392550D01*
X92619279Y-327653560D01*
X93053321Y-327833346D01*
X93385734Y-327899467D01*
X92722488Y-328562713D01*
X92693490Y-328586511D01*
X92669692Y-328615509D01*
X92669691Y-328615510D01*
X92598516Y-328702236D01*
X92527944Y-328834266D01*
X92484488Y-328977527D01*
X92469814Y-329126512D01*
X92473491Y-329163844D01*
X92473490Y-332025338D01*
X92469814Y-332062661D01*
X92473490Y-332099983D01*
X92473490Y-332099993D01*
X92484487Y-332211646D01*
X92527944Y-332354907D01*
X92598516Y-332486937D01*
X92638361Y-332535487D01*
X92693489Y-332602662D01*
X92722493Y-332626465D01*
X100030000Y-339933973D01*
X100030000Y-355922891D01*
X99998727Y-355901995D01*
X99744490Y-355796686D01*
X99474592Y-355743000D01*
X99199408Y-355743000D01*
X98929510Y-355796686D01*
X98675273Y-355901995D01*
X98446465Y-356054880D01*
X98251880Y-356249465D01*
X98098995Y-356478273D01*
X98067000Y-356555515D01*
X98035005Y-356478273D01*
X97882120Y-356249465D01*
X97687535Y-356054880D01*
X97458727Y-355901995D01*
X97204490Y-355796686D01*
X96934592Y-355743000D01*
X96659408Y-355743000D01*
X96389510Y-355796686D01*
X96135273Y-355901995D01*
X95906465Y-356054880D01*
X95711880Y-356249465D01*
X95558995Y-356478273D01*
X95527000Y-356555515D01*
X95495005Y-356478273D01*
X95342120Y-356249465D01*
X95147535Y-356054880D01*
X94918727Y-355901995D01*
X94664490Y-355796686D01*
X94394592Y-355743000D01*
X94119408Y-355743000D01*
X93849510Y-355796686D01*
X93595273Y-355901995D01*
X93366465Y-356054880D01*
X93171880Y-356249465D01*
X93018995Y-356478273D01*
X92987000Y-356555515D01*
X92955005Y-356478273D01*
X92802120Y-356249465D01*
X92607535Y-356054880D01*
X92378727Y-355901995D01*
X92124490Y-355796686D01*
X91854592Y-355743000D01*
X91579408Y-355743000D01*
X91309510Y-355796686D01*
X91055273Y-355901995D01*
X91024001Y-355922890D01*
X91024001Y-347911098D01*
X94666000Y-347911098D01*
X94666000Y-348380902D01*
X94757654Y-348841679D01*
X94937440Y-349275721D01*
X95198450Y-349666349D01*
X95530651Y-349998550D01*
X95921279Y-350259560D01*
X96355321Y-350439346D01*
X96816098Y-350531000D01*
X97285902Y-350531000D01*
X97746679Y-350439346D01*
X98180721Y-350259560D01*
X98571349Y-349998550D01*
X98903550Y-349666349D01*
X99164560Y-349275721D01*
X99344346Y-348841679D01*
X99436000Y-348380902D01*
X99436000Y-347911098D01*
X99344346Y-347450321D01*
X99164560Y-347016279D01*
X98903550Y-346625651D01*
X98571349Y-346293450D01*
X98180721Y-346032440D01*
X97746679Y-345852654D01*
X97285902Y-345761000D01*
X96816098Y-345761000D01*
X96355321Y-345852654D01*
X95921279Y-346032440D01*
X95530651Y-346293450D01*
X95198450Y-346625651D01*
X94937440Y-347016279D01*
X94757654Y-347450321D01*
X94666000Y-347911098D01*
X91024001Y-347911098D01*
X91024001Y-314322326D01*
X91027677Y-314285001D01*
X91024001Y-314247676D01*
X91024001Y-314247668D01*
X91013004Y-314136015D01*
X90969547Y-313992754D01*
X90898975Y-313860725D01*
X90804002Y-313745000D01*
X90775004Y-313721202D01*
X86449572Y-309395771D01*
X86449572Y-309253863D01*
X89656622Y-309253863D01*
X89750121Y-309550446D01*
X89899684Y-309823089D01*
X90099563Y-310061315D01*
X90342077Y-310255969D01*
X90617906Y-310399571D01*
X90836020Y-310470563D01*
X91082000Y-310350594D01*
X91082000Y-309007000D01*
X89783430Y-309007000D01*
X89656622Y-309253863D01*
X86449572Y-309253863D01*
X86449572Y-308506137D01*
X89656622Y-308506137D01*
X89783430Y-308753000D01*
X91082000Y-308753000D01*
X91082000Y-307409406D01*
X90836020Y-307289437D01*
X90617906Y-307360429D01*
X90342077Y-307504031D01*
X90099563Y-307698685D01*
X89899684Y-307936911D01*
X89750121Y-308209554D01*
X89656622Y-308506137D01*
X86449572Y-308506137D01*
X86449572Y-307880000D01*
X86437312Y-307755518D01*
X86401002Y-307635820D01*
X86342037Y-307525506D01*
X86262685Y-307428815D01*
X86165994Y-307349463D01*
X86055680Y-307290498D01*
X85935982Y-307254188D01*
X85811500Y-307241928D01*
X83906500Y-307241928D01*
X83782018Y-307254188D01*
X83662320Y-307290498D01*
X83552006Y-307349463D01*
X83455315Y-307428815D01*
X83375963Y-307525506D01*
X83331095Y-307609446D01*
X83205235Y-307506155D01*
X82929449Y-307358745D01*
X82630204Y-307267970D01*
X82319000Y-307237319D01*
X82007797Y-307267970D01*
X81708552Y-307358745D01*
X81432766Y-307506155D01*
X81191037Y-307704537D01*
X81043837Y-307883899D01*
X80888437Y-307698685D01*
X80645923Y-307504031D01*
X80370094Y-307360429D01*
X80151980Y-307289437D01*
X79906000Y-307409406D01*
X79906000Y-308753000D01*
X79926000Y-308753000D01*
X79926000Y-309007000D01*
X79906000Y-309007000D01*
X79906000Y-310350594D01*
X80151980Y-310470563D01*
X80370094Y-310399571D01*
X80645923Y-310255969D01*
X80888437Y-310061315D01*
X81043838Y-309876100D01*
X81191037Y-310055463D01*
X81432765Y-310253845D01*
X81708551Y-310401255D01*
X82007796Y-310492030D01*
X82319000Y-310522681D01*
X82630203Y-310492030D01*
X82929448Y-310401255D01*
X83205234Y-310253845D01*
X83331095Y-310150553D01*
X83375963Y-310234494D01*
X83455315Y-310331185D01*
X83552006Y-310410537D01*
X83662320Y-310469502D01*
X83782018Y-310505812D01*
X83906500Y-310518072D01*
X85422271Y-310518072D01*
X89504002Y-314599804D01*
X89504002Y-329863834D01*
X89491982Y-329860188D01*
X89367500Y-329847928D01*
X87462500Y-329847928D01*
X87338018Y-329860188D01*
X87218320Y-329896498D01*
X87108006Y-329955463D01*
X87011315Y-330034815D01*
X86931963Y-330131506D01*
X86887095Y-330215446D01*
X86761235Y-330112155D01*
X86485449Y-329964745D01*
X86186204Y-329873970D01*
X85875000Y-329843319D01*
X85563797Y-329873970D01*
X85264552Y-329964745D01*
X84988766Y-330112155D01*
X84747037Y-330310537D01*
X84599837Y-330489899D01*
X84444437Y-330304685D01*
X84201923Y-330110031D01*
X83926094Y-329966429D01*
X83707980Y-329895437D01*
X83462000Y-330015406D01*
X83462000Y-331359000D01*
X83482000Y-331359000D01*
X83482000Y-331613000D01*
X83462000Y-331613000D01*
X83462000Y-332956594D01*
X83707980Y-333076563D01*
X83926094Y-333005571D01*
X84201923Y-332861969D01*
X84444437Y-332667315D01*
X84599838Y-332482100D01*
X84747037Y-332661463D01*
X84988765Y-332859845D01*
X85264551Y-333007255D01*
X85563796Y-333098030D01*
X85875000Y-333128681D01*
X86186203Y-333098030D01*
X86485448Y-333007255D01*
X86761234Y-332859845D01*
X86887095Y-332756553D01*
X86931963Y-332840494D01*
X87011315Y-332937185D01*
X87108006Y-333016537D01*
X87218320Y-333075502D01*
X87338018Y-333111812D01*
X87462500Y-333124072D01*
X89367500Y-333124072D01*
X89491982Y-333111812D01*
X89504002Y-333108166D01*
X89504001Y-355780676D01*
X89314592Y-355743000D01*
X89039408Y-355743000D01*
X88851834Y-355780311D01*
X88849999Y-355761674D01*
X88849999Y-355761666D01*
X88839002Y-355650013D01*
X88795545Y-355506752D01*
X88724973Y-355374723D01*
X88630000Y-355258998D01*
X88601002Y-355235200D01*
X86508000Y-353142199D01*
X86508000Y-351589323D01*
X86511676Y-351552000D01*
X86508000Y-351514677D01*
X86508000Y-351514667D01*
X86497003Y-351403014D01*
X86453546Y-351259753D01*
X86382974Y-351127724D01*
X86288001Y-351011999D01*
X86259003Y-350988201D01*
X85801802Y-350531000D01*
X86109902Y-350531000D01*
X86570679Y-350439346D01*
X87004721Y-350259560D01*
X87395349Y-349998550D01*
X87727550Y-349666349D01*
X87988560Y-349275721D01*
X88168346Y-348841679D01*
X88260000Y-348380902D01*
X88260000Y-347911098D01*
X88168346Y-347450321D01*
X87988560Y-347016279D01*
X87727550Y-346625651D01*
X87395349Y-346293450D01*
X87004721Y-346032440D01*
X86570679Y-345852654D01*
X86109902Y-345761000D01*
X85640098Y-345761000D01*
X85179321Y-345852654D01*
X84745279Y-346032440D01*
X84354651Y-346293450D01*
X84022450Y-346625651D01*
X83761440Y-347016279D01*
X83587000Y-347437415D01*
X83587000Y-339397322D01*
X83590676Y-339359999D01*
X83587000Y-339322676D01*
X83587000Y-339322667D01*
X83576003Y-339211014D01*
X83532546Y-339067753D01*
X83461974Y-338935723D01*
X83390799Y-338848997D01*
X83367001Y-338819999D01*
X83338003Y-338796201D01*
X82444000Y-337902199D01*
X82444000Y-332842644D01*
X82468077Y-332861969D01*
X82743906Y-333005571D01*
X82962020Y-333076563D01*
X83208000Y-332956594D01*
X83208000Y-331613000D01*
X83188000Y-331613000D01*
X83188000Y-331359000D01*
X83208000Y-331359000D01*
X83208000Y-330015406D01*
X82962020Y-329895437D01*
X82743906Y-329966429D01*
X82468077Y-330110031D01*
X82444000Y-330129356D01*
X82444000Y-330126325D01*
X82447676Y-330089000D01*
X82444000Y-330051675D01*
X82444000Y-330051667D01*
X82433003Y-329940014D01*
X82389546Y-329796753D01*
X82318974Y-329664724D01*
X82224001Y-329548999D01*
X82195003Y-329525201D01*
X80666000Y-327996199D01*
X80666000Y-327259899D01*
X80798651Y-327392550D01*
X81189279Y-327653560D01*
X81623321Y-327833346D01*
X82084098Y-327925000D01*
X82553902Y-327925000D01*
X83014679Y-327833346D01*
X83448721Y-327653560D01*
X83839349Y-327392550D01*
X84171550Y-327060349D01*
X84432560Y-326669721D01*
X84612346Y-326235679D01*
X84704000Y-325774902D01*
X84704000Y-325305098D01*
X84612346Y-324844321D01*
X84432560Y-324410279D01*
X84171550Y-324019651D01*
X83839349Y-323687450D01*
X83448721Y-323426440D01*
X83014679Y-323246654D01*
X82553902Y-323155000D01*
X82084098Y-323155000D01*
X81623321Y-323246654D01*
X81189279Y-323426440D01*
X80798651Y-323687450D01*
X80666000Y-323820101D01*
X80666000Y-323141322D01*
X80669676Y-323103999D01*
X80666000Y-323066676D01*
X80666000Y-323066667D01*
X80655003Y-322955014D01*
X80611546Y-322811753D01*
X80540974Y-322679724D01*
X80446001Y-322563999D01*
X80417003Y-322540201D01*
X79396000Y-321519199D01*
X79396000Y-316156322D01*
X79399676Y-316118999D01*
X79396000Y-316081676D01*
X79396000Y-316081667D01*
X79385003Y-315970014D01*
X79341546Y-315826753D01*
X79270974Y-315694724D01*
X79176001Y-315578999D01*
X79147003Y-315555201D01*
X75967000Y-312375199D01*
X75967000Y-310060322D01*
X75970676Y-310022999D01*
X75967000Y-309985676D01*
X75967000Y-309985667D01*
X75956003Y-309874014D01*
X75912546Y-309730753D01*
X75841974Y-309598724D01*
X75747001Y-309482999D01*
X75717997Y-309459196D01*
X75516804Y-309258003D01*
X75513407Y-309253863D01*
X78226622Y-309253863D01*
X78320121Y-309550446D01*
X78469684Y-309823089D01*
X78669563Y-310061315D01*
X78912077Y-310255969D01*
X79187906Y-310399571D01*
X79406020Y-310470563D01*
X79652000Y-310350594D01*
X79652000Y-309007000D01*
X78353430Y-309007000D01*
X78226622Y-309253863D01*
X75513407Y-309253863D01*
X75493001Y-309228999D01*
X75377276Y-309134026D01*
X75245247Y-309063454D01*
X75101986Y-309019997D01*
X74990333Y-309009000D01*
X74990322Y-309009000D01*
X74953000Y-309005324D01*
X74915678Y-309009000D01*
X74908572Y-309009000D01*
X74908572Y-308506137D01*
X78226622Y-308506137D01*
X78353430Y-308753000D01*
X79652000Y-308753000D01*
X79652000Y-307409406D01*
X79406020Y-307289437D01*
X79187906Y-307360429D01*
X78912077Y-307504031D01*
X78669563Y-307698685D01*
X78469684Y-307936911D01*
X78320121Y-308209554D01*
X78226622Y-308506137D01*
X74908572Y-308506137D01*
X74908572Y-307881000D01*
X74896312Y-307756518D01*
X74860002Y-307636820D01*
X74801037Y-307526506D01*
X74721685Y-307429815D01*
X74624994Y-307350463D01*
X74514680Y-307291498D01*
X74394982Y-307255188D01*
X74270500Y-307242928D01*
X72365500Y-307242928D01*
X72241018Y-307255188D01*
X72121320Y-307291498D01*
X72011006Y-307350463D01*
X71914315Y-307429815D01*
X71834963Y-307526506D01*
X71790095Y-307610446D01*
X71664235Y-307507155D01*
X71388449Y-307359745D01*
X71089204Y-307268970D01*
X70778000Y-307238319D01*
X70466797Y-307268970D01*
X70167552Y-307359745D01*
X69891766Y-307507155D01*
X69650037Y-307705537D01*
X69502837Y-307884899D01*
X69347437Y-307699685D01*
X69104923Y-307505031D01*
X68829094Y-307361429D01*
X68610980Y-307290437D01*
X68365000Y-307410406D01*
X68365000Y-308754000D01*
X68385000Y-308754000D01*
X68385000Y-309008000D01*
X68365000Y-309008000D01*
X68365000Y-310351594D01*
X68610980Y-310471563D01*
X68829094Y-310400571D01*
X69104923Y-310256969D01*
X69347437Y-310062315D01*
X69502838Y-309877100D01*
X69650037Y-310056463D01*
X69891765Y-310254845D01*
X70167551Y-310402255D01*
X70466796Y-310493030D01*
X70778000Y-310523681D01*
X71089203Y-310493030D01*
X71388448Y-310402255D01*
X71664234Y-310254845D01*
X71790095Y-310151553D01*
X71834963Y-310235494D01*
X71914315Y-310332185D01*
X72011006Y-310411537D01*
X72121320Y-310470502D01*
X72241018Y-310506812D01*
X72365500Y-310519072D01*
X74067868Y-310519072D01*
X74168667Y-310529000D01*
X74168675Y-310529000D01*
X74206000Y-310532676D01*
X74243325Y-310529000D01*
X74447001Y-310529000D01*
X74447000Y-312652677D01*
X74443324Y-312690000D01*
X74447000Y-312727322D01*
X74447000Y-312727332D01*
X74457997Y-312838985D01*
X74501454Y-312982246D01*
X74572026Y-313114276D01*
X74611871Y-313162826D01*
X74666999Y-313230001D01*
X74696003Y-313253804D01*
X77876001Y-316433803D01*
X77876000Y-321796677D01*
X77872324Y-321834000D01*
X77876000Y-321871322D01*
X77876000Y-321871332D01*
X77886997Y-321982985D01*
X77930454Y-322126246D01*
X78001026Y-322258276D01*
X78040871Y-322306826D01*
X78095999Y-322374001D01*
X78125003Y-322397804D01*
X79146001Y-323418803D01*
X79146000Y-328273677D01*
X79142324Y-328311000D01*
X79146000Y-328348322D01*
X79146000Y-328348332D01*
X79156997Y-328459985D01*
X79183319Y-328546758D01*
X79200454Y-328603246D01*
X79271026Y-328735276D01*
X79310871Y-328783826D01*
X79365999Y-328851001D01*
X79395003Y-328874804D01*
X80924001Y-330403803D01*
X80924000Y-338179678D01*
X80920324Y-338217000D01*
X80924000Y-338254322D01*
X80924000Y-338254332D01*
X80934997Y-338365985D01*
X80978454Y-338509246D01*
X81049026Y-338641276D01*
X81088871Y-338689826D01*
X81143999Y-338757001D01*
X81173002Y-338780804D01*
X82067001Y-339674803D01*
X82067000Y-348593678D01*
X82063324Y-348631000D01*
X82067000Y-348668322D01*
X82067000Y-348668332D01*
X82077997Y-348779985D01*
X82121454Y-348923246D01*
X82192026Y-349055276D01*
X82231871Y-349103826D01*
X82286999Y-349171001D01*
X82316003Y-349194804D01*
X84988001Y-351866803D01*
X84988000Y-353419677D01*
X84984324Y-353457000D01*
X84988000Y-353494322D01*
X84988000Y-353494332D01*
X84998997Y-353605985D01*
X85042454Y-353749246D01*
X85113026Y-353881276D01*
X85152871Y-353929826D01*
X85207999Y-353997001D01*
X85237003Y-354020804D01*
X87005036Y-355788838D01*
X86774592Y-355743000D01*
X86499408Y-355743000D01*
X86229510Y-355796686D01*
X85975273Y-355901995D01*
X85746465Y-356054880D01*
X85551880Y-356249465D01*
X85398995Y-356478273D01*
X85367000Y-356555515D01*
X85335005Y-356478273D01*
X85182120Y-356249465D01*
X84987535Y-356054880D01*
X84758727Y-355901995D01*
X84504490Y-355796686D01*
X84234592Y-355743000D01*
X83959408Y-355743000D01*
X83689510Y-355796686D01*
X83435273Y-355901995D01*
X83206465Y-356054880D01*
X83011880Y-356249465D01*
X82858995Y-356478273D01*
X82827000Y-356555515D01*
X82795005Y-356478273D01*
X82642120Y-356249465D01*
X82447535Y-356054880D01*
X82218727Y-355901995D01*
X81964490Y-355796686D01*
X81694592Y-355743000D01*
X81419408Y-355743000D01*
X81149510Y-355796686D01*
X80895273Y-355901995D01*
X80864001Y-355922890D01*
X80864001Y-341068495D01*
X80867677Y-341031172D01*
X80864001Y-340993849D01*
X80864001Y-340993839D01*
X80853004Y-340882186D01*
X80809547Y-340738925D01*
X80738975Y-340606895D01*
X80667800Y-340520169D01*
X80644002Y-340491171D01*
X80615004Y-340467373D01*
X73102151Y-332954521D01*
X73279923Y-332861969D01*
X73522437Y-332667315D01*
X73677838Y-332482100D01*
X73825037Y-332661463D01*
X74066765Y-332859845D01*
X74342551Y-333007255D01*
X74641796Y-333098030D01*
X74953000Y-333128681D01*
X75264203Y-333098030D01*
X75563448Y-333007255D01*
X75839234Y-332859845D01*
X75965095Y-332756553D01*
X76009963Y-332840494D01*
X76089315Y-332937185D01*
X76186006Y-333016537D01*
X76296320Y-333075502D01*
X76416018Y-333111812D01*
X76540500Y-333124072D01*
X78445500Y-333124072D01*
X78569982Y-333111812D01*
X78689680Y-333075502D01*
X78799994Y-333016537D01*
X78896685Y-332937185D01*
X78976037Y-332840494D01*
X79035002Y-332730180D01*
X79071312Y-332610482D01*
X79083572Y-332486000D01*
X79083572Y-330486000D01*
X79071312Y-330361518D01*
X79035002Y-330241820D01*
X78976037Y-330131506D01*
X78896685Y-330034815D01*
X78799994Y-329955463D01*
X78689680Y-329896498D01*
X78569982Y-329860188D01*
X78445500Y-329847928D01*
X76540500Y-329847928D01*
X76416018Y-329860188D01*
X76296320Y-329896498D01*
X76186006Y-329955463D01*
X76089315Y-330034815D01*
X76009963Y-330131506D01*
X75965095Y-330215446D01*
X75839235Y-330112155D01*
X75563449Y-329964745D01*
X75264204Y-329873970D01*
X74953000Y-329843319D01*
X74641797Y-329873970D01*
X74342552Y-329964745D01*
X74066766Y-330112155D01*
X73825037Y-330310537D01*
X73677837Y-330489899D01*
X73522437Y-330304685D01*
X73279923Y-330110031D01*
X73004094Y-329966429D01*
X72785980Y-329895437D01*
X72540000Y-330015406D01*
X72540000Y-331359000D01*
X72560000Y-331359000D01*
X72560000Y-331613000D01*
X72540000Y-331613000D01*
X72540000Y-331633000D01*
X72286000Y-331633000D01*
X72286000Y-331613000D01*
X72266000Y-331613000D01*
X72266000Y-331359000D01*
X72286000Y-331359000D01*
X72286000Y-330015406D01*
X72040020Y-329895437D01*
X71895490Y-329942479D01*
X71895490Y-328569313D01*
X73364005Y-327100799D01*
X73393002Y-327077002D01*
X73487975Y-326961277D01*
X73558547Y-326829248D01*
X73602004Y-326685987D01*
X73613001Y-326574334D01*
X73613001Y-326574325D01*
X73616677Y-326537002D01*
X73613001Y-326499679D01*
X73613001Y-319650323D01*
X73616677Y-319613001D01*
X73613001Y-319575678D01*
X73613001Y-319575668D01*
X73602004Y-319464015D01*
X73558547Y-319320754D01*
X73487975Y-319188724D01*
X73416800Y-319101998D01*
X73393002Y-319073000D01*
X73364004Y-319049202D01*
X63769572Y-309454771D01*
X63769572Y-309254863D01*
X66685622Y-309254863D01*
X66779121Y-309551446D01*
X66928684Y-309824089D01*
X67128563Y-310062315D01*
X67371077Y-310256969D01*
X67646906Y-310400571D01*
X67865020Y-310471563D01*
X68111000Y-310351594D01*
X68111000Y-309008000D01*
X66812430Y-309008000D01*
X66685622Y-309254863D01*
X63769572Y-309254863D01*
X63769572Y-308507137D01*
X66685622Y-308507137D01*
X66812430Y-308754000D01*
X68111000Y-308754000D01*
X68111000Y-307410406D01*
X67865020Y-307290437D01*
X67646906Y-307361429D01*
X67371077Y-307505031D01*
X67128563Y-307699685D01*
X66928684Y-307937911D01*
X66779121Y-308210554D01*
X66685622Y-308507137D01*
X63769572Y-308507137D01*
X63769572Y-307939000D01*
X63757312Y-307814518D01*
X63721002Y-307694820D01*
X63662037Y-307584506D01*
X63582685Y-307487815D01*
X63485994Y-307408463D01*
X63375680Y-307349498D01*
X63255982Y-307313188D01*
X63131500Y-307300928D01*
X61226500Y-307300928D01*
X61102018Y-307313188D01*
X60982320Y-307349498D01*
X60872006Y-307408463D01*
X60775315Y-307487815D01*
X60695963Y-307584506D01*
X60651095Y-307668446D01*
X60525235Y-307565155D01*
X60249449Y-307417745D01*
X59950204Y-307326970D01*
X59639000Y-307296319D01*
X59327797Y-307326970D01*
X59028552Y-307417745D01*
X58752766Y-307565155D01*
X58511037Y-307763537D01*
X58363837Y-307942899D01*
X58208437Y-307757685D01*
X57965923Y-307563031D01*
X57690094Y-307419429D01*
X57471980Y-307348437D01*
X57226000Y-307468406D01*
X56972000Y-307468406D01*
X56726020Y-307348437D01*
X56507906Y-307419429D01*
X56232077Y-307563031D01*
X55989563Y-307757685D01*
X55789684Y-307995911D01*
X55640121Y-308268554D01*
X55546622Y-308565137D01*
X52526572Y-308565137D01*
X52526572Y-307835000D01*
X52514312Y-307710518D01*
X52478002Y-307590820D01*
X52419037Y-307480506D01*
X52339685Y-307383815D01*
X52242994Y-307304463D01*
X52132680Y-307245498D01*
X52012982Y-307209188D01*
X51888500Y-307196928D01*
X49983500Y-307196928D01*
X49859018Y-307209188D01*
X49739320Y-307245498D01*
X49629006Y-307304463D01*
X49532315Y-307383815D01*
X49452963Y-307480506D01*
X49408095Y-307564446D01*
X49282235Y-307461155D01*
X49006449Y-307313745D01*
X48707204Y-307222970D01*
X48396000Y-307192319D01*
X48084797Y-307222970D01*
X47785552Y-307313745D01*
X47509766Y-307461155D01*
X47268037Y-307659537D01*
X47120837Y-307838899D01*
X46965437Y-307653685D01*
X46722923Y-307459031D01*
X46447094Y-307315429D01*
X46228980Y-307244437D01*
X45983000Y-307364406D01*
X45729000Y-307364406D01*
X45483020Y-307244437D01*
X45264906Y-307315429D01*
X44989077Y-307459031D01*
X44746563Y-307653685D01*
X44546684Y-307891911D01*
X44397121Y-308164554D01*
X44303622Y-308461137D01*
X30122000Y-308461137D01*
X30122000Y-300519945D01*
X31664000Y-300519945D01*
X31664000Y-301492055D01*
X31853650Y-302445486D01*
X32225660Y-303343599D01*
X32765735Y-304151879D01*
X33453121Y-304839265D01*
X34261401Y-305379340D01*
X35159514Y-305751350D01*
X36112945Y-305941000D01*
X37085055Y-305941000D01*
X38038486Y-305751350D01*
X38936599Y-305379340D01*
X39744879Y-304839265D01*
X40432265Y-304151879D01*
X40972340Y-303343599D01*
X41344350Y-302445486D01*
X41534000Y-301492055D01*
X41534000Y-300519945D01*
X123104000Y-300519945D01*
X123104000Y-301492055D01*
X123293650Y-302445486D01*
X123665660Y-303343599D01*
X124205735Y-304151879D01*
X124893121Y-304839265D01*
X125701401Y-305379340D01*
X126599514Y-305751350D01*
X127552945Y-305941000D01*
X128525055Y-305941000D01*
X129478486Y-305751350D01*
X130376599Y-305379340D01*
X131184879Y-304839265D01*
X131872265Y-304151879D01*
X132412340Y-303343599D01*
X132784350Y-302445486D01*
X132974000Y-301492055D01*
X132974000Y-300519945D01*
X132784350Y-299566514D01*
X132412340Y-298668401D01*
X131872265Y-297860121D01*
X131184879Y-297172735D01*
X130376599Y-296632660D01*
X129478486Y-296260650D01*
X128525055Y-296071000D01*
X127552945Y-296071000D01*
X126599514Y-296260650D01*
X125701401Y-296632660D01*
X124893121Y-297172735D01*
X124205735Y-297860121D01*
X123665660Y-298668401D01*
X123293650Y-299566514D01*
X123104000Y-300519945D01*
X41534000Y-300519945D01*
X41344350Y-299566514D01*
X40972340Y-298668401D01*
X40432265Y-297860121D01*
X39744879Y-297172735D01*
X38936599Y-296632660D01*
X38038486Y-296260650D01*
X37085055Y-296071000D01*
X36112945Y-296071000D01*
X35159514Y-296260650D01*
X34261401Y-296632660D01*
X33453121Y-297172735D01*
X32765735Y-297860121D01*
X32225660Y-298668401D01*
X31853650Y-299566514D01*
X31664000Y-300519945D01*
X30122000Y-300519945D01*
X30122000Y-295037000D01*
X134008000Y-295037000D01*
X134008000Y-385969000D01*
%TA.AperFunction,Conductor*%
D32*
G36*
X134008000Y-385969000D02*
G01*
X30122000Y-385969000D01*
X30122000Y-379894945D01*
X31791000Y-379894945D01*
X31791000Y-380867055D01*
X31980650Y-381820486D01*
X32352660Y-382718599D01*
X32892735Y-383526879D01*
X33580121Y-384214265D01*
X34388401Y-384754340D01*
X35286514Y-385126350D01*
X36239945Y-385316000D01*
X37212055Y-385316000D01*
X38165486Y-385126350D01*
X39063599Y-384754340D01*
X39871879Y-384214265D01*
X40559265Y-383526879D01*
X41099340Y-382718599D01*
X41471350Y-381820486D01*
X41661000Y-380867055D01*
X41661000Y-380337117D01*
X43024000Y-380337117D01*
X43024000Y-380678883D01*
X43090675Y-381014081D01*
X43221463Y-381329831D01*
X43411337Y-381613998D01*
X43653002Y-381855663D01*
X43937169Y-382045537D01*
X44252919Y-382176325D01*
X44588117Y-382243000D01*
X44929883Y-382243000D01*
X45265081Y-382176325D01*
X45580831Y-382045537D01*
X45864998Y-381855663D01*
X46106663Y-381613998D01*
X46296537Y-381329831D01*
X46427325Y-381014081D01*
X46494000Y-380678883D01*
X46494000Y-380337117D01*
X46427325Y-380001919D01*
X46296537Y-379686169D01*
X46110671Y-379408000D01*
X50640928Y-379408000D01*
X50640928Y-381608000D01*
X50653188Y-381732482D01*
X50689498Y-381852180D01*
X50748463Y-381962494D01*
X50827815Y-382059185D01*
X50924506Y-382138537D01*
X51034820Y-382197502D01*
X51154518Y-382233812D01*
X51279000Y-382246072D01*
X53479000Y-382246072D01*
X53603482Y-382233812D01*
X53723180Y-382197502D01*
X53833494Y-382138537D01*
X53930185Y-382059185D01*
X54009537Y-381962494D01*
X54068502Y-381852180D01*
X54104812Y-381732482D01*
X54117072Y-381608000D01*
X54117072Y-379408000D01*
X54104812Y-379283518D01*
X54068502Y-379163820D01*
X54009537Y-379053506D01*
X53930185Y-378956815D01*
X53833494Y-378877463D01*
X53723180Y-378818498D01*
X53603482Y-378782188D01*
X53479000Y-378769928D01*
X51279000Y-378769928D01*
X51154518Y-378782188D01*
X51034820Y-378818498D01*
X50924506Y-378877463D01*
X50827815Y-378956815D01*
X50748463Y-379053506D01*
X50689498Y-379163820D01*
X50653188Y-379283518D01*
X50640928Y-379408000D01*
X46110671Y-379408000D01*
X46106663Y-379402002D01*
X45864998Y-379160337D01*
X45580831Y-378970463D01*
X45265081Y-378839675D01*
X44929883Y-378773000D01*
X44588117Y-378773000D01*
X44252919Y-378839675D01*
X43937169Y-378970463D01*
X43653002Y-379160337D01*
X43411337Y-379402002D01*
X43221463Y-379686169D01*
X43090675Y-380001919D01*
X43024000Y-380337117D01*
X41661000Y-380337117D01*
X41661000Y-379894945D01*
X41471350Y-378941514D01*
X41134964Y-378129403D01*
X54298000Y-378129403D01*
X54298000Y-379314596D01*
X54325275Y-379591523D01*
X54433061Y-379946847D01*
X54608097Y-380274317D01*
X54843655Y-380561345D01*
X55130683Y-380796903D01*
X55458152Y-380971939D01*
X55813476Y-381079725D01*
X56183000Y-381116120D01*
X56552523Y-381079725D01*
X56907847Y-380971939D01*
X57235317Y-380796903D01*
X57522345Y-380561345D01*
X57757903Y-380274317D01*
X57932939Y-379946848D01*
X58040725Y-379591524D01*
X58068000Y-379314597D01*
X58068000Y-378222000D01*
X58588880Y-378222000D01*
X58625275Y-378591524D01*
X58733061Y-378946848D01*
X58908097Y-379274317D01*
X59143655Y-379561345D01*
X59430683Y-379796903D01*
X59758152Y-379971939D01*
X59811067Y-379987990D01*
X59781382Y-380007825D01*
X59518825Y-380270382D01*
X59312534Y-380579118D01*
X59170439Y-380922166D01*
X59098000Y-381286344D01*
X59098000Y-381657656D01*
X59170439Y-382021834D01*
X59312534Y-382364882D01*
X59518825Y-382673618D01*
X59781382Y-382936175D01*
X60090118Y-383142466D01*
X60433166Y-383284561D01*
X60797344Y-383357000D01*
X61168656Y-383357000D01*
X61532834Y-383284561D01*
X61875882Y-383142466D01*
X62184618Y-382936175D01*
X62447175Y-382673618D01*
X62653466Y-382364882D01*
X62795561Y-382021834D01*
X62868000Y-381657656D01*
X62868000Y-381286344D01*
X62795561Y-380922166D01*
X62653466Y-380579118D01*
X62447175Y-380270382D01*
X62184618Y-380007825D01*
X62154933Y-379987990D01*
X62207848Y-379971939D01*
X62535317Y-379796903D01*
X62822345Y-379561345D01*
X63057903Y-379274317D01*
X63232939Y-378946848D01*
X63340725Y-378591524D01*
X63377120Y-378222000D01*
X63368000Y-378129403D01*
X63898000Y-378129403D01*
X63898000Y-379314596D01*
X63925275Y-379591523D01*
X64033061Y-379946847D01*
X64208097Y-380274317D01*
X64443655Y-380561345D01*
X64730683Y-380796903D01*
X65058152Y-380971939D01*
X65413476Y-381079725D01*
X65783000Y-381116120D01*
X66152523Y-381079725D01*
X66507847Y-380971939D01*
X66835317Y-380796903D01*
X67122345Y-380561345D01*
X67357903Y-380274317D01*
X67532939Y-379946848D01*
X67640725Y-379591524D01*
X67668000Y-379314597D01*
X67668000Y-378129403D01*
X67640725Y-377852476D01*
X67532939Y-377497152D01*
X67357903Y-377169683D01*
X67122345Y-376882655D01*
X66835317Y-376647097D01*
X66507848Y-376472061D01*
X66152524Y-376364275D01*
X65783000Y-376327880D01*
X65413477Y-376364275D01*
X65058153Y-376472061D01*
X64730684Y-376647097D01*
X64443656Y-376882655D01*
X64208098Y-377169683D01*
X64033061Y-377497152D01*
X63925275Y-377852476D01*
X63898000Y-378129403D01*
X63368000Y-378129403D01*
X63340725Y-377852476D01*
X63232939Y-377497152D01*
X63057903Y-377169683D01*
X62822345Y-376882655D01*
X62535317Y-376647097D01*
X62207848Y-376472061D01*
X61852524Y-376364275D01*
X61575597Y-376337000D01*
X60390403Y-376337000D01*
X60113476Y-376364275D01*
X59758152Y-376472061D01*
X59430683Y-376647097D01*
X59143655Y-376882655D01*
X58908097Y-377169683D01*
X58733061Y-377497152D01*
X58625275Y-377852476D01*
X58588880Y-378222000D01*
X58068000Y-378222000D01*
X58068000Y-378129403D01*
X58040725Y-377852476D01*
X57932939Y-377497152D01*
X57757903Y-377169683D01*
X57522345Y-376882655D01*
X57235317Y-376647097D01*
X56907848Y-376472061D01*
X56552524Y-376364275D01*
X56183000Y-376327880D01*
X55813477Y-376364275D01*
X55458153Y-376472061D01*
X55130684Y-376647097D01*
X54843656Y-376882655D01*
X54608098Y-377169683D01*
X54433061Y-377497152D01*
X54325275Y-377852476D01*
X54298000Y-378129403D01*
X41134964Y-378129403D01*
X41099340Y-378043401D01*
X40559265Y-377235121D01*
X39871879Y-376547735D01*
X39063599Y-376007660D01*
X38165486Y-375635650D01*
X37212055Y-375446000D01*
X36239945Y-375446000D01*
X35286514Y-375635650D01*
X34388401Y-376007660D01*
X33580121Y-376547735D01*
X32892735Y-377235121D01*
X32352660Y-378043401D01*
X31980650Y-378941514D01*
X31791000Y-379894945D01*
X30122000Y-379894945D01*
X30122000Y-374661514D01*
X39836000Y-374661514D01*
X39836000Y-374924486D01*
X39887304Y-375182405D01*
X39987939Y-375425359D01*
X40134038Y-375644013D01*
X40319987Y-375829962D01*
X40538641Y-375976061D01*
X40781595Y-376076696D01*
X41039514Y-376128000D01*
X41302486Y-376128000D01*
X41560405Y-376076696D01*
X41803359Y-375976061D01*
X42022013Y-375829962D01*
X42207962Y-375644013D01*
X42354061Y-375425359D01*
X42454696Y-375182405D01*
X42506000Y-374924486D01*
X42506000Y-374661514D01*
X42454696Y-374403595D01*
X42354061Y-374160641D01*
X42207962Y-373941987D01*
X42022013Y-373756038D01*
X41803359Y-373609939D01*
X41560405Y-373509304D01*
X41302486Y-373458000D01*
X41039514Y-373458000D01*
X40781595Y-373509304D01*
X40538641Y-373609939D01*
X40319987Y-373756038D01*
X40134038Y-373941987D01*
X39987939Y-374160641D01*
X39887304Y-374403595D01*
X39836000Y-374661514D01*
X30122000Y-374661514D01*
X30122000Y-373259000D01*
X44788428Y-373259000D01*
X44788428Y-375259000D01*
X44800688Y-375383482D01*
X44836998Y-375503180D01*
X44895963Y-375613494D01*
X44975315Y-375710185D01*
X45072006Y-375789537D01*
X45182320Y-375848502D01*
X45302018Y-375884812D01*
X45426500Y-375897072D01*
X47331500Y-375897072D01*
X47455982Y-375884812D01*
X47575680Y-375848502D01*
X47685994Y-375789537D01*
X47782685Y-375710185D01*
X47862037Y-375613494D01*
X47906905Y-375529553D01*
X48032766Y-375632845D01*
X48308552Y-375780255D01*
X48607797Y-375871030D01*
X48919000Y-375901681D01*
X49230204Y-375871030D01*
X49529449Y-375780255D01*
X49805235Y-375632845D01*
X50046963Y-375434463D01*
X50189000Y-375261391D01*
X50331037Y-375434463D01*
X50572766Y-375632845D01*
X50848552Y-375780255D01*
X51147797Y-375871030D01*
X51459000Y-375901681D01*
X51770204Y-375871030D01*
X52069449Y-375780255D01*
X52345235Y-375632845D01*
X52586963Y-375434463D01*
X52785345Y-375192734D01*
X52932755Y-374916948D01*
X53023530Y-374617703D01*
X53046500Y-374384485D01*
X53046500Y-374133514D01*
X53023530Y-373900296D01*
X52932755Y-373601051D01*
X52897774Y-373535605D01*
X59849000Y-373535605D01*
X59974914Y-373825577D01*
X60307126Y-373991433D01*
X60665312Y-374089290D01*
X61035706Y-374115389D01*
X61404075Y-374068725D01*
X61756262Y-373951094D01*
X61991086Y-373825577D01*
X62117000Y-373535605D01*
X60983000Y-372401605D01*
X59849000Y-373535605D01*
X52897774Y-373535605D01*
X52785345Y-373325265D01*
X52586963Y-373083537D01*
X52345234Y-372885155D01*
X52069448Y-372737745D01*
X51770203Y-372646970D01*
X51459000Y-372616319D01*
X51147796Y-372646970D01*
X50848551Y-372737745D01*
X50572765Y-372885155D01*
X50331037Y-373083537D01*
X50189000Y-373256609D01*
X50046963Y-373083537D01*
X49805234Y-372885155D01*
X49529448Y-372737745D01*
X49230203Y-372646970D01*
X48919000Y-372616319D01*
X48607796Y-372646970D01*
X48308551Y-372737745D01*
X48032765Y-372885155D01*
X47906905Y-372988446D01*
X47862037Y-372904506D01*
X47782685Y-372807815D01*
X47685994Y-372728463D01*
X47575680Y-372669498D01*
X47455982Y-372633188D01*
X47331500Y-372620928D01*
X45426500Y-372620928D01*
X45302018Y-372633188D01*
X45182320Y-372669498D01*
X45072006Y-372728463D01*
X44975315Y-372807815D01*
X44895963Y-372904506D01*
X44836998Y-373014820D01*
X44800688Y-373134518D01*
X44788428Y-373259000D01*
X30122000Y-373259000D01*
X30122000Y-372274706D01*
X59089611Y-372274706D01*
X59136275Y-372643075D01*
X59253906Y-372995262D01*
X59379423Y-373230086D01*
X59669395Y-373356000D01*
X60803395Y-372222000D01*
X61162605Y-372222000D01*
X62296605Y-373356000D01*
X62586577Y-373230086D01*
X62752433Y-372897874D01*
X62850290Y-372539688D01*
X62876389Y-372169294D01*
X62829725Y-371800925D01*
X62712094Y-371448738D01*
X62586577Y-371213914D01*
X62296605Y-371088000D01*
X61162605Y-372222000D01*
X60803395Y-372222000D01*
X59669395Y-371088000D01*
X59379423Y-371213914D01*
X59213567Y-371546126D01*
X59115710Y-371904312D01*
X59089611Y-372274706D01*
X30122000Y-372274706D01*
X30122000Y-370908395D01*
X59849000Y-370908395D01*
X60983000Y-372042395D01*
X62117000Y-370908395D01*
X61991086Y-370618423D01*
X61658874Y-370452567D01*
X61300688Y-370354710D01*
X60930294Y-370328611D01*
X60561925Y-370375275D01*
X60209738Y-370492906D01*
X59974914Y-370618423D01*
X59849000Y-370908395D01*
X30122000Y-370908395D01*
X30122000Y-368506702D01*
X57375903Y-368506702D01*
X57447486Y-368750671D01*
X57702996Y-368871571D01*
X57977184Y-368940300D01*
X58259512Y-368954217D01*
X58539130Y-368912787D01*
X58805292Y-368817603D01*
X58930514Y-368750671D01*
X59002097Y-368506702D01*
X58189000Y-367693605D01*
X57375903Y-368506702D01*
X30122000Y-368506702D01*
X30122000Y-367506330D01*
X39878278Y-367506330D01*
X39968147Y-367752123D01*
X40104241Y-367975660D01*
X40281330Y-368168351D01*
X40492608Y-368322792D01*
X40729956Y-368433047D01*
X40837671Y-368465716D01*
X41044000Y-368342374D01*
X41044000Y-367300000D01*
X41298000Y-367300000D01*
X41298000Y-368342374D01*
X41504329Y-368465716D01*
X41612044Y-368433047D01*
X41849392Y-368322792D01*
X42060670Y-368168351D01*
X42237759Y-367975660D01*
X42373853Y-367752123D01*
X42435136Y-367584512D01*
X56748783Y-367584512D01*
X56790213Y-367864130D01*
X56885397Y-368130292D01*
X56952329Y-368255514D01*
X57196298Y-368327097D01*
X58009395Y-367514000D01*
X58368605Y-367514000D01*
X59181702Y-368327097D01*
X59425671Y-368255514D01*
X59546571Y-368000004D01*
X59615300Y-367725816D01*
X59629217Y-367443488D01*
X59624651Y-367412665D01*
X62850000Y-367412665D01*
X62850000Y-367695335D01*
X62905147Y-367972574D01*
X63013320Y-368233727D01*
X63170363Y-368468759D01*
X63370241Y-368668637D01*
X63605273Y-368825680D01*
X63866426Y-368933853D01*
X64143665Y-368989000D01*
X64426335Y-368989000D01*
X64703574Y-368933853D01*
X64964727Y-368825680D01*
X65199759Y-368668637D01*
X65399637Y-368468759D01*
X65556680Y-368233727D01*
X65664853Y-367972574D01*
X65720000Y-367695335D01*
X65720000Y-367412665D01*
X65664853Y-367135426D01*
X65556680Y-366874273D01*
X65399637Y-366639241D01*
X65199759Y-366439363D01*
X64999131Y-366305308D01*
X65026514Y-366290671D01*
X65098097Y-366046702D01*
X64285000Y-365233605D01*
X63471903Y-366046702D01*
X63543486Y-366290671D01*
X63572341Y-366304324D01*
X63370241Y-366439363D01*
X63170363Y-366639241D01*
X63013320Y-366874273D01*
X62905147Y-367135426D01*
X62850000Y-367412665D01*
X59624651Y-367412665D01*
X59587787Y-367163870D01*
X59492603Y-366897708D01*
X59425671Y-366772486D01*
X59181702Y-366700903D01*
X58368605Y-367514000D01*
X58009395Y-367514000D01*
X57196298Y-366700903D01*
X56952329Y-366772486D01*
X56831429Y-367027996D01*
X56762700Y-367302184D01*
X56748783Y-367584512D01*
X42435136Y-367584512D01*
X42463722Y-367506330D01*
X42341201Y-367300000D01*
X41298000Y-367300000D01*
X41044000Y-367300000D01*
X40000799Y-367300000D01*
X39878278Y-367506330D01*
X30122000Y-367506330D01*
X30122000Y-366839670D01*
X39878278Y-366839670D01*
X40000799Y-367046000D01*
X41044000Y-367046000D01*
X41044000Y-366003626D01*
X41298000Y-366003626D01*
X41298000Y-367046000D01*
X42341201Y-367046000D01*
X42463722Y-366839670D01*
X42373853Y-366593877D01*
X42237759Y-366370340D01*
X42060670Y-366177649D01*
X41849392Y-366023208D01*
X41612044Y-365912953D01*
X41504329Y-365880284D01*
X41298000Y-366003626D01*
X41044000Y-366003626D01*
X40837671Y-365880284D01*
X40729956Y-365912953D01*
X40492608Y-366023208D01*
X40281330Y-366177649D01*
X40104241Y-366370340D01*
X39968147Y-366593877D01*
X39878278Y-366839670D01*
X30122000Y-366839670D01*
X30122000Y-364872665D01*
X56754000Y-364872665D01*
X56754000Y-365155335D01*
X56809147Y-365432574D01*
X56917320Y-365693727D01*
X57074363Y-365928759D01*
X57274241Y-366128637D01*
X57474869Y-366262692D01*
X57447486Y-366277329D01*
X57375903Y-366521298D01*
X58189000Y-367334395D01*
X59002097Y-366521298D01*
X58930514Y-366277329D01*
X58901659Y-366263676D01*
X59103759Y-366128637D01*
X59303637Y-365928759D01*
X59460680Y-365693727D01*
X59568853Y-365432574D01*
X59624000Y-365155335D01*
X59624000Y-365007355D01*
X60142356Y-364488999D01*
X62964808Y-364488999D01*
X62927429Y-364567996D01*
X62858700Y-364842184D01*
X62844783Y-365124512D01*
X62886213Y-365404130D01*
X62981397Y-365670292D01*
X63048329Y-365795514D01*
X63292298Y-365867097D01*
X64105395Y-365054000D01*
X64091253Y-365039858D01*
X64270858Y-364860253D01*
X64285000Y-364874395D01*
X64299143Y-364860253D01*
X64478748Y-365039858D01*
X64464605Y-365054000D01*
X65277702Y-365867097D01*
X65521671Y-365795514D01*
X65642571Y-365540004D01*
X65648800Y-365515153D01*
X73929999Y-373796352D01*
X73930000Y-382720143D01*
X73925113Y-382769761D01*
X73944614Y-382967755D01*
X74002367Y-383158140D01*
X74096153Y-383333601D01*
X74174445Y-383429000D01*
X74222367Y-383487394D01*
X74260900Y-383519017D01*
X75611981Y-384870099D01*
X75643605Y-384908633D01*
X75797398Y-385034847D01*
X75972858Y-385128632D01*
X76163244Y-385186385D01*
X76311630Y-385201000D01*
X76311639Y-385201000D01*
X76361237Y-385205885D01*
X76410835Y-385201000D01*
X109828392Y-385201000D01*
X109878000Y-385205886D01*
X110075994Y-385186385D01*
X110075997Y-385186384D01*
X110266380Y-385128632D01*
X110441840Y-385034847D01*
X110595633Y-384908633D01*
X110627261Y-384870094D01*
X112068355Y-383429000D01*
X112174592Y-383429000D01*
X112444490Y-383375314D01*
X112698727Y-383270005D01*
X112927535Y-383117120D01*
X113122120Y-382922535D01*
X113275005Y-382693727D01*
X113380314Y-382439490D01*
X113434000Y-382169592D01*
X113434000Y-381894408D01*
X113380314Y-381624510D01*
X113275005Y-381370273D01*
X113122120Y-381141465D01*
X112927535Y-380946880D01*
X112698727Y-380793995D01*
X112444490Y-380688686D01*
X112174592Y-380635000D01*
X111899408Y-380635000D01*
X111629510Y-380688686D01*
X111375273Y-380793995D01*
X111146465Y-380946880D01*
X110951880Y-381141465D01*
X110798995Y-381370273D01*
X110769308Y-381441943D01*
X110764636Y-381428977D01*
X110702656Y-381313020D01*
X110462565Y-381246040D01*
X109676605Y-382032000D01*
X109690748Y-382046143D01*
X109511143Y-382225748D01*
X109497000Y-382211605D01*
X108711040Y-382997565D01*
X108762214Y-383181000D01*
X107751932Y-383181000D01*
X107847535Y-383117120D01*
X108042120Y-382922535D01*
X108195005Y-382693727D01*
X108224692Y-382622057D01*
X108229364Y-382635023D01*
X108291344Y-382750980D01*
X108531435Y-382817960D01*
X109317395Y-382032000D01*
X108531435Y-381246040D01*
X108291344Y-381313020D01*
X108227515Y-381448760D01*
X108195005Y-381370273D01*
X108042120Y-381141465D01*
X107967090Y-381066435D01*
X108711040Y-381066435D01*
X109497000Y-381852395D01*
X110282960Y-381066435D01*
X110215980Y-380826344D01*
X109966952Y-380709244D01*
X109699865Y-380642977D01*
X109424983Y-380630090D01*
X109152867Y-380671078D01*
X108893977Y-380764364D01*
X108778020Y-380826344D01*
X108711040Y-381066435D01*
X107967090Y-381066435D01*
X107847535Y-380946880D01*
X107618727Y-380793995D01*
X107364490Y-380688686D01*
X107094592Y-380635000D01*
X106819408Y-380635000D01*
X106549510Y-380688686D01*
X106295273Y-380793995D01*
X106066465Y-380946880D01*
X105871880Y-381141465D01*
X105718995Y-381370273D01*
X105687000Y-381447515D01*
X105655005Y-381370273D01*
X105502120Y-381141465D01*
X105307535Y-380946880D01*
X105078727Y-380793995D01*
X104824490Y-380688686D01*
X104554592Y-380635000D01*
X104279408Y-380635000D01*
X104009510Y-380688686D01*
X103755273Y-380793995D01*
X103526465Y-380946880D01*
X103331880Y-381141465D01*
X103178995Y-381370273D01*
X103147000Y-381447515D01*
X103115005Y-381370273D01*
X102962120Y-381141465D01*
X102767535Y-380946880D01*
X102538727Y-380793995D01*
X102284490Y-380688686D01*
X102014592Y-380635000D01*
X101739408Y-380635000D01*
X101469510Y-380688686D01*
X101215273Y-380793995D01*
X100986465Y-380946880D01*
X100791880Y-381141465D01*
X100638995Y-381370273D01*
X100607000Y-381447515D01*
X100575005Y-381370273D01*
X100422120Y-381141465D01*
X100227535Y-380946880D01*
X99998727Y-380793995D01*
X99744490Y-380688686D01*
X99474592Y-380635000D01*
X99199408Y-380635000D01*
X98929510Y-380688686D01*
X98675273Y-380793995D01*
X98446465Y-380946880D01*
X98251880Y-381141465D01*
X98098995Y-381370273D01*
X98067000Y-381447515D01*
X98035005Y-381370273D01*
X97882120Y-381141465D01*
X97687535Y-380946880D01*
X97458727Y-380793995D01*
X97204490Y-380688686D01*
X96934592Y-380635000D01*
X96659408Y-380635000D01*
X96389510Y-380688686D01*
X96135273Y-380793995D01*
X95906465Y-380946880D01*
X95711880Y-381141465D01*
X95558995Y-381370273D01*
X95527000Y-381447515D01*
X95495005Y-381370273D01*
X95342120Y-381141465D01*
X95147535Y-380946880D01*
X94918727Y-380793995D01*
X94664490Y-380688686D01*
X94394592Y-380635000D01*
X94119408Y-380635000D01*
X93849510Y-380688686D01*
X93595273Y-380793995D01*
X93366465Y-380946880D01*
X93171880Y-381141465D01*
X93018995Y-381370273D01*
X92987000Y-381447515D01*
X92955005Y-381370273D01*
X92802120Y-381141465D01*
X92607535Y-380946880D01*
X92378727Y-380793995D01*
X92124490Y-380688686D01*
X91854592Y-380635000D01*
X91579408Y-380635000D01*
X91309510Y-380688686D01*
X91055273Y-380793995D01*
X90826465Y-380946880D01*
X90631880Y-381141465D01*
X90478995Y-381370273D01*
X90447000Y-381447515D01*
X90415005Y-381370273D01*
X90262120Y-381141465D01*
X90067535Y-380946880D01*
X89838727Y-380793995D01*
X89584490Y-380688686D01*
X89314592Y-380635000D01*
X89039408Y-380635000D01*
X88769510Y-380688686D01*
X88515273Y-380793995D01*
X88286465Y-380946880D01*
X88091880Y-381141465D01*
X87938995Y-381370273D01*
X87907000Y-381447515D01*
X87875005Y-381370273D01*
X87722120Y-381141465D01*
X87527535Y-380946880D01*
X87298727Y-380793995D01*
X87044490Y-380688686D01*
X86774592Y-380635000D01*
X86499408Y-380635000D01*
X86229510Y-380688686D01*
X85975273Y-380793995D01*
X85746465Y-380946880D01*
X85551880Y-381141465D01*
X85398995Y-381370273D01*
X85367000Y-381447515D01*
X85335005Y-381370273D01*
X85182120Y-381141465D01*
X84987535Y-380946880D01*
X84758727Y-380793995D01*
X84504490Y-380688686D01*
X84234592Y-380635000D01*
X83959408Y-380635000D01*
X83689510Y-380688686D01*
X83435273Y-380793995D01*
X83206465Y-380946880D01*
X83011880Y-381141465D01*
X82858995Y-381370273D01*
X82827000Y-381447515D01*
X82795005Y-381370273D01*
X82642120Y-381141465D01*
X82447535Y-380946880D01*
X82218727Y-380793995D01*
X81964490Y-380688686D01*
X81694592Y-380635000D01*
X81419408Y-380635000D01*
X81149510Y-380688686D01*
X80895273Y-380793995D01*
X80666465Y-380946880D01*
X80471880Y-381141465D01*
X80318995Y-381370273D01*
X80287000Y-381447515D01*
X80255005Y-381370273D01*
X80102120Y-381141465D01*
X79907535Y-380946880D01*
X79678727Y-380793995D01*
X79424490Y-380688686D01*
X79154592Y-380635000D01*
X78879408Y-380635000D01*
X78609510Y-380688686D01*
X78355273Y-380793995D01*
X78126465Y-380946880D01*
X77931880Y-381141465D01*
X77778995Y-381370273D01*
X77747000Y-381447515D01*
X77715005Y-381370273D01*
X77562120Y-381141465D01*
X77367535Y-380946880D01*
X77138727Y-380793995D01*
X76884490Y-380688686D01*
X76614592Y-380635000D01*
X76339408Y-380635000D01*
X76069510Y-380688686D01*
X75949999Y-380738189D01*
X75949999Y-379767945D01*
X122977000Y-379767945D01*
X122977000Y-380740055D01*
X123166650Y-381693486D01*
X123538660Y-382591599D01*
X124078735Y-383399879D01*
X124766121Y-384087265D01*
X125574401Y-384627340D01*
X126472514Y-384999350D01*
X127425945Y-385189000D01*
X128398055Y-385189000D01*
X129351486Y-384999350D01*
X130249599Y-384627340D01*
X131057879Y-384087265D01*
X131745265Y-383399879D01*
X132285340Y-382591599D01*
X132657350Y-381693486D01*
X132847000Y-380740055D01*
X132847000Y-379767945D01*
X132657350Y-378814514D01*
X132285340Y-377916401D01*
X131745265Y-377108121D01*
X131057879Y-376420735D01*
X130249599Y-375880660D01*
X129351486Y-375508650D01*
X128398055Y-375319000D01*
X127425945Y-375319000D01*
X126472514Y-375508650D01*
X125574401Y-375880660D01*
X124766121Y-376420735D01*
X124078735Y-377108121D01*
X123538660Y-377916401D01*
X123166650Y-378814514D01*
X122977000Y-379767945D01*
X75949999Y-379767945D01*
X75949999Y-373427601D01*
X75954885Y-373377996D01*
X75949691Y-373325265D01*
X75935384Y-373180003D01*
X75877631Y-372989617D01*
X75783846Y-372814157D01*
X75657632Y-372660364D01*
X75619093Y-372628736D01*
X71385687Y-368395330D01*
X85344278Y-368395330D01*
X85434147Y-368641123D01*
X85570241Y-368864660D01*
X85747330Y-369057351D01*
X85958608Y-369211792D01*
X86195956Y-369322047D01*
X86303671Y-369354716D01*
X86510000Y-369231374D01*
X86510000Y-368189000D01*
X85466799Y-368189000D01*
X85344278Y-368395330D01*
X71385687Y-368395330D01*
X70719027Y-367728670D01*
X85344278Y-367728670D01*
X85466799Y-367935000D01*
X86510000Y-367935000D01*
X86510000Y-366892626D01*
X86303671Y-366769284D01*
X86195956Y-366801953D01*
X85958608Y-366912208D01*
X85747330Y-367066649D01*
X85570241Y-367259340D01*
X85434147Y-367482877D01*
X85344278Y-367728670D01*
X70719027Y-367728670D01*
X65790262Y-362799905D01*
X65758634Y-362761366D01*
X65604841Y-362635152D01*
X65429381Y-362541367D01*
X65238995Y-362483614D01*
X65090609Y-362468999D01*
X65041001Y-362464113D01*
X64991393Y-362468999D01*
X59773605Y-362468999D01*
X59724000Y-362464113D01*
X59674395Y-362468999D01*
X59674393Y-362468999D01*
X59526007Y-362483614D01*
X59335621Y-362541367D01*
X59160161Y-362635152D01*
X59006368Y-362761366D01*
X58974740Y-362799905D01*
X58195645Y-363579000D01*
X58047665Y-363579000D01*
X57770426Y-363634147D01*
X57509273Y-363742320D01*
X57274241Y-363899363D01*
X57074363Y-364099241D01*
X56917320Y-364334273D01*
X56809147Y-364595426D01*
X56754000Y-364872665D01*
X30122000Y-364872665D01*
X30122000Y-357364098D01*
X46534000Y-357364098D01*
X46534000Y-357833902D01*
X46625654Y-358294679D01*
X46805440Y-358728721D01*
X47066450Y-359119349D01*
X47398651Y-359451550D01*
X47789279Y-359712560D01*
X48223321Y-359892346D01*
X48684098Y-359984000D01*
X49153902Y-359984000D01*
X49614679Y-359892346D01*
X50048721Y-359712560D01*
X50439349Y-359451550D01*
X50771550Y-359119349D01*
X51032560Y-358728721D01*
X51212346Y-358294679D01*
X51270003Y-358004816D01*
X56908000Y-358004816D01*
X56908000Y-358307184D01*
X56966989Y-358603743D01*
X57082701Y-358883095D01*
X57250688Y-359134505D01*
X57464495Y-359348312D01*
X57715905Y-359516299D01*
X57995257Y-359632011D01*
X58291816Y-359691000D01*
X58594184Y-359691000D01*
X58890743Y-359632011D01*
X59170095Y-359516299D01*
X59421505Y-359348312D01*
X59635312Y-359134505D01*
X59737951Y-358980895D01*
X59918920Y-359040475D01*
X60803395Y-358156000D01*
X59918920Y-357271525D01*
X59737951Y-357331105D01*
X59635312Y-357177495D01*
X59549737Y-357091920D01*
X60098525Y-357091920D01*
X60983000Y-357976395D01*
X60997143Y-357962253D01*
X61176748Y-358141858D01*
X61162605Y-358156000D01*
X61176748Y-358170143D01*
X60997143Y-358349748D01*
X60983000Y-358335605D01*
X60098525Y-359220080D01*
X60182208Y-359474261D01*
X60454775Y-359605158D01*
X60747642Y-359680365D01*
X61049553Y-359696991D01*
X61348907Y-359654397D01*
X61634199Y-359554222D01*
X61783792Y-359474261D01*
X61867474Y-359220082D01*
X61983422Y-359336030D01*
X62030187Y-359289265D01*
X62033498Y-359300180D01*
X62092463Y-359410494D01*
X62171815Y-359507185D01*
X62268506Y-359586537D01*
X62378820Y-359645502D01*
X62498518Y-359681812D01*
X62623000Y-359694072D01*
X64423000Y-359694072D01*
X64547482Y-359681812D01*
X64667180Y-359645502D01*
X64777494Y-359586537D01*
X64874185Y-359507185D01*
X64953537Y-359410494D01*
X65012502Y-359300180D01*
X65048812Y-359180482D01*
X65061072Y-359056000D01*
X65061072Y-357256000D01*
X65048812Y-357131518D01*
X65012502Y-357011820D01*
X64953537Y-356901506D01*
X64874185Y-356804815D01*
X64777494Y-356725463D01*
X64667180Y-356666498D01*
X64547482Y-356630188D01*
X64423000Y-356617928D01*
X62623000Y-356617928D01*
X62498518Y-356630188D01*
X62378820Y-356666498D01*
X62268506Y-356725463D01*
X62171815Y-356804815D01*
X62092463Y-356901506D01*
X62033498Y-357011820D01*
X62030187Y-357022735D01*
X61983422Y-356975970D01*
X61867474Y-357091918D01*
X61783792Y-356837739D01*
X61511225Y-356706842D01*
X61218358Y-356631635D01*
X60916447Y-356615009D01*
X60617093Y-356657603D01*
X60331801Y-356757778D01*
X60182208Y-356837739D01*
X60098525Y-357091920D01*
X59549737Y-357091920D01*
X59421505Y-356963688D01*
X59170095Y-356795701D01*
X58890743Y-356679989D01*
X58594184Y-356621000D01*
X58291816Y-356621000D01*
X57995257Y-356679989D01*
X57715905Y-356795701D01*
X57464495Y-356963688D01*
X57250688Y-357177495D01*
X57082701Y-357428905D01*
X56966989Y-357708257D01*
X56908000Y-358004816D01*
X51270003Y-358004816D01*
X51304000Y-357833902D01*
X51304000Y-357364098D01*
X51212346Y-356903321D01*
X51032560Y-356469279D01*
X50771550Y-356078651D01*
X50439349Y-355746450D01*
X50048721Y-355485440D01*
X49614679Y-355305654D01*
X49153902Y-355214000D01*
X48684098Y-355214000D01*
X48223321Y-355305654D01*
X47789279Y-355485440D01*
X47398651Y-355746450D01*
X47066450Y-356078651D01*
X46805440Y-356469279D01*
X46625654Y-356903321D01*
X46534000Y-357364098D01*
X30122000Y-357364098D01*
X30122000Y-347911098D01*
X50470000Y-347911098D01*
X50470000Y-348380902D01*
X50561654Y-348841679D01*
X50741440Y-349275721D01*
X51002450Y-349666349D01*
X51334651Y-349998550D01*
X51725279Y-350259560D01*
X52159321Y-350439346D01*
X52620098Y-350531000D01*
X53089902Y-350531000D01*
X53550679Y-350439346D01*
X53984721Y-350259560D01*
X54375349Y-349998550D01*
X54707550Y-349666349D01*
X54968560Y-349275721D01*
X55148346Y-348841679D01*
X55240000Y-348380902D01*
X55240000Y-347911098D01*
X61646000Y-347911098D01*
X61646000Y-348380902D01*
X61737654Y-348841679D01*
X61917440Y-349275721D01*
X62178450Y-349666349D01*
X62510651Y-349998550D01*
X62901279Y-350259560D01*
X63335321Y-350439346D01*
X63796098Y-350531000D01*
X64265902Y-350531000D01*
X64726679Y-350439346D01*
X65160721Y-350259560D01*
X65551349Y-349998550D01*
X65883550Y-349666349D01*
X66144560Y-349275721D01*
X66324346Y-348841679D01*
X66416000Y-348380902D01*
X66416000Y-347911098D01*
X72568000Y-347911098D01*
X72568000Y-348380902D01*
X72659654Y-348841679D01*
X72839440Y-349275721D01*
X73100450Y-349666349D01*
X73432651Y-349998550D01*
X73823279Y-350259560D01*
X74257321Y-350439346D01*
X74718098Y-350531000D01*
X75187902Y-350531000D01*
X75648679Y-350439346D01*
X76082721Y-350259560D01*
X76473349Y-349998550D01*
X76805550Y-349666349D01*
X77066560Y-349275721D01*
X77246346Y-348841679D01*
X77338000Y-348380902D01*
X77338000Y-347911098D01*
X77246346Y-347450321D01*
X77066560Y-347016279D01*
X76805550Y-346625651D01*
X76473349Y-346293450D01*
X76082721Y-346032440D01*
X75648679Y-345852654D01*
X75187902Y-345761000D01*
X74718098Y-345761000D01*
X74257321Y-345852654D01*
X73823279Y-346032440D01*
X73432651Y-346293450D01*
X73100450Y-346625651D01*
X72839440Y-347016279D01*
X72659654Y-347450321D01*
X72568000Y-347911098D01*
X66416000Y-347911098D01*
X66324346Y-347450321D01*
X66144560Y-347016279D01*
X65883550Y-346625651D01*
X65551349Y-346293450D01*
X65160721Y-346032440D01*
X64726679Y-345852654D01*
X64265902Y-345761000D01*
X63796098Y-345761000D01*
X63335321Y-345852654D01*
X62901279Y-346032440D01*
X62510651Y-346293450D01*
X62178450Y-346625651D01*
X61917440Y-347016279D01*
X61737654Y-347450321D01*
X61646000Y-347911098D01*
X55240000Y-347911098D01*
X55148346Y-347450321D01*
X54968560Y-347016279D01*
X54707550Y-346625651D01*
X54375349Y-346293450D01*
X53984721Y-346032440D01*
X53550679Y-345852654D01*
X53089902Y-345761000D01*
X52620098Y-345761000D01*
X52159321Y-345852654D01*
X51725279Y-346032440D01*
X51334651Y-346293450D01*
X51002450Y-346625651D01*
X50741440Y-347016279D01*
X50561654Y-347450321D01*
X50470000Y-347911098D01*
X30122000Y-347911098D01*
X30122000Y-331859863D01*
X48762622Y-331859863D01*
X48856121Y-332156446D01*
X49005684Y-332429089D01*
X49205563Y-332667315D01*
X49448077Y-332861969D01*
X49723906Y-333005571D01*
X49942020Y-333076563D01*
X50188000Y-332956594D01*
X50188000Y-331613000D01*
X48889430Y-331613000D01*
X48762622Y-331859863D01*
X30122000Y-331859863D01*
X30122000Y-331112137D01*
X48762622Y-331112137D01*
X48889430Y-331359000D01*
X50188000Y-331359000D01*
X50188000Y-330015406D01*
X50442000Y-330015406D01*
X50442000Y-331359000D01*
X50462000Y-331359000D01*
X50462000Y-331613000D01*
X50442000Y-331613000D01*
X50442000Y-332956594D01*
X50687980Y-333076563D01*
X50906094Y-333005571D01*
X51181923Y-332861969D01*
X51424437Y-332667315D01*
X51579838Y-332482100D01*
X51727037Y-332661463D01*
X51968765Y-332859845D01*
X52244551Y-333007255D01*
X52543796Y-333098030D01*
X52855000Y-333128681D01*
X53166203Y-333098030D01*
X53465448Y-333007255D01*
X53741234Y-332859845D01*
X53867095Y-332756553D01*
X53911963Y-332840494D01*
X53991315Y-332937185D01*
X54088006Y-333016537D01*
X54198320Y-333075502D01*
X54318018Y-333111812D01*
X54442500Y-333124072D01*
X56347500Y-333124072D01*
X56471982Y-333111812D01*
X56591680Y-333075502D01*
X56701994Y-333016537D01*
X56798685Y-332937185D01*
X56878037Y-332840494D01*
X56937002Y-332730180D01*
X56973312Y-332610482D01*
X56985572Y-332486000D01*
X56985572Y-331859863D01*
X59938622Y-331859863D01*
X60032121Y-332156446D01*
X60181684Y-332429089D01*
X60381563Y-332667315D01*
X60624077Y-332861969D01*
X60899906Y-333005571D01*
X61118020Y-333076563D01*
X61364000Y-332956594D01*
X61364000Y-331613000D01*
X60065430Y-331613000D01*
X59938622Y-331859863D01*
X56985572Y-331859863D01*
X56985572Y-331112137D01*
X59938622Y-331112137D01*
X60065430Y-331359000D01*
X61364000Y-331359000D01*
X61364000Y-330015406D01*
X61618000Y-330015406D01*
X61618000Y-331359000D01*
X61638000Y-331359000D01*
X61638000Y-331613000D01*
X61618000Y-331613000D01*
X61618000Y-332956594D01*
X61863980Y-333076563D01*
X62082094Y-333005571D01*
X62357923Y-332861969D01*
X62600437Y-332667315D01*
X62755838Y-332482100D01*
X62903037Y-332661463D01*
X63144765Y-332859845D01*
X63420551Y-333007255D01*
X63719796Y-333098030D01*
X64031000Y-333128681D01*
X64342203Y-333098030D01*
X64641448Y-333007255D01*
X64917234Y-332859845D01*
X65043095Y-332756553D01*
X65087963Y-332840494D01*
X65167315Y-332937185D01*
X65264006Y-333016537D01*
X65374320Y-333075502D01*
X65494018Y-333111812D01*
X65618500Y-333124072D01*
X67523500Y-333124072D01*
X67647982Y-333111812D01*
X67767680Y-333075502D01*
X67877994Y-333016537D01*
X67974685Y-332937185D01*
X68054037Y-332840494D01*
X68113002Y-332730180D01*
X68149312Y-332610482D01*
X68161572Y-332486000D01*
X68161572Y-330486000D01*
X68149312Y-330361518D01*
X68113002Y-330241820D01*
X68054037Y-330131506D01*
X67974685Y-330034815D01*
X67877994Y-329955463D01*
X67767680Y-329896498D01*
X67647982Y-329860188D01*
X67523500Y-329847928D01*
X65618500Y-329847928D01*
X65494018Y-329860188D01*
X65374320Y-329896498D01*
X65264006Y-329955463D01*
X65167315Y-330034815D01*
X65087963Y-330131506D01*
X65043095Y-330215446D01*
X64917235Y-330112155D01*
X64641449Y-329964745D01*
X64342204Y-329873970D01*
X64031000Y-329843319D01*
X63719797Y-329873970D01*
X63420552Y-329964745D01*
X63144766Y-330112155D01*
X62903037Y-330310537D01*
X62755837Y-330489899D01*
X62600437Y-330304685D01*
X62357923Y-330110031D01*
X62082094Y-329966429D01*
X61863980Y-329895437D01*
X61618000Y-330015406D01*
X61364000Y-330015406D01*
X61118020Y-329895437D01*
X60899906Y-329966429D01*
X60624077Y-330110031D01*
X60381563Y-330304685D01*
X60181684Y-330542911D01*
X60032121Y-330815554D01*
X59938622Y-331112137D01*
X56985572Y-331112137D01*
X56985572Y-330486000D01*
X56973312Y-330361518D01*
X56937002Y-330241820D01*
X56878037Y-330131506D01*
X56798685Y-330034815D01*
X56701994Y-329955463D01*
X56591680Y-329896498D01*
X56471982Y-329860188D01*
X56347500Y-329847928D01*
X54442500Y-329847928D01*
X54318018Y-329860188D01*
X54198320Y-329896498D01*
X54088006Y-329955463D01*
X53991315Y-330034815D01*
X53911963Y-330131506D01*
X53867095Y-330215446D01*
X53741235Y-330112155D01*
X53465449Y-329964745D01*
X53166204Y-329873970D01*
X52855000Y-329843319D01*
X52543797Y-329873970D01*
X52244552Y-329964745D01*
X51968766Y-330112155D01*
X51727037Y-330310537D01*
X51579837Y-330489899D01*
X51424437Y-330304685D01*
X51181923Y-330110031D01*
X50906094Y-329966429D01*
X50687980Y-329895437D01*
X50442000Y-330015406D01*
X50188000Y-330015406D01*
X49942020Y-329895437D01*
X49723906Y-329966429D01*
X49448077Y-330110031D01*
X49205563Y-330304685D01*
X49005684Y-330542911D01*
X48856121Y-330815554D01*
X48762622Y-331112137D01*
X30122000Y-331112137D01*
X30122000Y-325260098D01*
X46011000Y-325260098D01*
X46011000Y-325729902D01*
X46102654Y-326190679D01*
X46282440Y-326624721D01*
X46543450Y-327015349D01*
X46875651Y-327347550D01*
X47266279Y-327608560D01*
X47700321Y-327788346D01*
X48161098Y-327880000D01*
X48630902Y-327880000D01*
X49091679Y-327788346D01*
X49525721Y-327608560D01*
X49916349Y-327347550D01*
X50248550Y-327015349D01*
X50509560Y-326624721D01*
X50689346Y-326190679D01*
X50781000Y-325729902D01*
X50781000Y-325364098D01*
X57254000Y-325364098D01*
X57254000Y-325833902D01*
X57345654Y-326294679D01*
X57525440Y-326728721D01*
X57786450Y-327119349D01*
X58118651Y-327451550D01*
X58509279Y-327712560D01*
X58943321Y-327892346D01*
X59404098Y-327984000D01*
X59873902Y-327984000D01*
X60334679Y-327892346D01*
X60768721Y-327712560D01*
X61159349Y-327451550D01*
X61491550Y-327119349D01*
X61752560Y-326728721D01*
X61932346Y-326294679D01*
X62024000Y-325833902D01*
X62024000Y-325364098D01*
X61932346Y-324903321D01*
X61752560Y-324469279D01*
X61491550Y-324078651D01*
X61159349Y-323746450D01*
X60768721Y-323485440D01*
X60334679Y-323305654D01*
X59873902Y-323214000D01*
X59404098Y-323214000D01*
X58943321Y-323305654D01*
X58509279Y-323485440D01*
X58118651Y-323746450D01*
X57786450Y-324078651D01*
X57525440Y-324469279D01*
X57345654Y-324903321D01*
X57254000Y-325364098D01*
X50781000Y-325364098D01*
X50781000Y-325260098D01*
X50689346Y-324799321D01*
X50509560Y-324365279D01*
X50248550Y-323974651D01*
X49916349Y-323642450D01*
X49525721Y-323381440D01*
X49091679Y-323201654D01*
X48630902Y-323110000D01*
X48161098Y-323110000D01*
X47700321Y-323201654D01*
X47266279Y-323381440D01*
X46875651Y-323642450D01*
X46543450Y-323974651D01*
X46282440Y-324365279D01*
X46102654Y-324799321D01*
X46011000Y-325260098D01*
X30122000Y-325260098D01*
X30122000Y-309208863D01*
X44303622Y-309208863D01*
X44397121Y-309505446D01*
X44546684Y-309778089D01*
X44746563Y-310016315D01*
X44989077Y-310210969D01*
X45264906Y-310354571D01*
X45483020Y-310425563D01*
X45729000Y-310305594D01*
X45729000Y-308962000D01*
X44430430Y-308962000D01*
X44303622Y-309208863D01*
X30122000Y-309208863D01*
X30122000Y-308461137D01*
X44303622Y-308461137D01*
X44430430Y-308708000D01*
X45729000Y-308708000D01*
X45729000Y-307364406D01*
X45983000Y-307364406D01*
X45983000Y-308708000D01*
X46003000Y-308708000D01*
X46003000Y-308962000D01*
X45983000Y-308962000D01*
X45983000Y-310305594D01*
X46228980Y-310425563D01*
X46447094Y-310354571D01*
X46722923Y-310210969D01*
X46965437Y-310016315D01*
X47120838Y-309831100D01*
X47268037Y-310010463D01*
X47509765Y-310208845D01*
X47785551Y-310356255D01*
X48084796Y-310447030D01*
X48396000Y-310477681D01*
X48707203Y-310447030D01*
X49006448Y-310356255D01*
X49282234Y-310208845D01*
X49408095Y-310105553D01*
X49452963Y-310189494D01*
X49532315Y-310286185D01*
X49629006Y-310365537D01*
X49739320Y-310424502D01*
X49859018Y-310460812D01*
X49983500Y-310473072D01*
X51888500Y-310473072D01*
X52012982Y-310460812D01*
X52132680Y-310424502D01*
X52242994Y-310365537D01*
X52339685Y-310286185D01*
X52419037Y-310189494D01*
X52478002Y-310079180D01*
X52514312Y-309959482D01*
X52526572Y-309835000D01*
X52526572Y-309312863D01*
X55546622Y-309312863D01*
X55640121Y-309609446D01*
X55789684Y-309882089D01*
X55989563Y-310120315D01*
X56232077Y-310314969D01*
X56507906Y-310458571D01*
X56726020Y-310529563D01*
X56972000Y-310409594D01*
X56972000Y-309066000D01*
X55673430Y-309066000D01*
X55546622Y-309312863D01*
X52526572Y-309312863D01*
X52526572Y-308565137D01*
X55546622Y-308565137D01*
X55673430Y-308812000D01*
X56972000Y-308812000D01*
X56972000Y-307468406D01*
X57226000Y-307468406D01*
X57226000Y-308812000D01*
X57246000Y-308812000D01*
X57246000Y-309066000D01*
X57226000Y-309066000D01*
X57226000Y-310409594D01*
X57471980Y-310529563D01*
X57690094Y-310458571D01*
X57965923Y-310314969D01*
X58208437Y-310120315D01*
X58363838Y-309935100D01*
X58511037Y-310114463D01*
X58752765Y-310312845D01*
X59028551Y-310460255D01*
X59327796Y-310551030D01*
X59639000Y-310581681D01*
X59950203Y-310551030D01*
X60249448Y-310460255D01*
X60525234Y-310312845D01*
X60651095Y-310209553D01*
X60695963Y-310293494D01*
X60775315Y-310390185D01*
X60872006Y-310469537D01*
X60982320Y-310528502D01*
X61102018Y-310564812D01*
X61226500Y-310577072D01*
X62742271Y-310577072D01*
X72093002Y-319927804D01*
X72093001Y-323551241D01*
X71907721Y-323427440D01*
X71473679Y-323247654D01*
X71012902Y-323156000D01*
X70543098Y-323156000D01*
X70082321Y-323247654D01*
X69648279Y-323427440D01*
X69257651Y-323688450D01*
X68925450Y-324020651D01*
X68664440Y-324411279D01*
X68484654Y-324845321D01*
X68393000Y-325306098D01*
X68393000Y-325775902D01*
X68484654Y-326236679D01*
X68664440Y-326670721D01*
X68925450Y-327061349D01*
X69257651Y-327393550D01*
X69648279Y-327654560D01*
X70082321Y-327834346D01*
X70458340Y-327909141D01*
X70429944Y-327962266D01*
X70386488Y-328105527D01*
X70371814Y-328254512D01*
X70375491Y-328291844D01*
X70375490Y-332025338D01*
X70371814Y-332062661D01*
X70375490Y-332099983D01*
X70375490Y-332099993D01*
X70386487Y-332211646D01*
X70429944Y-332354907D01*
X70500516Y-332486937D01*
X70540361Y-332535487D01*
X70595489Y-332602662D01*
X70624493Y-332626465D01*
X79344002Y-341345975D01*
X79344001Y-355780676D01*
X79154592Y-355743000D01*
X78879408Y-355743000D01*
X78609510Y-355796686D01*
X78355273Y-355901995D01*
X78126465Y-356054880D01*
X77931880Y-356249465D01*
X77778995Y-356478273D01*
X77747000Y-356555515D01*
X77715005Y-356478273D01*
X77562120Y-356249465D01*
X77367535Y-356054880D01*
X77138727Y-355901995D01*
X76884490Y-355796686D01*
X76614592Y-355743000D01*
X76339408Y-355743000D01*
X76069510Y-355796686D01*
X75815273Y-355901995D01*
X75586465Y-356054880D01*
X75391880Y-356249465D01*
X75238995Y-356478273D01*
X75133686Y-356732510D01*
X75080000Y-357002408D01*
X75080000Y-357277592D01*
X75133686Y-357547490D01*
X75238995Y-357801727D01*
X75391880Y-358030535D01*
X75586465Y-358225120D01*
X75815273Y-358378005D01*
X76069510Y-358483314D01*
X76339408Y-358537000D01*
X76614592Y-358537000D01*
X76884490Y-358483314D01*
X77138727Y-358378005D01*
X77367535Y-358225120D01*
X77562120Y-358030535D01*
X77715005Y-357801727D01*
X77747000Y-357724485D01*
X77778995Y-357801727D01*
X77931880Y-358030535D01*
X78126465Y-358225120D01*
X78355273Y-358378005D01*
X78609510Y-358483314D01*
X78879408Y-358537000D01*
X79154592Y-358537000D01*
X79424490Y-358483314D01*
X79678727Y-358378005D01*
X79718721Y-358351282D01*
X86902002Y-365534564D01*
X86902002Y-366810130D01*
X86764000Y-366892626D01*
X86764000Y-367935000D01*
X86784000Y-367935000D01*
X86784000Y-368189000D01*
X86764000Y-368189000D01*
X86764000Y-369231374D01*
X86944292Y-369339151D01*
X86949014Y-369354716D01*
X86956455Y-369379247D01*
X87027027Y-369511277D01*
X87066872Y-369559827D01*
X87122000Y-369627002D01*
X87151004Y-369650805D01*
X94387197Y-376887000D01*
X94125514Y-376887000D01*
X93867595Y-376938304D01*
X93624641Y-377038939D01*
X93405987Y-377185038D01*
X93220038Y-377370987D01*
X93073939Y-377589641D01*
X92973304Y-377832595D01*
X92922000Y-378090514D01*
X92922000Y-378353486D01*
X92973304Y-378611405D01*
X93073939Y-378854359D01*
X93220038Y-379073013D01*
X93405987Y-379258962D01*
X93624641Y-379405061D01*
X93867595Y-379505696D01*
X94125514Y-379557000D01*
X94388486Y-379557000D01*
X94646405Y-379505696D01*
X94889359Y-379405061D01*
X95108013Y-379258962D01*
X95293962Y-379073013D01*
X95440061Y-378854359D01*
X95527000Y-378644470D01*
X95613939Y-378854359D01*
X95760038Y-379073013D01*
X95945987Y-379258962D01*
X96164641Y-379405061D01*
X96407595Y-379505696D01*
X96665514Y-379557000D01*
X96928486Y-379557000D01*
X97186405Y-379505696D01*
X97429359Y-379405061D01*
X97648013Y-379258962D01*
X97833962Y-379073013D01*
X97980061Y-378854359D01*
X98067000Y-378644470D01*
X98153939Y-378854359D01*
X98300038Y-379073013D01*
X98485987Y-379258962D01*
X98704641Y-379405061D01*
X98947595Y-379505696D01*
X99205514Y-379557000D01*
X99468486Y-379557000D01*
X99726405Y-379505696D01*
X99969359Y-379405061D01*
X100188013Y-379258962D01*
X100373962Y-379073013D01*
X100520061Y-378854359D01*
X100607000Y-378644470D01*
X100693939Y-378854359D01*
X100840038Y-379073013D01*
X101025987Y-379258962D01*
X101244641Y-379405061D01*
X101487595Y-379505696D01*
X101745514Y-379557000D01*
X102008486Y-379557000D01*
X102266405Y-379505696D01*
X102509359Y-379405061D01*
X102728013Y-379258962D01*
X102913962Y-379073013D01*
X103060061Y-378854359D01*
X103147000Y-378644470D01*
X103233939Y-378854359D01*
X103380038Y-379073013D01*
X103565987Y-379258962D01*
X103784641Y-379405061D01*
X104027595Y-379505696D01*
X104285514Y-379557000D01*
X104548486Y-379557000D01*
X104806405Y-379505696D01*
X105049359Y-379405061D01*
X105268013Y-379258962D01*
X105453962Y-379073013D01*
X105600061Y-378854359D01*
X105687000Y-378644470D01*
X105773939Y-378854359D01*
X105920038Y-379073013D01*
X106105987Y-379258962D01*
X106324641Y-379405061D01*
X106567595Y-379505696D01*
X106825514Y-379557000D01*
X107088486Y-379557000D01*
X107346405Y-379505696D01*
X107589359Y-379405061D01*
X107808013Y-379258962D01*
X107993962Y-379073013D01*
X108140061Y-378854359D01*
X108240696Y-378611405D01*
X108292000Y-378353486D01*
X108292000Y-378090514D01*
X108240696Y-377832595D01*
X108140061Y-377589641D01*
X107993962Y-377370987D01*
X107808013Y-377185038D01*
X107589359Y-377038939D01*
X107346405Y-376938304D01*
X107088486Y-376887000D01*
X106825514Y-376887000D01*
X106567595Y-376938304D01*
X106324641Y-377038939D01*
X106105987Y-377185038D01*
X105920038Y-377370987D01*
X105773939Y-377589641D01*
X105687000Y-377799530D01*
X105600061Y-377589641D01*
X105453962Y-377370987D01*
X105268013Y-377185038D01*
X105049359Y-377038939D01*
X104806405Y-376938304D01*
X104548486Y-376887000D01*
X104285514Y-376887000D01*
X104178157Y-376908355D01*
X101549999Y-374280198D01*
X101549999Y-371890933D01*
X101750000Y-371771374D01*
X101750000Y-370729000D01*
X102004000Y-370729000D01*
X102004000Y-371771374D01*
X102210329Y-371894716D01*
X102318044Y-371862047D01*
X102555392Y-371751792D01*
X102766670Y-371597351D01*
X102943759Y-371404660D01*
X103079853Y-371181123D01*
X103147000Y-370997475D01*
X103214147Y-371181123D01*
X103350241Y-371404660D01*
X103527330Y-371597351D01*
X103738608Y-371751792D01*
X103975956Y-371862047D01*
X104083671Y-371894716D01*
X104290000Y-371771374D01*
X104290000Y-370729000D01*
X104544000Y-370729000D01*
X104544000Y-371771374D01*
X104750329Y-371894716D01*
X104858044Y-371862047D01*
X105095392Y-371751792D01*
X105306670Y-371597351D01*
X105483759Y-371404660D01*
X105619853Y-371181123D01*
X105687000Y-370997475D01*
X105754147Y-371181123D01*
X105890241Y-371404660D01*
X106067330Y-371597351D01*
X106278608Y-371751792D01*
X106515956Y-371862047D01*
X106623671Y-371894716D01*
X106830000Y-371771374D01*
X106830000Y-370729000D01*
X107084000Y-370729000D01*
X107084000Y-371771374D01*
X107290329Y-371894716D01*
X107398044Y-371862047D01*
X107635392Y-371751792D01*
X107846670Y-371597351D01*
X108023759Y-371404660D01*
X108159853Y-371181123D01*
X108249722Y-370935330D01*
X108127201Y-370729000D01*
X107084000Y-370729000D01*
X106830000Y-370729000D01*
X105786799Y-370729000D01*
X105687000Y-370897065D01*
X105587201Y-370729000D01*
X104544000Y-370729000D01*
X104290000Y-370729000D01*
X103246799Y-370729000D01*
X103147000Y-370897065D01*
X103047201Y-370729000D01*
X102004000Y-370729000D01*
X101750000Y-370729000D01*
X101730000Y-370729000D01*
X101730000Y-370475000D01*
X101750000Y-370475000D01*
X101750000Y-369432626D01*
X102004000Y-369432626D01*
X102004000Y-370475000D01*
X103047201Y-370475000D01*
X103147000Y-370306935D01*
X103246799Y-370475000D01*
X104290000Y-370475000D01*
X104290000Y-369432626D01*
X104544000Y-369432626D01*
X104544000Y-370475000D01*
X105587201Y-370475000D01*
X105687000Y-370306935D01*
X105786799Y-370475000D01*
X106830000Y-370475000D01*
X106830000Y-369432626D01*
X107084000Y-369432626D01*
X107084000Y-370475000D01*
X108127201Y-370475000D01*
X108249722Y-370268670D01*
X108159853Y-370022877D01*
X108023759Y-369799340D01*
X107846670Y-369606649D01*
X107635392Y-369452208D01*
X107398044Y-369341953D01*
X107290329Y-369309284D01*
X107084000Y-369432626D01*
X106830000Y-369432626D01*
X106623671Y-369309284D01*
X106515956Y-369341953D01*
X106278608Y-369452208D01*
X106067330Y-369606649D01*
X105890241Y-369799340D01*
X105754147Y-370022877D01*
X105687000Y-370206525D01*
X105619853Y-370022877D01*
X105483759Y-369799340D01*
X105306670Y-369606649D01*
X105095392Y-369452208D01*
X104858044Y-369341953D01*
X104750329Y-369309284D01*
X104544000Y-369432626D01*
X104290000Y-369432626D01*
X104083671Y-369309284D01*
X103975956Y-369341953D01*
X103738608Y-369452208D01*
X103527330Y-369606649D01*
X103350241Y-369799340D01*
X103214147Y-370022877D01*
X103147000Y-370206525D01*
X103079853Y-370022877D01*
X102943759Y-369799340D01*
X102766670Y-369606649D01*
X102555392Y-369452208D01*
X102318044Y-369341953D01*
X102210329Y-369309284D01*
X102004000Y-369432626D01*
X101750000Y-369432626D01*
X101549999Y-369313067D01*
X101549999Y-358499324D01*
X101739408Y-358537000D01*
X102014592Y-358537000D01*
X102284490Y-358483314D01*
X102538727Y-358378005D01*
X102767535Y-358225120D01*
X102962120Y-358030535D01*
X103115005Y-357801727D01*
X103147000Y-357724485D01*
X103178995Y-357801727D01*
X103331880Y-358030535D01*
X103526465Y-358225120D01*
X103755273Y-358378005D01*
X104009510Y-358483314D01*
X104279408Y-358537000D01*
X104554592Y-358537000D01*
X104824490Y-358483314D01*
X105078727Y-358378005D01*
X105307535Y-358225120D01*
X105502120Y-358030535D01*
X105655005Y-357801727D01*
X105687000Y-357724485D01*
X105718995Y-357801727D01*
X105871880Y-358030535D01*
X106066465Y-358225120D01*
X106295273Y-358378005D01*
X106549510Y-358483314D01*
X106819408Y-358537000D01*
X107094592Y-358537000D01*
X107364490Y-358483314D01*
X107618727Y-358378005D01*
X107847535Y-358225120D01*
X107967090Y-358105565D01*
X108711040Y-358105565D01*
X108778020Y-358345656D01*
X109027048Y-358462756D01*
X109294135Y-358529023D01*
X109569017Y-358541910D01*
X109841133Y-358500922D01*
X110100023Y-358407636D01*
X110215980Y-358345656D01*
X110282960Y-358105565D01*
X109497000Y-357319605D01*
X108711040Y-358105565D01*
X107967090Y-358105565D01*
X108042120Y-358030535D01*
X108195005Y-357801727D01*
X108224692Y-357730057D01*
X108229364Y-357743023D01*
X108291344Y-357858980D01*
X108531435Y-357925960D01*
X109317395Y-357140000D01*
X109676605Y-357140000D01*
X110462565Y-357925960D01*
X110702656Y-357858980D01*
X110766485Y-357723240D01*
X110798995Y-357801727D01*
X110951880Y-358030535D01*
X111146465Y-358225120D01*
X111375273Y-358378005D01*
X111629510Y-358483314D01*
X111899408Y-358537000D01*
X112174592Y-358537000D01*
X112444490Y-358483314D01*
X112698727Y-358378005D01*
X112927535Y-358225120D01*
X113122120Y-358030535D01*
X113275005Y-357801727D01*
X113380314Y-357547490D01*
X113434000Y-357277592D01*
X113434000Y-357002408D01*
X113380314Y-356732510D01*
X113275005Y-356478273D01*
X113122120Y-356249465D01*
X112927535Y-356054880D01*
X112698727Y-355901995D01*
X112444490Y-355796686D01*
X112174592Y-355743000D01*
X111899408Y-355743000D01*
X111629510Y-355796686D01*
X111375273Y-355901995D01*
X111146465Y-356054880D01*
X110951880Y-356249465D01*
X110798995Y-356478273D01*
X110769308Y-356549943D01*
X110764636Y-356536977D01*
X110702656Y-356421020D01*
X110462565Y-356354040D01*
X109676605Y-357140000D01*
X109317395Y-357140000D01*
X108531435Y-356354040D01*
X108291344Y-356421020D01*
X108227515Y-356556760D01*
X108195005Y-356478273D01*
X108042120Y-356249465D01*
X107967090Y-356174435D01*
X108711040Y-356174435D01*
X109497000Y-356960395D01*
X110282960Y-356174435D01*
X110215980Y-355934344D01*
X109966952Y-355817244D01*
X109699865Y-355750977D01*
X109424983Y-355738090D01*
X109152867Y-355779078D01*
X108893977Y-355872364D01*
X108778020Y-355934344D01*
X108711040Y-356174435D01*
X107967090Y-356174435D01*
X107847535Y-356054880D01*
X107618727Y-355901995D01*
X107364490Y-355796686D01*
X107094592Y-355743000D01*
X106819408Y-355743000D01*
X106549510Y-355796686D01*
X106295273Y-355901995D01*
X106066465Y-356054880D01*
X105871880Y-356249465D01*
X105718995Y-356478273D01*
X105687000Y-356555515D01*
X105655005Y-356478273D01*
X105502120Y-356249465D01*
X105307535Y-356054880D01*
X105078727Y-355901995D01*
X104824490Y-355796686D01*
X104554592Y-355743000D01*
X104279408Y-355743000D01*
X104009510Y-355796686D01*
X103755273Y-355901995D01*
X103526465Y-356054880D01*
X103331880Y-356249465D01*
X103178995Y-356478273D01*
X103147000Y-356555515D01*
X103115005Y-356478273D01*
X102962120Y-356249465D01*
X102767535Y-356054880D01*
X102538727Y-355901995D01*
X102284490Y-355796686D01*
X102014592Y-355743000D01*
X101739408Y-355743000D01*
X101549999Y-355780676D01*
X101549999Y-339656503D01*
X101553676Y-339619170D01*
X101539002Y-339470184D01*
X101495545Y-339326923D01*
X101424973Y-339194894D01*
X101353798Y-339108167D01*
X101330000Y-339079169D01*
X101301002Y-339055371D01*
X95200151Y-332954521D01*
X95377923Y-332861969D01*
X95620437Y-332667315D01*
X95775838Y-332482100D01*
X95923037Y-332661463D01*
X96164765Y-332859845D01*
X96440551Y-333007255D01*
X96739796Y-333098030D01*
X97051000Y-333128681D01*
X97362203Y-333098030D01*
X97661448Y-333007255D01*
X97937234Y-332859845D01*
X98063095Y-332756553D01*
X98107963Y-332840494D01*
X98187315Y-332937185D01*
X98284006Y-333016537D01*
X98394320Y-333075502D01*
X98514018Y-333111812D01*
X98638500Y-333124072D01*
X100543500Y-333124072D01*
X100667982Y-333111812D01*
X100787680Y-333075502D01*
X100897994Y-333016537D01*
X100994685Y-332937185D01*
X101074037Y-332840494D01*
X101133002Y-332730180D01*
X101169312Y-332610482D01*
X101181572Y-332486000D01*
X101181572Y-330486000D01*
X101169312Y-330361518D01*
X101133002Y-330241820D01*
X101074037Y-330131506D01*
X100994685Y-330034815D01*
X100897994Y-329955463D01*
X100787680Y-329896498D01*
X100667982Y-329860188D01*
X100543500Y-329847928D01*
X98638500Y-329847928D01*
X98514018Y-329860188D01*
X98394320Y-329896498D01*
X98284006Y-329955463D01*
X98187315Y-330034815D01*
X98107963Y-330131506D01*
X98063095Y-330215446D01*
X97937235Y-330112155D01*
X97661449Y-329964745D01*
X97362204Y-329873970D01*
X97051000Y-329843319D01*
X96739797Y-329873970D01*
X96440552Y-329964745D01*
X96164766Y-330112155D01*
X95923037Y-330310537D01*
X95775837Y-330489899D01*
X95620437Y-330304685D01*
X95377923Y-330110031D01*
X95102094Y-329966429D01*
X94883980Y-329895437D01*
X94638000Y-330015406D01*
X94638000Y-331359000D01*
X94658000Y-331359000D01*
X94658000Y-331613000D01*
X94638000Y-331613000D01*
X94638000Y-331633000D01*
X94384000Y-331633000D01*
X94384000Y-331613000D01*
X94364000Y-331613000D01*
X94364000Y-331359000D01*
X94384000Y-331359000D01*
X94384000Y-330015406D01*
X94138020Y-329895437D01*
X93993490Y-329942479D01*
X93993490Y-329441313D01*
X96800004Y-326634800D01*
X96829001Y-326611003D01*
X96923974Y-326495278D01*
X96994546Y-326363249D01*
X97038003Y-326219988D01*
X97049000Y-326108335D01*
X97049000Y-326108327D01*
X97052676Y-326071002D01*
X97049000Y-326033677D01*
X97049000Y-310518072D01*
X97241500Y-310518072D01*
X97365982Y-310505812D01*
X97485680Y-310469502D01*
X97595994Y-310410537D01*
X97692685Y-310331185D01*
X97772037Y-310234494D01*
X97831002Y-310124180D01*
X97867312Y-310004482D01*
X97879572Y-309880000D01*
X97879572Y-307880000D01*
X97867312Y-307755518D01*
X97831002Y-307635820D01*
X97772037Y-307525506D01*
X97692685Y-307428815D01*
X97595994Y-307349463D01*
X97485680Y-307290498D01*
X97365982Y-307254188D01*
X97241500Y-307241928D01*
X95336500Y-307241928D01*
X95212018Y-307254188D01*
X95092320Y-307290498D01*
X94982006Y-307349463D01*
X94885315Y-307428815D01*
X94805963Y-307525506D01*
X94761095Y-307609446D01*
X94635235Y-307506155D01*
X94359449Y-307358745D01*
X94060204Y-307267970D01*
X93749000Y-307237319D01*
X93437797Y-307267970D01*
X93138552Y-307358745D01*
X92862766Y-307506155D01*
X92621037Y-307704537D01*
X92473837Y-307883899D01*
X92318437Y-307698685D01*
X92075923Y-307504031D01*
X91800094Y-307360429D01*
X91581980Y-307289437D01*
X91336000Y-307409406D01*
X91336000Y-308753000D01*
X91356000Y-308753000D01*
X91356000Y-309007000D01*
X91336000Y-309007000D01*
X91336000Y-310350594D01*
X91581980Y-310470563D01*
X91800094Y-310399571D01*
X92075923Y-310255969D01*
X92318437Y-310061315D01*
X92473838Y-309876100D01*
X92621037Y-310055463D01*
X92862765Y-310253845D01*
X93138551Y-310401255D01*
X93437796Y-310492030D01*
X93749000Y-310522681D01*
X94060203Y-310492030D01*
X94359448Y-310401255D01*
X94635234Y-310253845D01*
X94761095Y-310150553D01*
X94805963Y-310234494D01*
X94885315Y-310331185D01*
X94982006Y-310410537D01*
X95092320Y-310469502D01*
X95212018Y-310505812D01*
X95336500Y-310518072D01*
X95529001Y-310518072D01*
X95529000Y-323947101D01*
X95269349Y-323687450D01*
X94878721Y-323426440D01*
X94444679Y-323246654D01*
X93983902Y-323155000D01*
X93514098Y-323155000D01*
X93053321Y-323246654D01*
X92619279Y-323426440D01*
X92228651Y-323687450D01*
X91896450Y-324019651D01*
X91635440Y-324410279D01*
X91455654Y-324844321D01*
X91364000Y-325305098D01*
X91364000Y-325774902D01*
X91455654Y-326235679D01*
X91635440Y-326669721D01*
X91896450Y-327060349D01*
X92228651Y-327392550D01*
X92619279Y-327653560D01*
X93053321Y-327833346D01*
X93385734Y-327899467D01*
X92722488Y-328562713D01*
X92693490Y-328586511D01*
X92669692Y-328615509D01*
X92669691Y-328615510D01*
X92598516Y-328702236D01*
X92527944Y-328834266D01*
X92484488Y-328977527D01*
X92469814Y-329126512D01*
X92473491Y-329163844D01*
X92473490Y-332025338D01*
X92469814Y-332062661D01*
X92473490Y-332099983D01*
X92473490Y-332099993D01*
X92484487Y-332211646D01*
X92527944Y-332354907D01*
X92598516Y-332486937D01*
X92638361Y-332535487D01*
X92693489Y-332602662D01*
X92722493Y-332626465D01*
X100030000Y-339933973D01*
X100030000Y-355922891D01*
X99998727Y-355901995D01*
X99744490Y-355796686D01*
X99474592Y-355743000D01*
X99199408Y-355743000D01*
X98929510Y-355796686D01*
X98675273Y-355901995D01*
X98446465Y-356054880D01*
X98251880Y-356249465D01*
X98098995Y-356478273D01*
X98067000Y-356555515D01*
X98035005Y-356478273D01*
X97882120Y-356249465D01*
X97687535Y-356054880D01*
X97458727Y-355901995D01*
X97204490Y-355796686D01*
X96934592Y-355743000D01*
X96659408Y-355743000D01*
X96389510Y-355796686D01*
X96135273Y-355901995D01*
X95906465Y-356054880D01*
X95711880Y-356249465D01*
X95558995Y-356478273D01*
X95527000Y-356555515D01*
X95495005Y-356478273D01*
X95342120Y-356249465D01*
X95147535Y-356054880D01*
X94918727Y-355901995D01*
X94664490Y-355796686D01*
X94394592Y-355743000D01*
X94119408Y-355743000D01*
X93849510Y-355796686D01*
X93595273Y-355901995D01*
X93366465Y-356054880D01*
X93171880Y-356249465D01*
X93018995Y-356478273D01*
X92987000Y-356555515D01*
X92955005Y-356478273D01*
X92802120Y-356249465D01*
X92607535Y-356054880D01*
X92378727Y-355901995D01*
X92124490Y-355796686D01*
X91854592Y-355743000D01*
X91579408Y-355743000D01*
X91309510Y-355796686D01*
X91055273Y-355901995D01*
X91024001Y-355922890D01*
X91024001Y-347911098D01*
X94666000Y-347911098D01*
X94666000Y-348380902D01*
X94757654Y-348841679D01*
X94937440Y-349275721D01*
X95198450Y-349666349D01*
X95530651Y-349998550D01*
X95921279Y-350259560D01*
X96355321Y-350439346D01*
X96816098Y-350531000D01*
X97285902Y-350531000D01*
X97746679Y-350439346D01*
X98180721Y-350259560D01*
X98571349Y-349998550D01*
X98903550Y-349666349D01*
X99164560Y-349275721D01*
X99344346Y-348841679D01*
X99436000Y-348380902D01*
X99436000Y-347911098D01*
X99344346Y-347450321D01*
X99164560Y-347016279D01*
X98903550Y-346625651D01*
X98571349Y-346293450D01*
X98180721Y-346032440D01*
X97746679Y-345852654D01*
X97285902Y-345761000D01*
X96816098Y-345761000D01*
X96355321Y-345852654D01*
X95921279Y-346032440D01*
X95530651Y-346293450D01*
X95198450Y-346625651D01*
X94937440Y-347016279D01*
X94757654Y-347450321D01*
X94666000Y-347911098D01*
X91024001Y-347911098D01*
X91024001Y-314322326D01*
X91027677Y-314285001D01*
X91024001Y-314247676D01*
X91024001Y-314247668D01*
X91013004Y-314136015D01*
X90969547Y-313992754D01*
X90898975Y-313860725D01*
X90804002Y-313745000D01*
X90775004Y-313721202D01*
X86449572Y-309395771D01*
X86449572Y-309253863D01*
X89656622Y-309253863D01*
X89750121Y-309550446D01*
X89899684Y-309823089D01*
X90099563Y-310061315D01*
X90342077Y-310255969D01*
X90617906Y-310399571D01*
X90836020Y-310470563D01*
X91082000Y-310350594D01*
X91082000Y-309007000D01*
X89783430Y-309007000D01*
X89656622Y-309253863D01*
X86449572Y-309253863D01*
X86449572Y-308506137D01*
X89656622Y-308506137D01*
X89783430Y-308753000D01*
X91082000Y-308753000D01*
X91082000Y-307409406D01*
X90836020Y-307289437D01*
X90617906Y-307360429D01*
X90342077Y-307504031D01*
X90099563Y-307698685D01*
X89899684Y-307936911D01*
X89750121Y-308209554D01*
X89656622Y-308506137D01*
X86449572Y-308506137D01*
X86449572Y-307880000D01*
X86437312Y-307755518D01*
X86401002Y-307635820D01*
X86342037Y-307525506D01*
X86262685Y-307428815D01*
X86165994Y-307349463D01*
X86055680Y-307290498D01*
X85935982Y-307254188D01*
X85811500Y-307241928D01*
X83906500Y-307241928D01*
X83782018Y-307254188D01*
X83662320Y-307290498D01*
X83552006Y-307349463D01*
X83455315Y-307428815D01*
X83375963Y-307525506D01*
X83331095Y-307609446D01*
X83205235Y-307506155D01*
X82929449Y-307358745D01*
X82630204Y-307267970D01*
X82319000Y-307237319D01*
X82007797Y-307267970D01*
X81708552Y-307358745D01*
X81432766Y-307506155D01*
X81191037Y-307704537D01*
X81043837Y-307883899D01*
X80888437Y-307698685D01*
X80645923Y-307504031D01*
X80370094Y-307360429D01*
X80151980Y-307289437D01*
X79906000Y-307409406D01*
X79906000Y-308753000D01*
X79926000Y-308753000D01*
X79926000Y-309007000D01*
X79906000Y-309007000D01*
X79906000Y-310350594D01*
X80151980Y-310470563D01*
X80370094Y-310399571D01*
X80645923Y-310255969D01*
X80888437Y-310061315D01*
X81043838Y-309876100D01*
X81191037Y-310055463D01*
X81432765Y-310253845D01*
X81708551Y-310401255D01*
X82007796Y-310492030D01*
X82319000Y-310522681D01*
X82630203Y-310492030D01*
X82929448Y-310401255D01*
X83205234Y-310253845D01*
X83331095Y-310150553D01*
X83375963Y-310234494D01*
X83455315Y-310331185D01*
X83552006Y-310410537D01*
X83662320Y-310469502D01*
X83782018Y-310505812D01*
X83906500Y-310518072D01*
X85422271Y-310518072D01*
X89504002Y-314599804D01*
X89504002Y-329863834D01*
X89491982Y-329860188D01*
X89367500Y-329847928D01*
X87462500Y-329847928D01*
X87338018Y-329860188D01*
X87218320Y-329896498D01*
X87108006Y-329955463D01*
X87011315Y-330034815D01*
X86931963Y-330131506D01*
X86887095Y-330215446D01*
X86761235Y-330112155D01*
X86485449Y-329964745D01*
X86186204Y-329873970D01*
X85875000Y-329843319D01*
X85563797Y-329873970D01*
X85264552Y-329964745D01*
X84988766Y-330112155D01*
X84747037Y-330310537D01*
X84599837Y-330489899D01*
X84444437Y-330304685D01*
X84201923Y-330110031D01*
X83926094Y-329966429D01*
X83707980Y-329895437D01*
X83462000Y-330015406D01*
X83462000Y-331359000D01*
X83482000Y-331359000D01*
X83482000Y-331613000D01*
X83462000Y-331613000D01*
X83462000Y-332956594D01*
X83707980Y-333076563D01*
X83926094Y-333005571D01*
X84201923Y-332861969D01*
X84444437Y-332667315D01*
X84599838Y-332482100D01*
X84747037Y-332661463D01*
X84988765Y-332859845D01*
X85264551Y-333007255D01*
X85563796Y-333098030D01*
X85875000Y-333128681D01*
X86186203Y-333098030D01*
X86485448Y-333007255D01*
X86761234Y-332859845D01*
X86887095Y-332756553D01*
X86931963Y-332840494D01*
X87011315Y-332937185D01*
X87108006Y-333016537D01*
X87218320Y-333075502D01*
X87338018Y-333111812D01*
X87462500Y-333124072D01*
X89367500Y-333124072D01*
X89491982Y-333111812D01*
X89504002Y-333108166D01*
X89504001Y-355780676D01*
X89314592Y-355743000D01*
X89039408Y-355743000D01*
X88851834Y-355780311D01*
X88849999Y-355761674D01*
X88849999Y-355761666D01*
X88839002Y-355650013D01*
X88795545Y-355506752D01*
X88724973Y-355374723D01*
X88630000Y-355258998D01*
X88601002Y-355235200D01*
X86508000Y-353142199D01*
X86508000Y-351589323D01*
X86511676Y-351552000D01*
X86508000Y-351514677D01*
X86508000Y-351514667D01*
X86497003Y-351403014D01*
X86453546Y-351259753D01*
X86382974Y-351127724D01*
X86288001Y-351011999D01*
X86259003Y-350988201D01*
X85801802Y-350531000D01*
X86109902Y-350531000D01*
X86570679Y-350439346D01*
X87004721Y-350259560D01*
X87395349Y-349998550D01*
X87727550Y-349666349D01*
X87988560Y-349275721D01*
X88168346Y-348841679D01*
X88260000Y-348380902D01*
X88260000Y-347911098D01*
X88168346Y-347450321D01*
X87988560Y-347016279D01*
X87727550Y-346625651D01*
X87395349Y-346293450D01*
X87004721Y-346032440D01*
X86570679Y-345852654D01*
X86109902Y-345761000D01*
X85640098Y-345761000D01*
X85179321Y-345852654D01*
X84745279Y-346032440D01*
X84354651Y-346293450D01*
X84022450Y-346625651D01*
X83761440Y-347016279D01*
X83587000Y-347437415D01*
X83587000Y-339397322D01*
X83590676Y-339359999D01*
X83587000Y-339322676D01*
X83587000Y-339322667D01*
X83576003Y-339211014D01*
X83532546Y-339067753D01*
X83461974Y-338935723D01*
X83390799Y-338848997D01*
X83367001Y-338819999D01*
X83338003Y-338796201D01*
X82444000Y-337902199D01*
X82444000Y-332842644D01*
X82468077Y-332861969D01*
X82743906Y-333005571D01*
X82962020Y-333076563D01*
X83208000Y-332956594D01*
X83208000Y-331613000D01*
X83188000Y-331613000D01*
X83188000Y-331359000D01*
X83208000Y-331359000D01*
X83208000Y-330015406D01*
X82962020Y-329895437D01*
X82743906Y-329966429D01*
X82468077Y-330110031D01*
X82444000Y-330129356D01*
X82444000Y-330126325D01*
X82447676Y-330089000D01*
X82444000Y-330051675D01*
X82444000Y-330051667D01*
X82433003Y-329940014D01*
X82389546Y-329796753D01*
X82318974Y-329664724D01*
X82224001Y-329548999D01*
X82195003Y-329525201D01*
X80666000Y-327996199D01*
X80666000Y-327259899D01*
X80798651Y-327392550D01*
X81189279Y-327653560D01*
X81623321Y-327833346D01*
X82084098Y-327925000D01*
X82553902Y-327925000D01*
X83014679Y-327833346D01*
X83448721Y-327653560D01*
X83839349Y-327392550D01*
X84171550Y-327060349D01*
X84432560Y-326669721D01*
X84612346Y-326235679D01*
X84704000Y-325774902D01*
X84704000Y-325305098D01*
X84612346Y-324844321D01*
X84432560Y-324410279D01*
X84171550Y-324019651D01*
X83839349Y-323687450D01*
X83448721Y-323426440D01*
X83014679Y-323246654D01*
X82553902Y-323155000D01*
X82084098Y-323155000D01*
X81623321Y-323246654D01*
X81189279Y-323426440D01*
X80798651Y-323687450D01*
X80666000Y-323820101D01*
X80666000Y-323141322D01*
X80669676Y-323103999D01*
X80666000Y-323066676D01*
X80666000Y-323066667D01*
X80655003Y-322955014D01*
X80611546Y-322811753D01*
X80540974Y-322679724D01*
X80446001Y-322563999D01*
X80417003Y-322540201D01*
X79396000Y-321519199D01*
X79396000Y-316156322D01*
X79399676Y-316118999D01*
X79396000Y-316081676D01*
X79396000Y-316081667D01*
X79385003Y-315970014D01*
X79341546Y-315826753D01*
X79270974Y-315694724D01*
X79176001Y-315578999D01*
X79147003Y-315555201D01*
X75967000Y-312375199D01*
X75967000Y-310060322D01*
X75970676Y-310022999D01*
X75967000Y-309985676D01*
X75967000Y-309985667D01*
X75956003Y-309874014D01*
X75912546Y-309730753D01*
X75841974Y-309598724D01*
X75747001Y-309482999D01*
X75717997Y-309459196D01*
X75516804Y-309258003D01*
X75513407Y-309253863D01*
X78226622Y-309253863D01*
X78320121Y-309550446D01*
X78469684Y-309823089D01*
X78669563Y-310061315D01*
X78912077Y-310255969D01*
X79187906Y-310399571D01*
X79406020Y-310470563D01*
X79652000Y-310350594D01*
X79652000Y-309007000D01*
X78353430Y-309007000D01*
X78226622Y-309253863D01*
X75513407Y-309253863D01*
X75493001Y-309228999D01*
X75377276Y-309134026D01*
X75245247Y-309063454D01*
X75101986Y-309019997D01*
X74990333Y-309009000D01*
X74990322Y-309009000D01*
X74953000Y-309005324D01*
X74915678Y-309009000D01*
X74908572Y-309009000D01*
X74908572Y-308506137D01*
X78226622Y-308506137D01*
X78353430Y-308753000D01*
X79652000Y-308753000D01*
X79652000Y-307409406D01*
X79406020Y-307289437D01*
X79187906Y-307360429D01*
X78912077Y-307504031D01*
X78669563Y-307698685D01*
X78469684Y-307936911D01*
X78320121Y-308209554D01*
X78226622Y-308506137D01*
X74908572Y-308506137D01*
X74908572Y-307881000D01*
X74896312Y-307756518D01*
X74860002Y-307636820D01*
X74801037Y-307526506D01*
X74721685Y-307429815D01*
X74624994Y-307350463D01*
X74514680Y-307291498D01*
X74394982Y-307255188D01*
X74270500Y-307242928D01*
X72365500Y-307242928D01*
X72241018Y-307255188D01*
X72121320Y-307291498D01*
X72011006Y-307350463D01*
X71914315Y-307429815D01*
X71834963Y-307526506D01*
X71790095Y-307610446D01*
X71664235Y-307507155D01*
X71388449Y-307359745D01*
X71089204Y-307268970D01*
X70778000Y-307238319D01*
X70466797Y-307268970D01*
X70167552Y-307359745D01*
X69891766Y-307507155D01*
X69650037Y-307705537D01*
X69502837Y-307884899D01*
X69347437Y-307699685D01*
X69104923Y-307505031D01*
X68829094Y-307361429D01*
X68610980Y-307290437D01*
X68365000Y-307410406D01*
X68365000Y-308754000D01*
X68385000Y-308754000D01*
X68385000Y-309008000D01*
X68365000Y-309008000D01*
X68365000Y-310351594D01*
X68610980Y-310471563D01*
X68829094Y-310400571D01*
X69104923Y-310256969D01*
X69347437Y-310062315D01*
X69502838Y-309877100D01*
X69650037Y-310056463D01*
X69891765Y-310254845D01*
X70167551Y-310402255D01*
X70466796Y-310493030D01*
X70778000Y-310523681D01*
X71089203Y-310493030D01*
X71388448Y-310402255D01*
X71664234Y-310254845D01*
X71790095Y-310151553D01*
X71834963Y-310235494D01*
X71914315Y-310332185D01*
X72011006Y-310411537D01*
X72121320Y-310470502D01*
X72241018Y-310506812D01*
X72365500Y-310519072D01*
X74067868Y-310519072D01*
X74168667Y-310529000D01*
X74168675Y-310529000D01*
X74206000Y-310532676D01*
X74243325Y-310529000D01*
X74447001Y-310529000D01*
X74447000Y-312652677D01*
X74443324Y-312690000D01*
X74447000Y-312727322D01*
X74447000Y-312727332D01*
X74457997Y-312838985D01*
X74501454Y-312982246D01*
X74572026Y-313114276D01*
X74611871Y-313162826D01*
X74666999Y-313230001D01*
X74696003Y-313253804D01*
X77876001Y-316433803D01*
X77876000Y-321796677D01*
X77872324Y-321834000D01*
X77876000Y-321871322D01*
X77876000Y-321871332D01*
X77886997Y-321982985D01*
X77930454Y-322126246D01*
X78001026Y-322258276D01*
X78040871Y-322306826D01*
X78095999Y-322374001D01*
X78125003Y-322397804D01*
X79146001Y-323418803D01*
X79146000Y-328273677D01*
X79142324Y-328311000D01*
X79146000Y-328348322D01*
X79146000Y-328348332D01*
X79156997Y-328459985D01*
X79183319Y-328546758D01*
X79200454Y-328603246D01*
X79271026Y-328735276D01*
X79310871Y-328783826D01*
X79365999Y-328851001D01*
X79395003Y-328874804D01*
X80924001Y-330403803D01*
X80924000Y-338179678D01*
X80920324Y-338217000D01*
X80924000Y-338254322D01*
X80924000Y-338254332D01*
X80934997Y-338365985D01*
X80978454Y-338509246D01*
X81049026Y-338641276D01*
X81088871Y-338689826D01*
X81143999Y-338757001D01*
X81173002Y-338780804D01*
X82067001Y-339674803D01*
X82067000Y-348593678D01*
X82063324Y-348631000D01*
X82067000Y-348668322D01*
X82067000Y-348668332D01*
X82077997Y-348779985D01*
X82121454Y-348923246D01*
X82192026Y-349055276D01*
X82231871Y-349103826D01*
X82286999Y-349171001D01*
X82316003Y-349194804D01*
X84988001Y-351866803D01*
X84988000Y-353419677D01*
X84984324Y-353457000D01*
X84988000Y-353494322D01*
X84988000Y-353494332D01*
X84998997Y-353605985D01*
X85042454Y-353749246D01*
X85113026Y-353881276D01*
X85152871Y-353929826D01*
X85207999Y-353997001D01*
X85237003Y-354020804D01*
X87005036Y-355788838D01*
X86774592Y-355743000D01*
X86499408Y-355743000D01*
X86229510Y-355796686D01*
X85975273Y-355901995D01*
X85746465Y-356054880D01*
X85551880Y-356249465D01*
X85398995Y-356478273D01*
X85367000Y-356555515D01*
X85335005Y-356478273D01*
X85182120Y-356249465D01*
X84987535Y-356054880D01*
X84758727Y-355901995D01*
X84504490Y-355796686D01*
X84234592Y-355743000D01*
X83959408Y-355743000D01*
X83689510Y-355796686D01*
X83435273Y-355901995D01*
X83206465Y-356054880D01*
X83011880Y-356249465D01*
X82858995Y-356478273D01*
X82827000Y-356555515D01*
X82795005Y-356478273D01*
X82642120Y-356249465D01*
X82447535Y-356054880D01*
X82218727Y-355901995D01*
X81964490Y-355796686D01*
X81694592Y-355743000D01*
X81419408Y-355743000D01*
X81149510Y-355796686D01*
X80895273Y-355901995D01*
X80864001Y-355922890D01*
X80864001Y-341068495D01*
X80867677Y-341031172D01*
X80864001Y-340993849D01*
X80864001Y-340993839D01*
X80853004Y-340882186D01*
X80809547Y-340738925D01*
X80738975Y-340606895D01*
X80667800Y-340520169D01*
X80644002Y-340491171D01*
X80615004Y-340467373D01*
X73102151Y-332954521D01*
X73279923Y-332861969D01*
X73522437Y-332667315D01*
X73677838Y-332482100D01*
X73825037Y-332661463D01*
X74066765Y-332859845D01*
X74342551Y-333007255D01*
X74641796Y-333098030D01*
X74953000Y-333128681D01*
X75264203Y-333098030D01*
X75563448Y-333007255D01*
X75839234Y-332859845D01*
X75965095Y-332756553D01*
X76009963Y-332840494D01*
X76089315Y-332937185D01*
X76186006Y-333016537D01*
X76296320Y-333075502D01*
X76416018Y-333111812D01*
X76540500Y-333124072D01*
X78445500Y-333124072D01*
X78569982Y-333111812D01*
X78689680Y-333075502D01*
X78799994Y-333016537D01*
X78896685Y-332937185D01*
X78976037Y-332840494D01*
X79035002Y-332730180D01*
X79071312Y-332610482D01*
X79083572Y-332486000D01*
X79083572Y-330486000D01*
X79071312Y-330361518D01*
X79035002Y-330241820D01*
X78976037Y-330131506D01*
X78896685Y-330034815D01*
X78799994Y-329955463D01*
X78689680Y-329896498D01*
X78569982Y-329860188D01*
X78445500Y-329847928D01*
X76540500Y-329847928D01*
X76416018Y-329860188D01*
X76296320Y-329896498D01*
X76186006Y-329955463D01*
X76089315Y-330034815D01*
X76009963Y-330131506D01*
X75965095Y-330215446D01*
X75839235Y-330112155D01*
X75563449Y-329964745D01*
X75264204Y-329873970D01*
X74953000Y-329843319D01*
X74641797Y-329873970D01*
X74342552Y-329964745D01*
X74066766Y-330112155D01*
X73825037Y-330310537D01*
X73677837Y-330489899D01*
X73522437Y-330304685D01*
X73279923Y-330110031D01*
X73004094Y-329966429D01*
X72785980Y-329895437D01*
X72540000Y-330015406D01*
X72540000Y-331359000D01*
X72560000Y-331359000D01*
X72560000Y-331613000D01*
X72540000Y-331613000D01*
X72540000Y-331633000D01*
X72286000Y-331633000D01*
X72286000Y-331613000D01*
X72266000Y-331613000D01*
X72266000Y-331359000D01*
X72286000Y-331359000D01*
X72286000Y-330015406D01*
X72040020Y-329895437D01*
X71895490Y-329942479D01*
X71895490Y-328569313D01*
X73364005Y-327100799D01*
X73393002Y-327077002D01*
X73487975Y-326961277D01*
X73558547Y-326829248D01*
X73602004Y-326685987D01*
X73613001Y-326574334D01*
X73613001Y-326574325D01*
X73616677Y-326537002D01*
X73613001Y-326499679D01*
X73613001Y-319650323D01*
X73616677Y-319613001D01*
X73613001Y-319575678D01*
X73613001Y-319575668D01*
X73602004Y-319464015D01*
X73558547Y-319320754D01*
X73487975Y-319188724D01*
X73416800Y-319101998D01*
X73393002Y-319073000D01*
X73364004Y-319049202D01*
X63769572Y-309454771D01*
X63769572Y-309254863D01*
X66685622Y-309254863D01*
X66779121Y-309551446D01*
X66928684Y-309824089D01*
X67128563Y-310062315D01*
X67371077Y-310256969D01*
X67646906Y-310400571D01*
X67865020Y-310471563D01*
X68111000Y-310351594D01*
X68111000Y-309008000D01*
X66812430Y-309008000D01*
X66685622Y-309254863D01*
X63769572Y-309254863D01*
X63769572Y-308507137D01*
X66685622Y-308507137D01*
X66812430Y-308754000D01*
X68111000Y-308754000D01*
X68111000Y-307410406D01*
X67865020Y-307290437D01*
X67646906Y-307361429D01*
X67371077Y-307505031D01*
X67128563Y-307699685D01*
X66928684Y-307937911D01*
X66779121Y-308210554D01*
X66685622Y-308507137D01*
X63769572Y-308507137D01*
X63769572Y-307939000D01*
X63757312Y-307814518D01*
X63721002Y-307694820D01*
X63662037Y-307584506D01*
X63582685Y-307487815D01*
X63485994Y-307408463D01*
X63375680Y-307349498D01*
X63255982Y-307313188D01*
X63131500Y-307300928D01*
X61226500Y-307300928D01*
X61102018Y-307313188D01*
X60982320Y-307349498D01*
X60872006Y-307408463D01*
X60775315Y-307487815D01*
X60695963Y-307584506D01*
X60651095Y-307668446D01*
X60525235Y-307565155D01*
X60249449Y-307417745D01*
X59950204Y-307326970D01*
X59639000Y-307296319D01*
X59327797Y-307326970D01*
X59028552Y-307417745D01*
X58752766Y-307565155D01*
X58511037Y-307763537D01*
X58363837Y-307942899D01*
X58208437Y-307757685D01*
X57965923Y-307563031D01*
X57690094Y-307419429D01*
X57471980Y-307348437D01*
X57226000Y-307468406D01*
X56972000Y-307468406D01*
X56726020Y-307348437D01*
X56507906Y-307419429D01*
X56232077Y-307563031D01*
X55989563Y-307757685D01*
X55789684Y-307995911D01*
X55640121Y-308268554D01*
X55546622Y-308565137D01*
X52526572Y-308565137D01*
X52526572Y-307835000D01*
X52514312Y-307710518D01*
X52478002Y-307590820D01*
X52419037Y-307480506D01*
X52339685Y-307383815D01*
X52242994Y-307304463D01*
X52132680Y-307245498D01*
X52012982Y-307209188D01*
X51888500Y-307196928D01*
X49983500Y-307196928D01*
X49859018Y-307209188D01*
X49739320Y-307245498D01*
X49629006Y-307304463D01*
X49532315Y-307383815D01*
X49452963Y-307480506D01*
X49408095Y-307564446D01*
X49282235Y-307461155D01*
X49006449Y-307313745D01*
X48707204Y-307222970D01*
X48396000Y-307192319D01*
X48084797Y-307222970D01*
X47785552Y-307313745D01*
X47509766Y-307461155D01*
X47268037Y-307659537D01*
X47120837Y-307838899D01*
X46965437Y-307653685D01*
X46722923Y-307459031D01*
X46447094Y-307315429D01*
X46228980Y-307244437D01*
X45983000Y-307364406D01*
X45729000Y-307364406D01*
X45483020Y-307244437D01*
X45264906Y-307315429D01*
X44989077Y-307459031D01*
X44746563Y-307653685D01*
X44546684Y-307891911D01*
X44397121Y-308164554D01*
X44303622Y-308461137D01*
X30122000Y-308461137D01*
X30122000Y-300519945D01*
X31664000Y-300519945D01*
X31664000Y-301492055D01*
X31853650Y-302445486D01*
X32225660Y-303343599D01*
X32765735Y-304151879D01*
X33453121Y-304839265D01*
X34261401Y-305379340D01*
X35159514Y-305751350D01*
X36112945Y-305941000D01*
X37085055Y-305941000D01*
X38038486Y-305751350D01*
X38936599Y-305379340D01*
X39744879Y-304839265D01*
X40432265Y-304151879D01*
X40972340Y-303343599D01*
X41344350Y-302445486D01*
X41534000Y-301492055D01*
X41534000Y-300519945D01*
X123104000Y-300519945D01*
X123104000Y-301492055D01*
X123293650Y-302445486D01*
X123665660Y-303343599D01*
X124205735Y-304151879D01*
X124893121Y-304839265D01*
X125701401Y-305379340D01*
X126599514Y-305751350D01*
X127552945Y-305941000D01*
X128525055Y-305941000D01*
X129478486Y-305751350D01*
X130376599Y-305379340D01*
X131184879Y-304839265D01*
X131872265Y-304151879D01*
X132412340Y-303343599D01*
X132784350Y-302445486D01*
X132974000Y-301492055D01*
X132974000Y-300519945D01*
X132784350Y-299566514D01*
X132412340Y-298668401D01*
X131872265Y-297860121D01*
X131184879Y-297172735D01*
X130376599Y-296632660D01*
X129478486Y-296260650D01*
X128525055Y-296071000D01*
X127552945Y-296071000D01*
X126599514Y-296260650D01*
X125701401Y-296632660D01*
X124893121Y-297172735D01*
X124205735Y-297860121D01*
X123665660Y-298668401D01*
X123293650Y-299566514D01*
X123104000Y-300519945D01*
X41534000Y-300519945D01*
X41344350Y-299566514D01*
X40972340Y-298668401D01*
X40432265Y-297860121D01*
X39744879Y-297172735D01*
X38936599Y-296632660D01*
X38038486Y-296260650D01*
X37085055Y-296071000D01*
X36112945Y-296071000D01*
X35159514Y-296260650D01*
X34261401Y-296632660D01*
X33453121Y-297172735D01*
X32765735Y-297860121D01*
X32225660Y-298668401D01*
X31853650Y-299566514D01*
X31664000Y-300519945D01*
X30122000Y-300519945D01*
X30122000Y-295037000D01*
X134008000Y-295037000D01*
X134008000Y-385969000D01*
G37*
%TD.AperFunction*%
D31*
X94489661Y-366829463D02*
X94384000Y-366892626D01*
X94384000Y-367935000D01*
X95427201Y-367935000D01*
X95489792Y-367829594D01*
X97029661Y-369369463D01*
X96924000Y-369432626D01*
X96924000Y-370475000D01*
X96944000Y-370475000D01*
X96944000Y-370729000D01*
X96924000Y-370729000D01*
X96924000Y-371771374D01*
X97062001Y-371853870D01*
X97062001Y-374129678D01*
X97058325Y-374167001D01*
X97062001Y-374204323D01*
X97062001Y-374204333D01*
X97072998Y-374315986D01*
X97112441Y-374446014D01*
X97116455Y-374459247D01*
X97187027Y-374591277D01*
X97220720Y-374632331D01*
X97282000Y-374707002D01*
X97311004Y-374730805D01*
X99467198Y-376887000D01*
X99205514Y-376887000D01*
X99098157Y-376908355D01*
X96042001Y-373852200D01*
X96042001Y-371695793D01*
X96118608Y-371751792D01*
X96355956Y-371862047D01*
X96463671Y-371894716D01*
X96670000Y-371771374D01*
X96670000Y-370729000D01*
X96650000Y-370729000D01*
X96650000Y-370475000D01*
X96670000Y-370475000D01*
X96670000Y-369432626D01*
X96463671Y-369309284D01*
X96355956Y-369341953D01*
X96118608Y-369452208D01*
X95907330Y-369606649D01*
X95878144Y-369638407D01*
X95822002Y-369569998D01*
X95793004Y-369546200D01*
X95222090Y-368975286D01*
X95323759Y-368864660D01*
X95459853Y-368641123D01*
X95549722Y-368395330D01*
X95427201Y-368189000D01*
X94384000Y-368189000D01*
X94384000Y-368209000D01*
X94130000Y-368209000D01*
X94130000Y-368189000D01*
X94110000Y-368189000D01*
X94110000Y-367935000D01*
X94130000Y-367935000D01*
X94130000Y-366892626D01*
X93991999Y-366810130D01*
X93991999Y-366331801D01*
X94489661Y-366829463D01*
%TA.AperFunction,Conductor*%
D32*
G36*
X94489661Y-366829463D02*
G01*
X94384000Y-366892626D01*
X94384000Y-367935000D01*
X95427201Y-367935000D01*
X95489792Y-367829594D01*
X97029661Y-369369463D01*
X96924000Y-369432626D01*
X96924000Y-370475000D01*
X96944000Y-370475000D01*
X96944000Y-370729000D01*
X96924000Y-370729000D01*
X96924000Y-371771374D01*
X97062001Y-371853870D01*
X97062001Y-374129678D01*
X97058325Y-374167001D01*
X97062001Y-374204323D01*
X97062001Y-374204333D01*
X97072998Y-374315986D01*
X97112441Y-374446014D01*
X97116455Y-374459247D01*
X97187027Y-374591277D01*
X97220720Y-374632331D01*
X97282000Y-374707002D01*
X97311004Y-374730805D01*
X99467198Y-376887000D01*
X99205514Y-376887000D01*
X99098157Y-376908355D01*
X96042001Y-373852200D01*
X96042001Y-371695793D01*
X96118608Y-371751792D01*
X96355956Y-371862047D01*
X96463671Y-371894716D01*
X96670000Y-371771374D01*
X96670000Y-370729000D01*
X96650000Y-370729000D01*
X96650000Y-370475000D01*
X96670000Y-370475000D01*
X96670000Y-369432626D01*
X96463671Y-369309284D01*
X96355956Y-369341953D01*
X96118608Y-369452208D01*
X95907330Y-369606649D01*
X95878144Y-369638407D01*
X95822002Y-369569998D01*
X95793004Y-369546200D01*
X95222090Y-368975286D01*
X95323759Y-368864660D01*
X95459853Y-368641123D01*
X95549722Y-368395330D01*
X95427201Y-368189000D01*
X94384000Y-368189000D01*
X94384000Y-368209000D01*
X94130000Y-368209000D01*
X94130000Y-368189000D01*
X94110000Y-368189000D01*
X94110000Y-367935000D01*
X94130000Y-367935000D01*
X94130000Y-366892626D01*
X93991999Y-366810130D01*
X93991999Y-366331801D01*
X94489661Y-366829463D01*
G37*
%TD.AperFunction*%
D31*
X85398995Y-357801727D02*
X85551880Y-358030535D01*
X85746465Y-358225120D01*
X85975273Y-358378005D01*
X86229510Y-358483314D01*
X86499408Y-358537000D01*
X86774592Y-358537000D01*
X87044490Y-358483314D01*
X87298727Y-358378005D01*
X87329999Y-358357109D01*
X87329999Y-359299457D01*
X87269359Y-359258939D01*
X87026405Y-359158304D01*
X86768486Y-359107000D01*
X86505514Y-359107000D01*
X86247595Y-359158304D01*
X86004641Y-359258939D01*
X85785987Y-359405038D01*
X85600038Y-359590987D01*
X85453939Y-359809641D01*
X85353304Y-360052595D01*
X85302000Y-360310514D01*
X85302000Y-360573486D01*
X85353304Y-360831405D01*
X85453939Y-361074359D01*
X85600038Y-361293013D01*
X85785987Y-361478962D01*
X86004641Y-361625061D01*
X86247595Y-361725696D01*
X86505514Y-361777000D01*
X86768486Y-361777000D01*
X87026405Y-361725696D01*
X87269359Y-361625061D01*
X87488013Y-361478962D01*
X87552730Y-361414245D01*
X87579002Y-361435805D01*
X92472000Y-366328804D01*
X92472000Y-366968207D01*
X92395392Y-366912208D01*
X92158044Y-366801953D01*
X92050329Y-366769284D01*
X91844000Y-366892626D01*
X91844000Y-367935000D01*
X91864000Y-367935000D01*
X91864000Y-368189000D01*
X91844000Y-368189000D01*
X91844000Y-369231374D01*
X92050329Y-369354716D01*
X92158044Y-369322047D01*
X92395392Y-369211792D01*
X92606670Y-369057351D01*
X92635857Y-369025593D01*
X92636870Y-369026827D01*
X92691998Y-369094002D01*
X92721001Y-369117804D01*
X93201199Y-369598003D01*
X93224998Y-369627002D01*
X93295472Y-369684838D01*
X93190241Y-369799340D01*
X93054147Y-370022877D01*
X92964278Y-370268670D01*
X93086799Y-370475000D01*
X94130000Y-370475000D01*
X94130000Y-370455000D01*
X94384000Y-370455000D01*
X94384000Y-370475000D01*
X94404000Y-370475000D01*
X94404000Y-370729000D01*
X94384000Y-370729000D01*
X94384000Y-371771374D01*
X94522002Y-371853870D01*
X94522001Y-374129678D01*
X94518325Y-374167001D01*
X94522001Y-374204323D01*
X94522001Y-374204333D01*
X94532998Y-374315986D01*
X94572441Y-374446014D01*
X94576455Y-374459247D01*
X94647027Y-374591277D01*
X94680720Y-374632331D01*
X94742000Y-374707002D01*
X94771004Y-374730805D01*
X96927198Y-376887000D01*
X96665514Y-376887000D01*
X96558158Y-376908355D01*
X90585132Y-370935330D01*
X92964278Y-370935330D01*
X93054147Y-371181123D01*
X93190241Y-371404660D01*
X93367330Y-371597351D01*
X93578608Y-371751792D01*
X93815956Y-371862047D01*
X93923671Y-371894716D01*
X94130000Y-371771374D01*
X94130000Y-370729000D01*
X93086799Y-370729000D01*
X92964278Y-370935330D01*
X90585132Y-370935330D01*
X88944339Y-369294538D01*
X89050000Y-369231374D01*
X89050000Y-368189000D01*
X89304000Y-368189000D01*
X89304000Y-369231374D01*
X89510329Y-369354716D01*
X89618044Y-369322047D01*
X89855392Y-369211792D01*
X90066670Y-369057351D01*
X90243759Y-368864660D01*
X90379853Y-368641123D01*
X90447000Y-368457475D01*
X90514147Y-368641123D01*
X90650241Y-368864660D01*
X90827330Y-369057351D01*
X91038608Y-369211792D01*
X91275956Y-369322047D01*
X91383671Y-369354716D01*
X91590000Y-369231374D01*
X91590000Y-368189000D01*
X90546799Y-368189000D01*
X90447000Y-368357065D01*
X90347201Y-368189000D01*
X89304000Y-368189000D01*
X89050000Y-368189000D01*
X89030000Y-368189000D01*
X89030000Y-367935000D01*
X89050000Y-367935000D01*
X89050000Y-366892626D01*
X89304000Y-366892626D01*
X89304000Y-367935000D01*
X90347201Y-367935000D01*
X90447000Y-367766935D01*
X90546799Y-367935000D01*
X91590000Y-367935000D01*
X91590000Y-366892626D01*
X91383671Y-366769284D01*
X91275956Y-366801953D01*
X91038608Y-366912208D01*
X90827330Y-367066649D01*
X90650241Y-367259340D01*
X90514147Y-367482877D01*
X90447000Y-367666525D01*
X90379853Y-367482877D01*
X90243759Y-367259340D01*
X90066670Y-367066649D01*
X89855392Y-366912208D01*
X89618044Y-366801953D01*
X89510329Y-366769284D01*
X89304000Y-366892626D01*
X89050000Y-366892626D01*
X88843671Y-366769284D01*
X88735956Y-366801953D01*
X88498608Y-366912208D01*
X88422001Y-366968207D01*
X88422001Y-365257083D01*
X88425677Y-365219760D01*
X88422001Y-365182437D01*
X88422001Y-365182428D01*
X88411004Y-365070775D01*
X88367547Y-364927514D01*
X88338229Y-364872665D01*
X88296975Y-364795484D01*
X88225800Y-364708758D01*
X88202002Y-364679760D01*
X88173004Y-364655962D01*
X81989850Y-358472809D01*
X82218727Y-358378005D01*
X82447535Y-358225120D01*
X82642120Y-358030535D01*
X82795005Y-357801727D01*
X82827000Y-357724485D01*
X82858995Y-357801727D01*
X83011880Y-358030535D01*
X83206465Y-358225120D01*
X83435273Y-358378005D01*
X83689510Y-358483314D01*
X83959408Y-358537000D01*
X84234592Y-358537000D01*
X84504490Y-358483314D01*
X84758727Y-358378005D01*
X84987535Y-358225120D01*
X85182120Y-358030535D01*
X85335005Y-357801727D01*
X85367000Y-357724485D01*
X85398995Y-357801727D01*
%TA.AperFunction,Conductor*%
D32*
G36*
X85398995Y-357801727D02*
G01*
X85551880Y-358030535D01*
X85746465Y-358225120D01*
X85975273Y-358378005D01*
X86229510Y-358483314D01*
X86499408Y-358537000D01*
X86774592Y-358537000D01*
X87044490Y-358483314D01*
X87298727Y-358378005D01*
X87329999Y-358357109D01*
X87329999Y-359299457D01*
X87269359Y-359258939D01*
X87026405Y-359158304D01*
X86768486Y-359107000D01*
X86505514Y-359107000D01*
X86247595Y-359158304D01*
X86004641Y-359258939D01*
X85785987Y-359405038D01*
X85600038Y-359590987D01*
X85453939Y-359809641D01*
X85353304Y-360052595D01*
X85302000Y-360310514D01*
X85302000Y-360573486D01*
X85353304Y-360831405D01*
X85453939Y-361074359D01*
X85600038Y-361293013D01*
X85785987Y-361478962D01*
X86004641Y-361625061D01*
X86247595Y-361725696D01*
X86505514Y-361777000D01*
X86768486Y-361777000D01*
X87026405Y-361725696D01*
X87269359Y-361625061D01*
X87488013Y-361478962D01*
X87552730Y-361414245D01*
X87579002Y-361435805D01*
X92472000Y-366328804D01*
X92472000Y-366968207D01*
X92395392Y-366912208D01*
X92158044Y-366801953D01*
X92050329Y-366769284D01*
X91844000Y-366892626D01*
X91844000Y-367935000D01*
X91864000Y-367935000D01*
X91864000Y-368189000D01*
X91844000Y-368189000D01*
X91844000Y-369231374D01*
X92050329Y-369354716D01*
X92158044Y-369322047D01*
X92395392Y-369211792D01*
X92606670Y-369057351D01*
X92635857Y-369025593D01*
X92636870Y-369026827D01*
X92691998Y-369094002D01*
X92721001Y-369117804D01*
X93201199Y-369598003D01*
X93224998Y-369627002D01*
X93295472Y-369684838D01*
X93190241Y-369799340D01*
X93054147Y-370022877D01*
X92964278Y-370268670D01*
X93086799Y-370475000D01*
X94130000Y-370475000D01*
X94130000Y-370455000D01*
X94384000Y-370455000D01*
X94384000Y-370475000D01*
X94404000Y-370475000D01*
X94404000Y-370729000D01*
X94384000Y-370729000D01*
X94384000Y-371771374D01*
X94522002Y-371853870D01*
X94522001Y-374129678D01*
X94518325Y-374167001D01*
X94522001Y-374204323D01*
X94522001Y-374204333D01*
X94532998Y-374315986D01*
X94572441Y-374446014D01*
X94576455Y-374459247D01*
X94647027Y-374591277D01*
X94680720Y-374632331D01*
X94742000Y-374707002D01*
X94771004Y-374730805D01*
X96927198Y-376887000D01*
X96665514Y-376887000D01*
X96558158Y-376908355D01*
X90585132Y-370935330D01*
X92964278Y-370935330D01*
X93054147Y-371181123D01*
X93190241Y-371404660D01*
X93367330Y-371597351D01*
X93578608Y-371751792D01*
X93815956Y-371862047D01*
X93923671Y-371894716D01*
X94130000Y-371771374D01*
X94130000Y-370729000D01*
X93086799Y-370729000D01*
X92964278Y-370935330D01*
X90585132Y-370935330D01*
X88944339Y-369294538D01*
X89050000Y-369231374D01*
X89050000Y-368189000D01*
X89304000Y-368189000D01*
X89304000Y-369231374D01*
X89510329Y-369354716D01*
X89618044Y-369322047D01*
X89855392Y-369211792D01*
X90066670Y-369057351D01*
X90243759Y-368864660D01*
X90379853Y-368641123D01*
X90447000Y-368457475D01*
X90514147Y-368641123D01*
X90650241Y-368864660D01*
X90827330Y-369057351D01*
X91038608Y-369211792D01*
X91275956Y-369322047D01*
X91383671Y-369354716D01*
X91590000Y-369231374D01*
X91590000Y-368189000D01*
X90546799Y-368189000D01*
X90447000Y-368357065D01*
X90347201Y-368189000D01*
X89304000Y-368189000D01*
X89050000Y-368189000D01*
X89030000Y-368189000D01*
X89030000Y-367935000D01*
X89050000Y-367935000D01*
X89050000Y-366892626D01*
X89304000Y-366892626D01*
X89304000Y-367935000D01*
X90347201Y-367935000D01*
X90447000Y-367766935D01*
X90546799Y-367935000D01*
X91590000Y-367935000D01*
X91590000Y-366892626D01*
X91383671Y-366769284D01*
X91275956Y-366801953D01*
X91038608Y-366912208D01*
X90827330Y-367066649D01*
X90650241Y-367259340D01*
X90514147Y-367482877D01*
X90447000Y-367666525D01*
X90379853Y-367482877D01*
X90243759Y-367259340D01*
X90066670Y-367066649D01*
X89855392Y-366912208D01*
X89618044Y-366801953D01*
X89510329Y-366769284D01*
X89304000Y-366892626D01*
X89050000Y-366892626D01*
X88843671Y-366769284D01*
X88735956Y-366801953D01*
X88498608Y-366912208D01*
X88422001Y-366968207D01*
X88422001Y-365257083D01*
X88425677Y-365219760D01*
X88422001Y-365182437D01*
X88422001Y-365182428D01*
X88411004Y-365070775D01*
X88367547Y-364927514D01*
X88338229Y-364872665D01*
X88296975Y-364795484D01*
X88225800Y-364708758D01*
X88202002Y-364679760D01*
X88173004Y-364655962D01*
X81989850Y-358472809D01*
X82218727Y-358378005D01*
X82447535Y-358225120D01*
X82642120Y-358030535D01*
X82795005Y-357801727D01*
X82827000Y-357724485D01*
X82858995Y-357801727D01*
X83011880Y-358030535D01*
X83206465Y-358225120D01*
X83435273Y-358378005D01*
X83689510Y-358483314D01*
X83959408Y-358537000D01*
X84234592Y-358537000D01*
X84504490Y-358483314D01*
X84758727Y-358378005D01*
X84987535Y-358225120D01*
X85182120Y-358030535D01*
X85335005Y-357801727D01*
X85367000Y-357724485D01*
X85398995Y-357801727D01*
G37*
%TD.AperFunction*%
D31*
X98098995Y-357801727D02*
X98251880Y-358030535D01*
X98446465Y-358225120D01*
X98675273Y-358378005D01*
X98929510Y-358483314D01*
X99199408Y-358537000D01*
X99474592Y-358537000D01*
X99744490Y-358483314D01*
X99998727Y-358378005D01*
X100029999Y-358357109D01*
X100029999Y-369462886D01*
X100015392Y-369452208D01*
X99778044Y-369341953D01*
X99670329Y-369309284D01*
X99464000Y-369432626D01*
X99464000Y-370475000D01*
X99484000Y-370475000D01*
X99484000Y-370729000D01*
X99464000Y-370729000D01*
X99464000Y-371771374D01*
X99670329Y-371894716D01*
X99778044Y-371862047D01*
X100015392Y-371751792D01*
X100029999Y-371741114D01*
X100029999Y-374557677D01*
X100026323Y-374594999D01*
X100029999Y-374632321D01*
X100029999Y-374632331D01*
X100040996Y-374743984D01*
X100084453Y-374887245D01*
X100155025Y-375019275D01*
X100194870Y-375067825D01*
X100249998Y-375135000D01*
X100279002Y-375158803D01*
X102007199Y-376887000D01*
X101745514Y-376887000D01*
X101638157Y-376908355D01*
X98582001Y-373852200D01*
X98582001Y-371695793D01*
X98658608Y-371751792D01*
X98895956Y-371862047D01*
X99003671Y-371894716D01*
X99210000Y-371771374D01*
X99210000Y-370729000D01*
X99190000Y-370729000D01*
X99190000Y-370475000D01*
X99210000Y-370475000D01*
X99210000Y-369432626D01*
X99003671Y-369309284D01*
X98895956Y-369341953D01*
X98658608Y-369452208D01*
X98582001Y-369508207D01*
X98582001Y-369124323D01*
X98585677Y-369087000D01*
X98582001Y-369049677D01*
X98582001Y-369049668D01*
X98571004Y-368938015D01*
X98527547Y-368794754D01*
X98478496Y-368702987D01*
X98456975Y-368662724D01*
X98385800Y-368575998D01*
X98362002Y-368547000D01*
X98333004Y-368523202D01*
X91586801Y-361777000D01*
X91848486Y-361777000D01*
X92106405Y-361725696D01*
X92349359Y-361625061D01*
X92568013Y-361478962D01*
X92753962Y-361293013D01*
X92900061Y-361074359D01*
X92987000Y-360864470D01*
X93073939Y-361074359D01*
X93220038Y-361293013D01*
X93405987Y-361478962D01*
X93624641Y-361625061D01*
X93867595Y-361725696D01*
X94125514Y-361777000D01*
X94388486Y-361777000D01*
X94646405Y-361725696D01*
X94889359Y-361625061D01*
X95108013Y-361478962D01*
X95293962Y-361293013D01*
X95440061Y-361074359D01*
X95540696Y-360831405D01*
X95592000Y-360573486D01*
X95592000Y-360310514D01*
X95540696Y-360052595D01*
X95440061Y-359809641D01*
X95293962Y-359590987D01*
X95108013Y-359405038D01*
X94889359Y-359258939D01*
X94646405Y-359158304D01*
X94388486Y-359107000D01*
X94125514Y-359107000D01*
X93867595Y-359158304D01*
X93624641Y-359258939D01*
X93405987Y-359405038D01*
X93220038Y-359590987D01*
X93073939Y-359809641D01*
X92987000Y-360019530D01*
X92900061Y-359809641D01*
X92753962Y-359590987D01*
X92568013Y-359405038D01*
X92349359Y-359258939D01*
X92106405Y-359158304D01*
X91848486Y-359107000D01*
X91585514Y-359107000D01*
X91327595Y-359158304D01*
X91084641Y-359258939D01*
X91024001Y-359299457D01*
X91024001Y-358357110D01*
X91055273Y-358378005D01*
X91309510Y-358483314D01*
X91579408Y-358537000D01*
X91854592Y-358537000D01*
X92124490Y-358483314D01*
X92378727Y-358378005D01*
X92607535Y-358225120D01*
X92802120Y-358030535D01*
X92955005Y-357801727D01*
X92987000Y-357724485D01*
X93018995Y-357801727D01*
X93171880Y-358030535D01*
X93366465Y-358225120D01*
X93595273Y-358378005D01*
X93849510Y-358483314D01*
X94119408Y-358537000D01*
X94394592Y-358537000D01*
X94664490Y-358483314D01*
X94918727Y-358378005D01*
X95147535Y-358225120D01*
X95342120Y-358030535D01*
X95495005Y-357801727D01*
X95527000Y-357724485D01*
X95558995Y-357801727D01*
X95711880Y-358030535D01*
X95906465Y-358225120D01*
X96135273Y-358378005D01*
X96389510Y-358483314D01*
X96659408Y-358537000D01*
X96934592Y-358537000D01*
X97204490Y-358483314D01*
X97458727Y-358378005D01*
X97687535Y-358225120D01*
X97882120Y-358030535D01*
X98035005Y-357801727D01*
X98067000Y-357724485D01*
X98098995Y-357801727D01*
%TA.AperFunction,Conductor*%
D32*
G36*
X98098995Y-357801727D02*
G01*
X98251880Y-358030535D01*
X98446465Y-358225120D01*
X98675273Y-358378005D01*
X98929510Y-358483314D01*
X99199408Y-358537000D01*
X99474592Y-358537000D01*
X99744490Y-358483314D01*
X99998727Y-358378005D01*
X100029999Y-358357109D01*
X100029999Y-369462886D01*
X100015392Y-369452208D01*
X99778044Y-369341953D01*
X99670329Y-369309284D01*
X99464000Y-369432626D01*
X99464000Y-370475000D01*
X99484000Y-370475000D01*
X99484000Y-370729000D01*
X99464000Y-370729000D01*
X99464000Y-371771374D01*
X99670329Y-371894716D01*
X99778044Y-371862047D01*
X100015392Y-371751792D01*
X100029999Y-371741114D01*
X100029999Y-374557677D01*
X100026323Y-374594999D01*
X100029999Y-374632321D01*
X100029999Y-374632331D01*
X100040996Y-374743984D01*
X100084453Y-374887245D01*
X100155025Y-375019275D01*
X100194870Y-375067825D01*
X100249998Y-375135000D01*
X100279002Y-375158803D01*
X102007199Y-376887000D01*
X101745514Y-376887000D01*
X101638157Y-376908355D01*
X98582001Y-373852200D01*
X98582001Y-371695793D01*
X98658608Y-371751792D01*
X98895956Y-371862047D01*
X99003671Y-371894716D01*
X99210000Y-371771374D01*
X99210000Y-370729000D01*
X99190000Y-370729000D01*
X99190000Y-370475000D01*
X99210000Y-370475000D01*
X99210000Y-369432626D01*
X99003671Y-369309284D01*
X98895956Y-369341953D01*
X98658608Y-369452208D01*
X98582001Y-369508207D01*
X98582001Y-369124323D01*
X98585677Y-369087000D01*
X98582001Y-369049677D01*
X98582001Y-369049668D01*
X98571004Y-368938015D01*
X98527547Y-368794754D01*
X98478496Y-368702987D01*
X98456975Y-368662724D01*
X98385800Y-368575998D01*
X98362002Y-368547000D01*
X98333004Y-368523202D01*
X91586801Y-361777000D01*
X91848486Y-361777000D01*
X92106405Y-361725696D01*
X92349359Y-361625061D01*
X92568013Y-361478962D01*
X92753962Y-361293013D01*
X92900061Y-361074359D01*
X92987000Y-360864470D01*
X93073939Y-361074359D01*
X93220038Y-361293013D01*
X93405987Y-361478962D01*
X93624641Y-361625061D01*
X93867595Y-361725696D01*
X94125514Y-361777000D01*
X94388486Y-361777000D01*
X94646405Y-361725696D01*
X94889359Y-361625061D01*
X95108013Y-361478962D01*
X95293962Y-361293013D01*
X95440061Y-361074359D01*
X95540696Y-360831405D01*
X95592000Y-360573486D01*
X95592000Y-360310514D01*
X95540696Y-360052595D01*
X95440061Y-359809641D01*
X95293962Y-359590987D01*
X95108013Y-359405038D01*
X94889359Y-359258939D01*
X94646405Y-359158304D01*
X94388486Y-359107000D01*
X94125514Y-359107000D01*
X93867595Y-359158304D01*
X93624641Y-359258939D01*
X93405987Y-359405038D01*
X93220038Y-359590987D01*
X93073939Y-359809641D01*
X92987000Y-360019530D01*
X92900061Y-359809641D01*
X92753962Y-359590987D01*
X92568013Y-359405038D01*
X92349359Y-359258939D01*
X92106405Y-359158304D01*
X91848486Y-359107000D01*
X91585514Y-359107000D01*
X91327595Y-359158304D01*
X91084641Y-359258939D01*
X91024001Y-359299457D01*
X91024001Y-358357110D01*
X91055273Y-358378005D01*
X91309510Y-358483314D01*
X91579408Y-358537000D01*
X91854592Y-358537000D01*
X92124490Y-358483314D01*
X92378727Y-358378005D01*
X92607535Y-358225120D01*
X92802120Y-358030535D01*
X92955005Y-357801727D01*
X92987000Y-357724485D01*
X93018995Y-357801727D01*
X93171880Y-358030535D01*
X93366465Y-358225120D01*
X93595273Y-358378005D01*
X93849510Y-358483314D01*
X94119408Y-358537000D01*
X94394592Y-358537000D01*
X94664490Y-358483314D01*
X94918727Y-358378005D01*
X95147535Y-358225120D01*
X95342120Y-358030535D01*
X95495005Y-357801727D01*
X95527000Y-357724485D01*
X95558995Y-357801727D01*
X95711880Y-358030535D01*
X95906465Y-358225120D01*
X96135273Y-358378005D01*
X96389510Y-358483314D01*
X96659408Y-358537000D01*
X96934592Y-358537000D01*
X97204490Y-358483314D01*
X97458727Y-358378005D01*
X97687535Y-358225120D01*
X97882120Y-358030535D01*
X98035005Y-357801727D01*
X98067000Y-357724485D01*
X98098995Y-357801727D01*
G37*
%TD.AperFunction*%
%TD*%
D33*
X151904000Y-307131123D02*
X151900565Y-307166000D01*
X151914273Y-307305184D01*
X151954872Y-307439020D01*
X151979000Y-307484160D01*
X151979000Y-307674000D01*
X151981440Y-307698776D01*
X151988667Y-307722601D01*
X152000403Y-307744557D01*
X152016197Y-307763803D01*
X152035443Y-307779597D01*
X152057399Y-307791333D01*
X152081224Y-307798560D01*
X152106000Y-307801000D01*
X152295840Y-307801000D01*
X152340980Y-307825128D01*
X152474816Y-307865727D01*
X152614000Y-307879435D01*
X152648877Y-307876000D01*
X158889001Y-307876000D01*
X158889000Y-333634000D01*
X148244000Y-333634000D01*
X148244000Y-297843000D01*
X151904001Y-297843000D01*
X151904000Y-307131123D01*
%TA.AperFunction,NonConductor*%
D34*
G36*
X151904000Y-307131123D02*
G01*
X151900565Y-307166000D01*
X151914273Y-307305184D01*
X151954872Y-307439020D01*
X151979000Y-307484160D01*
X151979000Y-307674000D01*
X151981440Y-307698776D01*
X151988667Y-307722601D01*
X152000403Y-307744557D01*
X152016197Y-307763803D01*
X152035443Y-307779597D01*
X152057399Y-307791333D01*
X152081224Y-307798560D01*
X152106000Y-307801000D01*
X152295840Y-307801000D01*
X152340980Y-307825128D01*
X152474816Y-307865727D01*
X152614000Y-307879435D01*
X152648877Y-307876000D01*
X158889001Y-307876000D01*
X158889000Y-333634000D01*
X148244000Y-333634000D01*
X148244000Y-297843000D01*
X151904001Y-297843000D01*
X151904000Y-307131123D01*
G37*
%TD.AperFunction*%
D31*
%TO.N,Net-(X28-PadL1.1)*%
X152270001Y-355189000D02*
X148637000Y-355189000D01*
X148637000Y-336443000D01*
X152270000Y-336443000D01*
X152270001Y-355189000D01*
%TA.AperFunction,Conductor*%
D32*
G36*
X152270001Y-355189000D02*
G01*
X148637000Y-355189000D01*
X148637000Y-336443000D01*
X152270000Y-336443000D01*
X152270001Y-355189000D01*
G37*
%TD.AperFunction*%
%TD*%
D31*
%TO.N,Net-(U3-Pad1)*%
X156768000Y-383055000D02*
X148665000Y-383055000D01*
X148665000Y-357705000D01*
X156768000Y-357705000D01*
X156768000Y-383055000D01*
%TA.AperFunction,Conductor*%
D32*
G36*
X156768000Y-383055000D02*
G01*
X148665000Y-383055000D01*
X148665000Y-357705000D01*
X156768000Y-357705000D01*
X156768000Y-383055000D01*
G37*
%TD.AperFunction*%
%TD*%
M02*
