%TF.GenerationSoftware,KiCad,Pcbnew,5.1.7-a382d34a8~88~ubuntu20.04.1*%
%TF.CreationDate,2021-03-09T09:32:07+01:00*%
%TF.ProjectId,narcise-redux,6e617263-6973-4652-9d72-656475782e6b,rev?*%
%TF.SameCoordinates,Original*%
%TF.FileFunction,Soldermask,Bot*%
%TF.FilePolarity,Negative*%
%FSLAX46Y46*%
G04 Gerber Fmt 4.6, Leading zero omitted, Abs format (unit mm)*
G04 Created by KiCad (PCBNEW 5.1.7-a382d34a8~88~ubuntu20.04.1) date 2021-03-09 09:32:07*
%MOMM*%
%LPD*%
G01*
G04 APERTURE LIST*
%ADD10C,0.100000*%
%ADD11C,0.150000*%
%ADD12C,5.000000*%
%ADD13C,0.800000*%
%ADD14C,8.600000*%
%ADD15C,0.900000*%
%ADD16O,1.400000X1.400000*%
%ADD17C,1.400000*%
%ADD18O,1.905000X2.000000*%
%ADD19R,1.905000X2.000000*%
%ADD20O,3.500000X3.500000*%
%ADD21O,3.500000X2.500000*%
%ADD22O,2.500000X3.500000*%
%ADD23C,2.500000*%
%ADD24C,1.524000*%
%ADD25R,1.800000X1.800000*%
%ADD26C,1.800000*%
%ADD27C,1.600000*%
%ADD28R,1.524000X1.524000*%
%ADD29O,2.200000X2.200000*%
%ADD30R,2.200000X2.200000*%
%ADD31C,0.254000*%
G04 APERTURE END LIST*
D10*
G36*
X28956000Y-86106000D02*
G01*
X20828000Y-86106000D01*
X20828000Y-60706000D01*
X28956000Y-60706000D01*
X28956000Y-86106000D01*
G37*
X28956000Y-86106000D02*
X20828000Y-86106000D01*
X20828000Y-60706000D01*
X28956000Y-60706000D01*
X28956000Y-86106000D01*
G36*
X124333000Y-224155000D02*
G01*
X116205000Y-224155000D01*
X116205000Y-198755000D01*
X124333000Y-198755000D01*
X124333000Y-224155000D01*
G37*
X124333000Y-224155000D02*
X116205000Y-224155000D01*
X116205000Y-198755000D01*
X124333000Y-198755000D01*
X124333000Y-224155000D01*
G36*
X113538000Y-224282000D02*
G01*
X105410000Y-224282000D01*
X105410000Y-198882000D01*
X113538000Y-198882000D01*
X113538000Y-224282000D01*
G37*
X113538000Y-224282000D02*
X105410000Y-224282000D01*
X105410000Y-198882000D01*
X113538000Y-198882000D01*
X113538000Y-224282000D01*
G36*
X102997000Y-224155000D02*
G01*
X94869000Y-224155000D01*
X94869000Y-198755000D01*
X102997000Y-198755000D01*
X102997000Y-224155000D01*
G37*
X102997000Y-224155000D02*
X94869000Y-224155000D01*
X94869000Y-198755000D01*
X102997000Y-198755000D01*
X102997000Y-224155000D01*
G36*
X73787000Y-222504000D02*
G01*
X65659000Y-222504000D01*
X65659000Y-197104000D01*
X73787000Y-197104000D01*
X73787000Y-222504000D01*
G37*
X73787000Y-222504000D02*
X65659000Y-222504000D01*
X65659000Y-197104000D01*
X73787000Y-197104000D01*
X73787000Y-222504000D01*
G36*
X73787000Y-195580000D02*
G01*
X65659000Y-195580000D01*
X65659000Y-170180000D01*
X73787000Y-170180000D01*
X73787000Y-195580000D01*
G37*
X73787000Y-195580000D02*
X65659000Y-195580000D01*
X65659000Y-170180000D01*
X73787000Y-170180000D01*
X73787000Y-195580000D01*
D11*
X93472000Y-57658000D02*
X74041000Y-57658000D01*
X73660000Y-64262000D02*
X73660000Y-60071000D01*
X74168000Y-53467000D02*
X93472000Y-53467000D01*
X73787000Y-60071000D02*
X93091000Y-60071000D01*
X74041000Y-53467000D02*
X74168000Y-53467000D01*
X73660000Y-60071000D02*
X73787000Y-60071000D01*
X93091000Y-60071000D02*
X93091000Y-64262000D01*
X93091000Y-64262000D02*
X73660000Y-64262000D01*
X93472000Y-53467000D02*
X93472000Y-57658000D01*
X74041000Y-57658000D02*
X74041000Y-53467000D01*
D10*
G36*
X64135000Y-206502000D02*
G01*
X60071000Y-206502000D01*
X60071000Y-196342000D01*
X52959000Y-196342000D01*
X52959000Y-170053000D01*
X64135000Y-170053000D01*
X64135000Y-206502000D01*
G37*
X64135000Y-206502000D02*
X60071000Y-206502000D01*
X60071000Y-196342000D01*
X52959000Y-196342000D01*
X52959000Y-170053000D01*
X64135000Y-170053000D01*
X64135000Y-206502000D01*
G36*
X92710000Y-206883000D02*
G01*
X88646000Y-206883000D01*
X88646000Y-196723000D01*
X81534000Y-196723000D01*
X81534000Y-170434000D01*
X92710000Y-170434000D01*
X92710000Y-206883000D01*
G37*
X92710000Y-206883000D02*
X88646000Y-206883000D01*
X88646000Y-196723000D01*
X81534000Y-196723000D01*
X81534000Y-170434000D01*
X92710000Y-170434000D01*
X92710000Y-206883000D01*
G36*
X79756000Y-198374000D02*
G01*
X86868000Y-198374000D01*
X86868000Y-224663000D01*
X75692000Y-224663000D01*
X75692000Y-188214000D01*
X79756000Y-188214000D01*
X79756000Y-198374000D01*
G37*
X79756000Y-198374000D02*
X86868000Y-198374000D01*
X86868000Y-224663000D01*
X75692000Y-224663000D01*
X75692000Y-188214000D01*
X79756000Y-188214000D01*
X79756000Y-198374000D01*
G36*
X51308000Y-198120000D02*
G01*
X58420000Y-198120000D01*
X58420000Y-224409000D01*
X47244000Y-224409000D01*
X47244000Y-187960000D01*
X51308000Y-187960000D01*
X51308000Y-198120000D01*
G37*
X51308000Y-198120000D02*
X58420000Y-198120000D01*
X58420000Y-224409000D01*
X47244000Y-224409000D01*
X47244000Y-187960000D01*
X51308000Y-187960000D01*
X51308000Y-198120000D01*
D12*
%TO.C,REF\u002A\u002A*%
X95122000Y-284725000D03*
D13*
X95122000Y-282850000D03*
X96447825Y-283399175D03*
X96997000Y-284725000D03*
X96447825Y-286050825D03*
X95122000Y-286600000D03*
X93796175Y-286050825D03*
X93247000Y-284725000D03*
X93796175Y-283399175D03*
%TD*%
%TO.C,REF\u002A\u002A*%
X78937175Y-283399175D03*
X78388000Y-284725000D03*
X78937175Y-286050825D03*
X80263000Y-286600000D03*
X81588825Y-286050825D03*
X82138000Y-284725000D03*
X81588825Y-283399175D03*
X80263000Y-282850000D03*
D12*
X80263000Y-284725000D03*
%TD*%
%TO.C,REF\u002A\u002A*%
X144793000Y-292577000D03*
D13*
X146668000Y-292577000D03*
X146118825Y-293902825D03*
X144793000Y-294452000D03*
X143467175Y-293902825D03*
X142918000Y-292577000D03*
X143467175Y-291251175D03*
X144793000Y-290702000D03*
X146118825Y-291251175D03*
%TD*%
%TO.C,REF\u002A\u002A*%
X146118825Y-273090175D03*
X144793000Y-272541000D03*
X143467175Y-273090175D03*
X142918000Y-274416000D03*
X143467175Y-275741825D03*
X144793000Y-276291000D03*
X146118825Y-275741825D03*
X146668000Y-274416000D03*
D12*
X144793000Y-274416000D03*
%TD*%
%TO.C,REF\u002A\u002A*%
X131378000Y-275447000D03*
D13*
X133253000Y-275447000D03*
X132703825Y-276772825D03*
X131378000Y-277322000D03*
X130052175Y-276772825D03*
X129503000Y-275447000D03*
X130052175Y-274121175D03*
X131378000Y-273572000D03*
X132703825Y-274121175D03*
%TD*%
%TO.C,REF\u002A\u002A*%
X105906825Y-274375175D03*
X104581000Y-273826000D03*
X103255175Y-274375175D03*
X102706000Y-275701000D03*
X103255175Y-277026825D03*
X104581000Y-277576000D03*
X105906825Y-277026825D03*
X106456000Y-275701000D03*
D12*
X104581000Y-275701000D03*
%TD*%
D14*
%TO.C,REF\u002A\u002A*%
X36599000Y-301006000D03*
D15*
X39824000Y-301006000D03*
X38879419Y-303286419D03*
X36599000Y-304231000D03*
X34318581Y-303286419D03*
X33374000Y-301006000D03*
X34318581Y-298725581D03*
X36599000Y-297781000D03*
X38879419Y-298725581D03*
%TD*%
D14*
%TO.C,REF\u002A\u002A*%
X128039000Y-301006000D03*
D15*
X131264000Y-301006000D03*
X130319419Y-303286419D03*
X128039000Y-304231000D03*
X125758581Y-303286419D03*
X124814000Y-301006000D03*
X125758581Y-298725581D03*
X128039000Y-297781000D03*
X130319419Y-298725581D03*
%TD*%
D14*
%TO.C,REF\u002A\u002A*%
X127912000Y-380254000D03*
D15*
X131137000Y-380254000D03*
X130192419Y-382534419D03*
X127912000Y-383479000D03*
X125631581Y-382534419D03*
X124687000Y-380254000D03*
X125631581Y-377973581D03*
X127912000Y-377029000D03*
X130192419Y-377973581D03*
%TD*%
%TO.C,REF\u002A\u002A*%
X39006419Y-378100581D03*
X36726000Y-377156000D03*
X34445581Y-378100581D03*
X33501000Y-380381000D03*
X34445581Y-382661419D03*
X36726000Y-383606000D03*
X39006419Y-382661419D03*
X39951000Y-380381000D03*
D14*
X36726000Y-380381000D03*
%TD*%
D16*
%TO.C,R11*%
X94257000Y-368062000D03*
D17*
X94257000Y-360442000D03*
%TD*%
D16*
%TO.C,R10*%
X91717000Y-368062000D03*
D17*
X91717000Y-360442000D03*
%TD*%
D16*
%TO.C,R9*%
X89177000Y-368062000D03*
D17*
X89177000Y-360442000D03*
%TD*%
D16*
%TO.C,R8*%
X86637000Y-368062000D03*
D17*
X86637000Y-360442000D03*
%TD*%
D16*
%TO.C,R7*%
X106957000Y-370602000D03*
D17*
X106957000Y-378222000D03*
%TD*%
D16*
%TO.C,R5*%
X104417000Y-370602000D03*
D17*
X104417000Y-378222000D03*
%TD*%
D16*
%TO.C,R4*%
X101877000Y-370602000D03*
D17*
X101877000Y-378222000D03*
%TD*%
D16*
%TO.C,R3*%
X99337000Y-370602000D03*
D17*
X99337000Y-378222000D03*
%TD*%
D16*
%TO.C,R2*%
X96797000Y-370602000D03*
D17*
X96797000Y-378222000D03*
%TD*%
D18*
%TO.C,Q11*%
X94511000Y-331486000D03*
X97051000Y-331486000D03*
D19*
X99591000Y-331486000D03*
D20*
X97051000Y-348146000D03*
%TD*%
D18*
%TO.C,Q10*%
X83335000Y-331486000D03*
X85875000Y-331486000D03*
D19*
X88415000Y-331486000D03*
D20*
X85875000Y-348146000D03*
%TD*%
D18*
%TO.C,Q9*%
X72413000Y-331486000D03*
X74953000Y-331486000D03*
D19*
X77493000Y-331486000D03*
D20*
X74953000Y-348146000D03*
%TD*%
D18*
%TO.C,Q8*%
X61491000Y-331486000D03*
X64031000Y-331486000D03*
D19*
X66571000Y-331486000D03*
D20*
X64031000Y-348146000D03*
%TD*%
D18*
%TO.C,Q7*%
X50315000Y-331486000D03*
X52855000Y-331486000D03*
D19*
X55395000Y-331486000D03*
D20*
X52855000Y-348146000D03*
%TD*%
D18*
%TO.C,Q5*%
X91209000Y-308880000D03*
X93749000Y-308880000D03*
D19*
X96289000Y-308880000D03*
D20*
X93749000Y-325540000D03*
%TD*%
D18*
%TO.C,Q4*%
X79779000Y-308880000D03*
X82319000Y-308880000D03*
D19*
X84859000Y-308880000D03*
D20*
X82319000Y-325540000D03*
%TD*%
D18*
%TO.C,Q3*%
X68238000Y-308881000D03*
X70778000Y-308881000D03*
D19*
X73318000Y-308881000D03*
D20*
X70778000Y-325541000D03*
%TD*%
D18*
%TO.C,Q2*%
X57099000Y-308939000D03*
X59639000Y-308939000D03*
D19*
X62179000Y-308939000D03*
D20*
X59639000Y-325599000D03*
%TD*%
D21*
%TO.C,U21*%
X60983000Y-378222000D03*
D22*
X56183000Y-378722000D03*
X65783000Y-378722000D03*
D23*
X60983000Y-372222000D03*
X60983000Y-381472000D03*
%TD*%
D24*
%TO.C,U11*%
X76477000Y-357140000D03*
X79017000Y-357140000D03*
X81557000Y-357140000D03*
X84097000Y-357140000D03*
X86637000Y-357140000D03*
X89177000Y-357140000D03*
X91717000Y-357140000D03*
X94257000Y-357140000D03*
X96797000Y-357140000D03*
X99337000Y-357140000D03*
X101877000Y-357140000D03*
X104417000Y-357140000D03*
X106957000Y-357140000D03*
X109497000Y-357140000D03*
X112037000Y-357140000D03*
X112037000Y-382032000D03*
X109497000Y-382032000D03*
X109497000Y-382032000D03*
X106957000Y-382032000D03*
X104417000Y-382032000D03*
X101877000Y-382032000D03*
X99337000Y-382032000D03*
X96797000Y-382032000D03*
X94257000Y-382032000D03*
X91717000Y-382032000D03*
X89177000Y-382032000D03*
X86637000Y-382032000D03*
X84097000Y-382032000D03*
X81557000Y-382032000D03*
X79017000Y-382032000D03*
X76477000Y-382032000D03*
%TD*%
D25*
%TO.C,U10*%
X63523000Y-358156000D03*
D26*
X60983000Y-358156000D03*
X58443000Y-358156000D03*
%TD*%
D16*
%TO.C,R6*%
X41171000Y-367173000D03*
D17*
X41171000Y-374793000D03*
%TD*%
D16*
%TO.C,R1*%
X94257000Y-370602000D03*
D17*
X94257000Y-378222000D03*
%TD*%
D18*
%TO.C,Q6*%
X51459000Y-374259000D03*
X48919000Y-374259000D03*
D19*
X46379000Y-374259000D03*
D20*
X48919000Y-357599000D03*
%TD*%
D18*
%TO.C,Q1*%
X45856000Y-308835000D03*
X48396000Y-308835000D03*
D19*
X50936000Y-308835000D03*
D20*
X48396000Y-325495000D03*
%TD*%
D27*
%TO.C,Murata-Ceramic-Capacitor-50v1-22uF2*%
X58189000Y-367514000D03*
X58189000Y-365014000D03*
%TD*%
%TO.C,Murata-Ceramic-Capacitor-50v1-22uF1*%
X64285000Y-365054000D03*
X64285000Y-367554000D03*
%TD*%
D24*
%TO.C,J8*%
X129600000Y-287156400D03*
X129600000Y-282305000D03*
X127060000Y-287156400D03*
X127060000Y-282305000D03*
X124520000Y-287156400D03*
X124520000Y-282305000D03*
X121980000Y-287156400D03*
X121980000Y-282305000D03*
X119440000Y-287156400D03*
X119440000Y-282305000D03*
X116900000Y-287156400D03*
X116900000Y-282305000D03*
X114360000Y-287156400D03*
X114360000Y-282305000D03*
X111820000Y-287156400D03*
X111820000Y-282305000D03*
X109280000Y-287156400D03*
X109280000Y-282305000D03*
X106740000Y-287156400D03*
D28*
X106740000Y-282305000D03*
%TD*%
D29*
%TO.C,D1*%
X44759000Y-380508000D03*
D30*
X52379000Y-380508000D03*
%TD*%
D31*
X146290505Y-383102000D02*
X136638505Y-383102000D01*
X136638505Y-297377000D01*
X146290505Y-297377000D01*
X146290505Y-383102000D01*
D10*
G36*
X146290505Y-383102000D02*
G01*
X136638505Y-383102000D01*
X136638505Y-297377000D01*
X146290505Y-297377000D01*
X146290505Y-383102000D01*
G37*
D31*
X152423000Y-355323000D02*
X148477000Y-355323000D01*
X148477000Y-336302000D01*
X152423000Y-336302000D01*
X152423000Y-355323000D01*
D10*
G36*
X152423000Y-355323000D02*
G01*
X148477000Y-355323000D01*
X148477000Y-336302000D01*
X152423000Y-336302000D01*
X152423000Y-355323000D01*
G37*
D31*
X156773000Y-383198000D02*
X148502000Y-383198000D01*
X148502000Y-357677000D01*
X156773000Y-357677000D01*
X156773000Y-383198000D01*
D10*
G36*
X156773000Y-383198000D02*
G01*
X148502000Y-383198000D01*
X148502000Y-357677000D01*
X156773000Y-357677000D01*
X156773000Y-383198000D01*
G37*
M02*
