%TF.GenerationSoftware,KiCad,Pcbnew,5.1.7-a382d34a8~88~ubuntu20.04.1*%
%TF.CreationDate,2021-03-09T09:32:07+01:00*%
%TF.ProjectId,narcise-redux,6e617263-6973-4652-9d72-656475782e6b,rev?*%
%TF.SameCoordinates,Original*%
%TF.FileFunction,Legend,Top*%
%TF.FilePolarity,Positive*%
%FSLAX46Y46*%
G04 Gerber Fmt 4.6, Leading zero omitted, Abs format (unit mm)*
G04 Created by KiCad (PCBNEW 5.1.7-a382d34a8~88~ubuntu20.04.1) date 2021-03-09 09:32:07*
%MOMM*%
%LPD*%
G01*
G04 APERTURE LIST*
%ADD10C,0.300000*%
%ADD11C,0.150000*%
%ADD12C,0.010000*%
%ADD13C,0.200000*%
%ADD14C,0.120000*%
%ADD15C,0.400000*%
%ADD16C,0.127000*%
%ADD17C,0.015000*%
G04 APERTURE END LIST*
D10*
X138129571Y-382372000D02*
X138129571Y-381514857D01*
X139629571Y-381943428D02*
X138129571Y-381943428D01*
X139629571Y-381014857D02*
X138129571Y-381014857D01*
X139629571Y-380372000D02*
X138843857Y-380372000D01*
X138701000Y-380443428D01*
X138629571Y-380586285D01*
X138629571Y-380800571D01*
X138701000Y-380943428D01*
X138772428Y-381014857D01*
X139629571Y-379657714D02*
X138629571Y-379657714D01*
X138915285Y-379657714D02*
X138772428Y-379586285D01*
X138701000Y-379514857D01*
X138629571Y-379372000D01*
X138629571Y-379229142D01*
X139629571Y-378514857D02*
X139558142Y-378657714D01*
X139486714Y-378729142D01*
X139343857Y-378800571D01*
X138915285Y-378800571D01*
X138772428Y-378729142D01*
X138701000Y-378657714D01*
X138629571Y-378514857D01*
X138629571Y-378300571D01*
X138701000Y-378157714D01*
X138772428Y-378086285D01*
X138915285Y-378014857D01*
X139343857Y-378014857D01*
X139486714Y-378086285D01*
X139558142Y-378157714D01*
X139629571Y-378300571D01*
X139629571Y-378514857D01*
X138629571Y-376729142D02*
X139629571Y-376729142D01*
X138629571Y-377372000D02*
X139415285Y-377372000D01*
X139558142Y-377300571D01*
X139629571Y-377157714D01*
X139629571Y-376943428D01*
X139558142Y-376800571D01*
X139486714Y-376729142D01*
X138629571Y-375372000D02*
X139843857Y-375372000D01*
X139986714Y-375443428D01*
X140058142Y-375514857D01*
X140129571Y-375657714D01*
X140129571Y-375872000D01*
X140058142Y-376014857D01*
X139558142Y-375372000D02*
X139629571Y-375514857D01*
X139629571Y-375800571D01*
X139558142Y-375943428D01*
X139486714Y-376014857D01*
X139343857Y-376086285D01*
X138915285Y-376086285D01*
X138772428Y-376014857D01*
X138701000Y-375943428D01*
X138629571Y-375800571D01*
X138629571Y-375514857D01*
X138701000Y-375372000D01*
X139629571Y-374657714D02*
X138129571Y-374657714D01*
X139629571Y-374014857D02*
X138843857Y-374014857D01*
X138701000Y-374086285D01*
X138629571Y-374229142D01*
X138629571Y-374443428D01*
X138701000Y-374586285D01*
X138772428Y-374657714D01*
X138629571Y-372157714D02*
X139629571Y-372157714D01*
X138772428Y-372157714D02*
X138701000Y-372086285D01*
X138629571Y-371943428D01*
X138629571Y-371729142D01*
X138701000Y-371586285D01*
X138843857Y-371514857D01*
X139629571Y-371514857D01*
X139629571Y-370586285D02*
X139558142Y-370729142D01*
X139486714Y-370800571D01*
X139343857Y-370872000D01*
X138915285Y-370872000D01*
X138772428Y-370800571D01*
X138701000Y-370729142D01*
X138629571Y-370586285D01*
X138629571Y-370372000D01*
X138701000Y-370229142D01*
X138772428Y-370157714D01*
X138915285Y-370086285D01*
X139343857Y-370086285D01*
X139486714Y-370157714D01*
X139558142Y-370229142D01*
X139629571Y-370372000D01*
X139629571Y-370586285D01*
X138629571Y-369657714D02*
X138629571Y-369086285D01*
X138129571Y-369443428D02*
X139415285Y-369443428D01*
X139558142Y-369372000D01*
X139629571Y-369229142D01*
X139629571Y-369086285D01*
X139629571Y-367229142D02*
X139558142Y-367372000D01*
X139486714Y-367443428D01*
X139343857Y-367514857D01*
X138915285Y-367514857D01*
X138772428Y-367443428D01*
X138701000Y-367372000D01*
X138629571Y-367229142D01*
X138629571Y-367014857D01*
X138701000Y-366872000D01*
X138772428Y-366800571D01*
X138915285Y-366729142D01*
X139343857Y-366729142D01*
X139486714Y-366800571D01*
X139558142Y-366872000D01*
X139629571Y-367014857D01*
X139629571Y-367229142D01*
X139629571Y-366086285D02*
X138129571Y-366086285D01*
X138701000Y-366086285D02*
X138629571Y-365943428D01*
X138629571Y-365657714D01*
X138701000Y-365514857D01*
X138772428Y-365443428D01*
X138915285Y-365372000D01*
X139343857Y-365372000D01*
X139486714Y-365443428D01*
X139558142Y-365514857D01*
X139629571Y-365657714D01*
X139629571Y-365943428D01*
X139558142Y-366086285D01*
X139558142Y-364800571D02*
X139629571Y-364657714D01*
X139629571Y-364372000D01*
X139558142Y-364229142D01*
X139415285Y-364157714D01*
X139343857Y-364157714D01*
X139201000Y-364229142D01*
X139129571Y-364372000D01*
X139129571Y-364586285D01*
X139058142Y-364729142D01*
X138915285Y-364800571D01*
X138843857Y-364800571D01*
X138701000Y-364729142D01*
X138629571Y-364586285D01*
X138629571Y-364372000D01*
X138701000Y-364229142D01*
X139558142Y-362943428D02*
X139629571Y-363086285D01*
X139629571Y-363372000D01*
X139558142Y-363514857D01*
X139415285Y-363586285D01*
X138843857Y-363586285D01*
X138701000Y-363514857D01*
X138629571Y-363372000D01*
X138629571Y-363086285D01*
X138701000Y-362943428D01*
X138843857Y-362872000D01*
X138986714Y-362872000D01*
X139129571Y-363586285D01*
X139629571Y-362229142D02*
X138629571Y-362229142D01*
X138915285Y-362229142D02*
X138772428Y-362157714D01*
X138701000Y-362086285D01*
X138629571Y-361943428D01*
X138629571Y-361800571D01*
X138629571Y-361443428D02*
X139629571Y-361086285D01*
X138629571Y-360729142D01*
X139629571Y-360157714D02*
X138629571Y-360157714D01*
X138129571Y-360157714D02*
X138201000Y-360229142D01*
X138272428Y-360157714D01*
X138201000Y-360086285D01*
X138129571Y-360157714D01*
X138272428Y-360157714D01*
X138629571Y-359443428D02*
X139629571Y-359443428D01*
X138772428Y-359443428D02*
X138701000Y-359372000D01*
X138629571Y-359229142D01*
X138629571Y-359014857D01*
X138701000Y-358872000D01*
X138843857Y-358800571D01*
X139629571Y-358800571D01*
X138629571Y-357443428D02*
X139843857Y-357443428D01*
X139986714Y-357514857D01*
X140058142Y-357586285D01*
X140129571Y-357729142D01*
X140129571Y-357943428D01*
X140058142Y-358086285D01*
X139558142Y-357443428D02*
X139629571Y-357586285D01*
X139629571Y-357872000D01*
X139558142Y-358014857D01*
X139486714Y-358086285D01*
X139343857Y-358157714D01*
X138915285Y-358157714D01*
X138772428Y-358086285D01*
X138701000Y-358014857D01*
X138629571Y-357872000D01*
X138629571Y-357586285D01*
X138701000Y-357443428D01*
X138629571Y-355729142D02*
X139629571Y-355443428D01*
X138915285Y-355157714D01*
X139629571Y-354872000D01*
X138629571Y-354586285D01*
X139629571Y-354014857D02*
X138129571Y-354014857D01*
X139629571Y-353372000D02*
X138843857Y-353372000D01*
X138701000Y-353443428D01*
X138629571Y-353586285D01*
X138629571Y-353800571D01*
X138701000Y-353943428D01*
X138772428Y-354014857D01*
X139629571Y-352014857D02*
X138843857Y-352014857D01*
X138701000Y-352086285D01*
X138629571Y-352229142D01*
X138629571Y-352514857D01*
X138701000Y-352657714D01*
X139558142Y-352014857D02*
X139629571Y-352157714D01*
X139629571Y-352514857D01*
X139558142Y-352657714D01*
X139415285Y-352729142D01*
X139272428Y-352729142D01*
X139129571Y-352657714D01*
X139058142Y-352514857D01*
X139058142Y-352157714D01*
X138986714Y-352014857D01*
X138629571Y-351514857D02*
X138629571Y-350943428D01*
X138129571Y-351300571D02*
X139415285Y-351300571D01*
X139558142Y-351229142D01*
X139629571Y-351086285D01*
X139629571Y-350943428D01*
X139629571Y-349300571D02*
X138629571Y-349300571D01*
X138129571Y-349300571D02*
X138201000Y-349372000D01*
X138272428Y-349300571D01*
X138201000Y-349229142D01*
X138129571Y-349300571D01*
X138272428Y-349300571D01*
X139558142Y-348657714D02*
X139629571Y-348514857D01*
X139629571Y-348229142D01*
X139558142Y-348086285D01*
X139415285Y-348014857D01*
X139343857Y-348014857D01*
X139201000Y-348086285D01*
X139129571Y-348229142D01*
X139129571Y-348443428D01*
X139058142Y-348586285D01*
X138915285Y-348657714D01*
X138843857Y-348657714D01*
X138701000Y-348586285D01*
X138629571Y-348443428D01*
X138629571Y-348229142D01*
X138701000Y-348086285D01*
X139629571Y-346229142D02*
X138629571Y-346229142D01*
X138129571Y-346229142D02*
X138201000Y-346300571D01*
X138272428Y-346229142D01*
X138201000Y-346157714D01*
X138129571Y-346229142D01*
X138272428Y-346229142D01*
X138629571Y-345514857D02*
X139629571Y-345514857D01*
X138772428Y-345514857D02*
X138701000Y-345443428D01*
X138629571Y-345300571D01*
X138629571Y-345086285D01*
X138701000Y-344943428D01*
X138843857Y-344872000D01*
X139629571Y-344872000D01*
X138629571Y-343229142D02*
X138629571Y-342657714D01*
X138129571Y-343014857D02*
X139415285Y-343014857D01*
X139558142Y-342943428D01*
X139629571Y-342800571D01*
X139629571Y-342657714D01*
X139629571Y-342157714D02*
X138129571Y-342157714D01*
X139629571Y-341514857D02*
X138843857Y-341514857D01*
X138701000Y-341586285D01*
X138629571Y-341729142D01*
X138629571Y-341943428D01*
X138701000Y-342086285D01*
X138772428Y-342157714D01*
X139558142Y-340229142D02*
X139629571Y-340372000D01*
X139629571Y-340657714D01*
X139558142Y-340800571D01*
X139415285Y-340872000D01*
X138843857Y-340872000D01*
X138701000Y-340800571D01*
X138629571Y-340657714D01*
X138629571Y-340372000D01*
X138701000Y-340229142D01*
X138843857Y-340157714D01*
X138986714Y-340157714D01*
X139129571Y-340872000D01*
X139629571Y-338372000D02*
X138629571Y-338372000D01*
X138772428Y-338372000D02*
X138701000Y-338300571D01*
X138629571Y-338157714D01*
X138629571Y-337943428D01*
X138701000Y-337800571D01*
X138843857Y-337729142D01*
X139629571Y-337729142D01*
X138843857Y-337729142D02*
X138701000Y-337657714D01*
X138629571Y-337514857D01*
X138629571Y-337300571D01*
X138701000Y-337157714D01*
X138843857Y-337086285D01*
X139629571Y-337086285D01*
X139629571Y-336372000D02*
X138629571Y-336372000D01*
X138129571Y-336372000D02*
X138201000Y-336443428D01*
X138272428Y-336372000D01*
X138201000Y-336300571D01*
X138129571Y-336372000D01*
X138272428Y-336372000D01*
X138629571Y-335657714D02*
X139629571Y-335657714D01*
X138772428Y-335657714D02*
X138701000Y-335586285D01*
X138629571Y-335443428D01*
X138629571Y-335229142D01*
X138701000Y-335086285D01*
X138843857Y-335014857D01*
X139629571Y-335014857D01*
X139629571Y-333657714D02*
X138129571Y-333657714D01*
X139558142Y-333657714D02*
X139629571Y-333800571D01*
X139629571Y-334086285D01*
X139558142Y-334229142D01*
X139486714Y-334300571D01*
X139343857Y-334372000D01*
X138915285Y-334372000D01*
X138772428Y-334300571D01*
X138701000Y-334229142D01*
X138629571Y-334086285D01*
X138629571Y-333800571D01*
X138701000Y-333657714D01*
X139629571Y-331586285D02*
X139558142Y-331729142D01*
X139486714Y-331800571D01*
X139343857Y-331872000D01*
X138915285Y-331872000D01*
X138772428Y-331800571D01*
X138701000Y-331729142D01*
X138629571Y-331586285D01*
X138629571Y-331372000D01*
X138701000Y-331229142D01*
X138772428Y-331157714D01*
X138915285Y-331086285D01*
X139343857Y-331086285D01*
X139486714Y-331157714D01*
X139558142Y-331229142D01*
X139629571Y-331372000D01*
X139629571Y-331586285D01*
X138629571Y-330657714D02*
X138629571Y-330086285D01*
X139629571Y-330443428D02*
X138343857Y-330443428D01*
X138201000Y-330372000D01*
X138129571Y-330229142D01*
X138129571Y-330086285D01*
X139629571Y-327800571D02*
X138843857Y-327800571D01*
X138701000Y-327872000D01*
X138629571Y-328014857D01*
X138629571Y-328300571D01*
X138701000Y-328443428D01*
X139558142Y-327800571D02*
X139629571Y-327943428D01*
X139629571Y-328300571D01*
X139558142Y-328443428D01*
X139415285Y-328514857D01*
X139272428Y-328514857D01*
X139129571Y-328443428D01*
X139058142Y-328300571D01*
X139058142Y-327943428D01*
X138986714Y-327800571D01*
X138629571Y-327086285D02*
X139629571Y-327086285D01*
X138772428Y-327086285D02*
X138701000Y-327014857D01*
X138629571Y-326872000D01*
X138629571Y-326657714D01*
X138701000Y-326514857D01*
X138843857Y-326443428D01*
X139629571Y-326443428D01*
X139629571Y-325514857D02*
X139558142Y-325657714D01*
X139486714Y-325729142D01*
X139343857Y-325800571D01*
X138915285Y-325800571D01*
X138772428Y-325729142D01*
X138701000Y-325657714D01*
X138629571Y-325514857D01*
X138629571Y-325300571D01*
X138701000Y-325157714D01*
X138772428Y-325086285D01*
X138915285Y-325014857D01*
X139343857Y-325014857D01*
X139486714Y-325086285D01*
X139558142Y-325157714D01*
X139629571Y-325300571D01*
X139629571Y-325514857D01*
X138629571Y-324586285D02*
X138629571Y-324014857D01*
X138129571Y-324372000D02*
X139415285Y-324372000D01*
X139558142Y-324300571D01*
X139629571Y-324157714D01*
X139629571Y-324014857D01*
X139629571Y-323514857D02*
X138129571Y-323514857D01*
X139629571Y-322872000D02*
X138843857Y-322872000D01*
X138701000Y-322943428D01*
X138629571Y-323086285D01*
X138629571Y-323300571D01*
X138701000Y-323443428D01*
X138772428Y-323514857D01*
X139558142Y-321586285D02*
X139629571Y-321729142D01*
X139629571Y-322014857D01*
X139558142Y-322157714D01*
X139415285Y-322229142D01*
X138843857Y-322229142D01*
X138701000Y-322157714D01*
X138629571Y-322014857D01*
X138629571Y-321729142D01*
X138701000Y-321586285D01*
X138843857Y-321514857D01*
X138986714Y-321514857D01*
X139129571Y-322229142D01*
X139629571Y-320872000D02*
X138629571Y-320872000D01*
X138915285Y-320872000D02*
X138772428Y-320800571D01*
X138701000Y-320729142D01*
X138629571Y-320586285D01*
X138629571Y-320443428D01*
X139629571Y-318157714D02*
X138843857Y-318157714D01*
X138701000Y-318229142D01*
X138629571Y-318372000D01*
X138629571Y-318657714D01*
X138701000Y-318800571D01*
X139558142Y-318157714D02*
X139629571Y-318300571D01*
X139629571Y-318657714D01*
X139558142Y-318800571D01*
X139415285Y-318872000D01*
X139272428Y-318872000D01*
X139129571Y-318800571D01*
X139058142Y-318657714D01*
X139058142Y-318300571D01*
X138986714Y-318157714D01*
X139629571Y-316300571D02*
X138629571Y-316300571D01*
X138772428Y-316300571D02*
X138701000Y-316229142D01*
X138629571Y-316086285D01*
X138629571Y-315872000D01*
X138701000Y-315729142D01*
X138843857Y-315657714D01*
X139629571Y-315657714D01*
X138843857Y-315657714D02*
X138701000Y-315586285D01*
X138629571Y-315443428D01*
X138629571Y-315229142D01*
X138701000Y-315086285D01*
X138843857Y-315014857D01*
X139629571Y-315014857D01*
X139629571Y-313657714D02*
X138843857Y-313657714D01*
X138701000Y-313729142D01*
X138629571Y-313872000D01*
X138629571Y-314157714D01*
X138701000Y-314300571D01*
X139558142Y-313657714D02*
X139629571Y-313800571D01*
X139629571Y-314157714D01*
X139558142Y-314300571D01*
X139415285Y-314372000D01*
X139272428Y-314372000D01*
X139129571Y-314300571D01*
X139058142Y-314157714D01*
X139058142Y-313800571D01*
X138986714Y-313657714D01*
X138629571Y-312943428D02*
X139629571Y-312943428D01*
X138772428Y-312943428D02*
X138701000Y-312872000D01*
X138629571Y-312729142D01*
X138629571Y-312514857D01*
X138701000Y-312372000D01*
X138843857Y-312300571D01*
X139629571Y-312300571D01*
X139629571Y-310443428D02*
X138129571Y-310443428D01*
X139629571Y-309800571D02*
X138843857Y-309800571D01*
X138701000Y-309872000D01*
X138629571Y-310014857D01*
X138629571Y-310229142D01*
X138701000Y-310372000D01*
X138772428Y-310443428D01*
X139629571Y-308443428D02*
X138843857Y-308443428D01*
X138701000Y-308514857D01*
X138629571Y-308657714D01*
X138629571Y-308943428D01*
X138701000Y-309086285D01*
X139558142Y-308443428D02*
X139629571Y-308586285D01*
X139629571Y-308943428D01*
X139558142Y-309086285D01*
X139415285Y-309157714D01*
X139272428Y-309157714D01*
X139129571Y-309086285D01*
X139058142Y-308943428D01*
X139058142Y-308586285D01*
X138986714Y-308443428D01*
X139558142Y-307800571D02*
X139629571Y-307657714D01*
X139629571Y-307372000D01*
X139558142Y-307229142D01*
X139415285Y-307157714D01*
X139343857Y-307157714D01*
X139201000Y-307229142D01*
X139129571Y-307372000D01*
X139129571Y-307586285D01*
X139058142Y-307729142D01*
X138915285Y-307800571D01*
X138843857Y-307800571D01*
X138701000Y-307729142D01*
X138629571Y-307586285D01*
X138629571Y-307372000D01*
X138701000Y-307229142D01*
X139558142Y-305443428D02*
X139629571Y-305300571D01*
X139629571Y-305014857D01*
X139558142Y-304872000D01*
X139415285Y-304800571D01*
X139343857Y-304800571D01*
X139201000Y-304872000D01*
X139129571Y-305014857D01*
X139129571Y-305229142D01*
X139058142Y-305372000D01*
X138915285Y-305443428D01*
X138843857Y-305443428D01*
X138701000Y-305372000D01*
X138629571Y-305229142D01*
X138629571Y-305014857D01*
X138701000Y-304872000D01*
X139558142Y-303586285D02*
X139629571Y-303729142D01*
X139629571Y-304014857D01*
X139558142Y-304157714D01*
X139415285Y-304229142D01*
X138843857Y-304229142D01*
X138701000Y-304157714D01*
X138629571Y-304014857D01*
X138629571Y-303729142D01*
X138701000Y-303586285D01*
X138843857Y-303514857D01*
X138986714Y-303514857D01*
X139129571Y-304229142D01*
X139629571Y-302657714D02*
X139558142Y-302800571D01*
X139415285Y-302872000D01*
X138129571Y-302872000D01*
X139629571Y-301443428D02*
X138129571Y-301443428D01*
X139558142Y-301443428D02*
X139629571Y-301586285D01*
X139629571Y-301872000D01*
X139558142Y-302014857D01*
X139486714Y-302086285D01*
X139343857Y-302157714D01*
X138915285Y-302157714D01*
X138772428Y-302086285D01*
X138701000Y-302014857D01*
X138629571Y-301872000D01*
X138629571Y-301586285D01*
X138701000Y-301443428D01*
X139629571Y-300514857D02*
X139558142Y-300657714D01*
X139486714Y-300729142D01*
X139343857Y-300800571D01*
X138915285Y-300800571D01*
X138772428Y-300729142D01*
X138701000Y-300657714D01*
X138629571Y-300514857D01*
X138629571Y-300300571D01*
X138701000Y-300157714D01*
X138772428Y-300086285D01*
X138915285Y-300014857D01*
X139343857Y-300014857D01*
X139486714Y-300086285D01*
X139558142Y-300157714D01*
X139629571Y-300300571D01*
X139629571Y-300514857D01*
X139629571Y-299372000D02*
X138629571Y-299372000D01*
X138772428Y-299372000D02*
X138701000Y-299300571D01*
X138629571Y-299157714D01*
X138629571Y-298943428D01*
X138701000Y-298800571D01*
X138843857Y-298729142D01*
X139629571Y-298729142D01*
X138843857Y-298729142D02*
X138701000Y-298657714D01*
X138629571Y-298514857D01*
X138629571Y-298300571D01*
X138701000Y-298157714D01*
X138843857Y-298086285D01*
X139629571Y-298086285D01*
X142179571Y-381657714D02*
X140679571Y-381657714D01*
X141251000Y-381657714D02*
X141179571Y-381514857D01*
X141179571Y-381229142D01*
X141251000Y-381086285D01*
X141322428Y-381014857D01*
X141465285Y-380943428D01*
X141893857Y-380943428D01*
X142036714Y-381014857D01*
X142108142Y-381086285D01*
X142179571Y-381229142D01*
X142179571Y-381514857D01*
X142108142Y-381657714D01*
X142108142Y-379729142D02*
X142179571Y-379872000D01*
X142179571Y-380157714D01*
X142108142Y-380300571D01*
X141965285Y-380372000D01*
X141393857Y-380372000D01*
X141251000Y-380300571D01*
X141179571Y-380157714D01*
X141179571Y-379872000D01*
X141251000Y-379729142D01*
X141393857Y-379657714D01*
X141536714Y-379657714D01*
X141679571Y-380372000D01*
X142108142Y-378443428D02*
X142179571Y-378586285D01*
X142179571Y-378872000D01*
X142108142Y-379014857D01*
X141965285Y-379086285D01*
X141393857Y-379086285D01*
X141251000Y-379014857D01*
X141179571Y-378872000D01*
X141179571Y-378586285D01*
X141251000Y-378443428D01*
X141393857Y-378372000D01*
X141536714Y-378372000D01*
X141679571Y-379086285D01*
X141179571Y-377729142D02*
X142179571Y-377729142D01*
X141322428Y-377729142D02*
X141251000Y-377657714D01*
X141179571Y-377514857D01*
X141179571Y-377300571D01*
X141251000Y-377157714D01*
X141393857Y-377086285D01*
X142179571Y-377086285D01*
X142108142Y-375300571D02*
X142179571Y-375157714D01*
X142179571Y-374872000D01*
X142108142Y-374729142D01*
X141965285Y-374657714D01*
X141893857Y-374657714D01*
X141751000Y-374729142D01*
X141679571Y-374872000D01*
X141679571Y-375086285D01*
X141608142Y-375229142D01*
X141465285Y-375300571D01*
X141393857Y-375300571D01*
X141251000Y-375229142D01*
X141179571Y-375086285D01*
X141179571Y-374872000D01*
X141251000Y-374729142D01*
X142108142Y-373443428D02*
X142179571Y-373586285D01*
X142179571Y-373872000D01*
X142108142Y-374014857D01*
X141965285Y-374086285D01*
X141393857Y-374086285D01*
X141251000Y-374014857D01*
X141179571Y-373872000D01*
X141179571Y-373586285D01*
X141251000Y-373443428D01*
X141393857Y-373372000D01*
X141536714Y-373372000D01*
X141679571Y-374086285D01*
X142108142Y-372157714D02*
X142179571Y-372300571D01*
X142179571Y-372586285D01*
X142108142Y-372729142D01*
X141965285Y-372800571D01*
X141393857Y-372800571D01*
X141251000Y-372729142D01*
X141179571Y-372586285D01*
X141179571Y-372300571D01*
X141251000Y-372157714D01*
X141393857Y-372086285D01*
X141536714Y-372086285D01*
X141679571Y-372800571D01*
X141179571Y-371443428D02*
X142179571Y-371443428D01*
X141322428Y-371443428D02*
X141251000Y-371372000D01*
X141179571Y-371229142D01*
X141179571Y-371014857D01*
X141251000Y-370872000D01*
X141393857Y-370800571D01*
X142179571Y-370800571D01*
X141179571Y-369157714D02*
X141179571Y-368586285D01*
X140679571Y-368943428D02*
X141965285Y-368943428D01*
X142108142Y-368872000D01*
X142179571Y-368729142D01*
X142179571Y-368586285D01*
X142179571Y-367872000D02*
X142108142Y-368014857D01*
X142036714Y-368086285D01*
X141893857Y-368157714D01*
X141465285Y-368157714D01*
X141322428Y-368086285D01*
X141251000Y-368014857D01*
X141179571Y-367872000D01*
X141179571Y-367657714D01*
X141251000Y-367514857D01*
X141322428Y-367443428D01*
X141465285Y-367372000D01*
X141893857Y-367372000D01*
X142036714Y-367443428D01*
X142108142Y-367514857D01*
X142179571Y-367657714D01*
X142179571Y-367872000D01*
X142179571Y-365586285D02*
X140679571Y-365586285D01*
X141251000Y-365586285D02*
X141179571Y-365443428D01*
X141179571Y-365157714D01*
X141251000Y-365014857D01*
X141322428Y-364943428D01*
X141465285Y-364872000D01*
X141893857Y-364872000D01*
X142036714Y-364943428D01*
X142108142Y-365014857D01*
X142179571Y-365157714D01*
X142179571Y-365443428D01*
X142108142Y-365586285D01*
X142108142Y-363657714D02*
X142179571Y-363800571D01*
X142179571Y-364086285D01*
X142108142Y-364229142D01*
X141965285Y-364300571D01*
X141393857Y-364300571D01*
X141251000Y-364229142D01*
X141179571Y-364086285D01*
X141179571Y-363800571D01*
X141251000Y-363657714D01*
X141393857Y-363586285D01*
X141536714Y-363586285D01*
X141679571Y-364300571D01*
X141179571Y-361157714D02*
X142179571Y-361157714D01*
X141179571Y-361800571D02*
X141965285Y-361800571D01*
X142108142Y-361729142D01*
X142179571Y-361586285D01*
X142179571Y-361372000D01*
X142108142Y-361229142D01*
X142036714Y-361157714D01*
X141179571Y-360443428D02*
X142179571Y-360443428D01*
X141322428Y-360443428D02*
X141251000Y-360372000D01*
X141179571Y-360229142D01*
X141179571Y-360014857D01*
X141251000Y-359872000D01*
X141393857Y-359800571D01*
X142179571Y-359800571D01*
X142179571Y-359086285D02*
X140679571Y-359086285D01*
X142179571Y-358443428D02*
X141393857Y-358443428D01*
X141251000Y-358514857D01*
X141179571Y-358657714D01*
X141179571Y-358872000D01*
X141251000Y-359014857D01*
X141322428Y-359086285D01*
X142179571Y-357086285D02*
X141393857Y-357086285D01*
X141251000Y-357157714D01*
X141179571Y-357300571D01*
X141179571Y-357586285D01*
X141251000Y-357729142D01*
X142108142Y-357086285D02*
X142179571Y-357229142D01*
X142179571Y-357586285D01*
X142108142Y-357729142D01*
X141965285Y-357800571D01*
X141822428Y-357800571D01*
X141679571Y-357729142D01*
X141608142Y-357586285D01*
X141608142Y-357229142D01*
X141536714Y-357086285D01*
X141179571Y-356372000D02*
X142679571Y-356372000D01*
X141251000Y-356372000D02*
X141179571Y-356229142D01*
X141179571Y-355943428D01*
X141251000Y-355800571D01*
X141322428Y-355729142D01*
X141465285Y-355657714D01*
X141893857Y-355657714D01*
X142036714Y-355729142D01*
X142108142Y-355800571D01*
X142179571Y-355943428D01*
X142179571Y-356229142D01*
X142108142Y-356372000D01*
X141179571Y-355014857D02*
X142679571Y-355014857D01*
X141251000Y-355014857D02*
X141179571Y-354872000D01*
X141179571Y-354586285D01*
X141251000Y-354443428D01*
X141322428Y-354372000D01*
X141465285Y-354300571D01*
X141893857Y-354300571D01*
X142036714Y-354372000D01*
X142108142Y-354443428D01*
X142179571Y-354586285D01*
X142179571Y-354872000D01*
X142108142Y-355014857D01*
X141179571Y-353800571D02*
X142179571Y-353443428D01*
X141179571Y-353086285D02*
X142179571Y-353443428D01*
X142536714Y-353586285D01*
X142608142Y-353657714D01*
X142679571Y-353800571D01*
X142108142Y-352443428D02*
X142179571Y-352443428D01*
X142322428Y-352514857D01*
X142393857Y-352586285D01*
X141251000Y-352514857D02*
X141322428Y-352443428D01*
X141393857Y-352514857D01*
X141322428Y-352586285D01*
X141251000Y-352514857D01*
X141393857Y-352514857D01*
X142179571Y-350657714D02*
X140679571Y-350657714D01*
X141251000Y-350657714D02*
X141179571Y-350514857D01*
X141179571Y-350229142D01*
X141251000Y-350086285D01*
X141322428Y-350014857D01*
X141465285Y-349943428D01*
X141893857Y-349943428D01*
X142036714Y-350014857D01*
X142108142Y-350086285D01*
X142179571Y-350229142D01*
X142179571Y-350514857D01*
X142108142Y-350657714D01*
X141179571Y-348657714D02*
X142179571Y-348657714D01*
X141179571Y-349300571D02*
X141965285Y-349300571D01*
X142108142Y-349229142D01*
X142179571Y-349086285D01*
X142179571Y-348872000D01*
X142108142Y-348729142D01*
X142036714Y-348657714D01*
X141179571Y-348157714D02*
X141179571Y-347586285D01*
X140679571Y-347943428D02*
X141965285Y-347943428D01*
X142108142Y-347872000D01*
X142179571Y-347729142D01*
X142179571Y-347586285D01*
X141179571Y-346157714D02*
X141179571Y-345586285D01*
X140679571Y-345943428D02*
X141965285Y-345943428D01*
X142108142Y-345872000D01*
X142179571Y-345729142D01*
X142179571Y-345586285D01*
X142179571Y-345086285D02*
X140679571Y-345086285D01*
X142179571Y-344443428D02*
X141393857Y-344443428D01*
X141251000Y-344514857D01*
X141179571Y-344657714D01*
X141179571Y-344872000D01*
X141251000Y-345014857D01*
X141322428Y-345086285D01*
X142179571Y-343514857D02*
X142108142Y-343657714D01*
X142036714Y-343729142D01*
X141893857Y-343800571D01*
X141465285Y-343800571D01*
X141322428Y-343729142D01*
X141251000Y-343657714D01*
X141179571Y-343514857D01*
X141179571Y-343300571D01*
X141251000Y-343157714D01*
X141322428Y-343086285D01*
X141465285Y-343014857D01*
X141893857Y-343014857D01*
X142036714Y-343086285D01*
X142108142Y-343157714D01*
X142179571Y-343300571D01*
X142179571Y-343514857D01*
X142108142Y-342443428D02*
X142179571Y-342300571D01*
X142179571Y-342014857D01*
X142108142Y-341872000D01*
X141965285Y-341800571D01*
X141893857Y-341800571D01*
X141751000Y-341872000D01*
X141679571Y-342014857D01*
X141679571Y-342229142D01*
X141608142Y-342372000D01*
X141465285Y-342443428D01*
X141393857Y-342443428D01*
X141251000Y-342372000D01*
X141179571Y-342229142D01*
X141179571Y-342014857D01*
X141251000Y-341872000D01*
X142108142Y-340586285D02*
X142179571Y-340729142D01*
X142179571Y-341014857D01*
X142108142Y-341157714D01*
X141965285Y-341229142D01*
X141393857Y-341229142D01*
X141251000Y-341157714D01*
X141179571Y-341014857D01*
X141179571Y-340729142D01*
X141251000Y-340586285D01*
X141393857Y-340514857D01*
X141536714Y-340514857D01*
X141679571Y-341229142D01*
X141179571Y-338872000D02*
X142179571Y-338586285D01*
X141465285Y-338300571D01*
X142179571Y-338014857D01*
X141179571Y-337729142D01*
X142179571Y-337157714D02*
X140679571Y-337157714D01*
X142179571Y-336514857D02*
X141393857Y-336514857D01*
X141251000Y-336586285D01*
X141179571Y-336729142D01*
X141179571Y-336943428D01*
X141251000Y-337086285D01*
X141322428Y-337157714D01*
X142179571Y-335586285D02*
X142108142Y-335729142D01*
X142036714Y-335800571D01*
X141893857Y-335872000D01*
X141465285Y-335872000D01*
X141322428Y-335800571D01*
X141251000Y-335729142D01*
X141179571Y-335586285D01*
X141179571Y-335372000D01*
X141251000Y-335229142D01*
X141322428Y-335157714D01*
X141465285Y-335086285D01*
X141893857Y-335086285D01*
X142036714Y-335157714D01*
X142108142Y-335229142D01*
X142179571Y-335372000D01*
X142179571Y-335586285D01*
X142179571Y-332657714D02*
X140679571Y-332657714D01*
X142108142Y-332657714D02*
X142179571Y-332800571D01*
X142179571Y-333086285D01*
X142108142Y-333229142D01*
X142036714Y-333300571D01*
X141893857Y-333372000D01*
X141465285Y-333372000D01*
X141322428Y-333300571D01*
X141251000Y-333229142D01*
X141179571Y-333086285D01*
X141179571Y-332800571D01*
X141251000Y-332657714D01*
X142179571Y-331729142D02*
X142108142Y-331872000D01*
X142036714Y-331943428D01*
X141893857Y-332014857D01*
X141465285Y-332014857D01*
X141322428Y-331943428D01*
X141251000Y-331872000D01*
X141179571Y-331729142D01*
X141179571Y-331514857D01*
X141251000Y-331372000D01*
X141322428Y-331300571D01*
X141465285Y-331229142D01*
X141893857Y-331229142D01*
X142036714Y-331300571D01*
X142108142Y-331372000D01*
X142179571Y-331514857D01*
X142179571Y-331729142D01*
X141179571Y-329443428D02*
X142179571Y-329443428D01*
X141322428Y-329443428D02*
X141251000Y-329372000D01*
X141179571Y-329229142D01*
X141179571Y-329014857D01*
X141251000Y-328872000D01*
X141393857Y-328800571D01*
X142179571Y-328800571D01*
X142179571Y-327872000D02*
X142108142Y-328014857D01*
X142036714Y-328086285D01*
X141893857Y-328157714D01*
X141465285Y-328157714D01*
X141322428Y-328086285D01*
X141251000Y-328014857D01*
X141179571Y-327872000D01*
X141179571Y-327657714D01*
X141251000Y-327514857D01*
X141322428Y-327443428D01*
X141465285Y-327372000D01*
X141893857Y-327372000D01*
X142036714Y-327443428D01*
X142108142Y-327514857D01*
X142179571Y-327657714D01*
X142179571Y-327872000D01*
X141179571Y-326943428D02*
X141179571Y-326372000D01*
X140679571Y-326729142D02*
X141965285Y-326729142D01*
X142108142Y-326657714D01*
X142179571Y-326514857D01*
X142179571Y-326372000D01*
X142179571Y-324514857D02*
X142108142Y-324657714D01*
X142036714Y-324729142D01*
X141893857Y-324800571D01*
X141465285Y-324800571D01*
X141322428Y-324729142D01*
X141251000Y-324657714D01*
X141179571Y-324514857D01*
X141179571Y-324300571D01*
X141251000Y-324157714D01*
X141322428Y-324086285D01*
X141465285Y-324014857D01*
X141893857Y-324014857D01*
X142036714Y-324086285D01*
X142108142Y-324157714D01*
X142179571Y-324300571D01*
X142179571Y-324514857D01*
X142179571Y-323372000D02*
X140679571Y-323372000D01*
X141251000Y-323372000D02*
X141179571Y-323229142D01*
X141179571Y-322943428D01*
X141251000Y-322800571D01*
X141322428Y-322729142D01*
X141465285Y-322657714D01*
X141893857Y-322657714D01*
X142036714Y-322729142D01*
X142108142Y-322800571D01*
X142179571Y-322943428D01*
X142179571Y-323229142D01*
X142108142Y-323372000D01*
X142108142Y-322086285D02*
X142179571Y-321943428D01*
X142179571Y-321657714D01*
X142108142Y-321514857D01*
X141965285Y-321443428D01*
X141893857Y-321443428D01*
X141751000Y-321514857D01*
X141679571Y-321657714D01*
X141679571Y-321872000D01*
X141608142Y-322014857D01*
X141465285Y-322086285D01*
X141393857Y-322086285D01*
X141251000Y-322014857D01*
X141179571Y-321872000D01*
X141179571Y-321657714D01*
X141251000Y-321514857D01*
X142108142Y-320229142D02*
X142179571Y-320372000D01*
X142179571Y-320657714D01*
X142108142Y-320800571D01*
X141965285Y-320872000D01*
X141393857Y-320872000D01*
X141251000Y-320800571D01*
X141179571Y-320657714D01*
X141179571Y-320372000D01*
X141251000Y-320229142D01*
X141393857Y-320157714D01*
X141536714Y-320157714D01*
X141679571Y-320872000D01*
X142179571Y-319514857D02*
X141179571Y-319514857D01*
X141465285Y-319514857D02*
X141322428Y-319443428D01*
X141251000Y-319372000D01*
X141179571Y-319229142D01*
X141179571Y-319086285D01*
X141179571Y-318729142D02*
X142179571Y-318372000D01*
X141179571Y-318014857D01*
X142108142Y-316872000D02*
X142179571Y-317014857D01*
X142179571Y-317300571D01*
X142108142Y-317443428D01*
X141965285Y-317514857D01*
X141393857Y-317514857D01*
X141251000Y-317443428D01*
X141179571Y-317300571D01*
X141179571Y-317014857D01*
X141251000Y-316872000D01*
X141393857Y-316800571D01*
X141536714Y-316800571D01*
X141679571Y-317514857D01*
X141179571Y-315229142D02*
X141179571Y-314657714D01*
X140679571Y-315014857D02*
X141965285Y-315014857D01*
X142108142Y-314943428D01*
X142179571Y-314800571D01*
X142179571Y-314657714D01*
X142179571Y-314157714D02*
X140679571Y-314157714D01*
X142179571Y-313514857D02*
X141393857Y-313514857D01*
X141251000Y-313586285D01*
X141179571Y-313729142D01*
X141179571Y-313943428D01*
X141251000Y-314086285D01*
X141322428Y-314157714D01*
X142108142Y-312229142D02*
X142179571Y-312372000D01*
X142179571Y-312657714D01*
X142108142Y-312800571D01*
X141965285Y-312872000D01*
X141393857Y-312872000D01*
X141251000Y-312800571D01*
X141179571Y-312657714D01*
X141179571Y-312372000D01*
X141251000Y-312229142D01*
X141393857Y-312157714D01*
X141536714Y-312157714D01*
X141679571Y-312872000D01*
X142179571Y-310372000D02*
X141179571Y-310372000D01*
X141322428Y-310372000D02*
X141251000Y-310300571D01*
X141179571Y-310157714D01*
X141179571Y-309943428D01*
X141251000Y-309800571D01*
X141393857Y-309729142D01*
X142179571Y-309729142D01*
X141393857Y-309729142D02*
X141251000Y-309657714D01*
X141179571Y-309514857D01*
X141179571Y-309300571D01*
X141251000Y-309157714D01*
X141393857Y-309086285D01*
X142179571Y-309086285D01*
X142179571Y-308157714D02*
X142108142Y-308300571D01*
X142036714Y-308372000D01*
X141893857Y-308443428D01*
X141465285Y-308443428D01*
X141322428Y-308372000D01*
X141251000Y-308300571D01*
X141179571Y-308157714D01*
X141179571Y-307943428D01*
X141251000Y-307800571D01*
X141322428Y-307729142D01*
X141465285Y-307657714D01*
X141893857Y-307657714D01*
X142036714Y-307729142D01*
X142108142Y-307800571D01*
X142179571Y-307943428D01*
X142179571Y-308157714D01*
X141179571Y-307157714D02*
X142179571Y-306800571D01*
X141179571Y-306443428D01*
X142108142Y-305300571D02*
X142179571Y-305443428D01*
X142179571Y-305729142D01*
X142108142Y-305872000D01*
X141965285Y-305943428D01*
X141393857Y-305943428D01*
X141251000Y-305872000D01*
X141179571Y-305729142D01*
X141179571Y-305443428D01*
X141251000Y-305300571D01*
X141393857Y-305229142D01*
X141536714Y-305229142D01*
X141679571Y-305943428D01*
X142179571Y-304586285D02*
X141179571Y-304586285D01*
X141322428Y-304586285D02*
X141251000Y-304514857D01*
X141179571Y-304372000D01*
X141179571Y-304157714D01*
X141251000Y-304014857D01*
X141393857Y-303943428D01*
X142179571Y-303943428D01*
X141393857Y-303943428D02*
X141251000Y-303872000D01*
X141179571Y-303729142D01*
X141179571Y-303514857D01*
X141251000Y-303372000D01*
X141393857Y-303300571D01*
X142179571Y-303300571D01*
X142108142Y-302014857D02*
X142179571Y-302157714D01*
X142179571Y-302443428D01*
X142108142Y-302586285D01*
X141965285Y-302657714D01*
X141393857Y-302657714D01*
X141251000Y-302586285D01*
X141179571Y-302443428D01*
X141179571Y-302157714D01*
X141251000Y-302014857D01*
X141393857Y-301943428D01*
X141536714Y-301943428D01*
X141679571Y-302657714D01*
X141179571Y-301300571D02*
X142179571Y-301300571D01*
X141322428Y-301300571D02*
X141251000Y-301229142D01*
X141179571Y-301086285D01*
X141179571Y-300872000D01*
X141251000Y-300729142D01*
X141393857Y-300657714D01*
X142179571Y-300657714D01*
X141179571Y-300157714D02*
X141179571Y-299586285D01*
X140679571Y-299943428D02*
X141965285Y-299943428D01*
X142108142Y-299872000D01*
X142179571Y-299729142D01*
X142179571Y-299586285D01*
X142108142Y-299157714D02*
X142179571Y-299014857D01*
X142179571Y-298729142D01*
X142108142Y-298586285D01*
X141965285Y-298514857D01*
X141893857Y-298514857D01*
X141751000Y-298586285D01*
X141679571Y-298729142D01*
X141679571Y-298943428D01*
X141608142Y-299086285D01*
X141465285Y-299157714D01*
X141393857Y-299157714D01*
X141251000Y-299086285D01*
X141179571Y-298943428D01*
X141179571Y-298729142D01*
X141251000Y-298586285D01*
X144729571Y-368586285D02*
X144658142Y-368729142D01*
X144586714Y-368800571D01*
X144443857Y-368872000D01*
X144015285Y-368872000D01*
X143872428Y-368800571D01*
X143801000Y-368729142D01*
X143729571Y-368586285D01*
X143729571Y-368372000D01*
X143801000Y-368229142D01*
X143872428Y-368157714D01*
X144015285Y-368086285D01*
X144443857Y-368086285D01*
X144586714Y-368157714D01*
X144658142Y-368229142D01*
X144729571Y-368372000D01*
X144729571Y-368586285D01*
X143729571Y-367657714D02*
X143729571Y-367086285D01*
X144729571Y-367443428D02*
X143443857Y-367443428D01*
X143301000Y-367372000D01*
X143229571Y-367229142D01*
X143229571Y-367086285D01*
X143729571Y-365657714D02*
X143729571Y-365086285D01*
X143229571Y-365443428D02*
X144515285Y-365443428D01*
X144658142Y-365372000D01*
X144729571Y-365229142D01*
X144729571Y-365086285D01*
X144729571Y-364586285D02*
X143229571Y-364586285D01*
X144729571Y-363943428D02*
X143943857Y-363943428D01*
X143801000Y-364014857D01*
X143729571Y-364157714D01*
X143729571Y-364372000D01*
X143801000Y-364514857D01*
X143872428Y-364586285D01*
X144658142Y-362657714D02*
X144729571Y-362800571D01*
X144729571Y-363086285D01*
X144658142Y-363229142D01*
X144515285Y-363300571D01*
X143943857Y-363300571D01*
X143801000Y-363229142D01*
X143729571Y-363086285D01*
X143729571Y-362800571D01*
X143801000Y-362657714D01*
X143943857Y-362586285D01*
X144086714Y-362586285D01*
X144229571Y-363300571D01*
X144729571Y-361943428D02*
X143729571Y-361943428D01*
X143229571Y-361943428D02*
X143301000Y-362014857D01*
X143372428Y-361943428D01*
X143301000Y-361872000D01*
X143229571Y-361943428D01*
X143372428Y-361943428D01*
X144729571Y-361229142D02*
X143729571Y-361229142D01*
X144015285Y-361229142D02*
X143872428Y-361157714D01*
X143801000Y-361086285D01*
X143729571Y-360943428D01*
X143729571Y-360800571D01*
X144729571Y-358943428D02*
X144658142Y-359086285D01*
X144586714Y-359157714D01*
X144443857Y-359229142D01*
X144015285Y-359229142D01*
X143872428Y-359157714D01*
X143801000Y-359086285D01*
X143729571Y-358943428D01*
X143729571Y-358729142D01*
X143801000Y-358586285D01*
X143872428Y-358514857D01*
X144015285Y-358443428D01*
X144443857Y-358443428D01*
X144586714Y-358514857D01*
X144658142Y-358586285D01*
X144729571Y-358729142D01*
X144729571Y-358943428D01*
X143729571Y-357943428D02*
X144729571Y-357657714D01*
X144015285Y-357372000D01*
X144729571Y-357086285D01*
X143729571Y-356800571D01*
X143729571Y-356229142D02*
X144729571Y-356229142D01*
X143872428Y-356229142D02*
X143801000Y-356157714D01*
X143729571Y-356014857D01*
X143729571Y-355800571D01*
X143801000Y-355657714D01*
X143943857Y-355586285D01*
X144729571Y-355586285D01*
X144729571Y-353729142D02*
X143729571Y-353729142D01*
X143872428Y-353729142D02*
X143801000Y-353657714D01*
X143729571Y-353514857D01*
X143729571Y-353300571D01*
X143801000Y-353157714D01*
X143943857Y-353086285D01*
X144729571Y-353086285D01*
X143943857Y-353086285D02*
X143801000Y-353014857D01*
X143729571Y-352872000D01*
X143729571Y-352657714D01*
X143801000Y-352514857D01*
X143943857Y-352443428D01*
X144729571Y-352443428D01*
X144729571Y-351729142D02*
X143729571Y-351729142D01*
X143229571Y-351729142D02*
X143301000Y-351800571D01*
X143372428Y-351729142D01*
X143301000Y-351657714D01*
X143229571Y-351729142D01*
X143372428Y-351729142D01*
X143729571Y-351014857D02*
X144729571Y-351014857D01*
X143872428Y-351014857D02*
X143801000Y-350943428D01*
X143729571Y-350800571D01*
X143729571Y-350586285D01*
X143801000Y-350443428D01*
X143943857Y-350372000D01*
X144729571Y-350372000D01*
X144729571Y-349014857D02*
X143229571Y-349014857D01*
X144658142Y-349014857D02*
X144729571Y-349157714D01*
X144729571Y-349443428D01*
X144658142Y-349586285D01*
X144586714Y-349657714D01*
X144443857Y-349729142D01*
X144015285Y-349729142D01*
X143872428Y-349657714D01*
X143801000Y-349586285D01*
X143729571Y-349443428D01*
X143729571Y-349157714D01*
X143801000Y-349014857D01*
X144658142Y-348372000D02*
X144729571Y-348229142D01*
X144729571Y-347943428D01*
X144658142Y-347800571D01*
X144515285Y-347729142D01*
X144443857Y-347729142D01*
X144301000Y-347800571D01*
X144229571Y-347943428D01*
X144229571Y-348157714D01*
X144158142Y-348300571D01*
X144015285Y-348372000D01*
X143943857Y-348372000D01*
X143801000Y-348300571D01*
X143729571Y-348157714D01*
X143729571Y-347943428D01*
X143801000Y-347800571D01*
X144729571Y-345943428D02*
X143729571Y-345943428D01*
X143872428Y-345943428D02*
X143801000Y-345872000D01*
X143729571Y-345729142D01*
X143729571Y-345514857D01*
X143801000Y-345372000D01*
X143943857Y-345300571D01*
X144729571Y-345300571D01*
X143943857Y-345300571D02*
X143801000Y-345229142D01*
X143729571Y-345086285D01*
X143729571Y-344872000D01*
X143801000Y-344729142D01*
X143943857Y-344657714D01*
X144729571Y-344657714D01*
X143729571Y-343300571D02*
X144729571Y-343300571D01*
X143729571Y-343943428D02*
X144515285Y-343943428D01*
X144658142Y-343872000D01*
X144729571Y-343729142D01*
X144729571Y-343514857D01*
X144658142Y-343372000D01*
X144586714Y-343300571D01*
X144658142Y-342657714D02*
X144729571Y-342514857D01*
X144729571Y-342229142D01*
X144658142Y-342086285D01*
X144515285Y-342014857D01*
X144443857Y-342014857D01*
X144301000Y-342086285D01*
X144229571Y-342229142D01*
X144229571Y-342443428D01*
X144158142Y-342586285D01*
X144015285Y-342657714D01*
X143943857Y-342657714D01*
X143801000Y-342586285D01*
X143729571Y-342443428D01*
X143729571Y-342229142D01*
X143801000Y-342086285D01*
X143729571Y-341586285D02*
X143729571Y-341014857D01*
X143229571Y-341372000D02*
X144515285Y-341372000D01*
X144658142Y-341300571D01*
X144729571Y-341157714D01*
X144729571Y-341014857D01*
X144729571Y-339157714D02*
X144658142Y-339300571D01*
X144586714Y-339372000D01*
X144443857Y-339443428D01*
X144015285Y-339443428D01*
X143872428Y-339372000D01*
X143801000Y-339300571D01*
X143729571Y-339157714D01*
X143729571Y-338943428D01*
X143801000Y-338800571D01*
X143872428Y-338729142D01*
X144015285Y-338657714D01*
X144443857Y-338657714D01*
X144586714Y-338729142D01*
X144658142Y-338800571D01*
X144729571Y-338943428D01*
X144729571Y-339157714D01*
X143729571Y-338229142D02*
X143729571Y-337657714D01*
X144729571Y-338014857D02*
X143443857Y-338014857D01*
X143301000Y-337943428D01*
X143229571Y-337800571D01*
X143229571Y-337657714D01*
X143729571Y-336014857D02*
X144729571Y-336014857D01*
X143872428Y-336014857D02*
X143801000Y-335943428D01*
X143729571Y-335800571D01*
X143729571Y-335586285D01*
X143801000Y-335443428D01*
X143943857Y-335372000D01*
X144729571Y-335372000D01*
X144658142Y-334086285D02*
X144729571Y-334229142D01*
X144729571Y-334514857D01*
X144658142Y-334657714D01*
X144515285Y-334729142D01*
X143943857Y-334729142D01*
X143801000Y-334657714D01*
X143729571Y-334514857D01*
X143729571Y-334229142D01*
X143801000Y-334086285D01*
X143943857Y-334014857D01*
X144086714Y-334014857D01*
X144229571Y-334729142D01*
X144658142Y-332729142D02*
X144729571Y-332872000D01*
X144729571Y-333157714D01*
X144658142Y-333300571D01*
X144586714Y-333372000D01*
X144443857Y-333443428D01*
X144015285Y-333443428D01*
X143872428Y-333372000D01*
X143801000Y-333300571D01*
X143729571Y-333157714D01*
X143729571Y-332872000D01*
X143801000Y-332729142D01*
X144658142Y-331514857D02*
X144729571Y-331657714D01*
X144729571Y-331943428D01*
X144658142Y-332086285D01*
X144515285Y-332157714D01*
X143943857Y-332157714D01*
X143801000Y-332086285D01*
X143729571Y-331943428D01*
X143729571Y-331657714D01*
X143801000Y-331514857D01*
X143943857Y-331443428D01*
X144086714Y-331443428D01*
X144229571Y-332157714D01*
X144658142Y-330872000D02*
X144729571Y-330729142D01*
X144729571Y-330443428D01*
X144658142Y-330300571D01*
X144515285Y-330229142D01*
X144443857Y-330229142D01*
X144301000Y-330300571D01*
X144229571Y-330443428D01*
X144229571Y-330657714D01*
X144158142Y-330800571D01*
X144015285Y-330872000D01*
X143943857Y-330872000D01*
X143801000Y-330800571D01*
X143729571Y-330657714D01*
X143729571Y-330443428D01*
X143801000Y-330300571D01*
X144658142Y-329657714D02*
X144729571Y-329514857D01*
X144729571Y-329229142D01*
X144658142Y-329086285D01*
X144515285Y-329014857D01*
X144443857Y-329014857D01*
X144301000Y-329086285D01*
X144229571Y-329229142D01*
X144229571Y-329443428D01*
X144158142Y-329586285D01*
X144015285Y-329657714D01*
X143943857Y-329657714D01*
X143801000Y-329586285D01*
X143729571Y-329443428D01*
X143729571Y-329229142D01*
X143801000Y-329086285D01*
X144729571Y-328372000D02*
X143729571Y-328372000D01*
X143229571Y-328372000D02*
X143301000Y-328443428D01*
X143372428Y-328372000D01*
X143301000Y-328300571D01*
X143229571Y-328372000D01*
X143372428Y-328372000D01*
X143729571Y-327872000D02*
X143729571Y-327300571D01*
X143229571Y-327657714D02*
X144515285Y-327657714D01*
X144658142Y-327586285D01*
X144729571Y-327443428D01*
X144729571Y-327300571D01*
X143729571Y-326943428D02*
X144729571Y-326586285D01*
X143729571Y-326229142D02*
X144729571Y-326586285D01*
X145086714Y-326729142D01*
X145158142Y-326800571D01*
X145229571Y-326943428D01*
X144729571Y-324514857D02*
X143229571Y-324514857D01*
X143801000Y-324514857D02*
X143729571Y-324372000D01*
X143729571Y-324086285D01*
X143801000Y-323943428D01*
X143872428Y-323872000D01*
X144015285Y-323800571D01*
X144443857Y-323800571D01*
X144586714Y-323872000D01*
X144658142Y-323943428D01*
X144729571Y-324086285D01*
X144729571Y-324372000D01*
X144658142Y-324514857D01*
X144658142Y-322586285D02*
X144729571Y-322729142D01*
X144729571Y-323014857D01*
X144658142Y-323157714D01*
X144515285Y-323229142D01*
X143943857Y-323229142D01*
X143801000Y-323157714D01*
X143729571Y-323014857D01*
X143729571Y-322729142D01*
X143801000Y-322586285D01*
X143943857Y-322514857D01*
X144086714Y-322514857D01*
X144229571Y-323229142D01*
X143729571Y-320086285D02*
X144729571Y-320086285D01*
X143729571Y-320729142D02*
X144515285Y-320729142D01*
X144658142Y-320657714D01*
X144729571Y-320514857D01*
X144729571Y-320300571D01*
X144658142Y-320157714D01*
X144586714Y-320086285D01*
X143729571Y-319372000D02*
X144729571Y-319372000D01*
X143872428Y-319372000D02*
X143801000Y-319300571D01*
X143729571Y-319157714D01*
X143729571Y-318943428D01*
X143801000Y-318800571D01*
X143943857Y-318729142D01*
X144729571Y-318729142D01*
X144729571Y-318014857D02*
X143229571Y-318014857D01*
X144729571Y-317372000D02*
X143943857Y-317372000D01*
X143801000Y-317443428D01*
X143729571Y-317586285D01*
X143729571Y-317800571D01*
X143801000Y-317943428D01*
X143872428Y-318014857D01*
X144729571Y-316014857D02*
X143943857Y-316014857D01*
X143801000Y-316086285D01*
X143729571Y-316229142D01*
X143729571Y-316514857D01*
X143801000Y-316657714D01*
X144658142Y-316014857D02*
X144729571Y-316157714D01*
X144729571Y-316514857D01*
X144658142Y-316657714D01*
X144515285Y-316729142D01*
X144372428Y-316729142D01*
X144229571Y-316657714D01*
X144158142Y-316514857D01*
X144158142Y-316157714D01*
X144086714Y-316014857D01*
X143729571Y-315300571D02*
X145229571Y-315300571D01*
X143801000Y-315300571D02*
X143729571Y-315157714D01*
X143729571Y-314872000D01*
X143801000Y-314729142D01*
X143872428Y-314657714D01*
X144015285Y-314586285D01*
X144443857Y-314586285D01*
X144586714Y-314657714D01*
X144658142Y-314729142D01*
X144729571Y-314872000D01*
X144729571Y-315157714D01*
X144658142Y-315300571D01*
X143729571Y-313943428D02*
X145229571Y-313943428D01*
X143801000Y-313943428D02*
X143729571Y-313800571D01*
X143729571Y-313514857D01*
X143801000Y-313372000D01*
X143872428Y-313300571D01*
X144015285Y-313229142D01*
X144443857Y-313229142D01*
X144586714Y-313300571D01*
X144658142Y-313372000D01*
X144729571Y-313514857D01*
X144729571Y-313800571D01*
X144658142Y-313943428D01*
X143729571Y-312729142D02*
X144729571Y-312372000D01*
X143729571Y-312014857D02*
X144729571Y-312372000D01*
X145086714Y-312514857D01*
X145158142Y-312586285D01*
X145229571Y-312729142D01*
X144586714Y-311443428D02*
X144658142Y-311372000D01*
X144729571Y-311443428D01*
X144658142Y-311514857D01*
X144586714Y-311443428D01*
X144729571Y-311443428D01*
D11*
X97368523Y-305522380D02*
X96797095Y-305522380D01*
X97082809Y-305522380D02*
X97082809Y-304522380D01*
X96987571Y-304665238D01*
X96892333Y-304760476D01*
X96797095Y-304808095D01*
X97987571Y-304522380D02*
X98082809Y-304522380D01*
X98178047Y-304570000D01*
X98225666Y-304617619D01*
X98273285Y-304712857D01*
X98320904Y-304903333D01*
X98320904Y-305141428D01*
X98273285Y-305331904D01*
X98225666Y-305427142D01*
X98178047Y-305474761D01*
X98082809Y-305522380D01*
X97987571Y-305522380D01*
X97892333Y-305474761D01*
X97844714Y-305427142D01*
X97797095Y-305331904D01*
X97749476Y-305141428D01*
X97749476Y-304903333D01*
X97797095Y-304712857D01*
X97844714Y-304617619D01*
X97892333Y-304570000D01*
X97987571Y-304522380D01*
X93431523Y-305522380D02*
X93622000Y-305522380D01*
X93717238Y-305474761D01*
X93764857Y-305427142D01*
X93860095Y-305284285D01*
X93907714Y-305093809D01*
X93907714Y-304712857D01*
X93860095Y-304617619D01*
X93812476Y-304570000D01*
X93717238Y-304522380D01*
X93526761Y-304522380D01*
X93431523Y-304570000D01*
X93383904Y-304617619D01*
X93336285Y-304712857D01*
X93336285Y-304950952D01*
X93383904Y-305046190D01*
X93431523Y-305093809D01*
X93526761Y-305141428D01*
X93717238Y-305141428D01*
X93812476Y-305093809D01*
X93860095Y-305046190D01*
X93907714Y-304950952D01*
X86287761Y-304950952D02*
X86192523Y-304903333D01*
X86144904Y-304855714D01*
X86097285Y-304760476D01*
X86097285Y-304712857D01*
X86144904Y-304617619D01*
X86192523Y-304570000D01*
X86287761Y-304522380D01*
X86478238Y-304522380D01*
X86573476Y-304570000D01*
X86621095Y-304617619D01*
X86668714Y-304712857D01*
X86668714Y-304760476D01*
X86621095Y-304855714D01*
X86573476Y-304903333D01*
X86478238Y-304950952D01*
X86287761Y-304950952D01*
X86192523Y-304998571D01*
X86144904Y-305046190D01*
X86097285Y-305141428D01*
X86097285Y-305331904D01*
X86144904Y-305427142D01*
X86192523Y-305474761D01*
X86287761Y-305522380D01*
X86478238Y-305522380D01*
X86573476Y-305474761D01*
X86621095Y-305427142D01*
X86668714Y-305331904D01*
X86668714Y-305141428D01*
X86621095Y-305046190D01*
X86573476Y-304998571D01*
X86478238Y-304950952D01*
X81985666Y-304522380D02*
X82652333Y-304522380D01*
X82223761Y-305522380D01*
X75143476Y-304522380D02*
X74953000Y-304522380D01*
X74857761Y-304570000D01*
X74810142Y-304617619D01*
X74714904Y-304760476D01*
X74667285Y-304950952D01*
X74667285Y-305331904D01*
X74714904Y-305427142D01*
X74762523Y-305474761D01*
X74857761Y-305522380D01*
X75048238Y-305522380D01*
X75143476Y-305474761D01*
X75191095Y-305427142D01*
X75238714Y-305331904D01*
X75238714Y-305093809D01*
X75191095Y-304998571D01*
X75143476Y-304950952D01*
X75048238Y-304903333D01*
X74857761Y-304903333D01*
X74762523Y-304950952D01*
X74714904Y-304998571D01*
X74667285Y-305093809D01*
X71127095Y-304522380D02*
X70650904Y-304522380D01*
X70603285Y-304998571D01*
X70650904Y-304950952D01*
X70746142Y-304903333D01*
X70984238Y-304903333D01*
X71079476Y-304950952D01*
X71127095Y-304998571D01*
X71174714Y-305093809D01*
X71174714Y-305331904D01*
X71127095Y-305427142D01*
X71079476Y-305474761D01*
X70984238Y-305522380D01*
X70746142Y-305522380D01*
X70650904Y-305474761D01*
X70603285Y-305427142D01*
X64221476Y-304855714D02*
X64221476Y-305522380D01*
X63983380Y-304474761D02*
X63745285Y-305189047D01*
X64364333Y-305189047D01*
X59379666Y-304522380D02*
X59998714Y-304522380D01*
X59665380Y-304903333D01*
X59808238Y-304903333D01*
X59903476Y-304950952D01*
X59951095Y-304998571D01*
X59998714Y-305093809D01*
X59998714Y-305331904D01*
X59951095Y-305427142D01*
X59903476Y-305474761D01*
X59808238Y-305522380D01*
X59522523Y-305522380D01*
X59427285Y-305474761D01*
X59379666Y-305427142D01*
X52569285Y-304617619D02*
X52616904Y-304570000D01*
X52712142Y-304522380D01*
X52950238Y-304522380D01*
X53045476Y-304570000D01*
X53093095Y-304617619D01*
X53140714Y-304712857D01*
X53140714Y-304808095D01*
X53093095Y-304950952D01*
X52521666Y-305522380D01*
X53140714Y-305522380D01*
X48822714Y-305522380D02*
X48251285Y-305522380D01*
X48537000Y-305522380D02*
X48537000Y-304522380D01*
X48441761Y-304665238D01*
X48346523Y-304760476D01*
X48251285Y-304808095D01*
D12*
%TO.C,X19*%
X128713000Y-311717200D02*
X128713000Y-311621000D01*
X128713000Y-314521000D02*
X128713000Y-314424800D01*
X128713000Y-311717200D02*
X130313000Y-311717200D01*
X128713000Y-314424800D02*
X130313000Y-314424800D01*
D13*
X130313000Y-311621000D02*
X122913000Y-311621000D01*
X130313000Y-314521000D02*
X122913000Y-314521000D01*
D12*
%TO.C,X38*%
X138150000Y-284659800D02*
X138150000Y-284756000D01*
X138150000Y-281856000D02*
X138150000Y-281952200D01*
X138150000Y-284659800D02*
X136550000Y-284659800D01*
X138150000Y-281952200D02*
X136550000Y-281952200D01*
D13*
X136550000Y-284756000D02*
X143950000Y-284756000D01*
X136550000Y-281856000D02*
X143950000Y-281856000D01*
D12*
%TO.C,X28*%
X151743800Y-343696000D02*
X151840000Y-343696000D01*
X148940000Y-343696000D02*
X149036200Y-343696000D01*
X151743800Y-343696000D02*
X151743800Y-345296000D01*
X149036200Y-343696000D02*
X149036200Y-345296000D01*
D13*
X151840000Y-345296000D02*
X151840000Y-337896000D01*
X148940000Y-345296000D02*
X148940000Y-337896000D01*
D12*
%TO.C,X26*%
X90335000Y-288070200D02*
X90335000Y-287974000D01*
X90335000Y-290874000D02*
X90335000Y-290777800D01*
X90335000Y-288070200D02*
X91935000Y-288070200D01*
X90335000Y-290777800D02*
X91935000Y-290777800D01*
D13*
X91935000Y-287974000D02*
X84535000Y-287974000D01*
X91935000Y-290874000D02*
X84535000Y-290874000D01*
D12*
%TO.C,X25*%
X85767200Y-280368000D02*
X85671000Y-280368000D01*
X88571000Y-280368000D02*
X88474800Y-280368000D01*
X85767200Y-280368000D02*
X85767200Y-278768000D01*
X88474800Y-280368000D02*
X88474800Y-278768000D01*
D13*
X85671000Y-278768000D02*
X85671000Y-286168000D01*
X88571000Y-278768000D02*
X88571000Y-286168000D01*
D12*
%TO.C,X20*%
X96205200Y-297919000D02*
X96109000Y-297919000D01*
X99009000Y-297919000D02*
X98912800Y-297919000D01*
X96205200Y-297919000D02*
X96205200Y-296319000D01*
X98912800Y-297919000D02*
X98912800Y-296319000D01*
D13*
X96109000Y-296319000D02*
X96109000Y-303719000D01*
X99009000Y-296319000D02*
X99009000Y-303719000D01*
D12*
%TO.C,X18*%
X85029200Y-297919000D02*
X84933000Y-297919000D01*
X87833000Y-297919000D02*
X87736800Y-297919000D01*
X85029200Y-297919000D02*
X85029200Y-296319000D01*
X87736800Y-297919000D02*
X87736800Y-296319000D01*
D13*
X84933000Y-296319000D02*
X84933000Y-303719000D01*
X87833000Y-296319000D02*
X87833000Y-303719000D01*
D12*
%TO.C,X17*%
X73599200Y-297919000D02*
X73503000Y-297919000D01*
X76403000Y-297919000D02*
X76306800Y-297919000D01*
X73599200Y-297919000D02*
X73599200Y-296319000D01*
X76306800Y-297919000D02*
X76306800Y-296319000D01*
D13*
X73503000Y-296319000D02*
X73503000Y-303719000D01*
X76403000Y-296319000D02*
X76403000Y-303719000D01*
D12*
%TO.C,X16*%
X62677200Y-297919000D02*
X62581000Y-297919000D01*
X65481000Y-297919000D02*
X65384800Y-297919000D01*
X62677200Y-297919000D02*
X62677200Y-296319000D01*
X65384800Y-297919000D02*
X65384800Y-296319000D01*
D13*
X62581000Y-296319000D02*
X62581000Y-303719000D01*
X65481000Y-296319000D02*
X65481000Y-303719000D01*
D12*
%TO.C,X15*%
X128713000Y-316416200D02*
X128713000Y-316320000D01*
X128713000Y-319220000D02*
X128713000Y-319123800D01*
X128713000Y-316416200D02*
X130313000Y-316416200D01*
X128713000Y-319123800D02*
X130313000Y-319123800D01*
D13*
X130313000Y-316320000D02*
X122913000Y-316320000D01*
X130313000Y-319220000D02*
X122913000Y-319220000D01*
D12*
%TO.C,X14*%
X128713000Y-321242200D02*
X128713000Y-321146000D01*
X128713000Y-324046000D02*
X128713000Y-323949800D01*
X128713000Y-321242200D02*
X130313000Y-321242200D01*
X128713000Y-323949800D02*
X130313000Y-323949800D01*
D13*
X130313000Y-321146000D02*
X122913000Y-321146000D01*
X130313000Y-324046000D02*
X122913000Y-324046000D01*
D12*
%TO.C,X13*%
X128713000Y-326068200D02*
X128713000Y-325972000D01*
X128713000Y-328872000D02*
X128713000Y-328775800D01*
X128713000Y-326068200D02*
X130313000Y-326068200D01*
X128713000Y-328775800D02*
X130313000Y-328775800D01*
D13*
X130313000Y-325972000D02*
X122913000Y-325972000D01*
X130313000Y-328872000D02*
X122913000Y-328872000D01*
D12*
%TO.C,X12*%
X51501200Y-297919000D02*
X51405000Y-297919000D01*
X54305000Y-297919000D02*
X54208800Y-297919000D01*
X51501200Y-297919000D02*
X51501200Y-296319000D01*
X54208800Y-297919000D02*
X54208800Y-296319000D01*
D13*
X51405000Y-296319000D02*
X51405000Y-303719000D01*
X54305000Y-296319000D02*
X54305000Y-303719000D01*
D12*
%TO.C,X11*%
X92141200Y-297919000D02*
X92045000Y-297919000D01*
X94945000Y-297919000D02*
X94848800Y-297919000D01*
X92141200Y-297919000D02*
X92141200Y-296319000D01*
X94848800Y-297919000D02*
X94848800Y-296319000D01*
D13*
X92045000Y-296319000D02*
X92045000Y-303719000D01*
X94945000Y-296319000D02*
X94945000Y-303719000D01*
D12*
%TO.C,X10*%
X80965200Y-297919000D02*
X80869000Y-297919000D01*
X83769000Y-297919000D02*
X83672800Y-297919000D01*
X80965200Y-297919000D02*
X80965200Y-296319000D01*
X83672800Y-297919000D02*
X83672800Y-296319000D01*
D13*
X80869000Y-296319000D02*
X80869000Y-303719000D01*
X83769000Y-296319000D02*
X83769000Y-303719000D01*
D12*
%TO.C,X9*%
X128713000Y-356802200D02*
X128713000Y-356706000D01*
X128713000Y-359606000D02*
X128713000Y-359509800D01*
X128713000Y-356802200D02*
X130313000Y-356802200D01*
X128713000Y-359509800D02*
X130313000Y-359509800D01*
D13*
X130313000Y-356706000D02*
X122913000Y-356706000D01*
X130313000Y-359606000D02*
X122913000Y-359606000D01*
D12*
%TO.C,X8*%
X128713000Y-331148200D02*
X128713000Y-331052000D01*
X128713000Y-333952000D02*
X128713000Y-333855800D01*
X128713000Y-331148200D02*
X130313000Y-331148200D01*
X128713000Y-333855800D02*
X130313000Y-333855800D01*
D13*
X130313000Y-331052000D02*
X122913000Y-331052000D01*
X130313000Y-333952000D02*
X122913000Y-333952000D01*
D12*
%TO.C,X7*%
X128713000Y-336228200D02*
X128713000Y-336132000D01*
X128713000Y-339032000D02*
X128713000Y-338935800D01*
X128713000Y-336228200D02*
X130313000Y-336228200D01*
X128713000Y-338935800D02*
X130313000Y-338935800D01*
D13*
X130313000Y-336132000D02*
X122913000Y-336132000D01*
X130313000Y-339032000D02*
X122913000Y-339032000D01*
D12*
%TO.C,X6*%
X47183200Y-297919000D02*
X47087000Y-297919000D01*
X49987000Y-297919000D02*
X49890800Y-297919000D01*
X47183200Y-297919000D02*
X47183200Y-296319000D01*
X49890800Y-297919000D02*
X49890800Y-296319000D01*
D13*
X47087000Y-296319000D02*
X47087000Y-303719000D01*
X49987000Y-296319000D02*
X49987000Y-303719000D01*
D12*
%TO.C,X5*%
X69535200Y-297919000D02*
X69439000Y-297919000D01*
X72339000Y-297919000D02*
X72242800Y-297919000D01*
X69535200Y-297919000D02*
X69535200Y-296319000D01*
X72242800Y-297919000D02*
X72242800Y-296319000D01*
D13*
X69439000Y-296319000D02*
X69439000Y-303719000D01*
X72339000Y-296319000D02*
X72339000Y-303719000D01*
D12*
%TO.C,X4*%
X58359200Y-297919000D02*
X58263000Y-297919000D01*
X61163000Y-297919000D02*
X61066800Y-297919000D01*
X58359200Y-297919000D02*
X58359200Y-296319000D01*
X61066800Y-297919000D02*
X61066800Y-296319000D01*
D13*
X58263000Y-296319000D02*
X58263000Y-303719000D01*
X61163000Y-296319000D02*
X61163000Y-303719000D01*
D12*
%TO.C,X3*%
X128713000Y-351849200D02*
X128713000Y-351753000D01*
X128713000Y-354653000D02*
X128713000Y-354556800D01*
X128713000Y-351849200D02*
X130313000Y-351849200D01*
X128713000Y-354556800D02*
X130313000Y-354556800D01*
D13*
X130313000Y-351753000D02*
X122913000Y-351753000D01*
X130313000Y-354653000D02*
X122913000Y-354653000D01*
D12*
%TO.C,X2*%
X128713000Y-341562200D02*
X128713000Y-341466000D01*
X128713000Y-344366000D02*
X128713000Y-344269800D01*
X128713000Y-341562200D02*
X130313000Y-341562200D01*
X128713000Y-344269800D02*
X130313000Y-344269800D01*
D13*
X130313000Y-341466000D02*
X122913000Y-341466000D01*
X130313000Y-344366000D02*
X122913000Y-344366000D01*
D12*
%TO.C,X1*%
X128713000Y-346642200D02*
X128713000Y-346546000D01*
X128713000Y-349446000D02*
X128713000Y-349349800D01*
X128713000Y-346642200D02*
X130313000Y-346642200D01*
X128713000Y-349349800D02*
X130313000Y-349349800D01*
D13*
X130313000Y-346546000D02*
X122913000Y-346546000D01*
X130313000Y-349446000D02*
X122913000Y-349446000D01*
D14*
%TO.C,U14*%
X146685000Y-285139000D02*
X147275000Y-285139000D01*
X147275000Y-285139000D02*
X147275000Y-287119000D01*
X147275000Y-287119000D02*
X146925000Y-287119000D01*
X146925000Y-287119000D02*
X146925000Y-287889000D01*
X146925000Y-287889000D02*
X148975000Y-287889000D01*
X150795000Y-287889000D02*
X151095000Y-287889000D01*
X151095000Y-287889000D02*
X151095000Y-287089000D01*
X151095000Y-287089000D02*
X152395000Y-287089000D01*
X152395000Y-287089000D02*
X152395000Y-279269000D01*
X152395000Y-279269000D02*
X151095000Y-279269000D01*
X151095000Y-279269000D02*
X151095000Y-278469000D01*
X151095000Y-278469000D02*
X150795000Y-278469000D01*
X148975000Y-278469000D02*
X146925000Y-278469000D01*
X146925000Y-278469000D02*
X146925000Y-279239000D01*
X146925000Y-279239000D02*
X147275000Y-279239000D01*
X147275000Y-279239000D02*
X147275000Y-281219000D01*
%TO.C,U3*%
X149643000Y-371959000D02*
X150233000Y-371959000D01*
X150233000Y-371959000D02*
X150233000Y-373939000D01*
X150233000Y-373939000D02*
X149883000Y-373939000D01*
X149883000Y-373939000D02*
X149883000Y-374709000D01*
X149883000Y-374709000D02*
X151933000Y-374709000D01*
X153753000Y-374709000D02*
X154053000Y-374709000D01*
X154053000Y-374709000D02*
X154053000Y-373909000D01*
X154053000Y-373909000D02*
X155353000Y-373909000D01*
X155353000Y-373909000D02*
X155353000Y-366089000D01*
X155353000Y-366089000D02*
X154053000Y-366089000D01*
X154053000Y-366089000D02*
X154053000Y-365289000D01*
X154053000Y-365289000D02*
X153753000Y-365289000D01*
X151933000Y-365289000D02*
X149883000Y-365289000D01*
X149883000Y-365289000D02*
X149883000Y-366059000D01*
X149883000Y-366059000D02*
X150233000Y-366059000D01*
X150233000Y-366059000D02*
X150233000Y-368039000D01*
%TO.C,R11*%
X95177000Y-362332000D02*
X93337000Y-362332000D01*
X93337000Y-362332000D02*
X93337000Y-366172000D01*
X93337000Y-366172000D02*
X95177000Y-366172000D01*
X95177000Y-366172000D02*
X95177000Y-362332000D01*
X94257000Y-361382000D02*
X94257000Y-362332000D01*
X94257000Y-367122000D02*
X94257000Y-366172000D01*
%TO.C,R10*%
X92637000Y-362332000D02*
X90797000Y-362332000D01*
X90797000Y-362332000D02*
X90797000Y-366172000D01*
X90797000Y-366172000D02*
X92637000Y-366172000D01*
X92637000Y-366172000D02*
X92637000Y-362332000D01*
X91717000Y-361382000D02*
X91717000Y-362332000D01*
X91717000Y-367122000D02*
X91717000Y-366172000D01*
%TO.C,R9*%
X90097000Y-362332000D02*
X88257000Y-362332000D01*
X88257000Y-362332000D02*
X88257000Y-366172000D01*
X88257000Y-366172000D02*
X90097000Y-366172000D01*
X90097000Y-366172000D02*
X90097000Y-362332000D01*
X89177000Y-361382000D02*
X89177000Y-362332000D01*
X89177000Y-367122000D02*
X89177000Y-366172000D01*
%TO.C,R8*%
X87557000Y-362332000D02*
X85717000Y-362332000D01*
X85717000Y-362332000D02*
X85717000Y-366172000D01*
X85717000Y-366172000D02*
X87557000Y-366172000D01*
X87557000Y-366172000D02*
X87557000Y-362332000D01*
X86637000Y-361382000D02*
X86637000Y-362332000D01*
X86637000Y-367122000D02*
X86637000Y-366172000D01*
%TO.C,R7*%
X106037000Y-376332000D02*
X107877000Y-376332000D01*
X107877000Y-376332000D02*
X107877000Y-372492000D01*
X107877000Y-372492000D02*
X106037000Y-372492000D01*
X106037000Y-372492000D02*
X106037000Y-376332000D01*
X106957000Y-377282000D02*
X106957000Y-376332000D01*
X106957000Y-371542000D02*
X106957000Y-372492000D01*
%TO.C,R5*%
X103497000Y-376332000D02*
X105337000Y-376332000D01*
X105337000Y-376332000D02*
X105337000Y-372492000D01*
X105337000Y-372492000D02*
X103497000Y-372492000D01*
X103497000Y-372492000D02*
X103497000Y-376332000D01*
X104417000Y-377282000D02*
X104417000Y-376332000D01*
X104417000Y-371542000D02*
X104417000Y-372492000D01*
%TO.C,R4*%
X100957000Y-376332000D02*
X102797000Y-376332000D01*
X102797000Y-376332000D02*
X102797000Y-372492000D01*
X102797000Y-372492000D02*
X100957000Y-372492000D01*
X100957000Y-372492000D02*
X100957000Y-376332000D01*
X101877000Y-377282000D02*
X101877000Y-376332000D01*
X101877000Y-371542000D02*
X101877000Y-372492000D01*
%TO.C,R3*%
X98417000Y-376332000D02*
X100257000Y-376332000D01*
X100257000Y-376332000D02*
X100257000Y-372492000D01*
X100257000Y-372492000D02*
X98417000Y-372492000D01*
X98417000Y-372492000D02*
X98417000Y-376332000D01*
X99337000Y-377282000D02*
X99337000Y-376332000D01*
X99337000Y-371542000D02*
X99337000Y-372492000D01*
%TO.C,R2*%
X95877000Y-376332000D02*
X97717000Y-376332000D01*
X97717000Y-376332000D02*
X97717000Y-372492000D01*
X97717000Y-372492000D02*
X95877000Y-372492000D01*
X95877000Y-372492000D02*
X95877000Y-376332000D01*
X96797000Y-377282000D02*
X96797000Y-376332000D01*
X96797000Y-371542000D02*
X96797000Y-372492000D01*
%TO.C,Q11*%
X102171000Y-335176000D02*
X91931000Y-335176000D01*
X102171000Y-351066000D02*
X91931000Y-351066000D01*
X102171000Y-351066000D02*
X102171000Y-335176000D01*
X91931000Y-351066000D02*
X91931000Y-335176000D01*
X99591000Y-335176000D02*
X99591000Y-332636000D01*
X97051000Y-335176000D02*
X97051000Y-332636000D01*
X94511000Y-335176000D02*
X94511000Y-332636000D01*
%TO.C,Q10*%
X90995000Y-335176000D02*
X80755000Y-335176000D01*
X90995000Y-351066000D02*
X80755000Y-351066000D01*
X90995000Y-351066000D02*
X90995000Y-335176000D01*
X80755000Y-351066000D02*
X80755000Y-335176000D01*
X88415000Y-335176000D02*
X88415000Y-332636000D01*
X85875000Y-335176000D02*
X85875000Y-332636000D01*
X83335000Y-335176000D02*
X83335000Y-332636000D01*
%TO.C,Q9*%
X80073000Y-335176000D02*
X69833000Y-335176000D01*
X80073000Y-351066000D02*
X69833000Y-351066000D01*
X80073000Y-351066000D02*
X80073000Y-335176000D01*
X69833000Y-351066000D02*
X69833000Y-335176000D01*
X77493000Y-335176000D02*
X77493000Y-332636000D01*
X74953000Y-335176000D02*
X74953000Y-332636000D01*
X72413000Y-335176000D02*
X72413000Y-332636000D01*
%TO.C,Q8*%
X69151000Y-335176000D02*
X58911000Y-335176000D01*
X69151000Y-351066000D02*
X58911000Y-351066000D01*
X69151000Y-351066000D02*
X69151000Y-335176000D01*
X58911000Y-351066000D02*
X58911000Y-335176000D01*
X66571000Y-335176000D02*
X66571000Y-332636000D01*
X64031000Y-335176000D02*
X64031000Y-332636000D01*
X61491000Y-335176000D02*
X61491000Y-332636000D01*
%TO.C,Q7*%
X57975000Y-335176000D02*
X47735000Y-335176000D01*
X57975000Y-351066000D02*
X47735000Y-351066000D01*
X57975000Y-351066000D02*
X57975000Y-335176000D01*
X47735000Y-351066000D02*
X47735000Y-335176000D01*
X55395000Y-335176000D02*
X55395000Y-332636000D01*
X52855000Y-335176000D02*
X52855000Y-332636000D01*
X50315000Y-335176000D02*
X50315000Y-332636000D01*
%TO.C,Q5*%
X98869000Y-312570000D02*
X88629000Y-312570000D01*
X98869000Y-328460000D02*
X88629000Y-328460000D01*
X98869000Y-328460000D02*
X98869000Y-312570000D01*
X88629000Y-328460000D02*
X88629000Y-312570000D01*
X96289000Y-312570000D02*
X96289000Y-310030000D01*
X93749000Y-312570000D02*
X93749000Y-310030000D01*
X91209000Y-312570000D02*
X91209000Y-310030000D01*
%TO.C,Q4*%
X87439000Y-312570000D02*
X77199000Y-312570000D01*
X87439000Y-328460000D02*
X77199000Y-328460000D01*
X87439000Y-328460000D02*
X87439000Y-312570000D01*
X77199000Y-328460000D02*
X77199000Y-312570000D01*
X84859000Y-312570000D02*
X84859000Y-310030000D01*
X82319000Y-312570000D02*
X82319000Y-310030000D01*
X79779000Y-312570000D02*
X79779000Y-310030000D01*
%TO.C,Q3*%
X75898000Y-312571000D02*
X65658000Y-312571000D01*
X75898000Y-328461000D02*
X65658000Y-328461000D01*
X75898000Y-328461000D02*
X75898000Y-312571000D01*
X65658000Y-328461000D02*
X65658000Y-312571000D01*
X73318000Y-312571000D02*
X73318000Y-310031000D01*
X70778000Y-312571000D02*
X70778000Y-310031000D01*
X68238000Y-312571000D02*
X68238000Y-310031000D01*
%TO.C,Q2*%
X64759000Y-312629000D02*
X54519000Y-312629000D01*
X64759000Y-328519000D02*
X54519000Y-328519000D01*
X64759000Y-328519000D02*
X64759000Y-312629000D01*
X54519000Y-328519000D02*
X54519000Y-312629000D01*
X62179000Y-312629000D02*
X62179000Y-310089000D01*
X59639000Y-312629000D02*
X59639000Y-310089000D01*
X57099000Y-312629000D02*
X57099000Y-310089000D01*
%TO.C,U30*%
X113976000Y-278045000D02*
X115956000Y-278045000D01*
X113976000Y-278395000D02*
X113976000Y-278045000D01*
X113206000Y-278395000D02*
X113976000Y-278395000D01*
X113206000Y-276345000D02*
X113206000Y-278395000D01*
X113206000Y-274225000D02*
X113206000Y-274525000D01*
X114006000Y-274225000D02*
X113206000Y-274225000D01*
X114006000Y-272925000D02*
X114006000Y-274225000D01*
X121826000Y-272925000D02*
X114006000Y-272925000D01*
X121826000Y-274225000D02*
X121826000Y-272925000D01*
X122626000Y-274225000D02*
X121826000Y-274225000D01*
X122626000Y-274525000D02*
X122626000Y-274225000D01*
X122626000Y-278395000D02*
X122626000Y-276345000D01*
X121856000Y-278395000D02*
X122626000Y-278395000D01*
X121856000Y-278045000D02*
X121856000Y-278395000D01*
X119876000Y-278045000D02*
X121856000Y-278045000D01*
X119876000Y-278635000D02*
X119876000Y-278045000D01*
%TO.C,U21*%
X65783000Y-372222000D02*
X56183000Y-372222000D01*
X65783000Y-384222000D02*
X56183000Y-384222000D01*
X65783000Y-384222000D02*
X65783000Y-372222000D01*
X56183000Y-384222000D02*
X56183000Y-372222000D01*
%TO.C,U11*%
X117371000Y-367046000D02*
X120419000Y-367046000D01*
X117371000Y-372126000D02*
X117371000Y-367046000D01*
X120419000Y-372126000D02*
X117371000Y-372126000D01*
X120511000Y-384086000D02*
X120511000Y-355086000D01*
X68511000Y-384086000D02*
X68511000Y-355086000D01*
X68511000Y-355086000D02*
X120511000Y-355086000D01*
X68511000Y-384086000D02*
X120511000Y-384086000D01*
%TO.C,U10*%
X64923000Y-359296000D02*
X66313000Y-359296000D01*
X64923000Y-357056000D02*
X64923000Y-359296000D01*
X57043000Y-357056000D02*
X64923000Y-357056000D01*
X57043000Y-359296000D02*
X57043000Y-357056000D01*
X55643000Y-359296000D02*
X57043000Y-359296000D01*
X55643000Y-359306000D02*
X55643000Y-361076000D01*
X55643000Y-361076000D02*
X66313000Y-361076000D01*
X66313000Y-361076000D02*
X66313000Y-359296000D01*
%TO.C,R6*%
X41171000Y-368113000D02*
X41171000Y-369063000D01*
X41171000Y-373853000D02*
X41171000Y-372903000D01*
X40251000Y-369063000D02*
X40251000Y-372903000D01*
X42091000Y-369063000D02*
X40251000Y-369063000D01*
X42091000Y-372903000D02*
X42091000Y-369063000D01*
X40251000Y-372903000D02*
X42091000Y-372903000D01*
%TO.C,R1*%
X94257000Y-371542000D02*
X94257000Y-372492000D01*
X94257000Y-377282000D02*
X94257000Y-376332000D01*
X93337000Y-372492000D02*
X93337000Y-376332000D01*
X95177000Y-372492000D02*
X93337000Y-372492000D01*
X95177000Y-376332000D02*
X95177000Y-372492000D01*
X93337000Y-376332000D02*
X95177000Y-376332000D01*
%TO.C,Q6*%
X51459000Y-370569000D02*
X51459000Y-373109000D01*
X48919000Y-370569000D02*
X48919000Y-373109000D01*
X46379000Y-370569000D02*
X46379000Y-373109000D01*
X54039000Y-354679000D02*
X54039000Y-370569000D01*
X43799000Y-354679000D02*
X43799000Y-370569000D01*
X43799000Y-354679000D02*
X54039000Y-354679000D01*
X43799000Y-370569000D02*
X54039000Y-370569000D01*
%TO.C,Q1*%
X45856000Y-312525000D02*
X45856000Y-309985000D01*
X48396000Y-312525000D02*
X48396000Y-309985000D01*
X50936000Y-312525000D02*
X50936000Y-309985000D01*
X43276000Y-328415000D02*
X43276000Y-312525000D01*
X53516000Y-328415000D02*
X53516000Y-312525000D01*
X53516000Y-328415000D02*
X43276000Y-328415000D01*
X53516000Y-312525000D02*
X43276000Y-312525000D01*
%TO.C,Murata-Ceramic-Capacitor-50v1-22uF2*%
X57269000Y-365635000D02*
X57269000Y-366893000D01*
X59109000Y-365635000D02*
X59109000Y-366893000D01*
%TO.C,Murata-Ceramic-Capacitor-50v1-22uF1*%
X65205000Y-366933000D02*
X65205000Y-365675000D01*
X63365000Y-366933000D02*
X63365000Y-365675000D01*
D15*
%TO.C,J8*%
X106940000Y-279365000D02*
G75*
G03*
X106940000Y-279365000I-200000J0D01*
G01*
D16*
X102168000Y-289404300D02*
X102168000Y-280057100D01*
X134172000Y-289404300D02*
X102168000Y-289404300D01*
X134172000Y-280057100D02*
X134172000Y-289404300D01*
X102168000Y-280057100D02*
X134172000Y-280057100D01*
D14*
%TO.C,D1*%
X50509000Y-381978000D02*
X50509000Y-379038000D01*
X50269000Y-381978000D02*
X50269000Y-379038000D01*
X50389000Y-381978000D02*
X50389000Y-379038000D01*
X45849000Y-379038000D02*
X45849000Y-379168000D01*
X51289000Y-379038000D02*
X45849000Y-379038000D01*
X51289000Y-379168000D02*
X51289000Y-379038000D01*
X45849000Y-381978000D02*
X45849000Y-381848000D01*
X51289000Y-381978000D02*
X45849000Y-381978000D01*
X51289000Y-381848000D02*
X51289000Y-381978000D01*
%TO.C,X19*%
D17*
X125668253Y-308488607D02*
X126718121Y-310063410D01*
X126718121Y-308488607D02*
X125668253Y-310063410D01*
X128142943Y-310063410D02*
X127243056Y-310063410D01*
X127693000Y-310063410D02*
X127693000Y-308488607D01*
X127543018Y-308713579D01*
X127393037Y-308863560D01*
X127243056Y-308938551D01*
X128892849Y-310063410D02*
X129192812Y-310063410D01*
X129342793Y-309988420D01*
X129417784Y-309913429D01*
X129567765Y-309688457D01*
X129642756Y-309388495D01*
X129642756Y-308788570D01*
X129567765Y-308638589D01*
X129492774Y-308563598D01*
X129342793Y-308488607D01*
X129042831Y-308488607D01*
X128892849Y-308563598D01*
X128817859Y-308638589D01*
X128742868Y-308788570D01*
X128742868Y-309163523D01*
X128817859Y-309313504D01*
X128892849Y-309388495D01*
X129042831Y-309463485D01*
X129342793Y-309463485D01*
X129492774Y-309388495D01*
X129567765Y-309313504D01*
X129642756Y-309163523D01*
X134572943Y-313603410D02*
X133673056Y-313603410D01*
X134123000Y-313603410D02*
X134123000Y-312028607D01*
X133973018Y-312253579D01*
X133823037Y-312403560D01*
X133673056Y-312478551D01*
%TO.C,X38*%
X137145253Y-286163607D02*
X138195121Y-287738410D01*
X138195121Y-286163607D02*
X137145253Y-287738410D01*
X138645065Y-286163607D02*
X139619943Y-286163607D01*
X139095009Y-286763532D01*
X139319981Y-286763532D01*
X139469962Y-286838523D01*
X139544953Y-286913514D01*
X139619943Y-287063495D01*
X139619943Y-287438448D01*
X139544953Y-287588429D01*
X139469962Y-287663420D01*
X139319981Y-287738410D01*
X138870037Y-287738410D01*
X138720056Y-287663420D01*
X138645065Y-287588429D01*
X140519831Y-286838523D02*
X140369849Y-286763532D01*
X140294859Y-286688542D01*
X140219868Y-286538560D01*
X140219868Y-286463570D01*
X140294859Y-286313589D01*
X140369849Y-286238598D01*
X140519831Y-286163607D01*
X140819793Y-286163607D01*
X140969774Y-286238598D01*
X141044765Y-286313589D01*
X141119756Y-286463570D01*
X141119756Y-286538560D01*
X141044765Y-286688542D01*
X140969774Y-286763532D01*
X140819793Y-286838523D01*
X140519831Y-286838523D01*
X140369849Y-286913514D01*
X140294859Y-286988504D01*
X140219868Y-287138485D01*
X140219868Y-287438448D01*
X140294859Y-287588429D01*
X140369849Y-287663420D01*
X140519831Y-287738410D01*
X140819793Y-287738410D01*
X140969774Y-287663420D01*
X141044765Y-287588429D01*
X141119756Y-287438448D01*
X141119756Y-287138485D01*
X141044765Y-286988504D01*
X140969774Y-286913514D01*
X140819793Y-286838523D01*
X133189943Y-284198410D02*
X132290056Y-284198410D01*
X132740000Y-284198410D02*
X132740000Y-282623607D01*
X132590018Y-282848579D01*
X132440037Y-282998560D01*
X132290056Y-283073551D01*
%TO.C,X28*%
X153247607Y-344700746D02*
X154822410Y-343650878D01*
X153247607Y-343650878D02*
X154822410Y-344700746D01*
X153397589Y-343125943D02*
X153322598Y-343050953D01*
X153247607Y-342900971D01*
X153247607Y-342526018D01*
X153322598Y-342376037D01*
X153397589Y-342301046D01*
X153547570Y-342226056D01*
X153697551Y-342226056D01*
X153922523Y-342301046D01*
X154822410Y-343200934D01*
X154822410Y-342226056D01*
X153922523Y-341326168D02*
X153847532Y-341476150D01*
X153772542Y-341551140D01*
X153622560Y-341626131D01*
X153547570Y-341626131D01*
X153397589Y-341551140D01*
X153322598Y-341476150D01*
X153247607Y-341326168D01*
X153247607Y-341026206D01*
X153322598Y-340876225D01*
X153397589Y-340801234D01*
X153547570Y-340726243D01*
X153622560Y-340726243D01*
X153772542Y-340801234D01*
X153847532Y-340876225D01*
X153922523Y-341026206D01*
X153922523Y-341326168D01*
X153997514Y-341476150D01*
X154072504Y-341551140D01*
X154222485Y-341626131D01*
X154522448Y-341626131D01*
X154672429Y-341551140D01*
X154747420Y-341476150D01*
X154822410Y-341326168D01*
X154822410Y-341026206D01*
X154747420Y-340876225D01*
X154672429Y-340801234D01*
X154522448Y-340726243D01*
X154222485Y-340726243D01*
X154072504Y-340801234D01*
X153997514Y-340876225D01*
X153922523Y-341026206D01*
X151282410Y-348656056D02*
X151282410Y-349555943D01*
X151282410Y-349106000D02*
X149707607Y-349106000D01*
X149932579Y-349255981D01*
X150082560Y-349405962D01*
X150157551Y-349555943D01*
%TO.C,X26*%
X87290253Y-284841607D02*
X88340121Y-286416410D01*
X88340121Y-284841607D02*
X87290253Y-286416410D01*
X88865056Y-284991589D02*
X88940046Y-284916598D01*
X89090028Y-284841607D01*
X89464981Y-284841607D01*
X89614962Y-284916598D01*
X89689953Y-284991589D01*
X89764943Y-285141570D01*
X89764943Y-285291551D01*
X89689953Y-285516523D01*
X88790065Y-286416410D01*
X89764943Y-286416410D01*
X91114774Y-284841607D02*
X90814812Y-284841607D01*
X90664831Y-284916598D01*
X90589840Y-284991589D01*
X90439859Y-285216560D01*
X90364868Y-285516523D01*
X90364868Y-286116448D01*
X90439859Y-286266429D01*
X90514849Y-286341420D01*
X90664831Y-286416410D01*
X90964793Y-286416410D01*
X91114774Y-286341420D01*
X91189765Y-286266429D01*
X91264756Y-286116448D01*
X91264756Y-285741495D01*
X91189765Y-285591514D01*
X91114774Y-285516523D01*
X90964793Y-285441532D01*
X90664831Y-285441532D01*
X90514849Y-285516523D01*
X90439859Y-285591514D01*
X90364868Y-285741495D01*
X96194943Y-289956410D02*
X95295056Y-289956410D01*
X95745000Y-289956410D02*
X95745000Y-288381607D01*
X95595018Y-288606579D01*
X95445037Y-288756560D01*
X95295056Y-288831551D01*
%TO.C,X25*%
X82538607Y-283412746D02*
X84113410Y-282362878D01*
X82538607Y-282362878D02*
X84113410Y-283412746D01*
X82688589Y-281837943D02*
X82613598Y-281762953D01*
X82538607Y-281612971D01*
X82538607Y-281238018D01*
X82613598Y-281088037D01*
X82688589Y-281013046D01*
X82838570Y-280938056D01*
X82988551Y-280938056D01*
X83213523Y-281013046D01*
X84113410Y-281912934D01*
X84113410Y-280938056D01*
X82538607Y-279513234D02*
X82538607Y-280263140D01*
X83288514Y-280338131D01*
X83213523Y-280263140D01*
X83138532Y-280113159D01*
X83138532Y-279738206D01*
X83213523Y-279588225D01*
X83288514Y-279513234D01*
X83438495Y-279438243D01*
X83813448Y-279438243D01*
X83963429Y-279513234D01*
X84038420Y-279588225D01*
X84113410Y-279738206D01*
X84113410Y-280113159D01*
X84038420Y-280263140D01*
X83963429Y-280338131D01*
X87653410Y-274508056D02*
X87653410Y-275407943D01*
X87653410Y-274958000D02*
X86078607Y-274958000D01*
X86303579Y-275107981D01*
X86453560Y-275257962D01*
X86528551Y-275407943D01*
%TO.C,X20*%
X92976607Y-300963746D02*
X94551410Y-299913878D01*
X92976607Y-299913878D02*
X94551410Y-300963746D01*
X93126589Y-299388943D02*
X93051598Y-299313953D01*
X92976607Y-299163971D01*
X92976607Y-298789018D01*
X93051598Y-298639037D01*
X93126589Y-298564046D01*
X93276570Y-298489056D01*
X93426551Y-298489056D01*
X93651523Y-298564046D01*
X94551410Y-299463934D01*
X94551410Y-298489056D01*
X92976607Y-297514178D02*
X92976607Y-297364197D01*
X93051598Y-297214215D01*
X93126589Y-297139225D01*
X93276570Y-297064234D01*
X93576532Y-296989243D01*
X93951485Y-296989243D01*
X94251448Y-297064234D01*
X94401429Y-297139225D01*
X94476420Y-297214215D01*
X94551410Y-297364197D01*
X94551410Y-297514178D01*
X94476420Y-297664159D01*
X94401429Y-297739150D01*
X94251448Y-297814140D01*
X93951485Y-297889131D01*
X93576532Y-297889131D01*
X93276570Y-297814140D01*
X93126589Y-297739150D01*
X93051598Y-297664159D01*
X92976607Y-297514178D01*
X98091410Y-292059056D02*
X98091410Y-292958943D01*
X98091410Y-292509000D02*
X96516607Y-292509000D01*
X96741579Y-292658981D01*
X96891560Y-292808962D01*
X96966551Y-292958943D01*
%TO.C,X18*%
X81800607Y-300963746D02*
X83375410Y-299913878D01*
X81800607Y-299913878D02*
X83375410Y-300963746D01*
X83375410Y-298489056D02*
X83375410Y-299388943D01*
X83375410Y-298939000D02*
X81800607Y-298939000D01*
X82025579Y-299088981D01*
X82175560Y-299238962D01*
X82250551Y-299388943D01*
X82475523Y-297589168D02*
X82400532Y-297739150D01*
X82325542Y-297814140D01*
X82175560Y-297889131D01*
X82100570Y-297889131D01*
X81950589Y-297814140D01*
X81875598Y-297739150D01*
X81800607Y-297589168D01*
X81800607Y-297289206D01*
X81875598Y-297139225D01*
X81950589Y-297064234D01*
X82100570Y-296989243D01*
X82175560Y-296989243D01*
X82325542Y-297064234D01*
X82400532Y-297139225D01*
X82475523Y-297289206D01*
X82475523Y-297589168D01*
X82550514Y-297739150D01*
X82625504Y-297814140D01*
X82775485Y-297889131D01*
X83075448Y-297889131D01*
X83225429Y-297814140D01*
X83300420Y-297739150D01*
X83375410Y-297589168D01*
X83375410Y-297289206D01*
X83300420Y-297139225D01*
X83225429Y-297064234D01*
X83075448Y-296989243D01*
X82775485Y-296989243D01*
X82625504Y-297064234D01*
X82550514Y-297139225D01*
X82475523Y-297289206D01*
X86915410Y-292059056D02*
X86915410Y-292958943D01*
X86915410Y-292509000D02*
X85340607Y-292509000D01*
X85565579Y-292658981D01*
X85715560Y-292808962D01*
X85790551Y-292958943D01*
%TO.C,X17*%
X70370607Y-300963746D02*
X71945410Y-299913878D01*
X70370607Y-299913878D02*
X71945410Y-300963746D01*
X71945410Y-298489056D02*
X71945410Y-299388943D01*
X71945410Y-298939000D02*
X70370607Y-298939000D01*
X70595579Y-299088981D01*
X70745560Y-299238962D01*
X70820551Y-299388943D01*
X70370607Y-297964121D02*
X70370607Y-296914253D01*
X71945410Y-297589168D01*
X75485410Y-292059056D02*
X75485410Y-292958943D01*
X75485410Y-292509000D02*
X73910607Y-292509000D01*
X74135579Y-292658981D01*
X74285560Y-292808962D01*
X74360551Y-292958943D01*
%TO.C,X16*%
X59448607Y-300963746D02*
X61023410Y-299913878D01*
X59448607Y-299913878D02*
X61023410Y-300963746D01*
X61023410Y-298489056D02*
X61023410Y-299388943D01*
X61023410Y-298939000D02*
X59448607Y-298939000D01*
X59673579Y-299088981D01*
X59823560Y-299238962D01*
X59898551Y-299388943D01*
X59448607Y-297139225D02*
X59448607Y-297439187D01*
X59523598Y-297589168D01*
X59598589Y-297664159D01*
X59823560Y-297814140D01*
X60123523Y-297889131D01*
X60723448Y-297889131D01*
X60873429Y-297814140D01*
X60948420Y-297739150D01*
X61023410Y-297589168D01*
X61023410Y-297289206D01*
X60948420Y-297139225D01*
X60873429Y-297064234D01*
X60723448Y-296989243D01*
X60348495Y-296989243D01*
X60198514Y-297064234D01*
X60123523Y-297139225D01*
X60048532Y-297289206D01*
X60048532Y-297589168D01*
X60123523Y-297739150D01*
X60198514Y-297814140D01*
X60348495Y-297889131D01*
X64563410Y-292059056D02*
X64563410Y-292958943D01*
X64563410Y-292509000D02*
X62988607Y-292509000D01*
X63213579Y-292658981D01*
X63363560Y-292808962D01*
X63438551Y-292958943D01*
%TO.C,X15*%
X125668253Y-313187607D02*
X126718121Y-314762410D01*
X126718121Y-313187607D02*
X125668253Y-314762410D01*
X128142943Y-314762410D02*
X127243056Y-314762410D01*
X127693000Y-314762410D02*
X127693000Y-313187607D01*
X127543018Y-313412579D01*
X127393037Y-313562560D01*
X127243056Y-313637551D01*
X129567765Y-313187607D02*
X128817859Y-313187607D01*
X128742868Y-313937514D01*
X128817859Y-313862523D01*
X128967840Y-313787532D01*
X129342793Y-313787532D01*
X129492774Y-313862523D01*
X129567765Y-313937514D01*
X129642756Y-314087495D01*
X129642756Y-314462448D01*
X129567765Y-314612429D01*
X129492774Y-314687420D01*
X129342793Y-314762410D01*
X128967840Y-314762410D01*
X128817859Y-314687420D01*
X128742868Y-314612429D01*
X134572943Y-318302410D02*
X133673056Y-318302410D01*
X134123000Y-318302410D02*
X134123000Y-316727607D01*
X133973018Y-316952579D01*
X133823037Y-317102560D01*
X133673056Y-317177551D01*
%TO.C,X14*%
X125668253Y-318013607D02*
X126718121Y-319588410D01*
X126718121Y-318013607D02*
X125668253Y-319588410D01*
X128142943Y-319588410D02*
X127243056Y-319588410D01*
X127693000Y-319588410D02*
X127693000Y-318013607D01*
X127543018Y-318238579D01*
X127393037Y-318388560D01*
X127243056Y-318463551D01*
X129492774Y-318538542D02*
X129492774Y-319588410D01*
X129117821Y-317938617D02*
X128742868Y-319063476D01*
X129717746Y-319063476D01*
X134572943Y-323128410D02*
X133673056Y-323128410D01*
X134123000Y-323128410D02*
X134123000Y-321553607D01*
X133973018Y-321778579D01*
X133823037Y-321928560D01*
X133673056Y-322003551D01*
%TO.C,X13*%
X125668253Y-322839607D02*
X126718121Y-324414410D01*
X126718121Y-322839607D02*
X125668253Y-324414410D01*
X128142943Y-324414410D02*
X127243056Y-324414410D01*
X127693000Y-324414410D02*
X127693000Y-322839607D01*
X127543018Y-323064579D01*
X127393037Y-323214560D01*
X127243056Y-323289551D01*
X128667878Y-322839607D02*
X129642756Y-322839607D01*
X129117821Y-323439532D01*
X129342793Y-323439532D01*
X129492774Y-323514523D01*
X129567765Y-323589514D01*
X129642756Y-323739495D01*
X129642756Y-324114448D01*
X129567765Y-324264429D01*
X129492774Y-324339420D01*
X129342793Y-324414410D01*
X128892849Y-324414410D01*
X128742868Y-324339420D01*
X128667878Y-324264429D01*
X134572943Y-327954410D02*
X133673056Y-327954410D01*
X134123000Y-327954410D02*
X134123000Y-326379607D01*
X133973018Y-326604579D01*
X133823037Y-326754560D01*
X133673056Y-326829551D01*
%TO.C,X12*%
X48272607Y-300963746D02*
X49847410Y-299913878D01*
X48272607Y-299913878D02*
X49847410Y-300963746D01*
X49847410Y-298489056D02*
X49847410Y-299388943D01*
X49847410Y-298939000D02*
X48272607Y-298939000D01*
X48497579Y-299088981D01*
X48647560Y-299238962D01*
X48722551Y-299388943D01*
X48422589Y-297889131D02*
X48347598Y-297814140D01*
X48272607Y-297664159D01*
X48272607Y-297289206D01*
X48347598Y-297139225D01*
X48422589Y-297064234D01*
X48572570Y-296989243D01*
X48722551Y-296989243D01*
X48947523Y-297064234D01*
X49847410Y-297964121D01*
X49847410Y-296989243D01*
X53387410Y-292059056D02*
X53387410Y-292958943D01*
X53387410Y-292509000D02*
X51812607Y-292509000D01*
X52037579Y-292658981D01*
X52187560Y-292808962D01*
X52262551Y-292958943D01*
%TO.C,X11*%
X88912607Y-300963746D02*
X90487410Y-299913878D01*
X88912607Y-299913878D02*
X90487410Y-300963746D01*
X90487410Y-298489056D02*
X90487410Y-299388943D01*
X90487410Y-298939000D02*
X88912607Y-298939000D01*
X89137579Y-299088981D01*
X89287560Y-299238962D01*
X89362551Y-299388943D01*
X90487410Y-296989243D02*
X90487410Y-297889131D01*
X90487410Y-297439187D02*
X88912607Y-297439187D01*
X89137579Y-297589168D01*
X89287560Y-297739150D01*
X89362551Y-297889131D01*
X94027410Y-292059056D02*
X94027410Y-292958943D01*
X94027410Y-292509000D02*
X92452607Y-292509000D01*
X92677579Y-292658981D01*
X92827560Y-292808962D01*
X92902551Y-292958943D01*
%TO.C,X10*%
X77736607Y-300963746D02*
X79311410Y-299913878D01*
X77736607Y-299913878D02*
X79311410Y-300963746D01*
X79311410Y-298489056D02*
X79311410Y-299388943D01*
X79311410Y-298939000D02*
X77736607Y-298939000D01*
X77961579Y-299088981D01*
X78111560Y-299238962D01*
X78186551Y-299388943D01*
X77736607Y-297514178D02*
X77736607Y-297364197D01*
X77811598Y-297214215D01*
X77886589Y-297139225D01*
X78036570Y-297064234D01*
X78336532Y-296989243D01*
X78711485Y-296989243D01*
X79011448Y-297064234D01*
X79161429Y-297139225D01*
X79236420Y-297214215D01*
X79311410Y-297364197D01*
X79311410Y-297514178D01*
X79236420Y-297664159D01*
X79161429Y-297739150D01*
X79011448Y-297814140D01*
X78711485Y-297889131D01*
X78336532Y-297889131D01*
X78036570Y-297814140D01*
X77886589Y-297739150D01*
X77811598Y-297664159D01*
X77736607Y-297514178D01*
X82851410Y-292059056D02*
X82851410Y-292958943D01*
X82851410Y-292509000D02*
X81276607Y-292509000D01*
X81501579Y-292658981D01*
X81651560Y-292808962D01*
X81726551Y-292958943D01*
%TO.C,X9*%
X126418159Y-353573607D02*
X127468028Y-355148410D01*
X127468028Y-353573607D02*
X126418159Y-355148410D01*
X128142943Y-355148410D02*
X128442906Y-355148410D01*
X128592887Y-355073420D01*
X128667878Y-354998429D01*
X128817859Y-354773457D01*
X128892849Y-354473495D01*
X128892849Y-353873570D01*
X128817859Y-353723589D01*
X128742868Y-353648598D01*
X128592887Y-353573607D01*
X128292924Y-353573607D01*
X128142943Y-353648598D01*
X128067953Y-353723589D01*
X127992962Y-353873570D01*
X127992962Y-354248523D01*
X128067953Y-354398504D01*
X128142943Y-354473495D01*
X128292924Y-354548485D01*
X128592887Y-354548485D01*
X128742868Y-354473495D01*
X128817859Y-354398504D01*
X128892849Y-354248523D01*
X134572943Y-358688410D02*
X133673056Y-358688410D01*
X134123000Y-358688410D02*
X134123000Y-357113607D01*
X133973018Y-357338579D01*
X133823037Y-357488560D01*
X133673056Y-357563551D01*
%TO.C,X8*%
X126418159Y-327919607D02*
X127468028Y-329494410D01*
X127468028Y-327919607D02*
X126418159Y-329494410D01*
X128292924Y-328594523D02*
X128142943Y-328519532D01*
X128067953Y-328444542D01*
X127992962Y-328294560D01*
X127992962Y-328219570D01*
X128067953Y-328069589D01*
X128142943Y-327994598D01*
X128292924Y-327919607D01*
X128592887Y-327919607D01*
X128742868Y-327994598D01*
X128817859Y-328069589D01*
X128892849Y-328219570D01*
X128892849Y-328294560D01*
X128817859Y-328444542D01*
X128742868Y-328519532D01*
X128592887Y-328594523D01*
X128292924Y-328594523D01*
X128142943Y-328669514D01*
X128067953Y-328744504D01*
X127992962Y-328894485D01*
X127992962Y-329194448D01*
X128067953Y-329344429D01*
X128142943Y-329419420D01*
X128292924Y-329494410D01*
X128592887Y-329494410D01*
X128742868Y-329419420D01*
X128817859Y-329344429D01*
X128892849Y-329194448D01*
X128892849Y-328894485D01*
X128817859Y-328744504D01*
X128742868Y-328669514D01*
X128592887Y-328594523D01*
X134572943Y-333034410D02*
X133673056Y-333034410D01*
X134123000Y-333034410D02*
X134123000Y-331459607D01*
X133973018Y-331684579D01*
X133823037Y-331834560D01*
X133673056Y-331909551D01*
%TO.C,X7*%
X126418159Y-332999607D02*
X127468028Y-334574410D01*
X127468028Y-332999607D02*
X126418159Y-334574410D01*
X127917971Y-332999607D02*
X128967840Y-332999607D01*
X128292924Y-334574410D01*
X134572943Y-338114410D02*
X133673056Y-338114410D01*
X134123000Y-338114410D02*
X134123000Y-336539607D01*
X133973018Y-336764579D01*
X133823037Y-336914560D01*
X133673056Y-336989551D01*
%TO.C,X6*%
X43954607Y-300213840D02*
X45529410Y-299163971D01*
X43954607Y-299163971D02*
X45529410Y-300213840D01*
X43954607Y-297889131D02*
X43954607Y-298189093D01*
X44029598Y-298339075D01*
X44104589Y-298414065D01*
X44329560Y-298564046D01*
X44629523Y-298639037D01*
X45229448Y-298639037D01*
X45379429Y-298564046D01*
X45454420Y-298489056D01*
X45529410Y-298339075D01*
X45529410Y-298039112D01*
X45454420Y-297889131D01*
X45379429Y-297814140D01*
X45229448Y-297739150D01*
X44854495Y-297739150D01*
X44704514Y-297814140D01*
X44629523Y-297889131D01*
X44554532Y-298039112D01*
X44554532Y-298339075D01*
X44629523Y-298489056D01*
X44704514Y-298564046D01*
X44854495Y-298639037D01*
X49069410Y-292059056D02*
X49069410Y-292958943D01*
X49069410Y-292509000D02*
X47494607Y-292509000D01*
X47719579Y-292658981D01*
X47869560Y-292808962D01*
X47944551Y-292958943D01*
%TO.C,X5*%
X66306607Y-300213840D02*
X67881410Y-299163971D01*
X66306607Y-299163971D02*
X67881410Y-300213840D01*
X66306607Y-297814140D02*
X66306607Y-298564046D01*
X67056514Y-298639037D01*
X66981523Y-298564046D01*
X66906532Y-298414065D01*
X66906532Y-298039112D01*
X66981523Y-297889131D01*
X67056514Y-297814140D01*
X67206495Y-297739150D01*
X67581448Y-297739150D01*
X67731429Y-297814140D01*
X67806420Y-297889131D01*
X67881410Y-298039112D01*
X67881410Y-298414065D01*
X67806420Y-298564046D01*
X67731429Y-298639037D01*
%TO.C,X4*%
X60245410Y-292059056D02*
X60245410Y-292958943D01*
X60245410Y-292509000D02*
X58670607Y-292509000D01*
X58895579Y-292658981D01*
X59045560Y-292808962D01*
X59120551Y-292958943D01*
%TO.C,X3*%
X126418159Y-348620607D02*
X127468028Y-350195410D01*
X127468028Y-348620607D02*
X126418159Y-350195410D01*
X127917971Y-348620607D02*
X128892849Y-348620607D01*
X128367915Y-349220532D01*
X128592887Y-349220532D01*
X128742868Y-349295523D01*
X128817859Y-349370514D01*
X128892849Y-349520495D01*
X128892849Y-349895448D01*
X128817859Y-350045429D01*
X128742868Y-350120420D01*
X128592887Y-350195410D01*
X128142943Y-350195410D01*
X127992962Y-350120420D01*
X127917971Y-350045429D01*
X134572943Y-353735410D02*
X133673056Y-353735410D01*
X134123000Y-353735410D02*
X134123000Y-352160607D01*
X133973018Y-352385579D01*
X133823037Y-352535560D01*
X133673056Y-352610551D01*
%TO.C,X2*%
X126418159Y-338333607D02*
X127468028Y-339908410D01*
X127468028Y-338333607D02*
X126418159Y-339908410D01*
X127992962Y-338483589D02*
X128067953Y-338408598D01*
X128217934Y-338333607D01*
X128592887Y-338333607D01*
X128742868Y-338408598D01*
X128817859Y-338483589D01*
X128892849Y-338633570D01*
X128892849Y-338783551D01*
X128817859Y-339008523D01*
X127917971Y-339908410D01*
X128892849Y-339908410D01*
X134572943Y-343448410D02*
X133673056Y-343448410D01*
X134123000Y-343448410D02*
X134123000Y-341873607D01*
X133973018Y-342098579D01*
X133823037Y-342248560D01*
X133673056Y-342323551D01*
%TO.C,X1*%
X126418159Y-343413607D02*
X127468028Y-344988410D01*
X127468028Y-343413607D02*
X126418159Y-344988410D01*
X128892849Y-344988410D02*
X127992962Y-344988410D01*
X128442906Y-344988410D02*
X128442906Y-343413607D01*
X128292924Y-343638579D01*
X128142943Y-343788560D01*
X127992962Y-343863551D01*
X134572943Y-348528410D02*
X133673056Y-348528410D01*
X134123000Y-348528410D02*
X134123000Y-346953607D01*
X133973018Y-347178579D01*
X133823037Y-347328560D01*
X133673056Y-347403551D01*
%TO.C,U14*%
D11*
X144937380Y-284417095D02*
X145746904Y-284417095D01*
X145842142Y-284369476D01*
X145889761Y-284321857D01*
X145937380Y-284226619D01*
X145937380Y-284036142D01*
X145889761Y-283940904D01*
X145842142Y-283893285D01*
X145746904Y-283845666D01*
X144937380Y-283845666D01*
X145937380Y-282845666D02*
X145937380Y-283417095D01*
X145937380Y-283131380D02*
X144937380Y-283131380D01*
X145080238Y-283226619D01*
X145175476Y-283321857D01*
X145223095Y-283417095D01*
X145270714Y-281988523D02*
X145937380Y-281988523D01*
X144889761Y-282226619D02*
X145604047Y-282464714D01*
X145604047Y-281845666D01*
%TO.C,U3*%
X147895380Y-370760904D02*
X148704904Y-370760904D01*
X148800142Y-370713285D01*
X148847761Y-370665666D01*
X148895380Y-370570428D01*
X148895380Y-370379952D01*
X148847761Y-370284714D01*
X148800142Y-370237095D01*
X148704904Y-370189476D01*
X147895380Y-370189476D01*
X147895380Y-369808523D02*
X147895380Y-369189476D01*
X148276333Y-369522809D01*
X148276333Y-369379952D01*
X148323952Y-369284714D01*
X148371571Y-369237095D01*
X148466809Y-369189476D01*
X148704904Y-369189476D01*
X148800142Y-369237095D01*
X148847761Y-369284714D01*
X148895380Y-369379952D01*
X148895380Y-369665666D01*
X148847761Y-369760904D01*
X148800142Y-369808523D01*
%TO.C,R11*%
X96629380Y-364894857D02*
X96153190Y-365228190D01*
X96629380Y-365466285D02*
X95629380Y-365466285D01*
X95629380Y-365085333D01*
X95677000Y-364990095D01*
X95724619Y-364942476D01*
X95819857Y-364894857D01*
X95962714Y-364894857D01*
X96057952Y-364942476D01*
X96105571Y-364990095D01*
X96153190Y-365085333D01*
X96153190Y-365466285D01*
X96629380Y-363942476D02*
X96629380Y-364513904D01*
X96629380Y-364228190D02*
X95629380Y-364228190D01*
X95772238Y-364323428D01*
X95867476Y-364418666D01*
X95915095Y-364513904D01*
X96629380Y-362990095D02*
X96629380Y-363561523D01*
X96629380Y-363275809D02*
X95629380Y-363275809D01*
X95772238Y-363371047D01*
X95867476Y-363466285D01*
X95915095Y-363561523D01*
%TO.C,R10*%
X94089380Y-364894857D02*
X93613190Y-365228190D01*
X94089380Y-365466285D02*
X93089380Y-365466285D01*
X93089380Y-365085333D01*
X93137000Y-364990095D01*
X93184619Y-364942476D01*
X93279857Y-364894857D01*
X93422714Y-364894857D01*
X93517952Y-364942476D01*
X93565571Y-364990095D01*
X93613190Y-365085333D01*
X93613190Y-365466285D01*
X94089380Y-363942476D02*
X94089380Y-364513904D01*
X94089380Y-364228190D02*
X93089380Y-364228190D01*
X93232238Y-364323428D01*
X93327476Y-364418666D01*
X93375095Y-364513904D01*
X93089380Y-363323428D02*
X93089380Y-363228190D01*
X93137000Y-363132952D01*
X93184619Y-363085333D01*
X93279857Y-363037714D01*
X93470333Y-362990095D01*
X93708428Y-362990095D01*
X93898904Y-363037714D01*
X93994142Y-363085333D01*
X94041761Y-363132952D01*
X94089380Y-363228190D01*
X94089380Y-363323428D01*
X94041761Y-363418666D01*
X93994142Y-363466285D01*
X93898904Y-363513904D01*
X93708428Y-363561523D01*
X93470333Y-363561523D01*
X93279857Y-363513904D01*
X93184619Y-363466285D01*
X93137000Y-363418666D01*
X93089380Y-363323428D01*
%TO.C,R9*%
X91549380Y-364418666D02*
X91073190Y-364752000D01*
X91549380Y-364990095D02*
X90549380Y-364990095D01*
X90549380Y-364609142D01*
X90597000Y-364513904D01*
X90644619Y-364466285D01*
X90739857Y-364418666D01*
X90882714Y-364418666D01*
X90977952Y-364466285D01*
X91025571Y-364513904D01*
X91073190Y-364609142D01*
X91073190Y-364990095D01*
X91549380Y-363942476D02*
X91549380Y-363752000D01*
X91501761Y-363656761D01*
X91454142Y-363609142D01*
X91311285Y-363513904D01*
X91120809Y-363466285D01*
X90739857Y-363466285D01*
X90644619Y-363513904D01*
X90597000Y-363561523D01*
X90549380Y-363656761D01*
X90549380Y-363847238D01*
X90597000Y-363942476D01*
X90644619Y-363990095D01*
X90739857Y-364037714D01*
X90977952Y-364037714D01*
X91073190Y-363990095D01*
X91120809Y-363942476D01*
X91168428Y-363847238D01*
X91168428Y-363656761D01*
X91120809Y-363561523D01*
X91073190Y-363513904D01*
X90977952Y-363466285D01*
%TO.C,R8*%
X89009380Y-364418666D02*
X88533190Y-364752000D01*
X89009380Y-364990095D02*
X88009380Y-364990095D01*
X88009380Y-364609142D01*
X88057000Y-364513904D01*
X88104619Y-364466285D01*
X88199857Y-364418666D01*
X88342714Y-364418666D01*
X88437952Y-364466285D01*
X88485571Y-364513904D01*
X88533190Y-364609142D01*
X88533190Y-364990095D01*
X88437952Y-363847238D02*
X88390333Y-363942476D01*
X88342714Y-363990095D01*
X88247476Y-364037714D01*
X88199857Y-364037714D01*
X88104619Y-363990095D01*
X88057000Y-363942476D01*
X88009380Y-363847238D01*
X88009380Y-363656761D01*
X88057000Y-363561523D01*
X88104619Y-363513904D01*
X88199857Y-363466285D01*
X88247476Y-363466285D01*
X88342714Y-363513904D01*
X88390333Y-363561523D01*
X88437952Y-363656761D01*
X88437952Y-363847238D01*
X88485571Y-363942476D01*
X88533190Y-363990095D01*
X88628428Y-364037714D01*
X88818904Y-364037714D01*
X88914142Y-363990095D01*
X88961761Y-363942476D01*
X89009380Y-363847238D01*
X89009380Y-363656761D01*
X88961761Y-363561523D01*
X88914142Y-363513904D01*
X88818904Y-363466285D01*
X88628428Y-363466285D01*
X88533190Y-363513904D01*
X88485571Y-363561523D01*
X88437952Y-363656761D01*
%TO.C,R7*%
X105489380Y-374578666D02*
X105013190Y-374912000D01*
X105489380Y-375150095D02*
X104489380Y-375150095D01*
X104489380Y-374769142D01*
X104537000Y-374673904D01*
X104584619Y-374626285D01*
X104679857Y-374578666D01*
X104822714Y-374578666D01*
X104917952Y-374626285D01*
X104965571Y-374673904D01*
X105013190Y-374769142D01*
X105013190Y-375150095D01*
X104489380Y-374245333D02*
X104489380Y-373578666D01*
X105489380Y-374007238D01*
%TO.C,R5*%
X102949380Y-374578666D02*
X102473190Y-374912000D01*
X102949380Y-375150095D02*
X101949380Y-375150095D01*
X101949380Y-374769142D01*
X101997000Y-374673904D01*
X102044619Y-374626285D01*
X102139857Y-374578666D01*
X102282714Y-374578666D01*
X102377952Y-374626285D01*
X102425571Y-374673904D01*
X102473190Y-374769142D01*
X102473190Y-375150095D01*
X101949380Y-373673904D02*
X101949380Y-374150095D01*
X102425571Y-374197714D01*
X102377952Y-374150095D01*
X102330333Y-374054857D01*
X102330333Y-373816761D01*
X102377952Y-373721523D01*
X102425571Y-373673904D01*
X102520809Y-373626285D01*
X102758904Y-373626285D01*
X102854142Y-373673904D01*
X102901761Y-373721523D01*
X102949380Y-373816761D01*
X102949380Y-374054857D01*
X102901761Y-374150095D01*
X102854142Y-374197714D01*
%TO.C,R4*%
X100409380Y-374578666D02*
X99933190Y-374912000D01*
X100409380Y-375150095D02*
X99409380Y-375150095D01*
X99409380Y-374769142D01*
X99457000Y-374673904D01*
X99504619Y-374626285D01*
X99599857Y-374578666D01*
X99742714Y-374578666D01*
X99837952Y-374626285D01*
X99885571Y-374673904D01*
X99933190Y-374769142D01*
X99933190Y-375150095D01*
X99742714Y-373721523D02*
X100409380Y-373721523D01*
X99361761Y-373959619D02*
X100076047Y-374197714D01*
X100076047Y-373578666D01*
%TO.C,R3*%
X97869380Y-374578666D02*
X97393190Y-374912000D01*
X97869380Y-375150095D02*
X96869380Y-375150095D01*
X96869380Y-374769142D01*
X96917000Y-374673904D01*
X96964619Y-374626285D01*
X97059857Y-374578666D01*
X97202714Y-374578666D01*
X97297952Y-374626285D01*
X97345571Y-374673904D01*
X97393190Y-374769142D01*
X97393190Y-375150095D01*
X96869380Y-374245333D02*
X96869380Y-373626285D01*
X97250333Y-373959619D01*
X97250333Y-373816761D01*
X97297952Y-373721523D01*
X97345571Y-373673904D01*
X97440809Y-373626285D01*
X97678904Y-373626285D01*
X97774142Y-373673904D01*
X97821761Y-373721523D01*
X97869380Y-373816761D01*
X97869380Y-374102476D01*
X97821761Y-374197714D01*
X97774142Y-374245333D01*
%TO.C,R2*%
X95329380Y-374578666D02*
X94853190Y-374912000D01*
X95329380Y-375150095D02*
X94329380Y-375150095D01*
X94329380Y-374769142D01*
X94377000Y-374673904D01*
X94424619Y-374626285D01*
X94519857Y-374578666D01*
X94662714Y-374578666D01*
X94757952Y-374626285D01*
X94805571Y-374673904D01*
X94853190Y-374769142D01*
X94853190Y-375150095D01*
X94424619Y-374197714D02*
X94377000Y-374150095D01*
X94329380Y-374054857D01*
X94329380Y-373816761D01*
X94377000Y-373721523D01*
X94424619Y-373673904D01*
X94519857Y-373626285D01*
X94615095Y-373626285D01*
X94757952Y-373673904D01*
X95329380Y-374245333D01*
X95329380Y-373626285D01*
%TO.C,Q11*%
X96479571Y-352613619D02*
X96384333Y-352566000D01*
X96289095Y-352470761D01*
X96146238Y-352327904D01*
X96051000Y-352280285D01*
X95955761Y-352280285D01*
X96003380Y-352518380D02*
X95908142Y-352470761D01*
X95812904Y-352375523D01*
X95765285Y-352185047D01*
X95765285Y-351851714D01*
X95812904Y-351661238D01*
X95908142Y-351566000D01*
X96003380Y-351518380D01*
X96193857Y-351518380D01*
X96289095Y-351566000D01*
X96384333Y-351661238D01*
X96431952Y-351851714D01*
X96431952Y-352185047D01*
X96384333Y-352375523D01*
X96289095Y-352470761D01*
X96193857Y-352518380D01*
X96003380Y-352518380D01*
X97384333Y-352518380D02*
X96812904Y-352518380D01*
X97098619Y-352518380D02*
X97098619Y-351518380D01*
X97003380Y-351661238D01*
X96908142Y-351756476D01*
X96812904Y-351804095D01*
X98336714Y-352518380D02*
X97765285Y-352518380D01*
X98051000Y-352518380D02*
X98051000Y-351518380D01*
X97955761Y-351661238D01*
X97860523Y-351756476D01*
X97765285Y-351804095D01*
%TO.C,Q10*%
X85303571Y-352613619D02*
X85208333Y-352566000D01*
X85113095Y-352470761D01*
X84970238Y-352327904D01*
X84875000Y-352280285D01*
X84779761Y-352280285D01*
X84827380Y-352518380D02*
X84732142Y-352470761D01*
X84636904Y-352375523D01*
X84589285Y-352185047D01*
X84589285Y-351851714D01*
X84636904Y-351661238D01*
X84732142Y-351566000D01*
X84827380Y-351518380D01*
X85017857Y-351518380D01*
X85113095Y-351566000D01*
X85208333Y-351661238D01*
X85255952Y-351851714D01*
X85255952Y-352185047D01*
X85208333Y-352375523D01*
X85113095Y-352470761D01*
X85017857Y-352518380D01*
X84827380Y-352518380D01*
X86208333Y-352518380D02*
X85636904Y-352518380D01*
X85922619Y-352518380D02*
X85922619Y-351518380D01*
X85827380Y-351661238D01*
X85732142Y-351756476D01*
X85636904Y-351804095D01*
X86827380Y-351518380D02*
X86922619Y-351518380D01*
X87017857Y-351566000D01*
X87065476Y-351613619D01*
X87113095Y-351708857D01*
X87160714Y-351899333D01*
X87160714Y-352137428D01*
X87113095Y-352327904D01*
X87065476Y-352423142D01*
X87017857Y-352470761D01*
X86922619Y-352518380D01*
X86827380Y-352518380D01*
X86732142Y-352470761D01*
X86684523Y-352423142D01*
X86636904Y-352327904D01*
X86589285Y-352137428D01*
X86589285Y-351899333D01*
X86636904Y-351708857D01*
X86684523Y-351613619D01*
X86732142Y-351566000D01*
X86827380Y-351518380D01*
%TO.C,Q9*%
X74857761Y-352613619D02*
X74762523Y-352566000D01*
X74667285Y-352470761D01*
X74524428Y-352327904D01*
X74429190Y-352280285D01*
X74333952Y-352280285D01*
X74381571Y-352518380D02*
X74286333Y-352470761D01*
X74191095Y-352375523D01*
X74143476Y-352185047D01*
X74143476Y-351851714D01*
X74191095Y-351661238D01*
X74286333Y-351566000D01*
X74381571Y-351518380D01*
X74572047Y-351518380D01*
X74667285Y-351566000D01*
X74762523Y-351661238D01*
X74810142Y-351851714D01*
X74810142Y-352185047D01*
X74762523Y-352375523D01*
X74667285Y-352470761D01*
X74572047Y-352518380D01*
X74381571Y-352518380D01*
X75286333Y-352518380D02*
X75476809Y-352518380D01*
X75572047Y-352470761D01*
X75619666Y-352423142D01*
X75714904Y-352280285D01*
X75762523Y-352089809D01*
X75762523Y-351708857D01*
X75714904Y-351613619D01*
X75667285Y-351566000D01*
X75572047Y-351518380D01*
X75381571Y-351518380D01*
X75286333Y-351566000D01*
X75238714Y-351613619D01*
X75191095Y-351708857D01*
X75191095Y-351946952D01*
X75238714Y-352042190D01*
X75286333Y-352089809D01*
X75381571Y-352137428D01*
X75572047Y-352137428D01*
X75667285Y-352089809D01*
X75714904Y-352042190D01*
X75762523Y-351946952D01*
%TO.C,Q8*%
X63935761Y-352613619D02*
X63840523Y-352566000D01*
X63745285Y-352470761D01*
X63602428Y-352327904D01*
X63507190Y-352280285D01*
X63411952Y-352280285D01*
X63459571Y-352518380D02*
X63364333Y-352470761D01*
X63269095Y-352375523D01*
X63221476Y-352185047D01*
X63221476Y-351851714D01*
X63269095Y-351661238D01*
X63364333Y-351566000D01*
X63459571Y-351518380D01*
X63650047Y-351518380D01*
X63745285Y-351566000D01*
X63840523Y-351661238D01*
X63888142Y-351851714D01*
X63888142Y-352185047D01*
X63840523Y-352375523D01*
X63745285Y-352470761D01*
X63650047Y-352518380D01*
X63459571Y-352518380D01*
X64459571Y-351946952D02*
X64364333Y-351899333D01*
X64316714Y-351851714D01*
X64269095Y-351756476D01*
X64269095Y-351708857D01*
X64316714Y-351613619D01*
X64364333Y-351566000D01*
X64459571Y-351518380D01*
X64650047Y-351518380D01*
X64745285Y-351566000D01*
X64792904Y-351613619D01*
X64840523Y-351708857D01*
X64840523Y-351756476D01*
X64792904Y-351851714D01*
X64745285Y-351899333D01*
X64650047Y-351946952D01*
X64459571Y-351946952D01*
X64364333Y-351994571D01*
X64316714Y-352042190D01*
X64269095Y-352137428D01*
X64269095Y-352327904D01*
X64316714Y-352423142D01*
X64364333Y-352470761D01*
X64459571Y-352518380D01*
X64650047Y-352518380D01*
X64745285Y-352470761D01*
X64792904Y-352423142D01*
X64840523Y-352327904D01*
X64840523Y-352137428D01*
X64792904Y-352042190D01*
X64745285Y-351994571D01*
X64650047Y-351946952D01*
%TO.C,Q7*%
X52759761Y-352613619D02*
X52664523Y-352566000D01*
X52569285Y-352470761D01*
X52426428Y-352327904D01*
X52331190Y-352280285D01*
X52235952Y-352280285D01*
X52283571Y-352518380D02*
X52188333Y-352470761D01*
X52093095Y-352375523D01*
X52045476Y-352185047D01*
X52045476Y-351851714D01*
X52093095Y-351661238D01*
X52188333Y-351566000D01*
X52283571Y-351518380D01*
X52474047Y-351518380D01*
X52569285Y-351566000D01*
X52664523Y-351661238D01*
X52712142Y-351851714D01*
X52712142Y-352185047D01*
X52664523Y-352375523D01*
X52569285Y-352470761D01*
X52474047Y-352518380D01*
X52283571Y-352518380D01*
X53045476Y-351518380D02*
X53712142Y-351518380D01*
X53283571Y-352518380D01*
%TO.C,Q5*%
X93653761Y-330007619D02*
X93558523Y-329960000D01*
X93463285Y-329864761D01*
X93320428Y-329721904D01*
X93225190Y-329674285D01*
X93129952Y-329674285D01*
X93177571Y-329912380D02*
X93082333Y-329864761D01*
X92987095Y-329769523D01*
X92939476Y-329579047D01*
X92939476Y-329245714D01*
X92987095Y-329055238D01*
X93082333Y-328960000D01*
X93177571Y-328912380D01*
X93368047Y-328912380D01*
X93463285Y-328960000D01*
X93558523Y-329055238D01*
X93606142Y-329245714D01*
X93606142Y-329579047D01*
X93558523Y-329769523D01*
X93463285Y-329864761D01*
X93368047Y-329912380D01*
X93177571Y-329912380D01*
X94510904Y-328912380D02*
X94034714Y-328912380D01*
X93987095Y-329388571D01*
X94034714Y-329340952D01*
X94129952Y-329293333D01*
X94368047Y-329293333D01*
X94463285Y-329340952D01*
X94510904Y-329388571D01*
X94558523Y-329483809D01*
X94558523Y-329721904D01*
X94510904Y-329817142D01*
X94463285Y-329864761D01*
X94368047Y-329912380D01*
X94129952Y-329912380D01*
X94034714Y-329864761D01*
X93987095Y-329817142D01*
%TO.C,Q4*%
X82223761Y-330007619D02*
X82128523Y-329960000D01*
X82033285Y-329864761D01*
X81890428Y-329721904D01*
X81795190Y-329674285D01*
X81699952Y-329674285D01*
X81747571Y-329912380D02*
X81652333Y-329864761D01*
X81557095Y-329769523D01*
X81509476Y-329579047D01*
X81509476Y-329245714D01*
X81557095Y-329055238D01*
X81652333Y-328960000D01*
X81747571Y-328912380D01*
X81938047Y-328912380D01*
X82033285Y-328960000D01*
X82128523Y-329055238D01*
X82176142Y-329245714D01*
X82176142Y-329579047D01*
X82128523Y-329769523D01*
X82033285Y-329864761D01*
X81938047Y-329912380D01*
X81747571Y-329912380D01*
X83033285Y-329245714D02*
X83033285Y-329912380D01*
X82795190Y-328864761D02*
X82557095Y-329579047D01*
X83176142Y-329579047D01*
%TO.C,Q3*%
X70682761Y-330008619D02*
X70587523Y-329961000D01*
X70492285Y-329865761D01*
X70349428Y-329722904D01*
X70254190Y-329675285D01*
X70158952Y-329675285D01*
X70206571Y-329913380D02*
X70111333Y-329865761D01*
X70016095Y-329770523D01*
X69968476Y-329580047D01*
X69968476Y-329246714D01*
X70016095Y-329056238D01*
X70111333Y-328961000D01*
X70206571Y-328913380D01*
X70397047Y-328913380D01*
X70492285Y-328961000D01*
X70587523Y-329056238D01*
X70635142Y-329246714D01*
X70635142Y-329580047D01*
X70587523Y-329770523D01*
X70492285Y-329865761D01*
X70397047Y-329913380D01*
X70206571Y-329913380D01*
X70968476Y-328913380D02*
X71587523Y-328913380D01*
X71254190Y-329294333D01*
X71397047Y-329294333D01*
X71492285Y-329341952D01*
X71539904Y-329389571D01*
X71587523Y-329484809D01*
X71587523Y-329722904D01*
X71539904Y-329818142D01*
X71492285Y-329865761D01*
X71397047Y-329913380D01*
X71111333Y-329913380D01*
X71016095Y-329865761D01*
X70968476Y-329818142D01*
%TO.C,Q2*%
X59543761Y-330066619D02*
X59448523Y-330019000D01*
X59353285Y-329923761D01*
X59210428Y-329780904D01*
X59115190Y-329733285D01*
X59019952Y-329733285D01*
X59067571Y-329971380D02*
X58972333Y-329923761D01*
X58877095Y-329828523D01*
X58829476Y-329638047D01*
X58829476Y-329304714D01*
X58877095Y-329114238D01*
X58972333Y-329019000D01*
X59067571Y-328971380D01*
X59258047Y-328971380D01*
X59353285Y-329019000D01*
X59448523Y-329114238D01*
X59496142Y-329304714D01*
X59496142Y-329638047D01*
X59448523Y-329828523D01*
X59353285Y-329923761D01*
X59258047Y-329971380D01*
X59067571Y-329971380D01*
X59877095Y-329066619D02*
X59924714Y-329019000D01*
X60019952Y-328971380D01*
X60258047Y-328971380D01*
X60353285Y-329019000D01*
X60400904Y-329066619D01*
X60448523Y-329161857D01*
X60448523Y-329257095D01*
X60400904Y-329399952D01*
X59829476Y-329971380D01*
X60448523Y-329971380D01*
%TO.C,U30*%
X116677904Y-279287380D02*
X116677904Y-280096904D01*
X116725523Y-280192142D01*
X116773142Y-280239761D01*
X116868380Y-280287380D01*
X117058857Y-280287380D01*
X117154095Y-280239761D01*
X117201714Y-280192142D01*
X117249333Y-280096904D01*
X117249333Y-279287380D01*
X117630285Y-279287380D02*
X118249333Y-279287380D01*
X117916000Y-279668333D01*
X118058857Y-279668333D01*
X118154095Y-279715952D01*
X118201714Y-279763571D01*
X118249333Y-279858809D01*
X118249333Y-280096904D01*
X118201714Y-280192142D01*
X118154095Y-280239761D01*
X118058857Y-280287380D01*
X117773142Y-280287380D01*
X117677904Y-280239761D01*
X117630285Y-280192142D01*
X118868380Y-279287380D02*
X118963619Y-279287380D01*
X119058857Y-279335000D01*
X119106476Y-279382619D01*
X119154095Y-279477857D01*
X119201714Y-279668333D01*
X119201714Y-279906428D01*
X119154095Y-280096904D01*
X119106476Y-280192142D01*
X119058857Y-280239761D01*
X118963619Y-280287380D01*
X118868380Y-280287380D01*
X118773142Y-280239761D01*
X118725523Y-280192142D01*
X118677904Y-280096904D01*
X118630285Y-279906428D01*
X118630285Y-279668333D01*
X118677904Y-279477857D01*
X118725523Y-279382619D01*
X118773142Y-279335000D01*
X118868380Y-279287380D01*
%TO.C,U21*%
X59734904Y-395684380D02*
X59734904Y-396493904D01*
X59782523Y-396589142D01*
X59830142Y-396636761D01*
X59925380Y-396684380D01*
X60115857Y-396684380D01*
X60211095Y-396636761D01*
X60258714Y-396589142D01*
X60306333Y-396493904D01*
X60306333Y-395684380D01*
X60734904Y-395779619D02*
X60782523Y-395732000D01*
X60877761Y-395684380D01*
X61115857Y-395684380D01*
X61211095Y-395732000D01*
X61258714Y-395779619D01*
X61306333Y-395874857D01*
X61306333Y-395970095D01*
X61258714Y-396112952D01*
X60687285Y-396684380D01*
X61306333Y-396684380D01*
X62258714Y-396684380D02*
X61687285Y-396684380D01*
X61973000Y-396684380D02*
X61973000Y-395684380D01*
X61877761Y-395827238D01*
X61782523Y-395922476D01*
X61687285Y-395970095D01*
%TO.C,U11*%
X108963380Y-370824095D02*
X109772904Y-370824095D01*
X109868142Y-370776476D01*
X109915761Y-370728857D01*
X109963380Y-370633619D01*
X109963380Y-370443142D01*
X109915761Y-370347904D01*
X109868142Y-370300285D01*
X109772904Y-370252666D01*
X108963380Y-370252666D01*
X109963380Y-369252666D02*
X109963380Y-369824095D01*
X109963380Y-369538380D02*
X108963380Y-369538380D01*
X109106238Y-369633619D01*
X109201476Y-369728857D01*
X109249095Y-369824095D01*
X109963380Y-368300285D02*
X109963380Y-368871714D01*
X109963380Y-368586000D02*
X108963380Y-368586000D01*
X109106238Y-368681238D01*
X109201476Y-368776476D01*
X109249095Y-368871714D01*
X115553380Y-370847904D02*
X116362904Y-370847904D01*
X116458142Y-370800285D01*
X116505761Y-370752666D01*
X116553380Y-370657428D01*
X116553380Y-370466952D01*
X116505761Y-370371714D01*
X116458142Y-370324095D01*
X116362904Y-370276476D01*
X115553380Y-370276476D01*
X116505761Y-369847904D02*
X116553380Y-369705047D01*
X116553380Y-369466952D01*
X116505761Y-369371714D01*
X116458142Y-369324095D01*
X116362904Y-369276476D01*
X116267666Y-369276476D01*
X116172428Y-369324095D01*
X116124809Y-369371714D01*
X116077190Y-369466952D01*
X116029571Y-369657428D01*
X115981952Y-369752666D01*
X115934333Y-369800285D01*
X115839095Y-369847904D01*
X115743857Y-369847904D01*
X115648619Y-369800285D01*
X115601000Y-369752666D01*
X115553380Y-369657428D01*
X115553380Y-369419333D01*
X115601000Y-369276476D01*
X116029571Y-368514571D02*
X116077190Y-368371714D01*
X116124809Y-368324095D01*
X116220047Y-368276476D01*
X116362904Y-368276476D01*
X116458142Y-368324095D01*
X116505761Y-368371714D01*
X116553380Y-368466952D01*
X116553380Y-368847904D01*
X115553380Y-368847904D01*
X115553380Y-368514571D01*
X115601000Y-368419333D01*
X115648619Y-368371714D01*
X115743857Y-368324095D01*
X115839095Y-368324095D01*
X115934333Y-368371714D01*
X115981952Y-368419333D01*
X116029571Y-368514571D01*
X116029571Y-368847904D01*
%TO.C,U10*%
X59744904Y-355068380D02*
X59744904Y-355877904D01*
X59792523Y-355973142D01*
X59840142Y-356020761D01*
X59935380Y-356068380D01*
X60125857Y-356068380D01*
X60221095Y-356020761D01*
X60268714Y-355973142D01*
X60316333Y-355877904D01*
X60316333Y-355068380D01*
X61316333Y-356068380D02*
X60744904Y-356068380D01*
X61030619Y-356068380D02*
X61030619Y-355068380D01*
X60935380Y-355211238D01*
X60840142Y-355306476D01*
X60744904Y-355354095D01*
X61935380Y-355068380D02*
X62030619Y-355068380D01*
X62125857Y-355116000D01*
X62173476Y-355163619D01*
X62221095Y-355258857D01*
X62268714Y-355449333D01*
X62268714Y-355687428D01*
X62221095Y-355877904D01*
X62173476Y-355973142D01*
X62125857Y-356020761D01*
X62030619Y-356068380D01*
X61935380Y-356068380D01*
X61840142Y-356020761D01*
X61792523Y-355973142D01*
X61744904Y-355877904D01*
X61697285Y-355687428D01*
X61697285Y-355449333D01*
X61744904Y-355258857D01*
X61792523Y-355163619D01*
X61840142Y-355116000D01*
X61935380Y-355068380D01*
%TO.C,R6*%
X39703380Y-371149666D02*
X39227190Y-371483000D01*
X39703380Y-371721095D02*
X38703380Y-371721095D01*
X38703380Y-371340142D01*
X38751000Y-371244904D01*
X38798619Y-371197285D01*
X38893857Y-371149666D01*
X39036714Y-371149666D01*
X39131952Y-371197285D01*
X39179571Y-371244904D01*
X39227190Y-371340142D01*
X39227190Y-371721095D01*
X38703380Y-370292523D02*
X38703380Y-370483000D01*
X38751000Y-370578238D01*
X38798619Y-370625857D01*
X38941476Y-370721095D01*
X39131952Y-370768714D01*
X39512904Y-370768714D01*
X39608142Y-370721095D01*
X39655761Y-370673476D01*
X39703380Y-370578238D01*
X39703380Y-370387761D01*
X39655761Y-370292523D01*
X39608142Y-370244904D01*
X39512904Y-370197285D01*
X39274809Y-370197285D01*
X39179571Y-370244904D01*
X39131952Y-370292523D01*
X39084333Y-370387761D01*
X39084333Y-370578238D01*
X39131952Y-370673476D01*
X39179571Y-370721095D01*
X39274809Y-370768714D01*
%TO.C,R1*%
X92789380Y-374578666D02*
X92313190Y-374912000D01*
X92789380Y-375150095D02*
X91789380Y-375150095D01*
X91789380Y-374769142D01*
X91837000Y-374673904D01*
X91884619Y-374626285D01*
X91979857Y-374578666D01*
X92122714Y-374578666D01*
X92217952Y-374626285D01*
X92265571Y-374673904D01*
X92313190Y-374769142D01*
X92313190Y-375150095D01*
X92789380Y-373626285D02*
X92789380Y-374197714D01*
X92789380Y-373912000D02*
X91789380Y-373912000D01*
X91932238Y-374007238D01*
X92027476Y-374102476D01*
X92075095Y-374197714D01*
%TO.C,Q6*%
X48823761Y-354226619D02*
X48728523Y-354179000D01*
X48633285Y-354083761D01*
X48490428Y-353940904D01*
X48395190Y-353893285D01*
X48299952Y-353893285D01*
X48347571Y-354131380D02*
X48252333Y-354083761D01*
X48157095Y-353988523D01*
X48109476Y-353798047D01*
X48109476Y-353464714D01*
X48157095Y-353274238D01*
X48252333Y-353179000D01*
X48347571Y-353131380D01*
X48538047Y-353131380D01*
X48633285Y-353179000D01*
X48728523Y-353274238D01*
X48776142Y-353464714D01*
X48776142Y-353798047D01*
X48728523Y-353988523D01*
X48633285Y-354083761D01*
X48538047Y-354131380D01*
X48347571Y-354131380D01*
X49633285Y-353131380D02*
X49442809Y-353131380D01*
X49347571Y-353179000D01*
X49299952Y-353226619D01*
X49204714Y-353369476D01*
X49157095Y-353559952D01*
X49157095Y-353940904D01*
X49204714Y-354036142D01*
X49252333Y-354083761D01*
X49347571Y-354131380D01*
X49538047Y-354131380D01*
X49633285Y-354083761D01*
X49680904Y-354036142D01*
X49728523Y-353940904D01*
X49728523Y-353702809D01*
X49680904Y-353607571D01*
X49633285Y-353559952D01*
X49538047Y-353512333D01*
X49347571Y-353512333D01*
X49252333Y-353559952D01*
X49204714Y-353607571D01*
X49157095Y-353702809D01*
%TO.C,Q1*%
X48300761Y-329962619D02*
X48205523Y-329915000D01*
X48110285Y-329819761D01*
X47967428Y-329676904D01*
X47872190Y-329629285D01*
X47776952Y-329629285D01*
X47824571Y-329867380D02*
X47729333Y-329819761D01*
X47634095Y-329724523D01*
X47586476Y-329534047D01*
X47586476Y-329200714D01*
X47634095Y-329010238D01*
X47729333Y-328915000D01*
X47824571Y-328867380D01*
X48015047Y-328867380D01*
X48110285Y-328915000D01*
X48205523Y-329010238D01*
X48253142Y-329200714D01*
X48253142Y-329534047D01*
X48205523Y-329724523D01*
X48110285Y-329819761D01*
X48015047Y-329867380D01*
X47824571Y-329867380D01*
X49205523Y-329867380D02*
X48634095Y-329867380D01*
X48919809Y-329867380D02*
X48919809Y-328867380D01*
X48824571Y-329010238D01*
X48729333Y-329105476D01*
X48634095Y-329153095D01*
%TO.C,J8*%
D17*
X104627090Y-277617929D02*
X104627090Y-278189965D01*
X104588954Y-278304372D01*
X104512682Y-278380643D01*
X104398275Y-278418779D01*
X104322004Y-278418779D01*
X105122854Y-277961150D02*
X105046582Y-277923015D01*
X105008447Y-277884879D01*
X104970311Y-277808607D01*
X104970311Y-277770472D01*
X105008447Y-277694200D01*
X105046582Y-277656065D01*
X105122854Y-277617929D01*
X105275397Y-277617929D01*
X105351668Y-277656065D01*
X105389804Y-277694200D01*
X105427940Y-277770472D01*
X105427940Y-277808607D01*
X105389804Y-277884879D01*
X105351668Y-277923015D01*
X105275397Y-277961150D01*
X105122854Y-277961150D01*
X105046582Y-277999286D01*
X105008447Y-278037422D01*
X104970311Y-278113693D01*
X104970311Y-278266236D01*
X105008447Y-278342507D01*
X105046582Y-278380643D01*
X105122854Y-278418779D01*
X105275397Y-278418779D01*
X105351668Y-278380643D01*
X105389804Y-278342507D01*
X105427940Y-278266236D01*
X105427940Y-278113693D01*
X105389804Y-278037422D01*
X105351668Y-277999286D01*
X105275397Y-277961150D01*
%TO.C,D1*%
D11*
X47830904Y-383430380D02*
X47830904Y-382430380D01*
X48069000Y-382430380D01*
X48211857Y-382478000D01*
X48307095Y-382573238D01*
X48354714Y-382668476D01*
X48402333Y-382858952D01*
X48402333Y-383001809D01*
X48354714Y-383192285D01*
X48307095Y-383287523D01*
X48211857Y-383382761D01*
X48069000Y-383430380D01*
X47830904Y-383430380D01*
X49354714Y-383430380D02*
X48783285Y-383430380D01*
X49069000Y-383430380D02*
X49069000Y-382430380D01*
X48973761Y-382573238D01*
X48878523Y-382668476D01*
X48783285Y-382716095D01*
X52117095Y-383060380D02*
X52117095Y-382060380D01*
X52688523Y-383060380D02*
X52259952Y-382488952D01*
X52688523Y-382060380D02*
X52117095Y-382631809D01*
%TD*%
M02*
