M48
; DRILL file {KiCad 5.1.7-a382d34a8~88~ubuntu20.04.1} date Tue Mar  9 09:32:03 2021
; FORMAT={-:-/ absolute / inch / decimal}
; #@! TF.CreationDate,2021-03-09T09:32:03+01:00
; #@! TF.GenerationSoftware,Kicad,Pcbnew,5.1.7-a382d34a8~88~ubuntu20.04.1
; #@! TF.FileFunction,Plated,1,2,PTH
FMAT,2
INCH
T1C0.0157
T2C0.0197
T3C0.0236
T4C0.0276
T5C0.0300
T6C0.0315
T7C0.0394
T8C0.0400
T9C0.0433
T10C0.0591
T11C0.0984
T12C0.1693
%
G90
G05
T1
X5.9209Y-13.8198
X5.962Y-14.9819
X5.9695Y-14.1894
T2
X3.0861Y-11.2096
X3.1078Y-11.1574
X3.1078Y-11.2618
X3.16Y-11.1358
X3.16Y-11.2835
X3.2122Y-11.1574
X3.2122Y-11.2618
X3.2338Y-11.2096
X5.6267Y-10.8038
X5.6483Y-10.7516
X5.6483Y-10.856
X5.7005Y-10.73
X5.7005Y-10.8776
X5.7527Y-10.7516
X5.7527Y-10.856
X5.7743Y-10.8038
X4.0435Y-10.8544
X4.0652Y-10.8022
X4.0652Y-10.9066
X4.1174Y-10.7806
X4.1174Y-10.9282
X4.1696Y-10.8022
X4.1696Y-10.9066
X4.1912Y-10.8544
X3.6711Y-11.2096
X3.6928Y-11.1574
X3.6928Y-11.2618
X3.745Y-11.1358
X3.745Y-11.2835
X3.7972Y-11.1574
X3.7972Y-11.2618
X3.8188Y-11.2096
X5.0985Y-10.8444
X5.1202Y-10.7922
X5.1202Y-10.8966
X5.1724Y-10.7706
X5.1724Y-10.9182
X5.2246Y-10.7922
X5.2246Y-10.8966
X5.2462Y-10.8444
X5.6267Y-11.5188
X5.6483Y-11.4666
X5.6483Y-11.571
X5.7005Y-11.445
X5.7005Y-11.5926
X5.7527Y-11.4666
X5.7527Y-11.571
X5.7743Y-11.5188
T3
X4.9089Y-14.9706
X4.9461Y-14.8808
X4.9461Y-15.0604
X5.0359Y-14.8437
X5.0359Y-15.0976
X5.1257Y-14.8808
X5.1257Y-15.0604
X5.1629Y-14.9706
X4.9139Y-11.8506
X4.9511Y-11.7608
X4.9511Y-11.9404
X5.0409Y-11.7237
X5.0409Y-11.9776
X5.1307Y-11.7608
X5.1307Y-11.9404
X5.1679Y-11.8506
X1.3139Y-11.8506
X1.3511Y-11.7608
X1.3511Y-11.9404
X1.4409Y-11.7237
X1.4409Y-11.9776
X1.5307Y-11.7608
X1.5307Y-11.9404
X1.5679Y-11.8506
X1.3189Y-14.9756
X1.3561Y-14.8858
X1.3561Y-15.0654
X1.4459Y-14.8487
X1.4459Y-15.1026
X1.5357Y-14.8858
X1.5357Y-15.0654
X1.5729Y-14.9756
T4
X4.2109Y-14.5906
X4.2109Y-14.8906
X3.6109Y-14.1906
X3.6109Y-14.4906
X4.0109Y-14.5906
X4.0109Y-14.8906
X3.7109Y-14.5906
X3.7109Y-14.8906
X3.4109Y-14.1906
X3.4109Y-14.4906
X3.9109Y-14.5906
X3.9109Y-14.8906
X4.1109Y-14.5906
X4.1109Y-14.8906
X1.6209Y-14.4556
X1.6209Y-14.7556
X3.8109Y-14.5906
X3.8109Y-14.8906
X3.7109Y-14.1906
X3.7109Y-14.4906
X3.5109Y-14.1906
X3.5109Y-14.4906
T5
X3.0109Y-14.0606
X3.0109Y-15.0406
X3.1109Y-14.0606
X3.1109Y-15.0406
X3.2109Y-14.0606
X3.2109Y-15.0406
X3.3109Y-14.0606
X3.3109Y-15.0406
X3.4109Y-14.0606
X3.4109Y-15.0406
X3.5109Y-14.0606
X3.5109Y-15.0406
X3.6109Y-14.0606
X3.6109Y-15.0406
X3.7109Y-14.0606
X3.7109Y-15.0406
X3.8109Y-14.0606
X3.8109Y-15.0406
X3.9109Y-14.0606
X3.9109Y-15.0406
X4.0109Y-14.0606
X4.0109Y-15.0406
X4.1109Y-14.0606
X4.1109Y-15.0406
X4.2109Y-14.0606
X4.2109Y-15.0406
X4.3109Y-14.0606
X4.3109Y-15.0406
X4.3109Y-15.0406
X4.4109Y-14.0606
X4.4109Y-15.0406
T6
X2.5309Y-14.3722
X2.5309Y-14.4706
X2.2909Y-14.3706
X2.2909Y-14.4691
T7
X2.3009Y-14.1006
X2.4009Y-14.1006
X2.5009Y-14.1006
T8
X4.2024Y-11.1144
X4.2024Y-11.3054
X4.3024Y-11.1144
X4.3024Y-11.3054
X4.4024Y-11.1144
X4.4024Y-11.3054
X4.5024Y-11.1144
X4.5024Y-11.3054
X4.6024Y-11.1144
X4.6024Y-11.3054
X4.7024Y-11.1144
X4.7024Y-11.3054
X4.8024Y-11.1144
X4.8024Y-11.3054
X4.9024Y-11.1144
X4.9024Y-11.3054
X5.0024Y-11.1144
X5.0024Y-11.3054
X5.1024Y-11.1144
X5.1024Y-11.3054
T9
X2.248Y-12.163
X2.348Y-12.163
X2.448Y-12.163
X3.1409Y-12.1606
X3.2409Y-12.1606
X3.3409Y-12.1606
X2.4209Y-13.0506
X2.5209Y-13.0506
X2.6209Y-13.0506
X3.5909Y-12.1606
X3.6909Y-12.1606
X3.7909Y-12.1606
X1.8054Y-12.1589
X1.9054Y-12.1589
X2.0054Y-12.1589
X1.8259Y-14.7346
X1.9259Y-14.7346
X2.0259Y-14.7346
X1.7622Y-14.9806
X2.0622Y-14.9806
X3.2809Y-13.0506
X3.3809Y-13.0506
X3.4809Y-13.0506
X1.9809Y-13.0506
X2.0809Y-13.0506
X2.1809Y-13.0506
X3.7209Y-13.0506
X3.8209Y-13.0506
X3.9209Y-13.0506
X2.8509Y-13.0506
X2.9509Y-13.0506
X3.0509Y-13.0506
X2.6865Y-12.1607
X2.7865Y-12.1607
X2.8865Y-12.1607
T10
X2.4009Y-14.6544
X2.4009Y-15.0186
T11
X3.16Y-11.2096
X5.7005Y-10.8038
X4.1174Y-10.8544
X3.745Y-11.2096
X5.1724Y-10.8444
X5.7005Y-11.5188
T12
X5.0359Y-14.9706
X5.0409Y-11.8506
X1.4409Y-11.8506
X1.4459Y-14.9756
T6
G00X2.2119Y-14.8867
M15
G01X2.2119Y-14.9339
M16
G05
G00X2.4442Y-14.8906
M15
G01X2.3576Y-14.8906
M16
G05
G00X2.5899Y-14.8867
M15
G01X2.5899Y-14.9339
M16
G05
T0
M30
