%TF.GenerationSoftware,KiCad,Pcbnew,5.1.7-a382d34a8~88~ubuntu20.04.1*%
%TF.CreationDate,2021-03-09T09:32:07+01:00*%
%TF.ProjectId,narcise-redux,6e617263-6973-4652-9d72-656475782e6b,rev?*%
%TF.SameCoordinates,Original*%
%TF.FileFunction,Paste,Top*%
%TF.FilePolarity,Positive*%
%FSLAX46Y46*%
G04 Gerber Fmt 4.6, Leading zero omitted, Abs format (unit mm)*
G04 Created by KiCad (PCBNEW 5.1.7-a382d34a8~88~ubuntu20.04.1) date 2021-03-09 09:32:07*
%MOMM*%
%LPD*%
G01*
G04 APERTURE LIST*
%ADD10R,2.500000X1.400000*%
%ADD11R,1.400000X2.500000*%
%ADD12R,1.000000X0.400000*%
%ADD13R,1.300000X2.000000*%
%ADD14R,0.400000X1.000000*%
%ADD15R,2.000000X1.300000*%
G04 APERTURE END LIST*
D10*
%TO.C,X19*%
X123763000Y-313071000D03*
X129163000Y-313071000D03*
%TD*%
%TO.C,X38*%
X143100000Y-283306000D03*
X137700000Y-283306000D03*
%TD*%
D11*
%TO.C,X28*%
X150390000Y-338746000D03*
X150390000Y-344146000D03*
%TD*%
D10*
%TO.C,X26*%
X85385000Y-289424000D03*
X90785000Y-289424000D03*
%TD*%
D11*
%TO.C,X25*%
X87121000Y-285318000D03*
X87121000Y-279918000D03*
%TD*%
%TO.C,X20*%
X97559000Y-302869000D03*
X97559000Y-297469000D03*
%TD*%
%TO.C,X18*%
X86383000Y-302869000D03*
X86383000Y-297469000D03*
%TD*%
%TO.C,X17*%
X74953000Y-302869000D03*
X74953000Y-297469000D03*
%TD*%
%TO.C,X16*%
X64031000Y-302869000D03*
X64031000Y-297469000D03*
%TD*%
D10*
%TO.C,X15*%
X123763000Y-317770000D03*
X129163000Y-317770000D03*
%TD*%
%TO.C,X14*%
X123763000Y-322596000D03*
X129163000Y-322596000D03*
%TD*%
%TO.C,X13*%
X123763000Y-327422000D03*
X129163000Y-327422000D03*
%TD*%
D11*
%TO.C,X12*%
X52855000Y-302869000D03*
X52855000Y-297469000D03*
%TD*%
%TO.C,X11*%
X93495000Y-302869000D03*
X93495000Y-297469000D03*
%TD*%
%TO.C,X10*%
X82319000Y-302869000D03*
X82319000Y-297469000D03*
%TD*%
D10*
%TO.C,X9*%
X123763000Y-358156000D03*
X129163000Y-358156000D03*
%TD*%
%TO.C,X8*%
X123763000Y-332502000D03*
X129163000Y-332502000D03*
%TD*%
%TO.C,X7*%
X123763000Y-337582000D03*
X129163000Y-337582000D03*
%TD*%
D11*
%TO.C,X6*%
X48537000Y-302869000D03*
X48537000Y-297469000D03*
%TD*%
%TO.C,X5*%
X70889000Y-302869000D03*
X70889000Y-297469000D03*
%TD*%
%TO.C,X4*%
X59713000Y-302869000D03*
X59713000Y-297469000D03*
%TD*%
D10*
%TO.C,X3*%
X123763000Y-353203000D03*
X129163000Y-353203000D03*
%TD*%
%TO.C,X2*%
X123763000Y-342916000D03*
X129163000Y-342916000D03*
%TD*%
%TO.C,X1*%
X123763000Y-347996000D03*
X129163000Y-347996000D03*
%TD*%
D12*
%TO.C,U14*%
X147185000Y-281679000D03*
X147185000Y-282679000D03*
X147185000Y-283679000D03*
X147185000Y-284679000D03*
D13*
X149885000Y-278879000D03*
X149885000Y-287479000D03*
%TD*%
D12*
%TO.C,U3*%
X150143000Y-368499000D03*
X150143000Y-369499000D03*
X150143000Y-370499000D03*
X150143000Y-371499000D03*
D13*
X152843000Y-365699000D03*
X152843000Y-374299000D03*
%TD*%
D14*
%TO.C,U30*%
X116416000Y-278135000D03*
X117416000Y-278135000D03*
X118416000Y-278135000D03*
X119416000Y-278135000D03*
D15*
X113616000Y-275435000D03*
X122216000Y-275435000D03*
%TD*%
M02*
