%TF.GenerationSoftware,KiCad,Pcbnew,5.1.7-a382d34a8~88~ubuntu20.04.1*%
%TF.CreationDate,2021-03-09T09:32:07+01:00*%
%TF.ProjectId,narcise-redux,6e617263-6973-4652-9d72-656475782e6b,rev?*%
%TF.SameCoordinates,Original*%
%TF.FileFunction,Copper,L1,Top*%
%TF.FilePolarity,Positive*%
%FSLAX46Y46*%
G04 Gerber Fmt 4.6, Leading zero omitted, Abs format (unit mm)*
G04 Created by KiCad (PCBNEW 5.1.7-a382d34a8~88~ubuntu20.04.1) date 2021-03-09 09:32:07*
%MOMM*%
%LPD*%
G01*
G04 APERTURE LIST*
%TA.AperFunction,ComponentPad*%
%ADD10C,5.000000*%
%TD*%
%TA.AperFunction,ComponentPad*%
%ADD11C,0.800000*%
%TD*%
%TA.AperFunction,ComponentPad*%
%ADD12C,8.600000*%
%TD*%
%TA.AperFunction,ComponentPad*%
%ADD13C,0.900000*%
%TD*%
%TA.AperFunction,SMDPad,CuDef*%
%ADD14R,2.500000X1.400000*%
%TD*%
%TA.AperFunction,SMDPad,CuDef*%
%ADD15R,1.400000X2.500000*%
%TD*%
%TA.AperFunction,SMDPad,CuDef*%
%ADD16R,1.000000X0.400000*%
%TD*%
%TA.AperFunction,SMDPad,CuDef*%
%ADD17R,1.300000X2.000000*%
%TD*%
%TA.AperFunction,ComponentPad*%
%ADD18O,1.400000X1.400000*%
%TD*%
%TA.AperFunction,ComponentPad*%
%ADD19C,1.400000*%
%TD*%
%TA.AperFunction,ComponentPad*%
%ADD20O,1.905000X2.000000*%
%TD*%
%TA.AperFunction,ComponentPad*%
%ADD21R,1.905000X2.000000*%
%TD*%
%TA.AperFunction,SMDPad,CuDef*%
%ADD22R,0.400000X1.000000*%
%TD*%
%TA.AperFunction,SMDPad,CuDef*%
%ADD23R,2.000000X1.300000*%
%TD*%
%TA.AperFunction,ComponentPad*%
%ADD24O,3.500000X2.500000*%
%TD*%
%TA.AperFunction,ComponentPad*%
%ADD25O,2.500000X3.500000*%
%TD*%
%TA.AperFunction,ComponentPad*%
%ADD26C,2.500000*%
%TD*%
%TA.AperFunction,ComponentPad*%
%ADD27C,1.524000*%
%TD*%
%TA.AperFunction,ComponentPad*%
%ADD28R,1.800000X1.800000*%
%TD*%
%TA.AperFunction,ComponentPad*%
%ADD29C,1.800000*%
%TD*%
%TA.AperFunction,ComponentPad*%
%ADD30C,1.600000*%
%TD*%
%TA.AperFunction,ComponentPad*%
%ADD31R,1.524000X1.524000*%
%TD*%
%TA.AperFunction,ComponentPad*%
%ADD32O,2.200000X2.200000*%
%TD*%
%TA.AperFunction,ComponentPad*%
%ADD33R,2.200000X2.200000*%
%TD*%
%TA.AperFunction,ViaPad*%
%ADD34C,0.800000*%
%TD*%
%TA.AperFunction,Conductor*%
%ADD35C,0.750000*%
%TD*%
%TA.AperFunction,Conductor*%
%ADD36C,0.500000*%
%TD*%
%TA.AperFunction,Conductor*%
%ADD37C,0.250000*%
%TD*%
%TA.AperFunction,NonConductor*%
%ADD38C,0.254000*%
%TD*%
%TA.AperFunction,NonConductor*%
%ADD39C,0.100000*%
%TD*%
G04 APERTURE END LIST*
D10*
%TO.P,REF\u002A\u002A,1*%
%TO.N,N/C*%
X95122000Y-284725000D03*
D11*
X95122000Y-282850000D03*
X96447825Y-283399175D03*
X96997000Y-284725000D03*
X96447825Y-286050825D03*
X95122000Y-286600000D03*
X93796175Y-286050825D03*
X93247000Y-284725000D03*
X93796175Y-283399175D03*
%TD*%
%TO.P,REF\u002A\u002A,1*%
%TO.N,N/C*%
X78937175Y-283399175D03*
X78388000Y-284725000D03*
X78937175Y-286050825D03*
X80263000Y-286600000D03*
X81588825Y-286050825D03*
X82138000Y-284725000D03*
X81588825Y-283399175D03*
X80263000Y-282850000D03*
D10*
X80263000Y-284725000D03*
%TD*%
%TO.P,REF\u002A\u002A,1*%
%TO.N,N/C*%
X144793000Y-292577000D03*
D11*
X146668000Y-292577000D03*
X146118825Y-293902825D03*
X144793000Y-294452000D03*
X143467175Y-293902825D03*
X142918000Y-292577000D03*
X143467175Y-291251175D03*
X144793000Y-290702000D03*
X146118825Y-291251175D03*
%TD*%
%TO.P,REF\u002A\u002A,1*%
%TO.N,N/C*%
X146118825Y-273090175D03*
X144793000Y-272541000D03*
X143467175Y-273090175D03*
X142918000Y-274416000D03*
X143467175Y-275741825D03*
X144793000Y-276291000D03*
X146118825Y-275741825D03*
X146668000Y-274416000D03*
D10*
X144793000Y-274416000D03*
%TD*%
%TO.P,REF\u002A\u002A,1*%
%TO.N,N/C*%
X131378000Y-275447000D03*
D11*
X133253000Y-275447000D03*
X132703825Y-276772825D03*
X131378000Y-277322000D03*
X130052175Y-276772825D03*
X129503000Y-275447000D03*
X130052175Y-274121175D03*
X131378000Y-273572000D03*
X132703825Y-274121175D03*
%TD*%
%TO.P,REF\u002A\u002A,1*%
%TO.N,N/C*%
X105906825Y-274375175D03*
X104581000Y-273826000D03*
X103255175Y-274375175D03*
X102706000Y-275701000D03*
X103255175Y-277026825D03*
X104581000Y-277576000D03*
X105906825Y-277026825D03*
X106456000Y-275701000D03*
D10*
X104581000Y-275701000D03*
%TD*%
D12*
%TO.P,REF\u002A\u002A,1*%
%TO.N,N/C*%
X36599000Y-301006000D03*
D13*
X39824000Y-301006000D03*
X38879419Y-303286419D03*
X36599000Y-304231000D03*
X34318581Y-303286419D03*
X33374000Y-301006000D03*
X34318581Y-298725581D03*
X36599000Y-297781000D03*
X38879419Y-298725581D03*
%TD*%
D12*
%TO.P,REF\u002A\u002A,1*%
%TO.N,N/C*%
X128039000Y-301006000D03*
D13*
X131264000Y-301006000D03*
X130319419Y-303286419D03*
X128039000Y-304231000D03*
X125758581Y-303286419D03*
X124814000Y-301006000D03*
X125758581Y-298725581D03*
X128039000Y-297781000D03*
X130319419Y-298725581D03*
%TD*%
D12*
%TO.P,REF\u002A\u002A,1*%
%TO.N,N/C*%
X127912000Y-380254000D03*
D13*
X131137000Y-380254000D03*
X130192419Y-382534419D03*
X127912000Y-383479000D03*
X125631581Y-382534419D03*
X124687000Y-380254000D03*
X125631581Y-377973581D03*
X127912000Y-377029000D03*
X130192419Y-377973581D03*
%TD*%
%TO.P,REF\u002A\u002A,1*%
%TO.N,N/C*%
X39006419Y-378100581D03*
X36726000Y-377156000D03*
X34445581Y-378100581D03*
X33501000Y-380381000D03*
X34445581Y-382661419D03*
X36726000Y-383606000D03*
X39006419Y-382661419D03*
X39951000Y-380381000D03*
D12*
X36726000Y-380381000D03*
%TD*%
D14*
%TO.P,X19,L1.2*%
%TO.N,+24V*%
X123763000Y-313071000D03*
%TO.P,X19,L1.1*%
X129163000Y-313071000D03*
%TD*%
%TO.P,X38,L1.2*%
%TO.N,Net-(U14-Pad1)*%
X143100000Y-283306000D03*
%TO.P,X38,L1.1*%
X137700000Y-283306000D03*
%TD*%
D15*
%TO.P,X28,L1.2*%
%TO.N,Net-(X28-PadL1.1)*%
X150390000Y-338746000D03*
%TO.P,X28,L1.1*%
X150390000Y-344146000D03*
%TD*%
D14*
%TO.P,X26,L1.2*%
%TO.N,Net-(X25-PadL1.2)*%
X85385000Y-289424000D03*
%TO.P,X26,L1.1*%
%TO.N,Net-(X25-PadL1.1)*%
X90785000Y-289424000D03*
%TD*%
D15*
%TO.P,X25,L1.2*%
%TO.N,Net-(X25-PadL1.2)*%
X87121000Y-285318000D03*
%TO.P,X25,L1.1*%
%TO.N,Net-(X25-PadL1.1)*%
X87121000Y-279918000D03*
%TD*%
%TO.P,X20,L1.2*%
%TO.N,Net-(Q11-Pad2)*%
X97559000Y-302869000D03*
%TO.P,X20,L1.1*%
X97559000Y-297469000D03*
%TD*%
%TO.P,X18,L1.2*%
%TO.N,Net-(Q10-Pad2)*%
X86383000Y-302869000D03*
%TO.P,X18,L1.1*%
X86383000Y-297469000D03*
%TD*%
%TO.P,X17,L1.2*%
%TO.N,Net-(Q9-Pad2)*%
X74953000Y-302869000D03*
%TO.P,X17,L1.1*%
X74953000Y-297469000D03*
%TD*%
%TO.P,X16,L1.2*%
%TO.N,Net-(Q8-Pad2)*%
X64031000Y-302869000D03*
%TO.P,X16,L1.1*%
X64031000Y-297469000D03*
%TD*%
D14*
%TO.P,X15,L1.2*%
%TO.N,+24V*%
X123763000Y-317770000D03*
%TO.P,X15,L1.1*%
X129163000Y-317770000D03*
%TD*%
%TO.P,X14,L1.2*%
%TO.N,+24V*%
X123763000Y-322596000D03*
%TO.P,X14,L1.1*%
X129163000Y-322596000D03*
%TD*%
%TO.P,X13,L1.2*%
%TO.N,+24V*%
X123763000Y-327422000D03*
%TO.P,X13,L1.1*%
X129163000Y-327422000D03*
%TD*%
D15*
%TO.P,X12,L1.2*%
%TO.N,Net-(Q7-Pad2)*%
X52855000Y-302869000D03*
%TO.P,X12,L1.1*%
X52855000Y-297469000D03*
%TD*%
%TO.P,X11,L1.2*%
%TO.N,Net-(Q5-Pad2)*%
X93495000Y-302869000D03*
%TO.P,X11,L1.1*%
X93495000Y-297469000D03*
%TD*%
%TO.P,X10,L1.2*%
%TO.N,Net-(Q4-Pad2)*%
X82319000Y-302869000D03*
%TO.P,X10,L1.1*%
X82319000Y-297469000D03*
%TD*%
D14*
%TO.P,X9,L1.2*%
%TO.N,+24V*%
X123763000Y-358156000D03*
%TO.P,X9,L1.1*%
X129163000Y-358156000D03*
%TD*%
%TO.P,X8,L1.2*%
%TO.N,+24V*%
X123763000Y-332502000D03*
%TO.P,X8,L1.1*%
X129163000Y-332502000D03*
%TD*%
%TO.P,X7,L1.2*%
%TO.N,+24V*%
X123763000Y-337582000D03*
%TO.P,X7,L1.1*%
X129163000Y-337582000D03*
%TD*%
D15*
%TO.P,X6,L1.2*%
%TO.N,Net-(Q1-Pad2)*%
X48537000Y-302869000D03*
%TO.P,X6,L1.1*%
X48537000Y-297469000D03*
%TD*%
%TO.P,X5,L1.2*%
%TO.N,Net-(Q3-Pad2)*%
X70889000Y-302869000D03*
%TO.P,X5,L1.1*%
X70889000Y-297469000D03*
%TD*%
%TO.P,X4,L1.2*%
%TO.N,Net-(Q2-Pad2)*%
X59713000Y-302869000D03*
%TO.P,X4,L1.1*%
X59713000Y-297469000D03*
%TD*%
D14*
%TO.P,X3,L1.2*%
%TO.N,+24V*%
X123763000Y-353203000D03*
%TO.P,X3,L1.1*%
X129163000Y-353203000D03*
%TD*%
%TO.P,X2,L1.2*%
%TO.N,+24V*%
X123763000Y-342916000D03*
%TO.P,X2,L1.1*%
X129163000Y-342916000D03*
%TD*%
%TO.P,X1,L1.2*%
%TO.N,+24V*%
X123763000Y-347996000D03*
%TO.P,X1,L1.1*%
X129163000Y-347996000D03*
%TD*%
D16*
%TO.P,U14,4*%
%TO.N,Net-(U14-Pad1)*%
X147185000Y-281679000D03*
%TO.P,U14,3*%
X147185000Y-282679000D03*
%TO.P,U14,2*%
X147185000Y-283679000D03*
%TO.P,U14,1*%
X147185000Y-284679000D03*
D17*
%TO.P,U14,MP*%
%TO.N,N/C*%
X149885000Y-278879000D03*
X149885000Y-287479000D03*
%TD*%
D16*
%TO.P,U3,4*%
%TO.N,Net-(U3-Pad1)*%
X150143000Y-368499000D03*
%TO.P,U3,3*%
X150143000Y-369499000D03*
%TO.P,U3,2*%
X150143000Y-370499000D03*
%TO.P,U3,1*%
X150143000Y-371499000D03*
D17*
%TO.P,U3,MP*%
%TO.N,N/C*%
X152843000Y-365699000D03*
X152843000Y-374299000D03*
%TD*%
D18*
%TO.P,R11,2*%
%TO.N,POWER-IN-*%
X94257000Y-368062000D03*
D19*
%TO.P,R11,1*%
%TO.N,sheet10*%
X94257000Y-360442000D03*
%TD*%
D18*
%TO.P,R10,2*%
%TO.N,POWER-IN-*%
X91717000Y-368062000D03*
D19*
%TO.P,R10,1*%
%TO.N,sheet9*%
X91717000Y-360442000D03*
%TD*%
D18*
%TO.P,R9,2*%
%TO.N,POWER-IN-*%
X89177000Y-368062000D03*
D19*
%TO.P,R9,1*%
%TO.N,sheet8*%
X89177000Y-360442000D03*
%TD*%
D18*
%TO.P,R8,2*%
%TO.N,POWER-IN-*%
X86637000Y-368062000D03*
D19*
%TO.P,R8,1*%
%TO.N,sheet7*%
X86637000Y-360442000D03*
%TD*%
D18*
%TO.P,R7,2*%
%TO.N,POWER-IN-*%
X106957000Y-370602000D03*
D19*
%TO.P,R7,1*%
%TO.N,sheet6*%
X106957000Y-378222000D03*
%TD*%
D18*
%TO.P,R5,2*%
%TO.N,POWER-IN-*%
X104417000Y-370602000D03*
D19*
%TO.P,R5,1*%
%TO.N,sheet5*%
X104417000Y-378222000D03*
%TD*%
D18*
%TO.P,R4,2*%
%TO.N,POWER-IN-*%
X101877000Y-370602000D03*
D19*
%TO.P,R4,1*%
%TO.N,sheet4*%
X101877000Y-378222000D03*
%TD*%
D18*
%TO.P,R3,2*%
%TO.N,POWER-IN-*%
X99337000Y-370602000D03*
D19*
%TO.P,R3,1*%
%TO.N,sheet3*%
X99337000Y-378222000D03*
%TD*%
D18*
%TO.P,R2,2*%
%TO.N,POWER-IN-*%
X96797000Y-370602000D03*
D19*
%TO.P,R2,1*%
%TO.N,sheet2*%
X96797000Y-378222000D03*
%TD*%
D20*
%TO.P,Q11,3*%
%TO.N,POWER-IN-*%
X94511000Y-331486000D03*
%TO.P,Q11,2*%
%TO.N,Net-(Q11-Pad2)*%
X97051000Y-331486000D03*
D21*
%TO.P,Q11,1*%
%TO.N,sheet10*%
X99591000Y-331486000D03*
%TD*%
D20*
%TO.P,Q10,3*%
%TO.N,POWER-IN-*%
X83335000Y-331486000D03*
%TO.P,Q10,2*%
%TO.N,Net-(Q10-Pad2)*%
X85875000Y-331486000D03*
D21*
%TO.P,Q10,1*%
%TO.N,sheet9*%
X88415000Y-331486000D03*
%TD*%
D20*
%TO.P,Q9,3*%
%TO.N,POWER-IN-*%
X72413000Y-331486000D03*
%TO.P,Q9,2*%
%TO.N,Net-(Q9-Pad2)*%
X74953000Y-331486000D03*
D21*
%TO.P,Q9,1*%
%TO.N,sheet8*%
X77493000Y-331486000D03*
%TD*%
D20*
%TO.P,Q8,3*%
%TO.N,POWER-IN-*%
X61491000Y-331486000D03*
%TO.P,Q8,2*%
%TO.N,Net-(Q8-Pad2)*%
X64031000Y-331486000D03*
D21*
%TO.P,Q8,1*%
%TO.N,sheet7*%
X66571000Y-331486000D03*
%TD*%
D20*
%TO.P,Q7,3*%
%TO.N,POWER-IN-*%
X50315000Y-331486000D03*
%TO.P,Q7,2*%
%TO.N,Net-(Q7-Pad2)*%
X52855000Y-331486000D03*
D21*
%TO.P,Q7,1*%
%TO.N,sheet6*%
X55395000Y-331486000D03*
%TD*%
D20*
%TO.P,Q5,3*%
%TO.N,POWER-IN-*%
X91209000Y-308880000D03*
%TO.P,Q5,2*%
%TO.N,Net-(Q5-Pad2)*%
X93749000Y-308880000D03*
D21*
%TO.P,Q5,1*%
%TO.N,sheet5*%
X96289000Y-308880000D03*
%TD*%
D20*
%TO.P,Q4,3*%
%TO.N,POWER-IN-*%
X79779000Y-308880000D03*
%TO.P,Q4,2*%
%TO.N,Net-(Q4-Pad2)*%
X82319000Y-308880000D03*
D21*
%TO.P,Q4,1*%
%TO.N,sheet4*%
X84859000Y-308880000D03*
%TD*%
D20*
%TO.P,Q3,3*%
%TO.N,POWER-IN-*%
X68238000Y-308881000D03*
%TO.P,Q3,2*%
%TO.N,Net-(Q3-Pad2)*%
X70778000Y-308881000D03*
D21*
%TO.P,Q3,1*%
%TO.N,sheet3*%
X73318000Y-308881000D03*
%TD*%
D20*
%TO.P,Q2,3*%
%TO.N,POWER-IN-*%
X57099000Y-308939000D03*
%TO.P,Q2,2*%
%TO.N,Net-(Q2-Pad2)*%
X59639000Y-308939000D03*
D21*
%TO.P,Q2,1*%
%TO.N,sheet2*%
X62179000Y-308939000D03*
%TD*%
D22*
%TO.P,U30,4*%
%TO.N,Net-(J8-Pad1)*%
X116416000Y-278135000D03*
%TO.P,U30,3*%
X117416000Y-278135000D03*
%TO.P,U30,2*%
X118416000Y-278135000D03*
%TO.P,U30,1*%
X119416000Y-278135000D03*
D23*
%TO.P,U30,MP*%
%TO.N,N/C*%
X113616000Y-275435000D03*
X122216000Y-275435000D03*
%TD*%
D24*
%TO.P,U21,1*%
%TO.N,POWER-IN+*%
X60983000Y-378222000D03*
D25*
%TO.P,U21,0*%
%TO.N,Net-(U21-Pad0)*%
X56183000Y-378722000D03*
X65783000Y-378722000D03*
D26*
%TO.P,U21,2*%
%TO.N,POWER-IN-*%
X60983000Y-372222000D03*
%TO.P,U21,0*%
%TO.N,Net-(U21-Pad0)*%
X60983000Y-381472000D03*
%TD*%
D27*
%TO.P,U11,30*%
%TO.N,Net-(U11-Pad30)*%
X76477000Y-357140000D03*
%TO.P,U11,29*%
%TO.N,Net-(U11-Pad29)*%
X79017000Y-357140000D03*
%TO.P,U11,28*%
%TO.N,Net-(U11-Pad28)*%
X81557000Y-357140000D03*
%TO.P,U11,27*%
%TO.N,Net-(U11-Pad27)*%
X84097000Y-357140000D03*
%TO.P,U11,26*%
%TO.N,sheet7*%
X86637000Y-357140000D03*
%TO.P,U11,25*%
%TO.N,sheet8*%
X89177000Y-357140000D03*
%TO.P,U11,24*%
%TO.N,sheet9*%
X91717000Y-357140000D03*
%TO.P,U11,23*%
%TO.N,sheet10*%
X94257000Y-357140000D03*
%TO.P,U11,22*%
%TO.N,Net-(U11-Pad22)*%
X96797000Y-357140000D03*
%TO.P,U11,21*%
%TO.N,Net-(U11-Pad21)*%
X99337000Y-357140000D03*
%TO.P,U11,20*%
%TO.N,Net-(U11-Pad20)*%
X101877000Y-357140000D03*
%TO.P,U11,19*%
%TO.N,Net-(U11-Pad19)*%
X104417000Y-357140000D03*
%TO.P,U11,18*%
%TO.N,Net-(U11-Pad18)*%
X106957000Y-357140000D03*
%TO.P,U11,17*%
%TO.N,POWER-IN-*%
X109497000Y-357140000D03*
%TO.P,U11,16*%
%TO.N,Net-(U11-Pad16)*%
X112037000Y-357140000D03*
%TO.P,U11,15*%
%TO.N,+5V*%
X112037000Y-382032000D03*
%TO.P,U11,14*%
%TO.N,POWER-IN-*%
X109497000Y-382032000D03*
X109497000Y-382032000D03*
%TO.P,U11,13*%
%TO.N,sheet6*%
X106957000Y-382032000D03*
%TO.P,U11,12*%
%TO.N,sheet5*%
X104417000Y-382032000D03*
%TO.P,U11,11*%
%TO.N,sheet4*%
X101877000Y-382032000D03*
%TO.P,U11,10*%
%TO.N,sheet3*%
X99337000Y-382032000D03*
%TO.P,U11,9*%
%TO.N,sheet2*%
X96797000Y-382032000D03*
%TO.P,U11,8*%
%TO.N,sheet1*%
X94257000Y-382032000D03*
%TO.P,U11,7*%
%TO.N,Net-(U11-Pad7)*%
X91717000Y-382032000D03*
%TO.P,U11,6*%
%TO.N,Net-(U11-Pad6)*%
X89177000Y-382032000D03*
%TO.P,U11,5*%
%TO.N,Net-(U11-Pad5)*%
X86637000Y-382032000D03*
%TO.P,U11,4*%
%TO.N,Net-(U11-Pad4)*%
X84097000Y-382032000D03*
%TO.P,U11,3*%
%TO.N,Net-(U11-Pad3)*%
X81557000Y-382032000D03*
%TO.P,U11,2*%
%TO.N,Net-(U11-Pad2)*%
X79017000Y-382032000D03*
%TO.P,U11,1*%
%TO.N,Net-(U11-Pad1)*%
X76477000Y-382032000D03*
%TD*%
D28*
%TO.P,U10,1*%
%TO.N,+24V*%
X63523000Y-358156000D03*
D29*
%TO.P,U10,2*%
%TO.N,POWER-IN-*%
X60983000Y-358156000D03*
%TO.P,U10,3*%
%TO.N,+5V*%
X58443000Y-358156000D03*
%TD*%
D18*
%TO.P,R6,2*%
%TO.N,POWER-IN-*%
X41171000Y-367173000D03*
D19*
%TO.P,R6,1*%
%TO.N,Net-(D1-Pad2)*%
X41171000Y-374793000D03*
%TD*%
D18*
%TO.P,R1,2*%
%TO.N,POWER-IN-*%
X94257000Y-370602000D03*
D19*
%TO.P,R1,1*%
%TO.N,sheet1*%
X94257000Y-378222000D03*
%TD*%
D20*
%TO.P,Q6,3*%
%TO.N,+24V*%
X51459000Y-374259000D03*
%TO.P,Q6,2*%
%TO.N,POWER-IN+*%
X48919000Y-374259000D03*
D21*
%TO.P,Q6,1*%
%TO.N,Net-(D1-Pad2)*%
X46379000Y-374259000D03*
%TD*%
D20*
%TO.P,Q1,3*%
%TO.N,POWER-IN-*%
X45856000Y-308835000D03*
%TO.P,Q1,2*%
%TO.N,Net-(Q1-Pad2)*%
X48396000Y-308835000D03*
D21*
%TO.P,Q1,1*%
%TO.N,sheet1*%
X50936000Y-308835000D03*
%TD*%
D30*
%TO.P,Murata-Ceramic-Capacitor-50v1-22uF2,2*%
%TO.N,POWER-IN-*%
X58189000Y-367514000D03*
%TO.P,Murata-Ceramic-Capacitor-50v1-22uF2,1*%
%TO.N,+5V*%
X58189000Y-365014000D03*
%TD*%
%TO.P,Murata-Ceramic-Capacitor-50v1-22uF1,2*%
%TO.N,POWER-IN-*%
X64285000Y-365054000D03*
%TO.P,Murata-Ceramic-Capacitor-50v1-22uF1,1*%
%TO.N,+24V*%
X64285000Y-367554000D03*
%TD*%
D27*
%TO.P,J8,20*%
%TO.N,Net-(J8-Pad1)*%
X129600000Y-287156400D03*
%TO.P,J8,19*%
X129600000Y-282305000D03*
%TO.P,J8,18*%
X127060000Y-287156400D03*
%TO.P,J8,17*%
X127060000Y-282305000D03*
%TO.P,J8,16*%
X124520000Y-287156400D03*
%TO.P,J8,15*%
X124520000Y-282305000D03*
%TO.P,J8,14*%
X121980000Y-287156400D03*
%TO.P,J8,13*%
X121980000Y-282305000D03*
%TO.P,J8,12*%
X119440000Y-287156400D03*
%TO.P,J8,11*%
X119440000Y-282305000D03*
%TO.P,J8,10*%
X116900000Y-287156400D03*
%TO.P,J8,9*%
X116900000Y-282305000D03*
%TO.P,J8,8*%
X114360000Y-287156400D03*
%TO.P,J8,7*%
X114360000Y-282305000D03*
%TO.P,J8,6*%
X111820000Y-287156400D03*
%TO.P,J8,5*%
X111820000Y-282305000D03*
%TO.P,J8,4*%
X109280000Y-287156400D03*
%TO.P,J8,3*%
X109280000Y-282305000D03*
%TO.P,J8,2*%
X106740000Y-287156400D03*
D31*
%TO.P,J8,1*%
X106740000Y-282305000D03*
%TD*%
D32*
%TO.P,D1,2*%
%TO.N,Net-(D1-Pad2)*%
X44759000Y-380508000D03*
D33*
%TO.P,D1,1*%
%TO.N,+24V*%
X52379000Y-380508000D03*
%TD*%
D34*
%TO.N,Net-(U3-Pad1)*%
X151434000Y-380540000D03*
X151624500Y-360410500D03*
%TO.N,Net-(X28-PadL1.1)*%
X150390000Y-351023000D03*
%TD*%
D35*
%TO.N,Net-(D1-Pad2)*%
X45845000Y-374793000D02*
X46379000Y-374259000D01*
X41171000Y-374793000D02*
X45845000Y-374793000D01*
X46379000Y-378888000D02*
X44759000Y-380508000D01*
X46379000Y-374259000D02*
X46379000Y-378888000D01*
%TO.N,+24V*%
X52379000Y-375179000D02*
X51459000Y-374259000D01*
X52379000Y-380508000D02*
X52379000Y-375179000D01*
X61642001Y-370196999D02*
X64285000Y-367554000D01*
X55521001Y-370196999D02*
X61642001Y-370196999D01*
X51459000Y-374259000D02*
X55521001Y-370196999D01*
X62709999Y-365978999D02*
X64285000Y-367554000D01*
X62709999Y-358969001D02*
X62709999Y-365978999D01*
X63523000Y-358156000D02*
X62709999Y-358969001D01*
X123763000Y-372580762D02*
X123763000Y-358156000D01*
X112774761Y-383569001D02*
X123763000Y-372580762D01*
X75739239Y-383569001D02*
X112774761Y-383569001D01*
X64285000Y-372114762D02*
X75739239Y-383569001D01*
X64285000Y-367554000D02*
X64285000Y-372114762D01*
X123763000Y-358156000D02*
X129163000Y-358156000D01*
X129163000Y-358156000D02*
X129163000Y-313071000D01*
X123763000Y-313071000D02*
X123763000Y-358156000D01*
D36*
%TO.N,Net-(J8-Pad1)*%
X116416000Y-278135000D02*
X119416000Y-278135000D01*
X119416000Y-282281000D02*
X119440000Y-282305000D01*
X119416000Y-278135000D02*
X119416000Y-282281000D01*
X129600000Y-282305000D02*
X106740000Y-282305000D01*
X106740000Y-282305000D02*
X106740000Y-287156400D01*
X106740000Y-287156400D02*
X129600000Y-287156400D01*
D35*
%TO.N,+5V*%
X58189000Y-358410000D02*
X58443000Y-358156000D01*
X58189000Y-365014000D02*
X58189000Y-358410000D01*
D36*
%TO.N,Net-(Q1-Pad2)*%
X48537000Y-297469000D02*
X48537000Y-302869000D01*
X48537000Y-308694000D02*
X48396000Y-308835000D01*
X48537000Y-302869000D02*
X48537000Y-308694000D01*
D37*
%TO.N,sheet1*%
X94257000Y-382032000D02*
X94257000Y-378222000D01*
X50936000Y-326026002D02*
X50936000Y-308835000D01*
X49037490Y-327924512D02*
X50936000Y-326026002D01*
X49785839Y-332811010D02*
X49037490Y-332062661D01*
X52042997Y-332811010D02*
X49785839Y-332811010D01*
X72427989Y-353196002D02*
X52042997Y-332811010D01*
X49037490Y-332062661D02*
X49037490Y-327924512D01*
X72427989Y-356392989D02*
X72427989Y-353196002D01*
X94257000Y-378222000D02*
X72427989Y-356392989D01*
D36*
%TO.N,Net-(Q2-Pad2)*%
X59713000Y-297469000D02*
X59713000Y-302869000D01*
X59713000Y-308865000D02*
X59639000Y-308939000D01*
X59713000Y-302869000D02*
X59713000Y-308865000D01*
D37*
%TO.N,sheet2*%
X96797000Y-382032000D02*
X96797000Y-378222000D01*
D36*
%TO.N,Net-(Q3-Pad2)*%
X70889000Y-297469000D02*
X70889000Y-302869000D01*
X70889000Y-308770000D02*
X70778000Y-308881000D01*
X70889000Y-302869000D02*
X70889000Y-308770000D01*
D37*
%TO.N,sheet3*%
X99337000Y-382032000D02*
X99337000Y-378222000D01*
D36*
%TO.N,Net-(Q4-Pad2)*%
X82319000Y-297469000D02*
X82319000Y-302869000D01*
X82319000Y-302869000D02*
X82319000Y-308880000D01*
D37*
%TO.N,sheet4*%
X101877000Y-382032000D02*
X101877000Y-378222000D01*
D36*
%TO.N,Net-(Q5-Pad2)*%
X93495000Y-297469000D02*
X93495000Y-302869000D01*
X93495000Y-308626000D02*
X93749000Y-308880000D01*
X93495000Y-302869000D02*
X93495000Y-308626000D01*
D37*
%TO.N,sheet5*%
X104417000Y-382032000D02*
X104417000Y-378222000D01*
D35*
%TO.N,POWER-IN+*%
X48919000Y-380643002D02*
X48919000Y-374259000D01*
X56821999Y-382383001D02*
X50658999Y-382383001D01*
X50658999Y-382383001D02*
X48919000Y-380643002D01*
X60983000Y-378222000D02*
X56821999Y-382383001D01*
D37*
%TO.N,Net-(U3-Pad1)*%
X150143000Y-368880000D02*
X150143000Y-361892000D01*
X151624500Y-360410500D02*
X151688000Y-360347000D01*
X150143000Y-361892000D02*
X151624500Y-360410500D01*
X150143000Y-371880000D02*
X150143000Y-368880000D01*
X150143000Y-371880000D02*
X150143000Y-379249000D01*
X151434000Y-380540000D02*
X151434000Y-380540000D01*
X150143000Y-379249000D02*
X151434000Y-380540000D01*
%TO.N,sheet6*%
X72877999Y-355820001D02*
X89310998Y-372253000D01*
X72877999Y-348968999D02*
X72877999Y-355820001D01*
X55395000Y-331486000D02*
X72877999Y-348968999D01*
X100988000Y-372253000D02*
X106957000Y-378222000D01*
X89310998Y-372253000D02*
X100988000Y-372253000D01*
X106957000Y-382032000D02*
X106957000Y-378222000D01*
%TO.N,Net-(U21-Pad0)*%
X63258010Y-379196990D02*
X60983000Y-381472000D01*
X63258010Y-377486767D02*
X63258010Y-379196990D01*
X62218233Y-376446990D02*
X63258010Y-377486767D01*
X58458010Y-376446990D02*
X62218233Y-376446990D01*
X56183000Y-378722000D02*
X58458010Y-376446990D01*
X63033000Y-381472000D02*
X65783000Y-378722000D01*
X60983000Y-381472000D02*
X63033000Y-381472000D01*
D36*
%TO.N,Net-(Q7-Pad2)*%
X52855000Y-297469000D02*
X52855000Y-302869000D01*
X52855000Y-332068502D02*
X52855000Y-331486000D01*
X52855000Y-302869000D02*
X52855000Y-332068502D01*
%TO.N,Net-(Q8-Pad2)*%
X64031000Y-297469000D02*
X64031000Y-302869000D01*
X64031000Y-302869000D02*
X64031000Y-331486000D01*
D37*
%TO.N,sheet7*%
X86637000Y-360442000D02*
X86637000Y-357140000D01*
X86637000Y-352802000D02*
X86637000Y-357140000D01*
X66571000Y-332736000D02*
X86637000Y-352802000D01*
X66571000Y-331486000D02*
X66571000Y-332736000D01*
D36*
%TO.N,Net-(Q9-Pad2)*%
X74953000Y-297469000D02*
X74953000Y-302869000D01*
X74953000Y-302869000D02*
X74953000Y-331486000D01*
D37*
%TO.N,sheet8*%
X89177000Y-360442000D02*
X89177000Y-357140000D01*
X89177000Y-354519002D02*
X89177000Y-357140000D01*
X77493000Y-342835002D02*
X89177000Y-354519002D01*
X77493000Y-331486000D02*
X77493000Y-342835002D01*
D36*
%TO.N,Net-(Q10-Pad2)*%
X86383000Y-297469000D02*
X86383000Y-302869000D01*
X86461501Y-307359999D02*
X86461501Y-330899499D01*
X86383000Y-307281498D02*
X86461501Y-307359999D01*
X86461501Y-330899499D02*
X85875000Y-331486000D01*
X86383000Y-302869000D02*
X86383000Y-307281498D01*
D37*
%TO.N,sheet9*%
X91717000Y-360442000D02*
X91717000Y-357140000D01*
X90264001Y-355687001D02*
X91717000Y-357140000D01*
X90264001Y-333335001D02*
X90264001Y-355687001D01*
X88415000Y-331486000D02*
X90264001Y-333335001D01*
D36*
%TO.N,Net-(Q11-Pad2)*%
X97559000Y-297469000D02*
X97559000Y-302869000D01*
X97891501Y-330645499D02*
X97051000Y-331486000D01*
X97891501Y-303201501D02*
X97891501Y-330645499D01*
X97559000Y-302869000D02*
X97891501Y-303201501D01*
D37*
%TO.N,sheet10*%
X94257000Y-360442000D02*
X94257000Y-357140000D01*
X94257000Y-336820000D02*
X99591000Y-331486000D01*
X94257000Y-357140000D02*
X94257000Y-336820000D01*
D36*
%TO.N,Net-(U14-Pad1)*%
X145894000Y-283306000D02*
X147185000Y-282015000D01*
X147185000Y-284679000D02*
X147185000Y-283285000D01*
X145812000Y-283306000D02*
X145894000Y-283306000D01*
X137954000Y-283306000D02*
X143354000Y-283306000D01*
X147185000Y-283285000D02*
X147185000Y-282015000D01*
X145812000Y-283306000D02*
X147164000Y-283306000D01*
X145812000Y-283306000D02*
X147185000Y-284679000D01*
X143354000Y-283306000D02*
X145812000Y-283306000D01*
X147185000Y-282015000D02*
X147185000Y-281679000D01*
X147164000Y-283306000D02*
X147185000Y-283285000D01*
%TO.N,Net-(X25-PadL1.2)*%
X87121000Y-287434000D02*
X85258000Y-289297000D01*
X87121000Y-285318000D02*
X87121000Y-287434000D01*
%TO.N,Net-(X25-PadL1.1)*%
X90658000Y-289297000D02*
X90658000Y-285734998D01*
X90658000Y-285734998D02*
X87121000Y-282197998D01*
X87121000Y-282197998D02*
X87121000Y-279918000D01*
%TO.N,Net-(X28-PadL1.1)*%
X150390000Y-344273000D02*
X150390000Y-338873000D01*
X150390000Y-351023000D02*
X150390000Y-351023000D01*
X150390000Y-344273000D02*
X150390000Y-351023000D01*
%TD*%
D38*
X151904000Y-307131123D02*
X151900565Y-307166000D01*
X151914273Y-307305184D01*
X151954872Y-307439020D01*
X151979000Y-307484160D01*
X151979000Y-307674000D01*
X151981440Y-307698776D01*
X151988667Y-307722601D01*
X152000403Y-307744557D01*
X152016197Y-307763803D01*
X152035443Y-307779597D01*
X152057399Y-307791333D01*
X152081224Y-307798560D01*
X152106000Y-307801000D01*
X152295840Y-307801000D01*
X152340980Y-307825128D01*
X152474816Y-307865727D01*
X152614000Y-307879435D01*
X152648877Y-307876000D01*
X158889001Y-307876000D01*
X158889000Y-333634000D01*
X148244000Y-333634000D01*
X148244000Y-297843000D01*
X151904001Y-297843000D01*
X151904000Y-307131123D01*
%TA.AperFunction,NonConductor*%
D39*
G36*
X151904000Y-307131123D02*
G01*
X151900565Y-307166000D01*
X151914273Y-307305184D01*
X151954872Y-307439020D01*
X151979000Y-307484160D01*
X151979000Y-307674000D01*
X151981440Y-307698776D01*
X151988667Y-307722601D01*
X152000403Y-307744557D01*
X152016197Y-307763803D01*
X152035443Y-307779597D01*
X152057399Y-307791333D01*
X152081224Y-307798560D01*
X152106000Y-307801000D01*
X152295840Y-307801000D01*
X152340980Y-307825128D01*
X152474816Y-307865727D01*
X152614000Y-307879435D01*
X152648877Y-307876000D01*
X158889001Y-307876000D01*
X158889000Y-333634000D01*
X148244000Y-333634000D01*
X148244000Y-297843000D01*
X151904001Y-297843000D01*
X151904000Y-307131123D01*
G37*
%TD.AperFunction*%
M02*
